<svg width="45" height="53" viewBox="0 0 45 53" fill="none" xmlns="http://www.w3.org/2000/svg">
<path d="M22.5 30C19.1848 30 16.0054 28.683 13.6612 26.3388C11.317 23.9946 10 20.8152 10 17.5H15C15 19.4891 15.7902 21.3968 17.1967 22.8033C18.6032 24.2098 20.5109 25 22.5 25C24.4891 25 26.3968 24.2098 27.8033 22.8033C29.2098 21.3968 30 19.4891 30 17.5H35C35 20.8152 33.683 23.9946 31.3388 26.3388C28.9946 28.683 25.8152 30 22.5 30ZM22.5 5C24.4891 5 26.3968 5.79018 27.8033 7.1967C29.2098 8.60322 30 10.5109 30 12.5H15C15 10.5109 15.7902 8.60322 17.1967 7.1967C18.6032 5.79018 20.5109 5 22.5 5ZM40 12.5H35C35 10.8585 34.6767 9.23303 34.0485 7.71646C33.4203 6.19989 32.4996 4.8219 31.3388 3.66117C30.1781 2.50043 28.8001 1.57969 27.2835 0.951506C25.767 0.323322 24.1415 0 22.5 0C19.1848 0 16.0054 1.31696 13.6612 3.66117C11.317 6.00537 10 9.18479 10 12.5H5C2.225 12.5 0 14.725 0 17.5V47.5C0 48.8261 0.526784 50.0979 1.46447 51.0355C2.40215 51.9732 3.67392 52.5 5 52.5H40C41.3261 52.5 42.5979 51.9732 43.5355 51.0355C44.4732 50.0979 45 48.8261 45 47.5V17.5C45 16.1739 44.4732 14.9021 43.5355 13.9645C42.5979 13.0268 41.3261 12.5 40 12.5Z" fill="#6C4CFF"/>
</svg>
