<svg width="45" height="54" viewBox="0 0 45 54" fill="none" xmlns="http://www.w3.org/2000/svg">
<path d="M22.4986 0C17.1265 0 12.2599 0.440137 8.80644 1.13071C7.07945 1.47618 5.70089 1.89247 4.84643 2.29658C4.41908 2.49858 4.12819 2.70144 4.00058 2.82598L3.99898 2.8277L4.0007 2.82942C4.12832 2.95396 4.4192 3.15682 4.84655 3.35881C5.70101 3.76293 7.07957 4.17934 8.80656 4.52469C12.2599 5.21526 17.1264 5.6554 22.4986 5.6554C27.8709 5.6554 32.7374 5.21526 36.1909 4.52469C37.9178 4.17922 39.2964 3.76293 40.1509 3.35881C40.5782 3.15682 40.8691 2.95396 40.9967 2.82942L40.9983 2.8277L40.9966 2.82598C40.869 2.70144 40.5781 2.49858 40.1507 2.29658C39.2963 1.89247 37.9177 1.47606 36.1907 1.13071C32.7374 0.440137 27.8709 0 22.4986 0ZM12.6632 1.84415C13.7066 1.84415 14.7073 1.94778 15.4451 2.13223C16.1829 2.31668 16.5974 2.56685 16.5974 2.8277C16.5974 3.08855 16.1829 3.33872 15.4451 3.52317C14.7073 3.70762 13.7066 3.81125 12.6632 3.81125C11.6198 3.81125 10.6191 3.70762 9.88128 3.52317C9.14348 3.33872 8.72898 3.08855 8.72898 2.8277C8.72898 2.56685 9.14348 2.31668 9.88128 2.13223C10.6191 1.94778 11.6198 1.84415 12.6632 1.84415ZM3.42176 5.11371C2.89126 7.371 2.39738 9.63673 1.94029 11.91C3.98472 12.4395 6.04869 12.8904 8.12767 13.2618C8.49502 11.1468 8.95225 9.02786 9.51324 6.90463C9.12154 6.83738 8.7387 6.76779 8.37208 6.69439C6.53899 6.32802 5.03662 5.89649 3.90063 5.35923C3.73825 5.28275 3.5785 5.20082 3.42164 5.11359L3.42176 5.11371ZM41.5755 5.11371C41.4187 5.20086 41.259 5.28279 41.0967 5.35935C39.9607 5.89661 38.4581 6.32814 36.6252 6.69452C36.265 6.76668 35.8888 6.83492 35.5045 6.90106C36.1524 8.98544 36.6778 11.0852 37.097 13.1982C39.0971 12.8314 41.0829 12.3904 43.0504 11.8761C42.5951 9.61418 42.1035 7.35976 41.5755 5.11371ZM33.2891 7.23301C30.4535 7.59963 27.1543 7.8235 23.6051 7.86211V14.5254C27.3921 14.4711 31.1705 14.1518 34.9129 13.5698C34.4887 11.4387 33.9533 9.3255 33.2891 7.23301ZM11.7156 7.23399C11.1443 9.36644 10.681 11.4964 10.3109 13.6246C13.9797 14.1788 17.6821 14.4809 21.3922 14.5287V7.86223C17.8462 7.82363 14.5496 7.59999 11.7156 7.23399ZM1.34168 14.0299L0.663279 17.7291C16.4667 21.5324 30.1562 21.411 44.1095 17.7459L43.4973 14.0365C29.8781 17.577 15.4619 17.6983 1.34168 14.0299ZM44.4498 19.9529C42.384 20.4906 40.2996 20.9545 38.2006 21.3436C38.6501 27.1961 38.419 33.1302 37.7642 39.1077C40.0509 38.6401 42.288 38.0593 44.4606 37.3656C45.0701 33.6572 44.9973 30.8104 44.9973 26.4328C44.9973 24.5991 44.7797 22.3346 44.4498 19.9529ZM0.543041 19.9843C0.216135 22.3544 0 24.6071 0 26.4328C0 29.3582 0.57513 33.4686 1.28156 37.4245C3.32011 38.0171 5.38194 38.5264 7.46193 38.9512C6.90475 33.1094 6.72058 27.2412 7.1451 21.343C4.97835 20.9664 2.77975 20.5143 0.543041 19.9845V19.9843ZM9.33915 21.6987C8.92901 27.5972 9.13875 33.4868 9.72814 39.3795C13.5823 40.0504 17.4811 40.4338 21.3922 40.5266V22.7372C17.4586 22.6663 13.4537 22.3216 9.33915 21.6988V21.6987ZM36.0058 21.722C31.9036 22.3727 27.7585 22.7155 23.6051 22.7474V40.5467C27.6397 40.5253 31.624 40.1865 35.4864 39.5325C36.1761 33.5043 36.4358 27.5557 36.0058 21.7221V21.722ZM1.67941 39.8251L2.69861 43.747C15.5032 47.7291 30.4531 47.7338 42.7876 43.8371L43.8046 39.8704C30.7697 43.7268 15.7723 43.7235 1.67928 39.8249L1.67941 39.8251ZM3.0608 46.1771C3.52995 48.2603 3.87038 49.642 3.88501 49.7009C3.98238 49.9695 4.46211 50.491 5.47836 50.9758C6.41113 51.4203 7.71777 51.8299 9.26133 52.1688C8.99907 50.6247 8.75252 49.078 8.5217 47.5289C6.68334 47.1547 4.86145 46.7037 3.0608 46.1771ZM42.2018 46.3381C40.3658 46.8741 38.4823 47.3281 36.5646 47.7011C36.3166 49.1902 36.053 50.6768 35.7741 52.1605C37.3013 51.823 38.5938 51.4167 39.5189 50.9757C40.5487 50.4846 41.0314 49.9534 41.1197 49.6881C41.4916 48.5751 41.8523 47.4584 42.2018 46.3381ZM10.8246 47.9585C11.0611 49.5076 11.3129 51.0543 11.5799 52.5984C14.4859 53.0513 17.9146 53.3051 21.392 53.3496V48.961C17.8494 48.8818 14.3032 48.5479 10.8246 47.9585ZM34.2514 48.1089C30.7714 48.6601 27.1978 48.9507 23.6051 48.9781V53.3495C27.0916 53.3048 30.5289 53.0498 33.4399 52.5946C33.7257 51.1021 33.9962 49.6067 34.2515 48.1087L34.2514 48.1089Z" fill="#119A0E"/>
</svg>
