<svg width="50" height="53" viewBox="0 0 50 53" fill="none" xmlns="http://www.w3.org/2000/svg">
<path d="M49.4447 27.9694C49.4072 27.5231 49.2929 27.1406 48.9704 26.8181C48.8279 26.6756 48.6554 26.5669 48.4735 26.4862C48.1922 26.1281 47.7722 25.8825 47.2847 25.8675C46.8479 25.8562 46.4072 25.8806 45.9666 25.8956C46.171 25.2994 46.0679 24.5981 45.586 24.15C44.9954 23.5969 44.4085 23.0438 43.8141 22.4944C43.4691 22.1737 43.0247 22.005 42.5841 22.005C42.1566 22.005 41.7329 22.1625 41.401 22.4944C40.7654 23.1338 40.7185 24.2813 41.401 24.9113C41.7741 25.2544 42.1529 25.5919 42.5298 25.9312C41.2547 25.9444 39.9797 25.965 38.7047 25.9725C38.3897 25.9725 38.0766 25.9631 37.7616 25.9631C37.7316 25.5788 37.5741 25.2825 37.3323 24.9787C37.1016 24.6881 36.871 24.3956 36.6423 24.1069C36.4004 23.8031 35.9147 23.655 35.5435 23.655C35.1348 23.655 34.7373 23.8181 34.4485 24.1069C34.1598 24.3956 33.991 24.7931 33.991 25.2056C33.991 25.485 34.081 25.7119 34.2029 25.9256C32.6991 25.8956 31.1972 25.8563 29.6935 25.8206C29.6766 25.8206 29.6597 25.8206 29.6429 25.8206C29.6072 25.68 29.5697 25.5394 29.506 25.395C29.4029 25.1681 29.3016 24.945 29.2022 24.72C29.0504 24.3787 28.6379 24.1144 28.2929 24.0225C28.1616 23.9869 28.0285 23.9681 27.8935 23.9681C27.6254 23.9681 27.3591 24.0375 27.1266 24.1744C26.7891 24.3712 26.5322 24.7013 26.4291 25.08C26.3616 25.3294 26.3785 25.5544 26.4291 25.7756C24.3498 25.755 22.2685 25.7419 20.1891 25.7175C18.6291 25.6987 17.0691 25.6875 15.5147 25.6313C14.8679 25.6088 14.221 25.6012 13.5722 25.5844C13.5441 25.1456 13.5197 24.705 13.501 24.2663C13.4747 23.6025 13.4335 22.9369 13.4054 22.2694C13.3491 20.9662 13.2723 19.6669 13.2423 18.3637C13.2085 17.0944 13.2122 15.8269 13.2085 14.5575C13.201 13.365 13.2235 12.18 13.3547 10.995C13.4579 10.3744 13.6098 9.78375 13.831 9.19688C13.921 9.00938 14.0204 8.8275 14.1329 8.65312C14.1779 8.60437 14.2229 8.5575 14.2697 8.5125C14.2904 8.49937 14.311 8.48812 14.3298 8.47688C14.4854 8.42813 14.6429 8.38687 14.8022 8.35312C14.9935 8.34188 15.1829 8.34375 15.3722 8.355C15.6423 8.4075 15.9085 8.47875 16.1672 8.56875C16.3754 8.67375 16.5685 8.80125 16.7654 8.925C16.6248 9.30188 16.5404 9.68625 16.6304 10.1119C16.7204 10.53 16.9679 10.8469 17.2247 11.1656C17.5491 11.6344 17.8548 12.15 18.2973 12.5138C18.5579 12.7256 18.8429 12.93 19.1841 12.9825C19.5891 13.0387 19.9604 13.0313 20.3391 12.87C20.7741 12.6881 21.0966 12.495 21.4641 12.1912C21.9647 11.7787 22.366 11.2706 22.7635 10.755C23.176 10.2206 23.5548 9.65625 23.926 9.09562C24.241 8.625 24.5616 8.14875 24.8841 7.68563C25.1766 7.26188 25.5123 6.84937 25.7448 6.39C25.9266 6.0375 26.0485 5.65875 26.0522 5.26125C26.0597 4.25813 25.1354 3.72 24.2729 3.53062C23.641 3.39 23.0072 3.2625 22.3829 3.08813C22.2572 3.05438 22.1316 3.0375 22.006 3.0375C21.7866 3.0375 21.5729 3.08625 21.3779 3.17812C21.2804 3.16687 21.1829 3.19313 21.0854 3.20062C20.9579 2.90062 20.7647 2.62688 20.4647 2.45813C19.8085 2.08688 19.2216 1.60688 18.571 1.21875C17.8997 0.81375 17.116 0.5325 16.3585 0.324375C15.586 0.1125 14.7535 0.028125 13.9566 0.00562504C13.9097 0.00187504 13.8591 0 13.8066 0C13.0229 0 12.2147 0.159375 11.4797 0.414375C11.0335 0.56625 10.606 0.744375 10.1804 0.9375C9.65537 1.17562 9.211 1.55062 8.76475 1.90687C8.48912 2.12625 8.26412 2.40375 8.041 2.67563C7.72975 3.05438 7.43538 3.45562 7.15788 3.86437C6.95725 4.15687 6.76788 4.45687 6.586 4.7625C6.26162 5.31187 6.06475 5.95875 5.89413 6.57C5.66725 7.3875 5.55287 8.235 5.47037 9.07687C5.1835 12.0806 5.29225 15.1144 5.2885 18.1294C5.28475 19.5806 5.2735 21.0375 5.25475 22.4925C5.2435 23.1863 5.236 23.8819 5.25475 24.5756C5.26038 24.8719 5.26225 25.17 5.27162 25.4662C5.191 25.4644 5.1085 25.4663 5.02788 25.4644C4.54038 25.4569 4.05288 25.4494 3.56538 25.4494C3.1135 25.4494 2.6635 25.455 2.2135 25.4719C1.87787 25.485 1.57975 25.6163 1.321 25.7963C1.05475 25.8769 0.801625 26.0006 0.602875 26.1994C0.261625 26.5406 0.141625 26.9419 0.10225 27.4106C0.0609998 27.8887 0.0235001 28.365 0.00475011 28.8469C-0.0139999 29.3813 0.0235001 29.88 0.104125 30.4106C0.301 31.7381 1.37537 32.6231 2.60537 32.9719C2.566 34.275 2.59975 35.5894 2.761 36.885C2.8585 37.665 2.96538 38.4488 3.09475 39.2288C3.21288 39.93 3.31412 40.6294 3.5335 41.3081C3.79037 42.1106 4.22725 42.7894 4.7335 43.4512C5.26038 44.1375 5.80975 44.8106 6.50163 45.345C6.69475 45.4931 6.89912 45.6281 7.09787 45.7669C6.80912 46.4025 6.52038 47.04 6.26538 47.6869C6.07975 48.1556 6.016 48.6562 5.95788 49.1531C5.92788 49.3838 5.97663 49.725 6.02913 49.9331C6.08913 50.1825 6.1735 50.4338 6.2935 50.6569C6.59725 51.225 7.0885 51.6338 7.63412 51.9562C8.38412 52.3988 9.25225 52.5056 10.1035 52.4306C10.6454 52.3819 11.1441 52.2863 11.6372 52.0481C12.2616 51.7481 12.7585 51.3281 13.1635 50.7675C13.7054 50.025 13.9397 49.0819 14.2847 48.2344C14.3054 48.1819 14.2866 48.1162 14.2979 48.0581C14.6691 48.0694 15.0385 48.0769 15.4022 48.0863C16.9022 48.1237 18.4023 48.1613 19.9023 48.2025C22.831 48.2831 25.7541 48.4519 28.6847 48.4331C30.181 48.4219 31.6735 48.4031 33.166 48.3956C34.3923 48.39 35.6204 48.2512 36.841 48.1144C36.8635 48.5306 36.901 48.9431 37.0041 49.3463C37.1222 49.815 37.3716 50.2706 37.6285 50.6794C37.8366 51.0094 38.0972 51.3112 38.3972 51.5588C39.3254 52.3237 40.4841 52.6237 41.6729 52.4531C42.4791 52.3387 43.1916 51.9112 43.801 51.3881C44.191 51.0544 44.4516 50.6044 44.6447 50.1375C44.7704 49.8338 44.8791 49.5431 44.8941 49.2019C44.9391 48.3806 44.6522 47.6606 44.2247 46.9781C44.0129 46.6406 43.7973 46.3106 43.6079 45.9619C43.5835 45.9169 43.5329 45.9 43.5047 45.8587C43.681 45.7087 43.8629 45.5662 44.0297 45.405C44.3672 45.075 44.6541 44.6737 44.9279 44.2912C45.1285 44.0175 45.3179 43.7194 45.4697 43.4194C45.901 42.5831 46.2535 41.7187 46.5047 40.8169C46.7691 39.8812 46.876 38.8856 46.9772 37.9237C47.1104 36.6319 47.2116 35.3231 47.1666 34.02C47.551 33.8681 47.9298 33.7069 48.2841 33.495C48.6066 33.3094 49.0266 32.9381 49.201 32.6044C49.3979 32.2181 49.4879 31.9181 49.5347 31.4906C49.5572 31.2825 49.5647 31.0781 49.5647 30.8662C49.5722 29.8969 49.5272 28.935 49.4447 27.9694ZM46.3041 31.1663C46.3173 31.1494 46.3304 31.1325 46.3416 31.1156V31.1231C46.3304 31.1381 46.3173 31.1531 46.3041 31.1663ZM46.4654 30.9281C46.4804 30.8925 46.4954 30.8569 46.5104 30.8212C46.4991 30.8569 46.4841 30.8906 46.4691 30.9244L46.4654 30.9281ZM22.2104 5.98312C22.2235 5.985 22.2366 5.985 22.2498 5.98687C22.2366 5.98687 22.2235 5.985 22.2104 5.98312C22.2385 5.985 22.2666 5.98875 22.2929 5.9925C22.3097 5.99438 22.3266 5.99625 22.3435 5.99812C22.3266 5.99625 22.3116 5.99438 22.2948 5.9925C22.3679 6.00375 22.4391 6.01312 22.5122 6.02437C22.3172 6.30375 22.126 6.58313 21.9385 6.86812C21.3722 7.71938 20.8416 8.58563 20.2304 9.40688C20.0879 9.57938 19.9397 9.74625 19.7804 9.90563C19.7372 9.84562 19.6922 9.78563 19.6491 9.72563C19.7485 9.57375 19.8479 9.42188 19.9379 9.26625C20.1685 8.86875 20.4029 8.475 20.6579 8.09625C21.1472 7.37062 21.6798 6.67875 22.2104 5.98312ZM8.17787 13.5244C8.19662 12.0506 8.24537 10.5844 8.4085 9.11812C8.47038 8.71125 8.53788 8.31 8.63163 7.90688C8.72913 7.48125 8.881 7.06125 9.04037 6.65062C9.26162 6.18937 9.55037 5.77688 9.85413 5.36812C10.1823 4.95375 10.5216 4.55813 10.9135 4.19625C11.1629 4.02 11.4179 3.86438 11.6935 3.72563C12.2204 3.52688 12.7547 3.375 13.306 3.27375C13.8066 3.23625 14.2998 3.24187 14.8022 3.29437C15.4697 3.405 16.1016 3.57938 16.7316 3.82313C17.0991 3.99375 17.4366 4.18875 17.7666 4.425C18.1341 4.68938 18.4904 4.95188 18.8804 5.17875C18.9048 5.19375 18.9329 5.19187 18.9591 5.205C18.7173 5.55375 18.4885 5.91 18.2579 6.26813C17.2979 5.7075 16.231 5.34375 15.1341 5.34375C14.746 5.34375 14.356 5.38687 13.966 5.4825C13.6116 5.5725 13.2516 5.73 12.9329 5.90438C12.4904 6.14813 12.1491 6.54938 11.8604 6.95438C11.4329 7.545 11.1835 8.28 10.9641 8.96625C10.5141 10.3781 10.4954 11.895 10.4523 13.3631C10.411 14.73 10.4485 16.0931 10.456 17.4581C10.4635 18.9206 10.5816 20.3775 10.6079 21.84C10.6341 23.0644 10.6266 24.2906 10.6491 25.5169C9.856 25.5094 9.05912 25.5019 8.266 25.4925C8.22662 24.4913 8.2135 23.49 8.20037 22.4925C8.17787 20.9925 8.16663 19.4925 8.16663 17.9925C8.16288 16.5037 8.16287 15.015 8.17787 13.5244ZM3.40225 30.0244C3.42288 30.0506 3.4435 30.0787 3.466 30.105C3.4435 30.0806 3.42288 30.0544 3.40413 30.0262L3.40225 30.0244ZM3.331 29.9044C3.31975 29.88 3.3085 29.8556 3.29912 29.8312C3.31037 29.8537 3.31975 29.88 3.331 29.9044ZM9.06475 49.185H9.0685C9.06662 49.1869 9.06475 49.185 9.06475 49.185ZM9.10975 49.2075C9.15475 49.2262 9.19975 49.2431 9.24475 49.2619C9.19787 49.245 9.15287 49.2281 9.10975 49.2075ZM10.8816 48.5138C10.7954 48.69 10.7016 48.8606 10.5929 49.0238C10.5779 49.0406 10.5629 49.0556 10.546 49.0725C10.4372 49.1419 10.3266 49.2056 10.2122 49.2656C10.1691 49.2788 10.126 49.29 10.081 49.3013C9.84475 49.32 9.61225 49.3219 9.37787 49.3088C9.36475 49.305 9.34975 49.3013 9.33663 49.2975C9.25975 49.2563 9.18475 49.215 9.11162 49.1681C9.1585 48.9469 9.22038 48.7313 9.29725 48.5194C9.49225 48.1031 9.691 47.6906 9.88975 47.2763C10.2029 47.4 10.5179 47.5181 10.8385 47.6156C10.951 47.6494 11.0691 47.6662 11.1835 47.6944C11.0822 47.9644 10.9847 48.24 10.8816 48.5138ZM42.1285 49.0762C42.1022 49.1287 42.0741 49.1775 42.0441 49.2281C41.9804 49.2937 41.9147 49.3556 41.8472 49.4156C41.7891 49.4531 41.7291 49.4869 41.6691 49.5169C41.5379 49.5638 41.4085 49.605 41.2754 49.635C41.1891 49.6369 41.1029 49.6331 41.0185 49.6275C40.8929 49.5975 40.7747 49.5619 40.6548 49.5206C40.5872 49.485 40.5197 49.4456 40.4541 49.4044C40.3923 49.3481 40.3323 49.29 40.276 49.23C40.1916 49.1006 40.1166 48.9675 40.0473 48.8288C40.0098 48.7163 39.9779 48.6056 39.9535 48.4894C39.9404 48.2681 39.9385 48.0469 39.9347 47.8237C39.9329 47.7562 39.9029 47.6962 39.8935 47.6306C40.3079 47.5275 40.7129 47.3981 41.1066 47.2406C41.1291 47.2875 41.1291 47.3512 41.1591 47.3906C41.506 47.8387 41.8641 48.3 42.1248 48.8063C42.1398 48.8569 42.1547 48.9075 42.1679 48.96C42.1547 48.9994 42.1416 49.0387 42.1285 49.0762ZM43.2479 41.415C43.2948 41.3044 43.3416 41.1919 43.3885 41.0812C43.3866 41.085 43.3866 41.0887 43.3848 41.0925C43.3398 41.1994 43.2929 41.3062 43.2479 41.415ZM44.0804 36.1012C44.0654 37.0088 44.0448 37.9237 43.9491 38.8237C43.8347 39.5869 43.6772 40.3556 43.3904 41.0756C43.1016 41.7281 42.7754 42.3356 42.3666 42.9169C42.0816 43.2562 41.7723 43.5619 41.4347 43.8506C41.0185 44.1431 40.5797 44.3812 40.1166 44.5912C39.3404 44.8725 38.551 45.0375 37.741 45.1594C36.4041 45.3225 35.0597 45.4594 33.7154 45.5531C32.2604 45.6562 30.7904 45.6394 29.3297 45.6506C26.3935 45.6731 23.4516 45.5944 20.5191 45.48C19.186 45.4312 17.8529 45.3731 16.5235 45.3281C15.331 45.2869 14.1347 45.2194 12.9516 45.0825C12.2485 44.9606 11.581 44.7769 10.9135 44.5256C10.1091 44.1581 9.34412 43.7081 8.62037 43.1981C8.146 42.7894 7.73163 42.3394 7.336 41.8519C7.06225 41.4769 6.8035 41.0944 6.59912 40.6781C6.34975 39.9675 6.25975 39.2231 6.14725 38.4769C6.04975 37.7981 5.9335 37.1213 5.83413 36.4406C5.701 35.2425 5.72725 34.0519 5.776 32.8462C5.80412 32.2725 5.44975 31.7794 4.97162 31.5019C4.89475 30.9263 4.48225 30.4163 3.8935 30.2513C3.82413 30.2325 3.75662 30.2119 3.691 30.1894C3.631 30.1575 3.571 30.1238 3.51475 30.0881C3.47163 30.0469 3.43038 30.0056 3.38913 29.9644V29.9625C3.35725 29.5125 3.37788 29.0644 3.41538 28.6144C4.56288 28.5675 5.70663 28.515 6.85788 28.5263C7.64538 28.5375 8.43287 28.5338 9.22037 28.5338C9.90662 28.5338 10.5947 28.5337 11.2847 28.5375C12.7997 28.5487 14.3147 28.6125 15.8298 28.6594C17.3972 28.7119 18.9704 28.7269 20.5416 28.7156C23.6972 28.7006 26.851 28.6744 30.0029 28.7794C31.5141 28.8281 33.0291 28.8863 34.5404 28.9163C36.0816 28.9463 37.6229 28.9388 39.1641 28.9425C40.5929 28.95 42.0272 28.9613 43.456 28.95C44.3935 28.9444 45.3329 28.92 46.2704 28.9181C46.3285 29.6138 46.3735 30.3075 46.3491 31.0031C46.2216 31.08 46.0923 31.1513 45.9554 31.2169C45.8391 31.2619 45.721 31.3069 45.6047 31.3538C45.2185 31.5056 44.911 31.6838 44.6916 32.0569C44.6279 32.1656 44.6054 32.2913 44.5697 32.4131C44.221 32.7038 43.9791 33.1162 44.0147 33.5831C44.0804 34.4194 44.0954 35.2575 44.0804 36.1012ZM22.2948 5.9925C22.2798 5.99063 22.2647 5.98875 22.2498 5.98687C22.2629 5.98875 22.2779 5.99063 22.2948 5.9925ZM24.8016 17.5575C24.4529 17.7619 24.0291 17.8162 23.6391 17.7094C23.2941 17.6119 22.8929 17.3531 22.7372 17.0156C22.5741 16.6556 22.4447 16.2844 22.2948 15.9169C22.1654 15.5981 22.0173 15.2775 21.9385 14.94C21.7679 14.19 22.1579 13.4138 22.9229 13.2019C23.0448 13.1681 23.1704 13.1512 23.296 13.1512C23.5472 13.1512 23.7948 13.2169 24.0104 13.3463C24.3516 13.5431 24.526 13.8338 24.661 14.1881C24.676 14.2275 24.6891 14.2687 24.7041 14.3081C24.736 14.3981 24.7716 14.4881 24.8073 14.5763C24.9104 14.8069 25.0191 15.0262 25.1523 15.2381C25.486 15.6375 25.6397 16.1306 25.4972 16.6537C25.3923 17.0344 25.141 17.3606 24.8016 17.5575ZM24.2747 20.5969C24.1341 20.2144 24.2372 19.71 24.4379 19.3669C24.646 19.0106 24.991 18.7463 25.3885 18.6356C25.5273 18.5963 25.6697 18.5775 25.8122 18.5775C26.0935 18.5775 26.3748 18.6525 26.6185 18.795C26.9972 19.0181 27.2016 19.3444 27.3497 19.7494C27.5354 20.2612 27.7173 20.7788 27.8991 21.2944C28.1823 22.1044 27.5841 23.0138 26.8041 23.2256C26.3991 23.34 25.9585 23.2819 25.5929 23.07C25.2066 22.8431 25.0322 22.5281 24.8729 22.1306C24.6648 21.6225 24.4679 21.1106 24.2747 20.5969ZM26.1685 7.88625C26.4629 7.59187 26.8641 7.44 27.2635 7.44C27.6572 7.44 28.051 7.58625 28.3416 7.88625C28.6473 8.19562 28.9397 8.53312 29.2641 8.82375C29.2791 8.83312 29.2941 8.8425 29.311 8.85C30.0048 9.30375 30.2916 10.1906 29.8566 10.9331C29.656 11.2744 29.326 11.5275 28.9473 11.6306C28.5872 11.7319 28.0904 11.7056 27.7735 11.4787C27.1941 11.055 26.6748 10.5619 26.1685 10.0556C25.576 9.46688 25.5779 8.47687 26.1685 7.88625ZM31.951 13.6594C32.2416 13.1625 32.8116 12.855 33.3797 12.855C33.6516 12.855 33.9235 12.9263 34.1654 13.0819C34.5366 13.32 34.9079 13.5656 35.2716 13.8094C35.6241 14.0512 35.8923 14.3437 36.0066 14.7637C36.1173 15.1762 36.0591 15.6244 35.8435 15.9919C35.4085 16.7344 34.4072 17.0138 33.6647 16.5637C33.286 16.3369 32.9072 16.1062 32.536 15.8737C31.7879 15.405 31.4972 14.4356 31.951 13.6594ZM37.0173 20.1206C36.3704 19.5562 36.4416 18.4725 37.0173 17.9006C37.3247 17.5912 37.7054 17.4487 38.0897 17.4487C38.4966 17.4487 38.9072 17.6081 39.2372 17.9006C39.6104 18.2306 39.9779 18.5719 40.3623 18.8962C40.3735 18.9037 40.3848 18.9113 40.396 18.9188C40.741 19.1606 41.0016 19.4381 41.116 19.8544C41.2266 20.2594 41.1723 20.7019 40.9604 21.0656C40.7523 21.4144 40.4147 21.675 40.0247 21.7819C39.6572 21.885 39.1341 21.8644 38.8172 21.6263C38.191 21.1575 37.6079 20.6344 37.0173 20.1206ZM29.5004 14.6325C29.8079 15.0356 30.1154 15.4388 30.4266 15.8419C30.5391 15.9844 30.6516 16.125 30.7698 16.2638C31.0529 16.59 31.231 16.9312 31.231 17.3737C31.231 17.79 31.0641 18.1912 30.7698 18.4837C30.4773 18.7762 30.076 18.9431 29.6597 18.9431C29.2773 18.9431 28.8029 18.7875 28.5498 18.4837C28.0229 17.8519 27.5147 17.2069 27.0047 16.5562C26.8079 16.3594 26.671 16.125 26.596 15.8569C26.521 15.5756 26.521 15.2925 26.596 15.0112C26.7066 14.6137 26.971 14.2725 27.3272 14.0644C27.5729 13.92 27.8541 13.8469 28.1354 13.8469C28.2741 13.8469 28.4129 13.8656 28.5479 13.9012C28.9866 14.0231 29.236 14.2875 29.5004 14.6325ZM31.0304 20.5444C31.141 20.1469 31.4054 19.8019 31.7616 19.59C32.0054 19.4475 32.2866 19.3744 32.5679 19.3744C32.7104 19.3744 32.8529 19.3931 32.9916 19.4306C33.4266 19.5525 33.6779 19.8169 33.9422 20.1619C34.1279 20.4112 34.3116 20.6606 34.4991 20.91C34.5329 20.9513 34.5666 20.9925 34.6004 21.0319C34.8797 21.3619 35.0616 21.7013 35.0616 22.1456C35.0616 22.5581 34.8948 22.9631 34.6004 23.2556C34.021 23.835 32.9485 23.895 32.3804 23.2556C31.9604 22.7812 31.5779 22.2713 31.1916 21.7706C30.946 21.45 30.931 20.9119 31.0304 20.5444ZM41.8679 35.4506C41.9166 36.825 41.8491 38.235 41.4329 39.5569C41.1479 40.4588 40.6941 41.3569 40.0116 42.0262C39.4472 42.5756 38.7722 43.0294 38.1216 43.4738C37.4279 43.9444 36.421 43.6069 36.0197 42.9244C35.626 42.2456 35.8154 41.1862 36.5691 40.8225C36.8616 40.6838 37.126 40.5169 37.3866 40.335C37.5891 40.17 37.7785 39.9975 37.951 39.8025C38.0766 39.6169 38.191 39.4275 38.2885 39.2288C38.4854 38.6719 38.6091 38.0962 38.6991 37.5112C38.7666 36.825 38.7235 36.135 38.6916 35.4506C38.6504 34.5806 39.4416 33.8606 40.2816 33.8606C41.1704 33.8606 41.8379 34.5844 41.8679 35.4506Z" fill="#0E4B9A"/>
</svg>
