<svg width="73" height="100" viewBox="0 0 73 100" fill="none" xmlns="http://www.w3.org/2000/svg">
<path d="M36.0727 0.0292417C38.2454 -0.326606 38.3688 2.65624 38.9618 4.03515C46.6057 21.8144 71.8547 44.6149 72.9279 62.2136C75.1059 97.9606 27.3712 114.366 6.40746 84.4175C-14.5747 54.4452 21.7163 30.7473 33.1836 5.72019C33.7635 4.45117 34.7397 0.246413 36.0727 0.0292417Z" fill="#0081C7"/>
<path d="M36.5062 84.2522C35.7001 84.2522 35.0507 84.0289 34.5581 83.5823C34.1102 83.0911 33.8863 82.4436 33.8863 81.6398V50.2248C33.8863 49.421 34.1102 48.7958 34.5581 48.3492C35.0507 47.858 35.7001 47.6124 36.5062 47.6124C37.2675 47.6124 37.8721 47.858 38.32 48.3492C38.8126 48.7958 39.0589 49.421 39.0589 50.2248V81.6398C39.0589 82.4436 38.8126 83.0911 38.32 83.5823C37.8721 84.0289 37.2675 84.2522 36.5062 84.2522ZM36.439 40.6462C35.4538 40.6462 34.6029 40.2889 33.8863 39.5744C33.1698 38.86 32.8115 37.9892 32.8115 36.9621C32.8115 35.8457 33.1698 34.9749 33.8863 34.3498C34.6477 33.6799 35.5209 33.345 36.5062 33.345C37.4467 33.345 38.2752 33.6799 38.9917 34.3498C39.7531 34.9749 40.1337 35.8457 40.1337 36.9621C40.1337 37.9892 39.7755 38.86 39.0589 39.5744C38.3424 40.2889 37.4691 40.6462 36.439 40.6462Z" fill="white"/>
</svg>
