<svg width="45" height="45" viewBox="0 0 45 45" fill="none" xmlns="http://www.w3.org/2000/svg">
<path d="M16.875 45C14.6625 45 12.7965 44.241 11.277 42.723C9.7575 41.205 8.9985 39.339 9 37.125C9 36.7875 9.04725 36.525 9.14175 36.3375C9.23625 36.15 9.2265 36 9.1125 35.8875C8.9985 35.775 8.8485 35.766 8.6625 35.8605C8.4765 35.955 8.214 36.0015 7.875 36C5.6625 36 3.7965 35.241 2.277 33.723C0.757502 32.205 -0.00149778 30.339 2.21893e-06 28.125C0.00150222 25.911 0.761252 24.045 2.27925 22.527C3.79725 21.009 5.6625 20.25 7.875 20.25C8.7375 20.25 9.525 20.3625 10.2375 20.5875C10.95 20.8125 11.625 21.15 12.2625 21.6L21.6 12.2625C21.15 11.625 20.8125 10.95 20.5875 10.2375C20.3625 9.525 20.25 8.7375 20.25 7.875C20.25 5.6625 21.0097 3.7965 22.5292 2.277C24.0487 0.757502 25.914 -0.00149778 28.125 2.21893e-06C30.336 0.00150222 32.202 0.761252 33.723 2.27925C35.244 3.79725 36.003 5.6625 36 7.875C36 8.2125 35.9535 8.475 35.8605 8.6625C35.7675 8.85 35.7765 9 35.8875 9.1125C35.9985 9.225 36.1485 9.23475 36.3375 9.14175C36.5265 9.04875 36.789 9.0015 37.125 9C39.3375 9 41.2035 9.75975 42.723 11.2793C44.2425 12.7988 45.0015 14.664 45 16.875C44.9985 19.086 44.2395 20.952 42.723 22.473C41.2065 23.994 39.3405 24.753 37.125 24.75C36.2625 24.75 35.475 24.6375 34.7625 24.4125C34.05 24.1875 33.375 23.85 32.7375 23.4L23.4 32.7375C23.85 33.375 24.1875 34.05 24.4125 34.7625C24.6375 35.475 24.75 36.2625 24.75 37.125C24.75 39.3375 23.991 41.2035 22.473 42.723C20.955 44.2425 19.089 45.0015 16.875 45Z" fill="#6C4CFF"/>
</svg>
