<svg width="32" height="45" viewBox="0 0 32 45" fill="none" xmlns="http://www.w3.org/2000/svg">
<path fill-rule="evenodd" clip-rule="evenodd" d="M3.45327 25.0706C4.53552 26.3936 7.28952 31.2953 7.87452 33.75H23.6245C24.2095 31.2975 26.9601 26.3959 28.0424 25.074C29.8917 22.8179 31.0559 20.0792 31.3971 17.1821C31.7337 14.2906 31.2303 11.3632 29.947 8.75025C28.6523 6.1174 26.638 3.90533 24.1375 2.37038C21.6159 0.818389 18.7127 -0.00227208 15.7518 4.72462e-06C12.7851 4.72462e-06 9.87814 0.821255 7.36602 2.36813C4.8649 3.90244 2.8498 6.11414 1.55427 8.74688C0.270302 11.3589 -0.234305 14.2853 0.100766 17.1765C0.437141 20.0644 1.59927 22.8015 3.45327 25.0706ZM16.8745 9L10.1245 19.125H14.6245V25.875L21.3745 15.75H16.8745V9Z" fill="#6C4CFF"/>
<path d="M7.87452 37.125C7.87452 36.8266 7.99304 36.5405 8.20402 36.3295C8.415 36.1185 8.70115 36 8.99952 36H22.4995C22.7979 36 23.084 36.1185 23.295 36.3295C23.506 36.5405 23.6245 36.8266 23.6245 37.125C23.6245 37.4234 23.506 37.7095 23.295 37.9205C23.084 38.1315 22.7979 38.25 22.4995 38.25H8.99952C8.70115 38.25 8.415 38.1315 8.20402 37.9205C7.99304 37.7095 7.87452 37.4234 7.87452 37.125ZM23.6245 40.5H7.87452V42.75C7.87452 43.3467 8.11157 43.919 8.53353 44.341C8.95548 44.7629 9.52778 45 10.1245 45H21.3745C21.9712 45 22.5435 44.7629 22.9655 44.341C23.3875 43.919 23.6245 43.3467 23.6245 42.75V40.5Z" fill="#6C4CFF"/>
</svg>
