<svg width="45" height="45" viewBox="0 0 45 45" fill="none" xmlns="http://www.w3.org/2000/svg">
<path fill-rule="evenodd" clip-rule="evenodd" d="M30.9684 1C32.2217 1.00004 33.4503 1.34904 34.5164 2.00791C35.5826 2.66677 36.4443 3.60948 37.005 4.73042L40.1234 10.965C40.6724 10.74 41.2124 10.4971 41.7434 10.2361C42.2774 9.96932 42.8956 9.92567 43.4619 10.1147C44.0281 10.3037 44.4961 10.71 44.7628 11.244C45.0296 11.7781 45.0732 12.3963 44.8842 12.9625C44.6951 13.5288 44.2889 13.9967 43.7548 14.2635C43.214 14.5042 42.6702 14.7382 42.1236 14.9655L44.2858 19.2921C44.7551 20.2302 44.9993 21.2648 44.9991 22.3138V27.9994C44.999 28.9491 44.7986 29.8881 44.4109 30.755C44.0232 31.6219 43.4569 32.3972 42.7491 33.0303V35.8743C42.7491 36.7694 42.3935 37.6278 41.7606 38.2607C41.1277 38.8936 40.2693 39.2492 39.3742 39.2492C38.4791 39.2492 37.6207 38.8936 36.9877 38.2607C36.3548 37.6278 35.9992 36.7694 35.9992 35.8743V34.7493H8.99981V35.8743C8.99981 36.7694 8.64424 37.6278 8.01132 38.2607C7.3784 38.8936 6.51997 39.2492 5.62488 39.2492C4.7298 39.2492 3.87137 38.8936 3.23845 38.2607C2.60553 37.6278 2.24995 36.7694 2.24995 35.8743V33.0303C0.868482 31.7929 0 29.9974 0 27.9994V22.3116C0.000420469 21.2641 0.244606 20.2311 0.713235 19.2944L2.85744 15.0015C2.31445 14.7735 1.77821 14.5282 1.24872 14.2657C0.717356 13.9955 0.31344 13.5273 0.124046 12.9621C-0.0653484 12.3969 -0.0250532 11.7798 0.236245 11.244C0.368225 10.9795 0.551041 10.7436 0.774246 10.5497C0.997451 10.3559 1.25667 10.2079 1.53708 10.1143C1.81749 10.0207 2.11361 9.98329 2.40849 10.0042C2.70338 10.0251 2.99126 10.1039 3.25568 10.2361C3.78817 10.4986 4.32816 10.7415 4.87565 10.965L7.99408 4.73267C8.55443 3.61131 9.41598 2.66814 10.4822 2.00887C11.5484 1.34959 12.7771 1.00025 14.0307 1H30.9684ZM12.3747 21.2496C11.4797 21.2496 10.6212 21.6051 9.98831 22.2381C9.35538 22.871 8.99981 23.7294 8.99981 24.6245C8.99981 25.5196 9.35538 26.378 9.98831 27.0109C10.6212 27.6439 11.4797 27.9994 12.3747 27.9994C13.2698 27.9994 14.1283 27.6439 14.7612 27.0109C15.3941 26.378 15.7497 25.5196 15.7497 24.6245C15.7497 23.7294 15.3941 22.871 14.7612 22.2381C14.1283 21.6051 13.2698 21.2496 12.3747 21.2496ZM32.6243 21.2496C31.7292 21.2496 30.8708 21.6051 30.2379 22.2381C29.605 22.871 29.2494 23.7294 29.2494 24.6245C29.2494 25.5196 29.605 26.378 30.2379 27.0109C30.8708 27.6439 31.7292 27.9994 32.6243 27.9994C33.5194 27.9994 34.3778 27.6439 35.0108 27.0109C35.6437 26.378 35.9992 25.5196 35.9992 24.6245C35.9992 23.7294 35.6437 22.871 35.0108 22.2381C34.3778 21.6051 33.5194 21.2496 32.6243 21.2496ZM14.0307 5.49991C13.6604 5.49985 13.2958 5.5912 12.9692 5.76586C12.6427 5.94052 12.3643 6.19308 12.1587 6.50114L12.0192 6.74413L9.16181 12.4545C12.6447 13.4985 17.3381 14.4997 22.4995 14.4997C27.3189 14.4997 31.7266 13.6267 35.1218 12.6615L35.835 12.4545L32.9798 6.74413C32.8142 6.41297 32.5695 6.12779 32.2673 5.91389C31.9651 5.69999 31.6147 5.56397 31.2473 5.51791L30.9706 5.49991H14.0307Z" fill="#6C4CFF"/>
</svg>
