<svg width="45" height="41" viewBox="0 0 45 41" fill="none" xmlns="http://www.w3.org/2000/svg">
<path d="M22.4016 0C17.5521 0 13.7826 1.87131e-07 10.8481 0.313954C7.88023 0.634186 5.52977 1.29767 3.65442 2.79628C1.72884 4.33674 0.828837 6.33977 0.403953 8.86605C-9.35654e-08 11.2772 0 14.3456 0 18.1716V18.5547C0 22.2844 9.35654e-08 24.8651 0.418605 26.7886C0.644651 27.8247 1.00047 28.7247 1.5593 29.5577C2.11186 30.3781 2.81512 31.0688 3.65442 31.7386C4.97512 32.7956 6.53233 33.434 8.37209 33.8316V39.2442C8.37234 39.5192 8.44484 39.7893 8.58232 40.0275C8.71981 40.2657 8.91747 40.4636 9.15549 40.6014C9.39352 40.7392 9.66357 40.812 9.93859 40.8125C10.2136 40.8131 10.484 40.7414 10.7226 40.6047C11.9491 39.9035 13.0353 39.1395 14.0295 38.4195L14.6658 37.957C15.3738 37.427 16.0969 36.9174 16.8342 36.4291C18.6007 35.2821 20.2877 34.5349 22.5 34.5349H22.5984C27.4479 34.5349 31.2174 34.5349 34.1519 34.2209C37.1198 33.9007 39.4702 33.2372 41.3456 31.7386C42.1828 31.0688 42.8881 30.3781 43.4386 29.5577C43.9995 28.7247 44.3553 27.8247 44.5814 26.7886C45 24.8651 45 22.2844 45 18.5547V18.1716C45 14.3456 45 11.2772 44.596 8.86814C44.1712 6.33977 43.2712 4.33674 41.3456 2.79628C39.4702 1.29558 37.1198 0.634186 34.1519 0.316047C31.2174 6.2377e-08 27.4479 0 22.5984 0H22.4016Z" fill="#6C4CFF"/>
</svg>
