<svg width="62" height="50" viewBox="0 0 62 50" fill="none" xmlns="http://www.w3.org/2000/svg">
<path d="M24.785 33.0467C29.3478 33.0467 33.0467 29.3478 33.0467 24.785C33.0467 20.2222 29.3478 16.5233 24.785 16.5233C20.2222 16.5233 16.5233 20.2222 16.5233 24.785C16.5233 29.3478 20.2222 33.0467 24.785 33.0467Z" fill="#0E4B9A"/>
<path d="M59.8971 36.7644L55.5597 29.742C54.7335 28.2962 54.9401 26.4373 55.9728 25.1981C58.6578 22.3065 58.6578 17.9691 55.9728 15.0775L54.1139 13.2187C53.7008 12.599 53.2877 12.3925 52.6681 12.3925H49.57V6.40279C52.0485 6.81588 54.527 7.84858 56.3859 9.70746C56.799 10.1205 57.4186 10.3271 57.8317 10.3271C58.2447 10.3271 58.8644 10.1205 59.2775 9.70746C60.1036 8.88129 60.1036 7.64204 59.2775 6.81588C56.1793 3.71775 52.255 2.06542 47.9177 2.06542H43.3737C42.1345 2.06542 41.3083 2.89158 41.3083 4.13083C41.3083 5.37008 42.1345 6.19625 43.3737 6.19625H45.4392V12.3925H42.341C41.7214 12.3925 41.3083 12.599 40.8952 13.0121L39.0364 14.871C36.3513 17.7626 36.3513 22.1 39.0364 24.9915C40.2756 26.2308 40.4822 28.0897 39.4495 29.5355L35.1121 36.7644C33.4597 39.4495 33.4597 42.5476 34.9055 45.2326C36.3513 47.9177 39.2429 49.57 42.341 49.57H52.6681C55.7662 49.57 58.4513 47.9177 60.1036 45.2326C61.5494 42.5476 61.3429 39.2429 59.8971 36.7644ZM42.1345 17.7626L43.3737 16.5233H51.6354L52.8747 17.7626C54.1139 19.0018 54.1139 20.8607 52.8747 22.1C50.6027 24.5785 50.1896 27.8831 51.4289 30.9812H43.3737C44.8195 28.0897 44.1999 24.5785 41.928 22.1C40.8952 21.0673 40.8953 19.0018 42.1345 17.7626Z" fill="#0E4B9A"/>
<path d="M31.3943 47.298C29.3289 43.5803 29.3289 39.0364 31.1878 35.3186C29.3289 36.5579 27.057 37.1775 24.785 37.1775C17.9691 37.1775 12.3925 31.6009 12.3925 24.785C12.3925 17.9691 17.9691 12.3925 24.785 12.3925C28.2962 12.3925 31.3943 13.8383 33.6663 16.1103C34.0794 14.6645 34.9055 13.2187 36.1448 12.186L38.0037 10.3271C38.4167 9.914 39.0364 9.50092 39.656 9.08783C38.0037 7.84858 37.1775 5.98971 37.1775 4.13083C37.1775 3.92429 37.1775 3.71775 37.1775 3.30467C33.4597 1.23925 29.1224 0 24.785 0C11.1532 0 0 11.1532 0 24.785C0 38.4167 11.1532 49.57 24.785 49.57C27.2635 49.57 29.742 49.1569 32.2205 48.3307C31.8074 48.1242 31.6009 47.7111 31.3943 47.298Z" fill="#0E4B9A"/>
</svg>
