<svg width="45" height="56" viewBox="0 0 45 56" fill="none" xmlns="http://www.w3.org/2000/svg">
<path d="M3.47885 0H3.43385C3.22491 0.00441706 3.0185 0.0466369 2.82462 0.124615C2.54425 0.235612 2.29775 0.417928 2.10954 0.653505C1.92132 0.889082 1.79791 1.16975 1.75154 1.46769C1.69615 1.79308 0 12.4442 0 17.3077C0 20.5962 1.53 23.5281 3.91154 25.425C4.77692 26.1208 5.19231 26.8754 5.19231 27.5054V29.2362C5.19231 29.2985 5.18885 29.3608 5.18192 29.4231C5.08846 30.3231 4.65923 34.3696 4.25423 38.5304C3.85615 42.6323 3.46154 47.0112 3.46154 48.4615C3.46154 50.2977 4.19093 52.0586 5.48926 53.3569C6.78759 54.6552 8.5485 55.3846 10.3846 55.3846C12.2207 55.3846 13.9816 54.6552 15.28 53.3569C16.5783 52.0586 17.3077 50.2977 17.3077 48.4615C17.3077 47.0077 16.9131 42.6323 16.515 38.5304C16.2191 35.4944 15.9098 32.4598 15.5873 29.4265L15.5769 29.2362V27.5054C15.5769 26.8719 15.9923 26.1208 16.8577 25.425C18.0775 24.4526 19.0626 23.218 19.7397 21.8127C20.4169 20.4074 20.7688 18.8676 20.7692 17.3077C20.7692 12.4338 19.0627 1.73423 19.0177 1.46423C18.9668 1.1389 18.8241 0.834833 18.6065 0.587737C18.3888 0.340641 18.1052 0.160768 17.7888 0.0692307C17.6437 0.0267389 17.4935 0.00346372 17.3423 0H17.2731H17.2765C16.8153 0.0036533 16.3742 0.189437 16.0494 0.51687C15.7246 0.844303 15.5423 1.28685 15.5423 1.74808V15.5942C15.5471 15.8192 15.5075 16.043 15.4258 16.2527C15.3441 16.4624 15.2219 16.654 15.0661 16.8165C14.9104 16.979 14.7242 17.1092 14.5181 17.1997C14.3121 17.2902 14.0902 17.3393 13.8652 17.344C13.6402 17.3488 13.4164 17.3092 13.2067 17.2275C12.997 17.1458 12.8054 17.0236 12.6429 16.8679C12.4805 16.7121 12.3502 16.5259 12.2597 16.3199C12.1692 16.1138 12.1202 15.8919 12.1154 15.6669V1.73077C12.1154 1.27174 11.933 0.831513 11.6085 0.506931C11.2839 0.182349 10.8436 0 10.3846 0C9.92559 0 9.48536 0.182349 9.16078 0.506931C8.8362 0.831513 8.65385 1.27174 8.65385 1.73077V15.5769L8.65731 15.6877C8.64491 16.1421 8.4525 16.573 8.1224 16.8856C7.7923 17.1982 7.35155 17.3668 6.89711 17.3544C6.44268 17.342 6.01178 17.1496 5.6992 16.8195C5.38663 16.4894 5.21799 16.0487 5.23039 15.5942V1.75154C5.23039 1.2876 5.04632 0.842613 4.7186 0.514236C4.39087 0.185858 3.94278 0.000916873 3.47885 0ZM25.9615 15.5769C25.9615 11.4457 27.6027 7.48361 30.5239 4.56237C33.4452 1.64114 37.4072 0 41.5385 0C41.9975 0 42.4377 0.182349 42.7623 0.506931C43.0869 0.831513 43.2692 1.27174 43.2692 1.73077V25.8854L43.3385 26.6608C43.6083 29.771 43.8713 32.8817 44.1277 35.9931C44.5569 41.2096 45 46.935 45 48.4615C45 50.2977 44.2706 52.0586 42.9723 53.3569C41.6739 54.6552 39.913 55.3846 38.0769 55.3846C36.2408 55.3846 34.4799 54.6552 33.1816 53.3569C31.8832 52.0586 31.1538 50.2977 31.1538 48.4615C31.1538 46.9385 31.5969 41.2096 32.0262 35.9931C32.2408 33.3588 32.4588 30.8112 32.6215 28.9246L32.7254 27.6923H31.1538C29.7768 27.6923 28.4561 27.1453 27.4823 26.1715C26.5086 25.1978 25.9615 23.8771 25.9615 22.5V15.5769Z" fill="#6C4CFF"/>
</svg>
