<svg width="50" height="70" viewBox="0 0 50 70" fill="none" xmlns="http://www.w3.org/2000/svg">
<path d="M47.3264 17.3022H42.5868C41.3469 17.3022 40.3421 18.3061 40.3421 19.5457V20.7789C34.3983 20.9461 29.6015 22.4081 25.8568 24.7801C24.7959 25.4521 23.8692 26.1678 23.0695 26.9036V18.4556H25.2232C26.5815 18.4556 27.6837 17.3541 27.6837 15.9952V11.6882C27.6837 10.3293 26.5815 9.22775 25.2232 9.22775H23.0695V2.46043C23.0695 1.10153 21.9673 0 20.6091 0H7.07417C5.715 0 4.61374 1.10126 4.61374 2.46043V9.22789H2.46043C1.10126 9.22789 0 10.3291 0 11.6883V15.9953C0 17.3545 1.10126 18.4558 2.46043 18.4558H4.61374V50.7532H2.46043C1.10126 50.7532 0 51.8544 0 53.2136V57.5206C0 58.8798 1.10126 59.9811 2.46043 59.9811H4.61401V66.7485C4.61401 68.1077 5.71527 69.2089 7.07444 69.2089H20.6094C21.9676 69.2089 23.0698 68.1074 23.0698 66.7485V59.9811H25.2234C26.5816 59.9811 27.6838 58.8795 27.6838 57.5206V53.2136C27.6838 51.8547 26.5816 50.7532 25.2234 50.7532H23.0696V46.364C23.2744 45.9897 23.5903 45.4874 24.0252 44.8991C24.8693 43.757 25.9233 42.6292 27.2026 41.5875C30.5657 38.8486 34.8971 37.1443 40.3422 36.9339V38.1284C40.3422 39.3679 41.347 40.3719 42.5869 40.3719H47.3265C48.5657 40.3719 49.57 39.3675 49.57 38.1284V19.5457C49.5699 18.3065 48.5655 17.3022 47.3264 17.3022ZM20.7628 66.7484C20.7628 66.8329 20.6938 66.9018 20.6094 66.9018H7.07444C6.98941 66.9018 6.92102 66.8334 6.92102 66.7484V59.9809H20.7628V66.7484ZM25.3767 53.2135V57.5205C25.3767 57.605 25.3077 57.6739 25.2232 57.6739H2.46043C2.3754 57.6739 2.30701 57.6055 2.30701 57.5205V53.2135C2.30701 53.1284 2.3754 53.06 2.46043 53.06H25.2232C25.3077 53.06 25.3767 53.129 25.3767 53.2135ZM6.92075 2.46043C6.92075 2.3754 6.98914 2.30701 7.07417 2.30701H20.6091C20.6936 2.30701 20.7625 2.37594 20.7625 2.46043V9.22789H6.92075V2.46043ZM2.30714 15.9953V11.6882C2.30714 11.6032 2.37554 11.5348 2.46056 11.5348H25.2234C25.3078 11.5348 25.3768 11.6037 25.3768 11.6882V15.9952C25.3768 16.0797 25.3078 16.1486 25.2234 16.1486H21.9184L21.9161 16.1485H5.76731L5.76501 16.1486H2.46043C2.3754 16.1488 2.30714 16.0804 2.30714 15.9953ZM25.7455 39.7986C24.3099 40.9678 23.1244 42.2362 22.1698 43.5277C21.5541 44.3608 21.1306 45.0674 20.882 45.5704C20.8035 45.7293 20.7626 45.9042 20.7626 46.0814V50.753H6.92088V18.4556H20.7626V29.9454C20.7626 31.0994 22.2697 31.5383 22.8893 30.5646C23.5356 29.5491 24.891 28.1228 27.0913 26.7291C30.4722 24.5875 34.8439 23.2502 40.3421 23.0865V34.6248C34.345 34.8397 29.5078 36.7346 25.7455 39.7986ZM47.263 38.0648H42.6491V35.7738C42.6493 35.7684 42.6499 35.7632 42.6499 35.7578V21.9161C42.6499 21.9107 42.6493 21.9054 42.6491 21.9001V19.6093H47.263V38.0648Z" fill="#0E4B9A"/>
</svg>
