<svg width="54" height="50" viewBox="0 0 54 50" fill="none" xmlns="http://www.w3.org/2000/svg">
<path d="M43.125 0H36.875C36.1847 0 35.625 0.55965 35.625 1.25V1.39727L44.375 8.39727V1.25C44.375 0.55965 43.8155 0 43.125 0Z" fill="#0E4B9A"/>
<path fill-rule="evenodd" clip-rule="evenodd" d="M23.75 16.25C23.75 14.5241 25.1492 13.125 26.875 13.125C28.601 13.125 30 14.5241 30 16.25C30 17.976 28.601 19.375 26.875 19.375C25.1492 19.375 23.75 17.976 23.75 16.25Z" fill="#0E4B9A"/>
<path fill-rule="evenodd" clip-rule="evenodd" d="M48.75 19.9012L50.7037 21.4643C51.5125 22.111 52.6922 21.98 53.3392 21.1712C53.986 20.3627 53.855 19.1827 53.0462 18.5357L32.7315 2.28405C29.3077 -0.4551 24.4425 -0.4551 21.0185 2.28405L0.703771 18.5357C-0.104854 19.1827 -0.235954 20.3627 0.410946 21.1712C1.05782 21.98 2.23775 22.111 3.04637 21.4643L5.00007 19.9012V45.625H1.87507C0.839521 45.625 7.12759e-05 46.4645 7.12759e-05 47.5C7.12759e-05 48.5355 0.839521 49.375 1.87507 49.375H51.875C52.9105 49.375 53.75 48.5355 53.75 47.5C53.75 46.4645 52.9105 45.625 51.875 45.625H48.75V19.9012ZM20.0001 16.25C20.0001 12.4531 23.078 9.375 26.875 9.375C30.672 9.375 33.75 12.4531 33.75 16.25C33.75 20.047 30.672 23.125 26.875 23.125C23.078 23.125 20.0001 20.047 20.0001 16.25ZM26.9985 25.625C28.6607 25.625 30.0927 25.6248 31.2397 25.779C32.4687 25.9443 33.647 26.317 34.6025 27.2725C35.5582 28.2283 35.9307 29.4062 36.096 30.6355C36.2405 31.7105 36.2495 33.0365 36.25 34.5675C36.25 34.6697 36.25 34.7728 36.25 34.8765V45.625H32.5V35C32.5 33.1792 32.496 32.0023 32.3795 31.135C32.2702 30.3218 32.0937 30.067 31.951 29.9242C31.8082 29.7815 31.5532 29.605 30.74 29.4955C29.8727 29.379 28.6957 29.375 26.875 29.375C25.0542 29.375 23.8772 29.379 23.0102 29.4955C22.197 29.605 21.942 29.7815 21.7992 29.9242C21.6565 30.067 21.48 30.3218 21.3706 31.135C21.254 32.0023 21.2501 33.1792 21.2501 35V45.625H17.5001V34.8765C17.5 33.2145 17.4999 31.7822 17.6541 30.6355C17.8193 29.4062 18.192 28.2283 19.1476 27.2725C20.1032 26.317 21.2814 25.9443 22.5105 25.779C23.6572 25.6248 25.0895 25.625 26.7517 25.625H26.9985Z" fill="#0E4B9A"/>
<path fill-rule="evenodd" clip-rule="evenodd" d="M23.75 16.25C23.75 14.5241 25.1492 13.125 26.875 13.125C28.601 13.125 30 14.5241 30 16.25C30 17.976 28.601 19.375 26.875 19.375C25.1492 19.375 23.75 17.976 23.75 16.25Z" fill="#0E4B9A"/>
</svg>
