<svg width="45" height="40" viewBox="0 0 45 40" fill="none" xmlns="http://www.w3.org/2000/svg">
<path d="M31.875 9.375C31.875 13.6406 26.1641 21.2422 23.6562 24.375C23.0547 25.125 21.9375 25.125 21.3438 24.375C18.8359 21.2422 13.125 13.6406 13.125 9.375C13.125 4.19531 17.3203 0 22.5 0C27.6797 0 31.875 4.19531 31.875 9.375ZM32.5 15.6562C32.7734 15.1172 33.0234 14.5781 33.25 14.0469C33.2891 13.9531 33.3281 13.8516 33.3672 13.7578L42.4297 10.1328C43.6641 9.64062 45 10.5469 45 11.875V33.0312C45 33.7969 44.5313 34.4844 43.8203 34.7734L32.5 39.2969V15.6562ZM10.75 10.8047C10.9375 11.9062 11.3125 13.0156 11.75 14.0469C11.9766 14.5781 12.2266 15.1172 12.5 15.6562V35.2969L2.57031 39.2734C1.33594 39.7656 0 38.8594 0 37.5312V16.375C0 15.6094 0.46875 14.9219 1.17969 14.6328L10.7578 10.8047H10.75ZM25.6094 25.9375C26.6953 24.5781 28.3984 22.3672 30 19.9219V39.3984L15 35.1094V19.9219C16.6016 22.3672 18.3047 24.5781 19.3906 25.9375C20.9922 27.9375 24.0078 27.9375 25.6094 25.9375ZM22.5 11.875C23.3288 11.875 24.1237 11.5458 24.7097 10.9597C25.2958 10.3737 25.625 9.5788 25.625 8.75C25.625 7.9212 25.2958 7.12634 24.7097 6.54029C24.1237 5.95424 23.3288 5.625 22.5 5.625C21.6712 5.625 20.8763 5.95424 20.2903 6.54029C19.7042 7.12634 19.375 7.9212 19.375 8.75C19.375 9.5788 19.7042 10.3737 20.2903 10.9597C20.8763 11.5458 21.6712 11.875 22.5 11.875Z" fill="#0E4B9A"/>
</svg>
