<svg width="45" height="45" viewBox="0 0 45 45" fill="none" xmlns="http://www.w3.org/2000/svg">
<path d="M3.75 39.375V35.625C4.9375 35.625 5.82812 35.3125 6.42187 34.6875C7.01562 34.0625 8.1875 33.75 9.9375 33.75C11.6875 33.75 12.8906 34.0625 13.5469 34.6875C14.2031 35.3125 15.0937 35.625 16.2187 35.625C17.3437 35.625 18.2344 35.3125 18.8906 34.6875C19.5469 34.0625 20.75 33.75 22.5 33.75C24.25 33.75 25.4531 34.0625 26.1094 34.6875C26.7656 35.3125 27.6563 35.625 28.7813 35.625C29.9063 35.625 30.7969 35.3125 31.4531 34.6875C32.1094 34.0625 33.3125 33.75 35.0625 33.75C36.8125 33.75 37.9844 34.0625 38.5781 34.6875C39.1719 35.3125 40.0625 35.625 41.25 35.625V39.375C39.4062 39.375 38.1956 39.0625 37.6181 38.4375C37.0406 37.8125 36.1888 37.5 35.0625 37.5C33.9363 37.5 33.0456 37.8125 32.3906 38.4375C31.7356 39.0625 30.5325 39.375 28.7813 39.375C27.03 39.375 25.8269 39.0625 25.1719 38.4375C24.5169 37.8125 23.6262 37.5 22.5 37.5C21.3738 37.5 20.4831 37.8125 19.8281 38.4375C19.1731 39.0625 17.97 39.375 16.2187 39.375C14.4675 39.375 13.2644 39.0625 12.6094 38.4375C11.9544 37.8125 11.0638 37.5 9.9375 37.5C8.81125 37.5 7.95938 37.8125 7.38188 38.4375C6.80438 39.0625 5.59375 39.375 3.75 39.375ZM3.75 30.9375V27.1875C4.9375 27.1875 5.82812 26.875 6.42187 26.25C7.01562 25.625 8.1875 25.3125 9.9375 25.3125C11.6875 25.3125 12.8987 25.625 13.5712 26.25C14.2437 26.875 15.1262 27.1875 16.2187 27.1875C17.3437 27.1875 18.2344 26.875 18.8906 26.25C19.5469 25.625 20.75 25.3125 22.5 25.3125C24.25 25.3125 25.4531 25.625 26.1094 26.25C26.7656 26.875 27.6563 27.1875 28.7813 27.1875C29.9063 27.1875 30.7969 26.875 31.4531 26.25C32.1094 25.625 33.3125 25.3125 35.0625 25.3125C36.8125 25.3125 37.9844 25.625 38.5781 26.25C39.1719 26.875 40.0625 27.1875 41.25 27.1875V30.9375C39.4062 30.9375 38.1956 30.625 37.6181 30C37.0406 29.375 36.1888 29.0625 35.0625 29.0625C33.9363 29.0625 33.0688 29.375 32.46 30C31.8513 30.625 30.625 30.9375 28.7813 30.9375C27 30.9375 25.7894 30.625 25.1494 30C24.5094 29.375 23.6262 29.0625 22.5 29.0625C21.3125 29.0625 20.43 29.375 19.8525 30C19.275 30.625 18.0637 30.9375 16.2187 30.9375C14.3737 30.9375 13.1469 30.625 12.5381 30C11.9294 29.375 11.0625 29.0625 9.9375 29.0625C8.8125 29.0625 7.96125 29.375 7.38375 30C6.80625 30.625 5.595 30.9375 3.75 30.9375ZM12.9375 21.375L19.1719 15.1406L17.2969 13.2656C16.2656 12.2344 15.1719 11.4844 14.0156 11.0156C12.8594 10.5469 11.4375 10.3125 9.75 10.3125V5.625C12.0937 5.625 14.0313 5.88313 15.5625 6.39938C17.0938 6.91563 18.5937 7.9075 20.0625 9.375L32.0625 21.375C31.5313 21.7188 31.0156 21.9925 30.5156 22.1963C30.0156 22.4 29.4375 22.5013 28.7813 22.5C27.6563 22.5 26.7656 22.1875 26.1094 21.5625C25.4531 20.9375 24.25 20.625 22.5 20.625C20.75 20.625 19.5469 20.9375 18.8906 21.5625C18.2344 22.1875 17.3437 22.5 16.2187 22.5C15.5625 22.5 14.9844 22.3988 14.4844 22.1963C13.9844 21.9938 13.4688 21.72 12.9375 21.375ZM31.3125 5.625C32.625 5.625 33.7344 6.08625 34.6406 7.00875C35.5469 7.93125 36 9.0325 36 10.3125C36 11.625 35.5469 12.7344 34.6406 13.6406C33.7344 14.5469 32.625 15 31.3125 15C30 15 28.8906 14.5469 27.9844 13.6406C27.0781 12.7344 26.625 11.625 26.625 10.3125C26.625 9.03125 27.0781 7.92938 27.9844 7.00688C28.8906 6.08438 30 5.62375 31.3125 5.625Z" fill="#119A0E"/>
</svg>
