<svg width="45" height="45" viewBox="0 0 45 45" fill="none" xmlns="http://www.w3.org/2000/svg">
<path d="M44.2448 27.4669L38.6892 37.0892C37.6003 39.0003 35.5781 40.0003 33.5336 39.867H29.0891V44.3115L23.5335 34.3114L29.0891 24.3113V28.7558H35.3558L30.4225 20.2002L40.0448 14.6446L44.0448 21.5779C45.2003 23.2891 45.3559 25.578 44.2448 27.4669ZM16.2223 0H27.3335C29.5113 0 31.4002 1.26668 32.3114 3.08891L34.5336 6.95561L38.3781 4.73337L32.5114 14.5334L21.0668 14.7334L24.9113 12.5112L21.7779 7.06672L16.8668 15.6223L7.22228 10.0667L11.2223 3.13336C12.1334 1.2889 14.0223 0 16.2223 0ZM6.97783 37.1114L1.42223 27.4891C0.333336 25.6002 0.488893 23.3335 1.62223 21.6224L3.84447 17.7779L0 15.5557L11.4223 15.7335L17.3112 25.5558L13.4668 23.3335L10.3334 28.7558H20.2002V39.867H12.2001C11.159 39.9423 10.1176 39.724 9.19443 39.2369C8.27124 38.7498 7.50326 38.0133 6.97783 37.1114Z" fill="#6C4CFF"/>
</svg>
