<svg width="50" height="58" viewBox="0 0 50 58" fill="none" xmlns="http://www.w3.org/2000/svg">
<g clip-path="url(#clip0_29_125)">
<path d="M2.67857 0C1.1942 0 0 1.1942 0 2.67857C0 4.16295 1.1942 5.35714 2.67857 5.35714H3.57143V21.9754C3.35938 22.1317 3.14732 22.2991 2.94643 22.4665C1.21652 23.9397 0 25.9933 0 28.5714C0 33.8058 1.59598 37.9576 4.12946 41.1272C5.71429 43.1027 7.60045 44.6205 9.54241 45.7924L7.32143 52.4442C6.95312 53.5379 7.14286 54.7321 7.8125 55.6585C8.48214 56.5848 9.56473 57.1429 10.7143 57.1429H39.2857C40.4353 57.1429 41.5067 56.596 42.1875 55.6585C42.8683 54.721 43.0469 53.5268 42.6786 52.4442L40.4688 45.8036C42.4107 44.6317 44.2969 43.1138 45.8817 41.1384C48.4152 37.9688 50.0112 33.8281 50.0112 28.5826C50.0112 26.0045 48.7946 23.9509 47.0647 22.4888C46.8638 22.3214 46.6518 22.154 46.4397 21.9978L46.4286 5.35714H47.3214C48.8058 5.35714 50 4.16295 50 2.67857C50 1.1942 48.8058 0 47.3214 0H2.67857ZM42.8571 28.6049C42.8571 28.7165 42.8237 28.8951 42.433 29.2299C41.8973 29.6875 40.8705 30.2344 39.1629 30.7254C35.7701 31.6964 30.8147 32.1429 25 32.1429C19.1853 32.1429 14.2299 31.6964 10.8371 30.7143C9.12946 30.2232 8.10268 29.6763 7.56696 29.2187C7.17634 28.8839 7.14286 28.7054 7.14286 28.5938V28.5491C7.14286 28.4375 7.14286 28.2701 7.56696 27.9018C8.10268 27.4442 9.12946 26.8973 10.8371 26.4062C14.2299 25.4464 19.1853 25 25 25C30.8147 25 35.7701 25.4464 39.1629 26.4286C40.8705 26.9196 41.8973 27.4665 42.433 27.9241C42.8571 28.2812 42.8571 28.4598 42.8571 28.5714V28.6161V28.6049ZM36.6295 42.8571L36.6071 42.9129V42.8571H36.6295ZM12.5 7.14286H16.0714C17.0536 7.14286 17.8571 7.94643 17.8571 8.92857C17.8571 9.91071 17.0536 10.7143 16.0714 10.7143H12.5C11.5179 10.7143 10.7143 9.91071 10.7143 8.92857C10.7143 7.94643 11.5179 7.14286 12.5 7.14286Z" fill="#0E4B9A"/>
</g>
<defs>
<clipPath id="clip0_29_125">
<rect width="50" height="57.1429" fill="white"/>
</clipPath>
</defs>
</svg>
