<svg width="45" height="50" viewBox="0 0 45 50" fill="none" xmlns="http://www.w3.org/2000/svg">
<path d="M12.7887 30.5203C12.5059 30.7023 12.217 30.887 11.9276 31.064C12.4613 36.4325 16.9911 40.625 22.5 40.625C28.368 40.625 33.125 35.868 33.125 30V29.9863C32.7923 30.046 32.4482 30.0993 32.1152 30.1508L32.0762 30.1568C31.672 30.2195 31.2728 30.2813 30.8628 30.355C29.1105 30.6708 27.6953 30.543 26.4673 30.09C25.3258 29.6688 24.465 29.0008 23.8302 28.5078L23.771 28.4618C23.0825 27.9277 22.6323 27.5942 22.075 27.3888C21.5683 27.2017 20.8428 27.08 19.6425 27.2965C17.8833 27.6135 16.3097 28.362 14.856 29.22C14.2338 29.587 13.657 29.9598 13.0878 30.3273L12.7887 30.5203Z" fill="#0E4B9A"/>
<path fill-rule="evenodd" clip-rule="evenodd" d="M0 20C0 10.5719 -2.38419e-07 5.85787 2.92892 2.92893C5.85787 2.38419e-07 10.5719 0 20 0H25C34.428 0 39.1423 2.38419e-07 42.071 2.92893C45 5.85787 45 10.5719 45 20V30C45 39.428 45 44.1423 42.071 47.071C39.1423 50 34.428 50 25 50H20C10.5719 50 5.85787 50 2.92892 47.071C-2.38419e-07 44.1423 0 39.428 0 30V20ZM36.875 30C36.875 29.4517 36.8442 28.911 36.7845 28.3787L36.8345 28.3445L36.6075 27.2255C35.3147 20.614 29.49 15.625 22.5 15.625C14.5609 15.625 8.125 22.061 8.125 30C8.125 37.939 14.5609 44.375 22.5 44.375C30.439 44.375 36.875 37.939 36.875 30ZM12.5 8.125C11.4645 8.125 10.625 8.96447 10.625 10C10.625 11.0355 11.4645 11.875 12.5 11.875H32.5C33.5355 11.875 34.375 11.0355 34.375 10C34.375 8.96447 33.5355 8.125 32.5 8.125H12.5Z" fill="#0E4B9A"/>
</svg>
