<svg width="45" height="46" viewBox="0 0 45 46" fill="none" xmlns="http://www.w3.org/2000/svg">
<path d="M34.2595 0L35.9752 1.18201C38.4902 2.91857 40.6686 5.09771 42.4043 7.61323L43.5864 9.32891L40.155 11.695L38.9709 9.97725C37.5228 7.88024 35.7061 6.06352 33.6091 4.61547L31.8913 3.43137L34.2595 0ZM20.6591 11.1155C20.5062 10.9706 20.3029 10.8912 20.0923 10.8939C19.8817 10.8967 19.6805 10.9814 19.5314 11.1302C19.3824 11.279 19.2972 11.4801 19.2941 11.6906C19.291 11.9012 19.3701 12.1047 19.5146 12.2579L30.4321 23.1753L27.4843 26.123L13.7192 12.3559C13.6441 12.2807 13.5549 12.2211 13.4567 12.1804C13.3585 12.1398 13.2533 12.1188 13.147 12.1188C13.0407 12.1188 12.9355 12.1398 12.8373 12.1804C12.7391 12.2211 12.6499 12.2807 12.5748 12.3559C12.4996 12.431 12.44 12.5202 12.3993 12.6184C12.3587 12.7166 12.3377 12.8218 12.3377 12.9281C12.3377 13.0344 12.3587 13.1396 12.3993 13.2378C12.44 13.336 12.4996 13.4252 12.5748 13.5003L26.3419 27.2654L23.3942 30.2132L12.4768 19.2978C12.4033 19.2164 12.314 19.1508 12.2143 19.1049C12.1146 19.0591 12.0067 19.034 11.897 19.0312C11.7874 19.0284 11.6783 19.048 11.5764 19.0887C11.4745 19.1293 11.382 19.1903 11.3044 19.2679C11.2269 19.3455 11.1659 19.438 11.1252 19.5399C11.0845 19.6417 11.065 19.7508 11.0678 19.8605C11.0706 19.9701 11.0957 20.0781 11.1415 20.1778C11.1873 20.2774 11.2529 20.3667 11.3344 20.4402L22.2497 31.3556L19.302 34.3054L12.7311 27.7345C12.5778 27.5977 12.3779 27.5248 12.1725 27.5306C11.9671 27.5365 11.7717 27.6207 11.6264 27.766C11.4811 27.9113 11.3969 28.1067 11.3911 28.3121C11.3852 28.5175 11.4582 28.7173 11.595 28.8706L20.6007 37.8764C21.6054 38.8812 22.7982 39.6782 24.1109 40.222C25.4236 40.7657 26.8306 41.0456 28.2515 41.0456C29.6724 41.0456 31.0794 40.7657 32.3921 40.222C33.7048 39.6782 34.8976 38.8812 35.9022 37.8764L37.6617 36.117C39.3518 34.4265 40.4346 32.224 40.7408 29.8533C41.047 27.4825 40.5596 25.0771 39.3545 23.0127L34.7119 15.0659C34.6737 15.0051 34.6152 14.9597 34.5467 14.9379C34.4782 14.9161 34.4043 14.9191 34.3379 14.9466C34.2715 14.9741 34.2169 15.0241 34.1839 15.0879C34.1509 15.1517 34.1415 15.2252 34.1574 15.2953L35.552 20.4986C35.65 20.8614 35.6481 21.244 35.5464 21.6059C35.4448 21.9677 35.2472 22.2953 34.9746 22.5541C34.5806 22.9295 34.0554 23.1359 33.5112 23.1293C32.967 23.1227 32.447 22.9035 32.0623 22.5186L20.6591 11.1155ZM9.26012 24.2635L8.38456 23.388C7.86944 22.8727 7.4737 22.2507 7.22528 21.5658C6.97685 20.8808 6.88178 20.1497 6.94679 19.4241C7.01181 18.6984 7.23531 17.9959 7.60153 17.366C7.96774 16.7362 8.46775 16.1944 9.06625 15.7789C8.39699 14.8202 8.08652 13.6566 8.18925 12.4919C8.29198 11.3273 8.80135 10.2359 9.62808 9.40919C10.4548 8.58246 11.5461 8.07308 12.7108 7.97036C13.8755 7.86763 15.0391 8.1781 15.9978 8.84735C16.1646 8.60692 16.355 8.37969 16.569 8.16567C17.503 7.23382 18.7685 6.7105 20.0879 6.7105C21.4073 6.7105 22.6728 7.23382 23.6068 8.16567L30.0235 14.5823C30.155 13.6634 30.5693 12.8083 31.2088 12.1355C31.8483 11.4627 32.6813 11.0056 33.5923 10.8275C34.5033 10.6495 35.4471 10.7594 36.2929 11.142C37.1386 11.5245 37.8443 12.1608 38.3121 12.9625L42.9547 20.9093C44.625 23.7696 45.3008 27.1027 44.8765 30.3877C44.4522 33.6727 42.9517 36.7247 40.6094 39.0668L38.85 40.8262C36.039 43.6371 32.2267 45.2162 28.2515 45.2162C24.2763 45.2162 20.4639 43.6371 17.653 40.8262L8.64723 31.8205C8.13709 31.3106 7.74393 30.6959 7.49501 30.019C7.24609 29.3421 7.14736 28.6191 7.20567 27.9002C7.26397 27.1813 7.47791 26.4837 7.83266 25.8558C8.18742 25.2278 8.67449 24.6845 9.26012 24.2635ZM3.43137 31.8934L4.61547 33.6091C6.06414 35.7063 7.88157 37.523 9.97933 38.9709L11.695 40.155L9.32891 43.5864L7.61323 42.4043C5.09771 40.6686 2.91857 38.4902 1.18201 35.9752L0 34.2574L3.43137 31.8934Z" fill="#0E4B9A"/>
</svg>
