<svg width="73" height="100" viewBox="0 0 73 100" fill="none" xmlns="http://www.w3.org/2000/svg">
<path d="M36.0727 0.0292417C38.2454 -0.326606 38.3688 2.65624 38.9618 4.03515C46.6057 21.8144 71.8547 44.6149 72.9279 62.2136C75.1059 97.9606 27.3712 114.366 6.40746 84.4175C-14.5747 54.4452 21.7163 30.7473 33.1836 5.72019C33.7635 4.45117 34.7397 0.246413 36.0727 0.0292417Z" fill="#C70003"/>
<path d="M25.7194 77C25.266 77 24.906 76.8667 24.6394 76.6C24.3994 76.3333 24.266 76 24.2394 75.6C24.2127 75.2 24.3327 74.8267 24.5994 74.48L35.0394 60.24L36.4794 59.08L45.8394 46.32C46.1327 45.9467 46.5327 45.76 47.0394 45.76C47.466 45.76 47.7994 45.9067 48.0394 46.2C48.306 46.4667 48.4527 46.8 48.4794 47.2C48.506 47.5733 48.4127 47.9067 48.1994 48.2L38.3594 61.56L36.9994 62.68L26.8394 76.52C26.546 76.84 26.1727 77 25.7194 77ZM47.3594 77C47.146 77 46.9327 76.96 46.7194 76.88C46.506 76.7733 46.3194 76.6267 46.1594 76.44L36.1994 62.64L34.9594 61.72L25.2394 48.2C24.9994 47.88 24.8927 47.5333 24.9194 47.16C24.946 46.76 25.0794 46.4267 25.3194 46.16C25.586 45.8933 25.9327 45.76 26.3594 45.76C26.866 45.76 27.266 45.9467 27.5594 46.32L36.9594 59.32L38.0794 60.08L48.4794 74.48C48.7194 74.8 48.826 75.16 48.7994 75.56C48.7994 75.96 48.666 76.3067 48.3994 76.6C48.1594 76.8667 47.8127 77 47.3594 77Z" fill="white"/>
</svg>
