<svg width="118" height="101" viewBox="0 0 118 101" fill="none" xmlns="http://www.w3.org/2000/svg">
<path d="M7.31721 97.6652L9.36604 96.0605L9.67845 93.933L9.24253 91.5295L9.06816 89.0897L9.34424 88.3853L10.3396 87.1509L10.5503 86.6136L10.4413 85.9528L9.94727 84.7838L9.83102 84.2247L9.6058 76.2082L9.55494 74.451L9.96906 72.5485L10.0417 71.8805L9.84555 71.1036L9.03183 69.8256L8.75575 69.1721L8.61045 67.6399L8.69036 65.9844L8.95918 64.3941L9.36604 63.0726L9.7947 62.6805L11.1461 62.2884L11.6183 61.9979L11.8871 61.4243L12.4466 59.7542L13.2022 58.5343L14.3355 56.7045L15.2728 54.0323L15.2074 51.3239L13.6889 48.8986L12.7735 48.4702L10.7392 48.3613L9.80196 47.9401L9.27159 47.0906L7.43345 42.7556L6.51802 38.8127L5.97312 37.4476L5.57352 36.9829L4.5709 36.4383L4.31661 36.1551L4.20763 36.0317L3.98241 35.1603L4.01873 33.4612L3.88796 32.6479L2.96526 30.0121L2.3259 27.3617L2.17333 24.5879L1.9699 23.3462L1.29422 22.09L1.26516 22.0755L1.19251 20.5434L1.17798 20.478L2.27505 19.0476L3.74265 17.5154L5.58805 17.8277L6.24194 15.5041L8.73396 11.4015L10.9208 11.2708L12.3957 13.4491L14.8804 13.2603L17.4233 14.1898L19.6611 15.7147L22.3492 15.446L24.9793 14.6835L27.4059 12.9481L31.678 10.748L33.5452 10.7262L35.1871 10.915L36.8291 10.6172L47.7126 14.1462L52.6167 13.2966L56.8524 9.89838L61.4877 11.6266L64.343 8.12663L66.0141 3.89333L69.2253 3.45038L71.5067 2.54272L74.4419 2.04896L76.1202 2.78235L77.6677 2.01991L78.6267 0.712891L79.9999 0.792754L80.8136 3.04375L82.4919 4.37257L83.9958 5.97004L84.548 8.35173L84.3082 10.2106L83.2548 11.5539L83.2838 14.0881L84.9331 16.0995L82.4774 18.9459L80.3123 24.0578L80.4213 26.3742L79.9635 28.2839L80.9807 30.3534L82.2885 32.1905L82.8116 37.3895L85.0493 41.6664L87.1708 43.0242L89.0453 44.9412L90.5564 45.2825L92.2493 44.8105L93.2955 46.1902L94.1891 47.9837L103.968 54.7222L105.015 56.7045L106.598 57.4887L107.841 58.1131L108.64 59.5654L110.936 61.1411L109.257 63.2106L107.056 64.6556L117.315 73.3836L117.344 73.4126L117.22 73.4925L115.956 74.6035L115.6 75.3296L115.23 77.1304L114.983 77.5588L114.343 77.508L113.973 77.0142L113.595 76.3534L112.926 75.8234L110.369 75.0609L106.94 74.756L104.426 75.9323L104.637 79.6138L104.869 82.1552L104.826 83.1282L104.303 83.9923L103.343 84.4643L102.326 84.261L100.423 82.9975L100.11 83.8108L99.7035 84.0867L99.2313 84.1956L98.7518 84.5223L97.3205 85.9528L96.0491 86.04L92.0095 83.0701L91.3193 82.9757L88.9944 85.1396L87.6067 85.8149L85.834 86.2723L84.0104 86.4829L82.4919 86.403L81.2059 87.0275L79.2588 90.2733L77.8639 90.6436L75.0376 89.9901L72.1896 90.0119L70.5259 90.6218L68.368 92.8075L68.121 92.9672L67.053 93.6643L64.1759 93.5481L58.5089 90.6L50.0448 90.3531L48.4101 90.8832L45.8018 92.7929L44.2688 93.6352L42.4452 93.8531L41.5516 92.989L40.7451 91.6674L39.154 90.5419L37.6283 90.6509L35.6231 91.5149L33.705 92.7421L32.4626 93.9402L32.172 94.8188L32.0412 96.9028L31.5908 98.0138L30.8279 98.8053L29.8907 99.3426L27.9581 99.9162L24.3545 100.337L7.32447 97.7016L7.31721 97.6652Z" fill="#6C4CFF" stroke="white" stroke-width="0.5" stroke-linecap="round" stroke-linejoin="round"/>
</svg>
