<svg width="132" height="128" viewBox="0 0 132 128" fill="none" xmlns="http://www.w3.org/2000/svg">
<path d="M48.1864 106.736V106.714L48.1138 105.516L48.7895 101.253L46.9876 98.1165L45.7816 94.9869L46.5953 91.6104L47.5035 89.2287L47.2201 87.2246V84.5379L48.3754 82.5411L51.2306 80.8855L51.761 77.2549L50.1117 74.0454L47.518 72.3898L44.8444 72.3463L42.3233 71.4604L41.3861 69.4926L40.6813 67.4159L32.9001 61.6504L32.8275 59.2833L30.9893 58.2086L27.6182 54.0188L26.8844 52.9442L26.7173 51.4556L26.0997 49.9162L24.9736 48.8924L23.9347 45.9298L23.2444 42.684L19.975 36.2651L14.9401 35.4881L12.0921 36.9622L9.12785 37.8553L7.0427 36.7588L4.95027 35.3937L2.23303 34.5078L1.0415 31.4799L3.19207 29.5194L5.88024 28.5173L7.84914 26.7528L7.41324 23.8338L7.77651 21.6699L9.0552 19.9635L8.05985 16.9501L6.82475 13.8133L7.63119 11.1338L7.34058 8.81752L13.596 7.24181L14.4752 8.99905L14.4025 11.6058L17.4104 12.9056L20.767 12.2811L23.6513 10.6183L25.4967 7.06755L26.9716 6.1018L28.6789 6.1962L33.554 5.78956L36.2712 7.6194L39.0829 7.0385L42.4831 6.89328L46.1086 8.22935L50.2643 7.10386L54.3039 5.31033L59.2588 4.21387L64.3882 1.22949L68.544 2.60187L71.9151 5.92753L74.596 10.2552L76.4342 10.9088L78.4394 11.1338L82.3627 13.4938L86.6057 14.4377L94.1616 12.528L97.373 10.4876L99.6978 11.2137L101.899 12.5571L103.97 14.5031L105.815 16.8703L108.046 18.4968L110.443 19.7457L112.95 20.726L115.5 20.1959L117.331 18.5403L119.402 17.7126L120.012 17.6472L119.975 19.5714L120.666 22.0984L121.138 25.1844V30.7683L120.927 32.9612L120.717 33.7745L116.321 34.0286L111.707 33.2299L107.915 33.1282L107.014 33.3097L106.404 34.0141L105.837 35.6406L105.561 36.9041L105.663 37.9787L106.28 38.8573L107.603 39.5472L105.299 39.9465L101.558 41.5731L99.6252 41.9361L98.0559 43.2867L98.223 46.351L99.1747 49.6113L99.9231 51.5573L98.5354 50.8965L90.5289 50.6859L88.0079 52.1382L86.8963 54.5344L86.286 57.4099L85.3124 60.3071L83.7722 59.5301L82.9657 60.6266L83.0093 62.362L84.0628 63.4803L83.7577 64.2863L83.6777 64.889L84.0701 66.668L84.3098 65.7966L84.4333 65.6441L84.3898 65.6296L84.0701 65.1431L84.6731 62.7541L87.3613 65.6078L88.2404 65.862L89.2866 64.8672L89.9768 63.5166L90.8341 62.9647L92.3453 64.3444L93.1227 63.1463L93.8565 63.2915L94.554 63.9595L95.2224 64.3444L96.4284 63.9958L97.2712 63.444L98.1213 63.1245L99.3201 63.473L99.2765 64.0684L99.1893 64.1846L99.0222 64.1556L98.7316 64.3371L99.2402 66.3485L100.083 67.7862L101.42 68.0694L103.476 66.6534L103.636 67.7499L104.108 68.3308L104.864 68.4615L105.823 68.2364V69.1077L105.328 69.253L104.021 69.8992L104.66 71.032L105.023 71.3224L105.83 71.4894L105.009 72.644L104.907 74.2342L105.423 75.8535L106.411 77.0443L107.661 77.5816L108.671 77.4509L109.731 77.1097L111.104 77.037V77.7632L110.603 78.4022L110.589 79.0412L110.996 79.6656L111.744 80.2828L109.608 82.0691L108.591 84.2257L108.998 86.375L111.112 88.1323L110.734 88.4445L110.698 88.5607L110.531 88.9963L113.626 91.0222L114.098 91.7702L114.505 92.6197L115.485 93.7379L116.648 94.769L117.622 95.3282L117.447 95.7203L117.207 96.6279L117.033 96.9837L119.583 98.465L120.237 99.2638L121.719 102.451L126.34 105.407L126.907 106.525L127.619 107.592L128.817 107.97L128.461 109.241L128.883 110.323L129.711 111.216L130.576 111.92L130.626 112.501L130.503 112.654H130.27L129.987 112.777L130.968 113.823L131.615 115.318L131.724 116.923L131.164 118.303L131.418 119.472L128.345 118.782L127.052 118.361L122.853 118.847L121.683 118.484L119.409 117.366L117.287 116.821L116.495 116.785L114.861 117.047L114.512 116.909L114.17 116.858L113.822 116.909L113.488 117.047L113.226 118.208V119.77L113.037 120.91L114.374 121.737L114.12 122.434L113.044 122.863L111.925 122.906L110.756 122.507L106.273 120.031L103.105 119.915L96.4212 121.657L96.2105 122.812L95.9126 123.378H95.4622L94.8155 122.885L94.1108 123.807L93.239 124.388L91.3935 125.034L91.5098 125.31L91.7496 125.484L92.0111 125.629L92.2436 125.789L91.9675 126.043L91.4371 126.319L91.2337 126.573L92.4252 127.089L91.023 127.699L89.8896 126.9L87.8553 124.003L86.5548 122.885L80.2412 119.319L78.1778 117.519L76.2889 115.282L72.6489 109.647L70.3168 107.316L67.5704 105.675L64.5481 104.964L62.6736 105.233L61.591 106.097L59.6803 108.667L59.455 109.132L59.3823 109.538L59.0118 109.691L56.9267 109.139L55.0014 109.052L54.0423 109.139L52.72 108.064L51.267 107.215L49.7049 106.721L48.201 106.692L48.1864 106.736Z" fill="#6C4CFF" stroke="white" stroke-width="0.5" stroke-linecap="round" stroke-linejoin="round"/>
</svg>
