<svg width="121" height="77" viewBox="0 0 121 77" fill="none" xmlns="http://www.w3.org/2000/svg">
<path d="M41.6986 1.02349L45.0624 5.61987L50.7004 4.2257L56.6362 0.856481L61.4168 0.297363V0.311886L63.4583 3.75372L67.3381 17.463L70.2442 19.7575L87.9789 27.8538L106.302 31.0343L118.653 30.3154L118.464 31.9492L118.196 46.3555L118.406 47.8731L119.278 49.9499L120.15 51.3876L120.738 52.6874L120.811 54.4155L120.041 57.4507L118.653 61.2048L117.091 64.3925L115.791 65.7286L114.919 66.1933L110.938 69.9982L110.131 71.1382L109.666 72.6195L109.601 74.6744L108.424 73.0407L104.566 70.8913L103.738 70.2015L102.778 69.0688L100.621 68.1829L96.5812 67.4132L94.6485 67.798L91.4155 69.4609L89.8389 69.8385L84.2373 69.577L82.4573 69.8385L79.1588 71.7554L76.8194 75.0157L76.427 76.0468L76.1582 75.9307L73.1358 76.2864L70.1062 76.301L68.3407 74.0064L65.9795 71.6102L63.2622 71.4359L60.7411 72.6195L59.3389 74.246L57.5807 74.8487L52.5094 72.2201L48.2665 67.0138L46.6899 64.0585L44.4812 62.1052L41.2917 61.4444L37.8698 58.2495L34.9128 53.9871L33.5832 54.4809L32.6896 56.7537L31.0403 57.5524L29.3112 57.7848L28.6282 58.5109L27.7128 59.0482L25.5695 57.9953L25.0028 55.1417L22.4381 51.5183L19.0379 50.509L18.1661 47.2632L16.1754 45.9925L12.7243 46.646L9.32413 47.7134L6.83939 46.5153L5.06664 42.9137L0.242432 38.9273L1.9135 39.3194L3.41739 38.7167L1.34678 35.4854L1.56473 30.1629L5.72782 26.358L6.7958 23.9836L8.51042 23.0614L12.4555 26.2854L16.219 26.2055L15.1655 20.3747L17.3233 18.6248L20.0115 18.0729L24.3998 19.6849L27.8508 17.1653L27.6401 13.4693L28.6645 9.84592L30.8078 9.25776L32.7186 11.0077L35.2469 10.4994L35.5013 8.22666L35.0145 6.84702L36.5911 6.78167L38.1604 4.9954L37.7462 2.3523L39.3446 0.979921L41.6623 1.05253H41.6914L41.6986 1.02349Z" fill="#6C4CFF" stroke="white" stroke-width="0.5" stroke-linecap="round" stroke-linejoin="round"/>
</svg>
