<svg width="67" height="56" viewBox="0 0 67 56" fill="none" xmlns="http://www.w3.org/2000/svg">
<path d="M13.2512 53.3596L13.2222 52.1615L12.4738 46.4396L10.3305 41.0808L6.94487 38.6991L3.21776 36.9129L2.38223 35.6276L1.87367 34.1173L2.20787 32.331L1.79373 30.6464L0.86377 25.4183L5.3901 19.9215L4.65629 16.0876L5.74609 11.3097L8.95739 8.95703L9.58948 4.51313L10.9917 0.846191L14.9949 1.42709L18.475 2.58164L18.9981 4.84715L20.8871 6.22679L22.3329 9.21843L24.5852 10.9902L36.217 11.1862L37.4521 13.6914L38.6001 16.8064L40.8378 17.8521L46.4103 18.4983L52.4115 18.2587L55.0779 19.0937L60.3017 19.9724L61.7693 24.547L59.7786 31.024L63.4621 34.7127L65.1477 35.2137L66.1576 36.9564L66.1213 40.0207L65.3729 42.7437L63.5421 46.4033L65.5037 51.1885L66.114 53.3451L64.8716 54.5795L63.157 53.1636L61.6894 51.1522L60.2872 50.506L58.2529 52.815L56.6472 52.1688L55.354 53.0111L53.7992 53.7082L52.3825 53.2362L50.9367 52.9893L48.8587 54.5868L46.0906 54.8264L41.6079 52.8659L36.9581 51.9437L33.478 54.0131L32.0685 52.5173L30.8261 50.5205L26.5178 50.7456L22.0859 52.8659L17.6468 53.7372L13.2367 53.3669L13.2512 53.3596Z" fill="#6C4CFF" stroke="white" stroke-width="0.5" stroke-linecap="round" stroke-linejoin="round"/>
</svg>
