<svg width="116" height="74" viewBox="0 0 116 74" fill="none" xmlns="http://www.w3.org/2000/svg">
<path d="M115.655 36.9786L115.583 37.8064L115.219 39.8977L114.507 42.0034L113.352 43.5864L109.247 44.8498L100.412 44.465L96.8597 47.5873L95.6464 50.3611L95.3267 52.859L95.9225 55.1681L96.7943 56.3952L93.4885 56.7075L91.6868 56.1847L90.5752 55.248L88.2938 52.6266L87.5818 52.1837L86.3467 52.0893L84.465 53.9046L79.757 54.0498L77.4539 54.6816L75.1435 56.5695L74.5042 56.8454L73.9157 56.8818L73.3417 57.0633L72.7532 57.7313L72.2737 59.1618L72.2228 60.8246L72.4626 62.4511L72.8695 63.7945L73.2545 64.3681L73.2109 64.3463L72.6442 64.0413L68.9825 65.2903L68.038 67.2073L66.4687 67.1709L65.0665 67.9479L64.4344 70.3151L60.9979 73.677L57.2344 71.9053L53.3256 67.701L52.7517 65.45L52.432 63.0974L49.4314 61.9719L46.4017 63.4605L45.3628 65.7187L43.6336 66.9749L42.1152 66.7135L40.6694 65.9002L38.8022 66.7353L37.1312 67.0548L34.2541 65.5226L34.7481 62.3567L36.6952 57.7894L34.443 53.1858L33.5275 51.7698L32.554 50.8331L30.9556 50.8186L29.488 49.8601L27.8969 47.9141L26.0151 48.0012L24.5112 49.6786L22.6731 49.8383L20.8204 48.2191L17.3113 46.6361L16.4975 45.0169L16.6138 42.7659L15.6693 41.0086L14.0273 41.0812L12.5597 41.9526L10.6053 44.3633L7.99705 45.271L3.46345 44.4287L0.339355 37.3489L1.34925 34.4372L5.74479 31.4964L8.65093 26.5515L8.89795 24.7216L7.92439 23.6833L7.51754 22.6594L8.0043 21.3597L7.3359 17.2062L6.48585 13.2561L6.63116 7.91181L7.43761 7.89003L8.73084 8.12964L10.5399 8.92112L13.5914 10.2572L15.4586 10.1338L16.4321 10.2427L17.1078 10.6856L18.0596 11.5715L19.0477 11.7893L19.9994 11.753L20.8785 11.8982L21.7068 7.78109L22.9492 4.04882L25.7754 2.91606L28.667 3.95442L32.8228 1.00635L35.7507 2.4586L35.8742 4.46996L35.7144 6.48134L34.4284 8.27488L36.579 8.89933L39.2526 7.60683L41.6502 9.62546L45.203 13.3142L47.2373 16.1969L51.2695 14.2581L54.8368 10.7582L55.7886 9.37858L56.9801 8.58711L57.7066 9.05908L63.8314 10.809L68.3359 15.7685L70.5518 19.0143L73.0438 21.0402L76.6474 19.1595L80.4109 18.0195L87.7707 21.7372L95.6391 22.7683L98.2401 24.7361L98.8867 28.3305L99.6496 30.1458L100.921 28.0836L102.759 25.622L105.709 26.2828L107.794 29.1582L107.663 33.515L109.407 35.5554L111.572 36.9423L113.737 38.046L115.59 36.9932L115.641 36.9641L115.655 36.9786Z" fill="#6C4CFF" stroke="white" stroke-width="0.5" stroke-linecap="round" stroke-linejoin="round"/>
</svg>
