<svg width="103" height="78" viewBox="0 0 103 78" fill="none" xmlns="http://www.w3.org/2000/svg">
<path d="M92.2762 31.3611L92.9156 32.3123L94.1434 32.8933L95.3495 33.1329L96.3376 33.6048L97.0713 34.4834L97.5654 35.4492L98.3573 38.3828L98.4227 39.2469L98.2919 41.0549L98.4445 41.8246L98.924 42.224L100.275 42.4708L100.755 43.0082L101.191 44.5185L101.307 45.8256L101.176 47.1181L100.864 48.5703L99.8613 49.6087L99.7087 50.3784L100.595 52.397L100.958 52.9198L102.15 54.0526L102.419 54.7424L102.266 55.6646L101.83 55.9332L101.293 56.1293L100.842 56.8191L99.8831 59.6728L98.5608 62.5773L97.5654 64.1457L97.035 64.4434L96.4029 64.2837L89.0577 65.9901L87.9461 66.5492L85.6575 68.0958L83.7104 69.0398L82.7586 69.156L81.6034 68.9309L80.4046 68.9164L78.2613 70.0346L77.0335 70.2887L75.3697 69.5989L72.8486 66.7961L70.9306 66.0627L70.0515 66.404L66.8475 68.5751L63.8614 68.8002L62.8951 69.1342L61.8416 69.9111L61.2313 70.5284L60.6428 70.9277L59.6765 71.0729L58.8628 70.8406L57.0683 69.7804L56.2255 69.4827L48.6405 68.9599L47.478 69.352L46.8096 70.434L46.2502 71.6974L45.4946 72.6341L44.6518 72.9681L43.9834 72.8955L43.3077 72.6849L42.4141 72.6051L40.2126 72.9899L25.8054 77.6734L23.7929 77.8187L21.8022 77.4992L20.1312 76.4898L16.4694 71.4505L14.8202 70.0491L14.4715 69.8894L14.5514 68.655L13.8321 63.2598L14.1155 62.1706L14.5514 61.1758L13.6069 59.7744L12.8368 58.3803L13.992 55.817L14.2971 52.9851L13.883 51.9177L14.3988 50.451L13.4689 45.172L8.87714 46.4863L7.34414 48.8244L5.30985 47.8006L3.63155 44.5766L2.26566 41.0985L0.718136 38.9709L0.703613 36.4222L2.53448 35.7251L4.48886 36.0954L6.85737 35.5L9.01519 33.8953L9.33487 33.0312L8.68099 31.942L8.52115 29.2917L9.08785 27.0407L7.88904 25.828L6.94456 21.9796L5.46969 19.8811L4.55425 17.8987L5.52055 15.6187L7.03174 13.9631L9.08785 14.1519L9.59641 12.3439L10.0323 9.8097L11.9431 8.25578L12.735 5.73612L14.1009 3.95713L15.3506 3.49967L16.1207 2.14906L18.0896 0.871094L20.3782 1.43747L19.3683 4.34922L22.4924 11.4289L27.026 12.2713L29.6343 11.3636L31.5887 8.95288L33.0563 8.08152L34.6982 8.0089L35.6427 9.76614L35.5265 12.0171L36.3402 13.6364L39.8494 15.2193L41.702 16.8386L43.5402 16.6788L45.0441 15.0015L46.9258 14.9144L48.517 16.8604L49.9845 17.8189L51.5829 17.8334L52.5565 18.7701L53.4719 20.186L55.7242 24.7897L53.7771 29.357L53.283 32.5229L56.1601 34.055L57.8311 33.7355L59.6983 32.9005L61.1442 33.7138L62.6626 33.9752L64.3918 32.719L65.4307 30.4607L68.4604 28.9722L71.461 30.0977L71.7806 32.4503L72.3546 34.7013L76.2634 38.9056L80.0268 40.6773L83.4633 37.3154L84.0954 34.9482L85.4976 34.1712L87.067 34.2075L88.0114 32.2906L91.6732 31.0416L92.2399 31.3466L92.2762 31.3684V31.3611Z" fill="#6C4CFF" stroke="white" stroke-width="0.5" stroke-linecap="round" stroke-linejoin="round"/>
</svg>
