<svg width="103" height="74" viewBox="0 0 103 74" fill="none" xmlns="http://www.w3.org/2000/svg">
<path d="M0.181582 38.0141L1.82355 37.1354L5.39811 37.0701L6.96016 36.5691L8.20254 34.9208L9.56843 30.6511L10.8907 28.9157L12.2058 28.284L13.281 28.0443L14.2473 27.3763L15.1628 25.5174L16.3325 21.2551L16.6231 18.8371L16.2744 17.0871V17.0726L15.6205 15.4315L14.5307 14.0882L11.8933 12.1712L7.44694 8.00326L7.07641 7.83627L7.38156 5.51265L8.44956 0.829132L11.8933 0.553223L16.1 1.19946L19.3694 0.887234L21.9849 2.28138L23.1183 5.58527L24.724 8.40264L26.2279 9.98559L26.5912 12.3963L28.0152 14.0955L30.5653 13.3693L32.0693 15.6421L31.8004 19.3526L33.1663 21.3712L34.9318 23.5569L36.2759 25.7716L38.194 26.9697L40.1047 28.8649L41.536 31.3482L43.5703 32.5826L45.9243 32.1252L49.3463 29.257L54.541 28.8286L56.4591 28.3275L61.1016 29.8887L62.7291 30.9198L64.204 30.7383L65.2865 27.5796L67.7277 29.6999L70.2996 30.1211L72.5882 31.37L74.9785 31.0723L76.4897 30.8327L77.8919 31.5951L79.8899 31.4862L81.6989 31.0287L84.5906 37.5857L85.5859 38.1302L86.218 39.2702L87.6202 40.8242L89.4874 41.5285L90.7588 43.9756L89.8361 45.4133L88.107 46.0087L87.0608 48.0854L84.3435 51.6725L85.5786 54.2866L89.4293 53.7347L93.2291 52.7036L95.445 54.4318L97.116 57.3944L99.6807 57.6049L101.962 58.6869L101.047 61.1993L98.8525 62.8766L94.6167 66.2749L89.7126 67.1245L78.8291 63.5955L77.1871 63.8932L75.5452 63.7044L73.678 63.7262L69.4059 65.9264L66.9793 67.6618L64.3493 68.4242L61.6611 68.6929L59.4233 67.168L56.8805 66.2386L54.3957 66.4274L52.9208 64.249L50.734 64.3797L48.242 68.4823L47.5881 70.8059L45.7427 70.4937L44.2751 72.0258L43.178 73.4563L43.0109 72.643L42.5386 72.0621L41.5723 71.4159L41.0856 71.3795L39.7705 71.837L39.1675 71.8515L38.4918 71.3215L38.2012 70.5372L37.9978 69.7748L37.6127 69.3101L36.7336 69.2157L32.8176 69.39L32.2509 69.1576L31.8658 68.6784L31.5461 68.1701L31.1538 67.8288L28.5891 67.2915L24.4043 65.1494L23.5978 64.7355L16.1508 59.3622L14.3563 57.5469L14.0802 57.0676L13.0267 55.2596L11.8933 51.9266L8.64573 49.4796L0.174316 37.9995L0.181582 38.0141Z" fill="#6C4CFF" stroke="white" stroke-width="0.5" stroke-linecap="round" stroke-linejoin="round"/>
</svg>
