<svg width="101" height="79" viewBox="0 0 101 79" fill="none" xmlns="http://www.w3.org/2000/svg">
<path d="M91.222 72.1539L88.5411 72.7784L87.6474 73.8095L87.3568 75.2472L83.7968 77.3603L79.8444 77.8032L75.4561 76.7794L70.9371 76.7648L70.2542 77.5999L68.9609 77.8903L64.8342 77.048L61.434 74.0346L58.5424 70.1934L54.6409 68.6468L50.565 68.1893L47.3174 68.2474L41.9556 72.9599L38.4391 72.5824L35.6565 72.8656L32.9247 72.2483L30.934 70.8469L28.8561 69.6924L17.9799 69.5544L16.2653 66.8968L17.4277 62.1842L17.5876 58.3793L17.3696 54.5817L15.4661 51.4085L12.1385 50.6388L9.99525 48.5185L8.19344 46.3692L8.84732 43.9004L8.30969 41.4751L7.10364 40.2552L6.44976 38.5125L4.89496 36.7989L2.42475 36.8352L1.24776 33.7346L0.790039 30.409L2.11234 29.5086L3.59447 30.8374L5.76682 30.8519L6.66045 28.2088L7.35793 23.4962L6.66045 18.9725L11.2522 16.2495L15.7712 14.1873L17.8055 15.8792L19.7381 15.4653L22.3827 16.9248L24.5696 17.2661L26.6547 16.6416L29.1758 15.6033L31.5879 14.9788L33.0555 13.2288L34.7629 11.6604L36.4048 11.1376L38.0831 11.1666L39.6307 12.8295L40.7931 15.095L42.4278 16.6997L48.6324 18.5078L52.8318 18.6966L53.4058 19.3501L53.7109 20.2214L55.0332 19.7204L58.0701 17.1209L59.6758 15.095L60.3878 13.4321L61.3613 12.0525L62.2841 13.4031L63.2503 12.7278L64.4564 10.8762L69.0263 7.536L74.2646 7.23829L76.2553 7.40529L79.4884 6.99866L81.3556 9.22061L83.5861 9.11169L85.9909 8.41461L88.5556 7.31089L90.8369 5.63354L92.3627 4.13773L92.8276 1.04443L94.5495 3.43338L96.7219 7.87728L99.846 10.9488L100.275 18.5658L96.4894 22.5886L93.0093 21.4341L89.0061 20.8531L87.6038 24.5201L86.9717 28.964L83.7605 31.3166L82.6707 36.0945L83.4045 39.9285L78.8781 45.4252L79.8081 50.6534L80.2222 52.338L79.888 54.1242L80.3966 55.6346L81.2321 56.9198L84.9593 58.7061L88.3449 61.0878L90.4882 66.4466L91.2365 72.1685L91.222 72.1539Z" fill="#6C4CFF" stroke="white" stroke-width="0.5" stroke-linecap="round" stroke-linejoin="round"/>
</svg>
