<svg width="80" height="94" viewBox="0 0 80 94" fill="none" xmlns="http://www.w3.org/2000/svg">
<path d="M22.9769 83.8411L22.8462 82.4687L21.4149 81.8297L17.1864 80.9076L15.6607 79.9563L14.4619 78.751L12.1879 75.6431L10.11 73.5592L9.57961 72.7604L9.31079 71.831L9.04197 69.6817L8.72956 68.7449L7.64702 67.1547L1.50053 60.9536L0.752197 60.4163L4.80627 56.7348L7.08033 50.5264L7.03673 48.0286L8.76589 47.0483L11.9481 45.8502L16.9104 45.2766L21.7418 43.7735L22.4538 41.7839L21.938 39.5329L20.0563 39.1117L19.119 37.3473L20.3687 30.9791L23.3693 26.2738L27.5251 24.7127L28.4623 23.0353L27.5251 20.6028L26.9656 18.1848L25.3019 17.4804L23.5727 17.052L22.3013 15.4182L23.6526 13.7336L25.7668 13.9006L27.8883 13.3052L28.5713 10.5096L28.9491 6.25454L35.764 5.64459L38.3504 4.52636L41.3583 3.88011L44.5841 2.14467L52.3726 1.03369L66.0751 1.7453L75.3529 6.88627L77.7723 7.2929L78.8403 11.2285L77.9103 21.554L76.5517 25.8019L74.8443 29.7447L74.6191 31.1534L74.7499 32.6057L73.7473 34.1741L72.2288 35.256L71.7711 37.0205L73.2242 38.4655L74.1396 39.1335L75.1858 39.4821L75.8542 40.6366L76.7697 41.5588L77.8231 42.1469L77.9321 43.5992L76.7551 44.6739L75.3311 43.7517L73.2678 45.3564L71.3497 47.6074L69.6278 47.7309L67.9132 47.6074L65.8498 46.3149L62.3407 48.3626L59.7106 52.1602L59.8777 56.7058L59.2093 61.3094L57.1241 64.2575L55.3732 67.5396L53.2517 70.1899L52.5252 73.4502L58.9477 75.7448L64.2369 78.6566L63.1398 81.3505L60.9021 81.5683L58.4973 83.5579L58.6935 86.7311L55.5839 90.1729L51.7478 91.6905L48.9942 90.7103L46.306 91.4364L43.349 92.8233L35.3571 92.1189L33.1048 90.398L26.9075 82.9698L22.9551 83.8629L22.9769 83.8411Z" fill="#6C4CFF" stroke="white" stroke-width="0.5" stroke-linecap="round" stroke-linejoin="round"/>
</svg>
