<svg width="66" height="111" viewBox="0 0 66 111" fill="none" xmlns="http://www.w3.org/2000/svg">
<path d="M56.4127 9.09226L55.4247 14.6471L55.2285 20.507L57.0957 20.8918L58.1492 23.8471L57.9893 25.0017L58.0765 27.594L58.912 30.179L58.8975 32.43L60.4523 33.0762L62.443 36.5108L61.1716 39.546L61.2878 41.2524L62.6828 43.2855L63.3366 46.4514L62.908 49.7553L62.8499 52.0717L64.2884 53.1681L65.6543 54.8019L64.3828 56.5519L62.0143 57.1473L60.0309 58.7302L60.307 63.5299L59.268 66.1367L59.7475 69.3244L61.0916 74.7921L60.1035 80.1655L59.1373 83.3822L57.7714 87.0782L54.5819 88.7047L52.0753 90.3095L48.4281 95.3923L48.3773 100.729L44.6574 104.077L39.7533 104.222L38.104 105.783L36.571 105.667L37.2177 103.641L37.61 101.528L34.2025 98.413L29.916 97.7305L26.7701 98.3114L27.0534 101.078L28.6227 102.341L29.9087 104.062L30.1412 107.816L27.5838 110.467L25.9999 109.682L24.9537 107.7L15.1745 100.962L14.2809 99.1682L13.2347 97.7885L11.5419 98.2605L10.0307 97.9193L8.15621 96.0023L6.03473 94.6444L3.797 90.3675L3.27389 85.1685L1.96612 83.3314L0.948975 81.2619L1.40668 79.3522L1.29771 77.0359L3.46278 71.9239L5.91848 69.0775L4.26924 67.0662L4.24018 64.532L5.29366 63.1886L5.53342 61.3298L4.98124 58.9481L3.47732 57.3506L1.79902 56.0218L0.985293 53.7708L2.49649 53.3787L3.78246 52.4856L3.65169 50.9316L4.22565 49.8642L8.28698 48.1869L11.0842 44.0407L11.7598 40.6497L13.8232 40.0325L14.8258 41.5138L15.9447 42.6901L17.7392 43.2783L19.1124 41.5138L19.047 39.5823L17.6884 38.4568L16.3152 34.1364L17.8482 28.8502L21.2992 28.4508L24.6268 27.0276L26.029 22.7217L24.6558 20.4126L20.3112 21.1314L17.049 18.1906L15.9737 16.5714L14.5715 15.4531L13.38 13.3183L12.5736 10.8495L13.0821 8.22817L15.6323 7.31326L18.008 7.08817L20.2966 7.93772L22.1711 9.54245L24.3144 10.1088L28.3249 7.83608L30.4827 7.79976L32.4661 6.81224L34.8637 3.41395L38.0096 2.12871L39.5135 1.83827L41.0029 1.20654L43.4513 1.37354L45.8126 2.18682L46.7789 3.9876L47.2584 6.07157L48.7768 6.79045L50.4188 7.26243L51.4287 8.73647L52.7437 8.80908L54.5746 8.45327L56.3909 9.09953L56.4127 9.09226Z" fill="#6C4CFF" stroke="white" stroke-width="0.5" stroke-linecap="round" stroke-linejoin="round"/>
</svg>
