<svg width="75" height="64" viewBox="0 0 75 64" fill="none" xmlns="http://www.w3.org/2000/svg">
<path d="M11.3424 3.90944L11.7855 3.24866L12.9553 2.4354L15.302 2.13042L21.7754 3.88039L24.3837 3.24139L26.9919 2.13042L28.0018 0.903278L28.0672 0.729004L28.5249 1.20098L30.4067 2.8856L31.8815 5.19467L32.3465 6.63241L33.1239 7.72886L33.9522 7.64173L34.5625 8.22989L36.001 7.92492L37.1344 5.86271L38.4131 6.57432L37.8827 10.2485L39.561 11.4248L41.7116 10.1759L43.3753 12.1945L44.8429 15.1063L47.4367 15.0918L48.3521 16.6602L49.9795 17.016L52.5878 16.6747L54.2661 19.3687L55.5593 22.8468L57.8261 24.3644L59.8386 26.4048L61.3426 27.6392L63.1299 28.5396L64.038 30.4929L64.641 32.7003L65.0334 36.7884L67.707 37.834L72.7928 41.7261L74.3839 43.5704L71.4995 47.9562L69.5742 53.1626L70.4533 58.2382L69.3345 59.9591L68.9857 62.0867L66.5954 62.3844L64.3068 61.1354L61.7349 60.7143L59.2937 58.594L58.2112 61.7526L56.7363 61.9342L55.1089 60.9031L50.4663 59.3419L48.5483 59.8429L43.3535 60.2713L39.9316 63.1395L37.5776 63.597L35.5433 62.3626L34.112 59.8792L32.2012 57.984L30.2832 56.7859L28.9391 54.5712L27.1736 52.3856L25.8077 50.367L26.0765 46.6565L24.5726 44.3837L22.0224 45.1098L20.5984 43.4107L20.2352 40.9999L18.7385 39.417L17.1328 36.5996L15.9995 33.2958L13.3839 31.9016L10.1145 32.2138L5.90786 31.5676L2.46408 31.8435L2.74017 30.6309L3.13976 27.7481L2.52947 26.1434L4.7672 21.8665L5.91513 20.7701L6.00958 20.4215L6.03864 20.0585L6.00958 19.7027L5.91513 19.3541L4.63643 18.3376L3.48123 16.5731L1.43967 11.5991L1.13452 11.1634L1.2653 10.7205L1.52685 10.3139L2.07175 9.47156L2.82009 8.78174L5.00696 7.61994L5.91513 6.84298L7.25922 4.77352L8.02935 4.10549L9.20634 4.07645L10.7321 4.31607L11.3278 3.96026L11.3569 3.92395L11.3424 3.90944Z" fill="#6C4CFF" stroke="white" stroke-width="0.5" stroke-linecap="round" stroke-linejoin="round"/>
</svg>
