<svg width="117" height="73" viewBox="0 0 117 73" fill="none" xmlns="http://www.w3.org/2000/svg">
<path d="M34.2737 6.17326L36.1263 6.07887L37.6085 5.6214L42.3963 2.01982L45.4115 1.03955L48.3176 1.38809L62.2017 6.60167L65.9652 8.01762L70.0047 8.60578L88.1318 7.32054L98.2597 10.9657L109.405 11.8007L112.928 12.6576L115.769 14.3494L115.522 15.061L113.212 16.4988L111.105 18.423L109.913 23.2154L107.349 26.3668L108.017 30.0338L109.427 30.2661L110.095 31.3989L108.148 35.5596L105.663 38.7182L102.931 41.4557L103.927 43.9826L107.603 43.7793L108.359 48.0417L110.182 51.803L110.647 56.2469L107.08 59.6742L105.525 60.7416L104.116 62.0777L102.488 62.586L100.846 62.9345L97.7221 59.863L95.5497 55.4191L93.8278 53.0302L93.3629 56.1235L91.8371 57.6193L89.5558 59.2966L86.9911 60.4003L84.5863 61.0974L82.3558 61.2063L80.4886 58.9844L77.2555 59.391L75.2648 59.224L70.0265 59.5217L65.4566 62.8619L64.2505 64.7135L63.2843 65.3888L62.3615 64.0382L61.388 65.4179L60.676 67.0807L59.0703 69.1066L56.0334 71.7061L54.7111 72.2072L54.406 71.3358L53.832 70.6823L49.6326 70.4935L43.428 68.6854L41.7933 67.0807L40.6309 64.8152L39.0833 63.1524L37.405 63.1233L35.7631 63.6461L34.0557 65.2146L32.5881 66.9645L30.176 67.589L27.6549 68.6274L25.5698 69.2518L23.3829 68.9105L20.7383 67.451L18.8057 67.8649L16.7714 66.1731L12.2524 68.2353L7.66065 70.9582L1.87016 68.6128L1.12183 67.0154L1.99367 64.6554L3.5194 61.1846L9.86205 58.6794L11.1335 59.0062L12.3977 59.5871L13.3494 58.3309L14.9841 57.2635L17.8975 57.0892L20.8909 57.5975L24.9667 55.4554L25.686 48.6153L26.3544 46.3135L26.2672 44.2949L24.6979 38.7327L20.731 37.9267L18.3843 34.2598L17.418 29.9902L15.7034 26.3668L17.8467 24.3482L20.1789 21.509L22.5111 19.4396L25.2646 19.7228L30.0743 17.3266L33.6343 11.8661L34.2955 6.15874L34.2737 6.17326Z" fill="#6C4CFF" stroke="white" stroke-width="0.5" stroke-linecap="round" stroke-linejoin="round"/>
</svg>
