<svg width="84" height="118" viewBox="0 0 84 118" fill="none" xmlns="http://www.w3.org/2000/svg">
<path d="M56.2513 6.35934L55.8081 10.4765L57.2248 18.8269L56.4184 21.0997L54.7764 21.6951L56.8616 26.3932L56.8252 27.9543L57.4936 30.5103L58.9322 32.4999L62.2742 35.0341L66.1394 35.1285L68.9729 34.199L70.3751 36.5517L68.6968 40.6761L70.6657 42.9488L71.7846 43.5007L72.2205 45.0038L71.6829 46.6739L70.179 46.4778L66.9822 45.12L64.5774 46.8409L65.086 50.9507L65.2167 53.7899L66.1394 56.3676L68.072 60.1871L65.5509 61.6684L62.6375 62.8519L61.5477 66.8238L62.8264 71.5655L64.4756 72.7708L65.1659 72.3497L66.0958 73.4243L67.4544 73.998L68.399 74.7604L68.0938 76.3797L69.6413 76.6629L70.9128 73.8528L72.4894 73.6785L75.4972 72.8652L78.2144 73.5696L81.4185 75.7842L83.569 78.9211L81.7599 78.1296L80.4667 77.89L79.6603 77.9118L79.5149 83.2561L80.365 87.2062L81.0334 91.3597L80.5466 92.6594L80.9535 93.6833L81.9271 94.7216L81.68 96.5515L78.7739 101.496L74.3783 104.437L72.0897 103.871L70.1208 105.149L69.3507 106.499L68.1011 106.957L66.7352 108.736L65.9433 111.256L64.0325 112.809L63.5965 115.344L63.088 117.152L61.0319 116.963L59.5788 116.295L57.9514 116.273L54.7255 111.894L52.4152 112.65L49.5744 112.766L47.9034 109.694L45.7892 107.748L41.9603 105.338L38.8289 101.279L34.6586 100.109L30.4302 100.64L25.9692 101.925L21.7771 104.641L17.6722 106.557L8.10372 99.151L9.09181 93.7777L7.74771 88.3099L7.2682 85.1222L8.30715 82.5154L8.03106 77.7157L10.0145 76.1328L12.383 75.5374L13.6545 73.7874L12.2886 72.1536L10.85 71.0572L10.9081 68.7408L11.3368 65.4369L10.6829 62.271L9.28797 60.2379L9.17173 58.5315L10.4432 55.4963L8.45245 52.0617L6.89767 51.4155L6.9122 49.1645L6.07668 46.5795L5.9895 43.9872L6.14934 42.8327L5.09586 39.8773L3.22866 39.4925L3.42483 33.6326L4.41292 28.0778L7.30453 27.9471L9.57859 26.3205L9.97818 23.7355L7.76951 22.1816L5.11766 18.4058L1.40506 16.4598L0.293457 11.1155L3.42483 5.56787L6.94126 5.94545L12.3031 1.2329L15.5507 1.1748L19.6266 1.63227L23.5208 3.18618L26.4124 7.02738L29.8126 10.0408L33.9393 10.8831L35.2326 10.5927L35.9155 9.75761L40.4346 9.77213L44.8228 10.796L48.7752 10.353L52.3352 8.24001L52.6258 6.80228L53.5195 5.77118L56.2004 5.14671L56.2295 6.34482L56.2513 6.35934Z" fill="#6C4CFF" stroke="white" stroke-width="0.5" stroke-linecap="round" stroke-linejoin="round"/>
</svg>
