<svg width="75" height="74" viewBox="0 0 75 74" fill="none" xmlns="http://www.w3.org/2000/svg">
<path d="M73.1324 31.2674L74.2004 35.0869L72.0499 36.9603L66.3974 44.5556L65.0679 43.7278L64.1016 42.1521L63.1062 42.2102L62.1762 42.6749L60.0184 45.0856L57.4683 47.4238L55.2596 49.0648L56.6982 51.4174L55.4703 53.683L52.2445 54.7286L49.2947 56.7327L48.8516 59.6662L50.0576 62.1423L49.273 65.4607L47.4421 64.9742L45.6766 64.9452L45.3206 69.527L43.5188 70.0571L41.6371 70.3766L38.5638 73.5861L36.4787 73.6006L34.4443 72.6857L29.0099 72.7002L28.3996 69.2438L28.85 64.6693L24.4545 63.217L19.267 62.5344L18.1191 61.8591L17.0874 61.0168L18.3952 56.8779L14.8787 53.1456L10.4759 50.4662L6.67613 49.2826L2.97082 50.6695L1.09634 47.569L1.37243 43.4664L1.21259 42.5514L1.02368 41.7164L1.48868 41.2517L1.84467 40.6272L1.63397 37.9188L2.60755 35.7694L3.71915 36.7279L4.87434 37.9115L8.07836 35.4862L12.5175 36.147L13.6509 34.2518L14.8279 31.6233L16.5643 30.6793L16.3391 25.8433L17.8721 23.723L15.7869 22.583L13.1932 22.3579L8.74677 20.2594L8.95019 15.5033L12.8662 13.049L14.7552 8.59054L21.1705 1.51081L24.1929 1.06787L27.0627 1.83756L29.3731 4.4371L31.8143 3.73275L34.0157 2.06992L35.9628 3.01389L37.4813 5.1487L38.1497 7.18911L40.1622 11.0666L47.4348 13.6589L50.3192 13.9784L51.8376 16.2512L53.0655 18.4586L53.7339 17.0281L55.0417 16.7885L56.5674 16.1858L57.7734 14.2979L59.0594 14.1236L59.6333 16.4037L60.9992 18.5893L62.5686 19.7656L63.4404 21.0872L64.7191 22.2272L64.7409 24.8993L65.5982 26.2862L67.1457 25.2624L68.5407 26.112L70.5895 29.1907L73.1106 31.2529L73.1324 31.2674Z" fill="#6C4CFF" stroke="white" stroke-width="0.5" stroke-linecap="round" stroke-linejoin="round"/>
</svg>
