<svg width="82" height="89" viewBox="0 0 82 89" fill="none" xmlns="http://www.w3.org/2000/svg">
<path d="M24.2175 40.9873L24.7915 40.9727L28.3588 39.4188L30.3568 36.1004L30.5166 35.6575L33.3574 32.7094L35.9293 31.2281L39.9761 26.0508L40.6663 24.359L41.48 22.9648L51.8114 15.3405L52.4434 13.4961L53.9619 11.1943L57.1296 7.63629L60.0939 6.01703L67.025 4.21623L73.8182 1.21733L75.6926 0.941406L75.8815 2.08869L77.1747 4.8407L79.4561 5.17472L80.0228 8.78357L81.178 13.5179L74.7626 20.5976L72.8736 25.0561L68.9576 27.5104L68.7542 32.2665L73.2006 34.365L75.7943 34.5901L77.8795 35.7301L76.3465 37.8504L76.5717 42.6864L74.8353 43.6304L73.6583 46.2589L72.5249 48.1541L68.0858 47.4933L64.8817 49.9186L63.7266 48.735L62.615 47.7765L61.6414 49.9259L61.8521 52.6343L61.4961 53.2588L61.0311 53.7235L61.22 54.5586L61.3799 55.4735L61.1038 59.5761L62.9782 62.6766L61.2709 63.686L59.1058 63.2721L57.195 63.6787L55.2333 63.2648L53.2063 64.8187L50.5181 66.0677L50.0677 69.8798L48.8398 72.4503L46.8491 74.5343L44.6332 76.1753L42.5262 76.7925L43.0058 79.4574L44.5242 81.8464L46.8273 82.1441L48.7744 83.0808L49.0651 85.6731L48.9125 88.3452L45.7884 88.1346L42.8023 87.0019L42.0467 84.2353L41.6035 81.6939L39.1188 81.6358L36.7067 82.892L34.4617 82.9864L32.2312 82.4636L29.2669 82.1877L26.3535 81.3454L24.6607 79.7624L23.3748 78.3247L22.0597 78.3465L21.3695 76.9813L19.2989 76.9959L18.1873 79.167L13.2832 77.2863L8.50981 72.4721L9.11284 69.2844L9.94836 65.9515L8.66239 65.189L7.49266 66.5324L6.17036 66.3145L6.01779 64.855L1.64405 61.5148L1.1936 58.9589L3.07533 57.4703L4.92072 53.3822L3.34414 48.1686L2.71206 46.8253L3.25696 46.7309L7.12939 46.9488L9.08378 46.7527L10.6749 45.9177L12.2878 45.5255L14.2349 44.6832L16.073 43.5505L17.4171 42.2652L18.9501 41.1688L24.2393 41.0018L24.2175 40.9873Z" fill="#6C4CFF" stroke="white" stroke-width="0.5" stroke-linecap="round" stroke-linejoin="round"/>
</svg>
