<svg width="76" height="100" viewBox="0 0 76 100" fill="none" xmlns="http://www.w3.org/2000/svg">
<path d="M2.33334 94.8101L0.625977 90.831L2.50045 87.44L3.92446 86.8591L5.1523 85.6029L7.2738 85.1018L7.14301 83.0905L5.93695 81.4349L7.0631 80.3094L8.58156 80.0843L9.34441 78.0875L9.56963 76.352L11.4151 75.8946L12.1271 74.2463L10.4996 73.266L9.60597 71.6177L11.4078 68.6623L14.1613 67.6312L15.3602 65.3439L16.3482 62.2942L17.5979 61.2704L18.833 61.2486L18.9856 56.202L16.1884 50.8577L16.6679 48.142L17.4962 45.4045L18.6877 43.6546L20.3006 42.5218L19.5522 38.3466L15.2875 37.468L16.0721 34.1496L14.8661 31.6735L15.3093 28.7399L18.259 26.7358L21.4848 25.6902L22.7127 23.4247L21.2741 21.072L23.4828 19.431L26.033 17.0929L28.1908 14.6821L29.1207 14.2174L30.1161 14.1593L31.0824 15.735L32.4119 16.5628L38.0644 8.96753L40.2149 7.09412L39.1469 3.2747L43.7314 0.660645L47.1679 2.86081L50.5753 6.79641L56.2714 6.92711L61.0956 10.9135L62.8683 14.5151L65.3531 15.7132L68.7533 14.6458L72.2043 13.9923L74.195 15.263L75.0669 18.5088L68.1575 20.5057L63.5658 24.572L67.7652 25.9879L66.7989 28.6528L65.789 30.0615L66.8134 31.0055L67.896 32.6247L64.8445 37.0831L63.1226 39.0437L62.338 41.2729L62.4251 44.25L63.9073 46.3049L65.0697 48.3308L62.9483 50.0227L60.5798 50.9013L60.6088 53.8784L60.449 56.1875L57.4992 56.8918L54.4768 57.1823L52.5515 58.6273L52.2319 61.5391L54.4768 63.7755L57.3176 64.901L57.2522 67.6748L54.4696 69.2578L53.0456 71.7774L55.0363 74.1228L52.6387 76.0979L56.562 77.4557L57.0343 80.3094L52.9729 81.3405L47.8218 84.2014L45.8093 85.7699L47.088 88.6744L49.2966 91.3175L45.2571 93.111L41.1013 94.2365L37.4759 92.9004L34.0757 93.0457L31.264 93.6266L28.5468 91.7967L23.6717 92.2034L21.9643 92.109L20.4895 93.0747L18.6441 96.6255L15.7597 98.2883L12.4031 98.9128L9.39527 97.613L9.46793 95.0062L8.58883 93.249L2.32607 94.8174L2.33334 94.8101Z" fill="#6C4CFF" stroke="white" stroke-width="0.5" stroke-linecap="round" stroke-linejoin="round"/>
</svg>
