<svg width="117" height="62" viewBox="0 0 117 62" fill="none" xmlns="http://www.w3.org/2000/svg">
<path d="M79.776 6.97596L81.1783 8.06515L80.7714 10.7736L82.5805 12.8431L87.4192 15.1594L88.4436 16.0888L90.1001 19.0224L91.0374 19.6977L107.421 19.5525L112.485 17.9405L114.446 18.6448L116.154 22.2682L116.706 23.0161H116.677L114.359 22.9435L112.761 24.3158L113.175 26.9589L111.606 28.7452L110.029 28.8106L110.516 30.1902L110.261 32.463L107.733 32.9713L105.822 31.2213L103.679 31.8095L102.655 35.4328L102.865 39.1288L99.4143 41.6485L95.026 40.0365L92.3378 40.5883L90.18 42.3383L91.2335 48.1691L87.47 48.249L83.525 45.025L81.8103 45.9471L80.7423 48.3216L76.5793 52.1265L76.3613 57.449L78.4319 60.6802L76.928 61.2829L75.257 60.8908L69.5609 60.7601L66.1535 56.8245L62.7169 54.6243L58.1325 57.2384L55.6114 55.1762L53.5626 52.0974L52.1677 51.2479L50.6201 52.2717L49.7628 50.8848L49.741 48.2127L48.4623 47.0726L47.5905 45.7511L46.0212 44.5748L44.6553 42.3891L44.0813 40.1091L42.7953 40.2834L41.5893 42.1713L40.0636 42.774L38.7558 43.0136L38.0874 44.4441L36.8596 42.2366L35.3411 39.9639L32.4567 39.6444L25.1841 37.0521L23.1716 33.1746L22.5032 31.1342L20.9847 28.9994L19.0376 28.0554L16.8362 29.7182L14.395 30.4226L12.0846 27.823L9.21484 27.0533L6.19972 27.4963L5.04453 22.7619L4.47783 19.1531L2.1965 18.8191L0.903262 16.0671L0.714355 14.9198L7.88526 13.8596L24.9298 11.34L27.8142 10.3234L29.5361 10.1201L30.3498 9.88772L32.0571 8.80579L33.0452 8.56617H36.9104L39.9836 7.62947L48.1209 2.77169L58.2052 1.74785L60.4356 0.317383L66.6839 4.21668L75.7292 6.03926L77.5456 7.05583L79.638 6.85978L79.7688 6.96144L79.776 6.97596Z" fill="#6C4CFF" stroke="white" stroke-width="0.5" stroke-linecap="round" stroke-linejoin="round"/>
</svg>
