<svg width="75" height="105" viewBox="0 0 75 105" fill="none" xmlns="http://www.w3.org/2000/svg">
<path d="M28.3428 104.153L26.3085 104.552L24.4195 103.688L21.9274 103.768L19.2828 104.647L14.9672 99.4549L15.3814 90.9519L13.6304 85.6875L9.66352 80.1254L8.5156 77.4968L8.62458 74.585L6.22699 70.1629L7.22962 67.8466L7.01894 65.0438L5.54407 62.2627L3.59694 61.5366L2.64518 59.8229L7.11337 56.3665L6.74285 52.1986L4.33074 47.5151L1.86778 39.2518L0.916016 31.3152L4.83206 31.1918L8.71176 30.3349L14.3569 31.1555L16.275 29.7323L18.0477 27.7282L20.0385 27.2779L22.0437 27.2925L23.0972 24.7002L22.901 21.3165L24.2233 19.2325L26.2721 18.6225L29.9993 16.4441L31.9246 11.8478L34.2277 11.4774L36.4219 10.715L37.5044 9.04492L38.7468 7.53458L40.178 6.88107L40.752 5.29812L40.8319 3.49006L40.752 1.79819L42.2196 2.13947L43.6581 2.06685L46.0048 0.992188L48.1627 1.98698L47.7703 3.38841L48.3734 4.69543L49.2525 4.09275L49.9064 2.93094L53.1176 5.1311L55.3118 5.26181L57.4405 4.76804L59.3659 3.53363L61.2549 4.29606L63.7832 6.05329L66.4859 7.44745L64.6114 10.8385L66.3188 14.8176L66.6094 17.134L65.803 19.8134L67.0381 22.9502L68.0334 25.9637L66.7547 27.6701L66.3915 29.8339L66.8274 32.7529L64.8585 34.5174L62.1703 35.5195L60.0197 37.48L61.2113 40.508L63.9285 41.3938L66.0209 42.759L68.1061 43.8554L71.0703 42.9623L73.9184 41.4882L74.1654 45.3367L73.2936 48.8003L72.4144 50.1291L71.2883 50.7899L68.9925 50.3688L68.1642 51.4942L66.9364 52.322L65.5995 53.5855L64.2918 55.2919L59.3223 56.8676L54.3673 56.4029L51.8971 57.0128L49.6303 58.6175L50.5094 60.5055L51.4248 62.0594L49.7901 62.9017L48.3443 64.2813L46.557 68.885L42.5611 70.221L38.2091 68.6236L36.3855 69.7418L37.2574 73.3434L34.7435 75.0861L31.6194 75.333L32.2079 79.6098L34.8889 79.7405L36.4654 80.8878L32.0626 91.5546L32.6729 97.1894L31.4305 101.459L28.3137 104.16L28.3428 104.153Z" fill="#6C4CFF" stroke="white" stroke-width="0.5" stroke-linecap="round" stroke-linejoin="round"/>
</svg>
