<svg width="95" height="76" viewBox="0 0 95 76" fill="none" xmlns="http://www.w3.org/2000/svg">
<path d="M94.4715 74.8894L91.2675 73.3791L90.9333 72.987L90.2649 71.8542L90.0106 71.5565H89.5747L88.1652 71.8542L74.1285 65.8709L71.4984 64.2371L70.3432 64.0919L69.4932 64.2662L67.6987 64.9052L64.3566 65.1448L64.0878 66.6696L64.3203 68.6592L63.5865 70.3221L61.8791 70.2422L60.0047 68.5648L57.0912 64.789L55.4129 63.2714L53.8436 62.5235L52.158 62.2766H50.1746L50.6977 61.1366L47.7044 61.1874L46.5347 60.897L45.2124 59.6625L45.147 59.2414L45.3577 57.9779L45.2632 57.4115L44.9363 57.0267L44.1226 56.5039L43.8102 56.1699L43.3452 55.5091L42.902 55.0589L42.546 54.5288L42.2989 53.5849L42.0229 50.4117L40.9549 47.4055L39.1676 45.7863L36.6901 46.752L34.7938 47.1804L33.0429 49.6856L31.7642 49.9687L29.9551 49.6638L28.6328 49.8018L25.7485 50.6658L24.9856 50.7457L22.6825 50.4698L21.9342 50.5787L21.3747 50.9055L20.7789 51.1015L19.9798 50.8256L19.8272 50.1938L20.0234 49.2208L19.9434 48.2188L18.2651 47.1369L16.8775 45.5684L15.3735 45.7572L13.7461 46.4471L12.3148 47.3692L12.2858 47.3402L2.02705 38.6121L4.22846 37.1672L5.90676 35.0977L3.61091 33.522L2.81171 32.0697L1.56934 31.4453L4.12674 28.7949L3.89426 25.0409L2.60828 23.3199L1.03896 22.0565L0.755615 19.2899L3.90152 18.709L8.18809 19.3916L11.5955 22.5067L11.2032 24.6197L10.5566 26.6456L12.0896 26.7618L13.7388 25.2006L18.6429 25.0554L22.3628 21.7079L22.4137 16.3709L26.0609 11.288L28.5674 9.68329L31.7569 8.05675L33.1228 4.36078L34.0891 1.14404L43.6576 8.55054L47.7625 6.63355L51.9546 3.91785L56.4156 2.63259L60.644 2.10253L64.8143 3.27159L67.9457 7.33063L71.7745 9.74137L73.8887 11.6874L75.5598 14.7589L78.4005 14.6427L80.7109 13.8875L83.9367 18.2661L85.5642 18.2879L87.0173 18.9559L85.5061 20.6115L84.5398 22.8915L85.4552 24.8738L86.9301 26.9724L87.8746 30.8208L89.0733 32.0334L88.5067 34.2844L88.6665 36.9348L89.3204 38.024L89.0007 38.8881L86.8429 40.4928L84.4744 41.0882L82.52 40.7179L80.6891 41.415L80.7037 43.9637L82.2512 46.0912L83.6171 49.5694L85.2954 52.7934L87.3297 53.8172L88.8627 51.4791L93.4544 50.1648L94.3843 55.4437L93.8685 56.9105L94.2826 57.9779L93.9775 60.8098L92.8223 63.3731L93.5924 64.7672L94.5369 66.1686L94.101 67.1634L93.8176 68.2526L94.5369 73.6477L94.457 74.8821L94.4715 74.8894Z" fill="#6C4CFF" stroke="white" stroke-width="0.5" stroke-linecap="round" stroke-linejoin="round"/>
</svg>
