<svg width="151" height="131" viewBox="0 0 151 131" fill="none" xmlns="http://www.w3.org/2000/svg">
<path d="M1.07441 35.7291L1.58298 34.4148L3.10144 28.7147L3.63181 27.2335L4.23484 26.2459L5.23746 25.6432L7.6205 25.0769L8.73936 24.6339H8.75389V24.6121L9.88729 22.9856L13.4909 19.5656L13.9414 18.6579L14.5662 16.5013L14.9948 15.6735L15.7214 15.02L17.1744 14.3302L17.8719 13.8146L19.6229 11.1425L21.2067 7.27225L22.1149 3.33665L21.9696 1.84083L25.9219 0.94043L32.1193 8.3687L34.3716 10.0896L42.3635 10.794L45.3205 9.40706L48.0086 8.68094L50.7622 9.66121L54.5983 8.1436L57.7079 4.70177L60.4978 4.81794L63.1351 6.19032L63.8035 7.77328L61.9799 7.79506L60.7739 8.79712L60.8247 11.1352L62.118 12.3987L63.5638 13.3935L65.8378 15.5646L67.8431 18.1787L69.1363 20.8L70.9018 22.775L74.2584 20.7128L77.9274 17.6195L79.286 18.9048L80.5938 20.524L82.8606 20.6402L85.0111 19.7834L86.8783 17.4162L89.2468 15.8768L92.4727 17.2637L100.959 18.8249L102.354 19.5438L103.821 20.5967L105.834 19.217L107.418 16.8208L109.888 16.7845L111.443 18.4982L112.096 20.2409L113.302 21.4608L113.84 23.886L113.186 26.3548L114.988 28.5042L117.131 30.6245L120.459 31.3942L122.362 34.5673L122.58 38.365L122.42 42.1699L121.258 46.8824L122.973 49.54L133.849 49.678L135.927 50.8326L137.917 52.234L140.649 52.8512L143.432 52.568L140.301 58.1156L141.412 63.4599L145.125 65.4059L147.777 69.1818L149.985 70.7357L149.586 73.3207L147.312 74.9472L144.42 75.0779L142.596 74.4316L140.766 74.7875L139.45 74.7148L138.441 73.2408L136.799 72.7688L135.28 72.0499L134.801 69.966L133.834 68.1652L131.473 67.3519L129.025 67.1849L127.535 67.8166L126.031 68.1071L122.885 69.3923L120.488 72.7906L118.504 73.7781L116.347 73.8144L112.336 76.0872L110.193 75.5208L108.318 73.9161L106.03 73.0665L103.654 73.2916L101.104 74.2065L100.595 76.8279L101.402 79.2967L102.593 81.4315L103.996 82.5497L105.071 84.169L108.333 87.1098L112.678 86.3909L114.051 88.7L112.649 93.006L109.321 94.4292L105.87 94.8285L104.337 100.115L105.71 104.435L107.069 105.561L107.134 107.492L105.761 109.257L103.966 108.668L102.848 107.492L101.845 106.011L99.7816 106.628L99.1059 110.019L96.3088 114.165L92.2474 115.843L91.6735 116.91L91.8042 118.464L90.5183 119.357L89.0071 119.749L87.6339 119.669L86.6749 120.976L85.1274 121.739L83.4491 121.005L80.5139 121.499L78.2325 122.407L75.0212 122.85L73.3502 127.083L70.4949 130.583L65.8596 128.855L68.0538 127.177L68.9692 124.665L66.6879 123.583L64.1232 123.373L62.4522 120.41L60.2362 118.682L56.4365 119.713L52.5858 120.265L51.3507 117.651L54.0679 114.064L55.1142 111.987L56.8433 111.391L57.766 109.954L56.4946 107.507L54.6274 106.802L53.2252 105.248L52.5931 104.108L51.5977 103.564L48.7061 97.0069L46.897 97.4644L44.8991 97.5733L43.4969 96.8108L41.9857 97.0505L42.3344 94.9229L43.4533 93.202L42.5741 88.1264L44.4995 82.9201L47.3838 78.5343L54.4094 82.3174L57.5045 84.7209L60.5777 85.4833L62.6919 82.1431L64.3266 78.7521L67.814 79.471L67.8503 80.8796L68.4098 82.9055L70.1389 86.086L69.1654 89.9562L71.4612 91.5247L75.0866 90.9147L77.5423 91.9748L79.6711 89.7747L78.7992 85.8827L76.0893 83.3049L71.5775 75.3103L67.9448 66.466L66.637 63.9028L68.2281 56.765L72.8998 46.5339L74.6725 43.2155L75.7187 40.144L72.6673 42.2643L69.456 42.0682L66.0703 39.0185L62.1398 39.868L57.8605 41.7051L53.6756 40.5288L49.4036 37.6751L48.3211 36.3536L46.9552 35.8235L44.8918 39.9479L44.8264 45.285L40.598 48.7703L41.666 50.9052L41.4771 53.2142L40.1911 54.7899L38.6654 55.6032L36.6238 55.3055L34.8147 54.0638L31.2257 54.4487L28.552 57.8324L27.2588 54.3543L25.5805 51.6603L22.9722 52.0016L21.3448 51.6458L20.4293 50.0774L17.8356 50.0919L16.368 47.1801L14.7042 45.1615L12.5537 46.4104L10.8754 45.2341L11.4057 41.5599L10.127 40.8483L8.99365 42.9105L7.55511 43.2155L6.94482 42.6273L6.11657 42.7145L5.33917 41.618L4.87419 40.1803L3.39932 37.8712L1.51759 36.1866L1.06714 35.7073L1.07441 35.7291Z" fill="#6C4CFF" stroke="white" stroke-width="0.5" stroke-linecap="round" stroke-linejoin="round"/>
</svg>
