<svg width="52" height="58" viewBox="0 0 52 58" fill="none" xmlns="http://www.w3.org/2000/svg">
<path d="M0.559326 22.8399L3.23298 19.4562L6.82206 19.0713L8.63114 20.313L10.6727 20.6107L12.1984 19.7975L13.4844 18.2218L13.6733 15.9127L12.6053 13.7779L16.8337 10.2925L16.8991 4.95545L18.9625 0.831055L20.3284 1.36112L21.4109 2.68268L25.6829 5.53635L29.8678 6.71268L34.1471 4.87557L38.0776 4.026L41.4633 7.07574L44.6746 7.27179L47.726 5.1515L46.6798 8.22301L44.9071 11.5414L40.2355 21.7725L38.6443 28.9103L39.9521 31.4736L43.5848 40.3178L48.0966 48.3124L50.8066 50.8902L51.6784 54.7822L49.5497 56.9824L47.094 55.9222L43.4685 56.5322L41.1727 54.9638L42.1463 51.0935L40.4171 47.9131L39.8577 45.8872L39.8213 44.4785L36.334 43.7596L34.6993 47.1506L32.585 50.4908L29.5118 49.7284L26.4167 47.3249L19.3911 43.5418L17.8 41.6974L12.7143 37.8054L10.0406 36.7598L9.64829 32.6717L9.04527 30.4643L8.1371 28.511L6.34981 27.6106L4.84589 26.3762L2.83338 24.3358L0.566588 22.8181L0.559326 22.8399Z" fill="#6C4CFF" stroke="white" stroke-width="0.5" stroke-linecap="round" stroke-linejoin="round"/>
</svg>
