<svg width="100" height="91" viewBox="0 0 100 91" fill="none" xmlns="http://www.w3.org/2000/svg">
<path d="M29.569 77.9211L27.4184 74.7842L24.2144 72.5696L21.4972 71.8652L18.4893 72.6785L16.9127 72.8528L15.6413 75.6629L14.0938 75.3797L14.3989 73.7604L13.4544 72.998L12.0958 72.4243L11.1658 71.3497L10.4756 71.7708L8.82638 70.5655L7.54767 65.8239L8.63747 61.8519L11.5509 60.6684L14.072 59.1871L12.1394 55.3676L11.2167 52.7899L11.0859 49.9507L10.5773 45.8409L12.9822 44.12L16.1789 45.4778L17.6829 45.6739L18.2205 44.0038L17.7846 42.5007L16.6657 41.9488L14.6968 39.6761L16.3751 35.5517L14.9729 33.199L12.1394 34.1285L8.2742 34.0341L4.93215 31.4999L3.49361 29.5103L2.82518 26.9543L2.86152 25.3932L0.776367 20.6951L2.41832 20.0997L3.22479 17.8269L1.80804 9.47648L2.25123 5.35934L6.66129 5.72967L11.1004 4.85832L15.5323 2.73803L19.8407 2.51293L21.083 4.50978L22.4925 6.0056L25.9726 3.93613L30.6225 4.85832L35.1052 6.81885L37.8733 6.57923L39.9512 4.98176L41.397 5.22865L42.8137 5.70062L44.3685 5.00354L45.6618 4.16124L47.2674 4.80749L49.3017 2.49841L50.7039 3.14466L52.1715 5.15603L53.8861 6.57197L55.1285 5.33756L54.5182 3.18097L56.5307 3.34072L58.0492 4.2992L59.3715 3.41333L60.9699 2.08452L64.1013 0.625L65.656 1.13329L67.2689 1.37291L69.078 1.06068L70.9016 1.32934L71.8534 9.26591L74.3164 17.5292L76.7284 22.2127L77.099 26.3807L72.6308 29.837L73.5825 31.5507L75.5297 32.2768L77.0045 35.0579L77.2152 37.8608L76.2126 40.1771L78.6102 44.5992L78.5012 47.511L79.6491 50.1395L83.616 55.7017L85.367 60.9661L84.9528 69.469L89.2685 74.6608L91.9131 73.7822L94.4051 73.7023L96.2941 74.5664L98.3284 74.1671L98.2848 80.7022L99.4618 83.8173L99.4182 87.0485L95.6547 88.1885L92.0511 90.0692L89.5591 88.0433L87.3431 84.7975L82.8386 79.8381L76.7139 78.0881L75.9874 77.6162L74.7959 78.4076L73.8441 79.7873L70.2768 83.2872L66.2445 85.2259L64.2102 82.3432L60.6575 78.6545L58.2599 76.6359L55.5863 77.9284L53.4357 77.3039L54.7217 75.5104L54.8815 73.499L54.758 71.4876L51.8301 70.0354L47.6743 72.9835L44.7826 71.9451L41.9564 73.0779L40.7141 76.8101L39.8858 80.9273L39.0067 80.7821L38.0549 80.8184L37.0668 80.6005L36.1151 79.7146L35.4394 79.2717L34.4658 79.1628L32.5986 79.2862L29.5472 77.9502L29.569 77.9211Z" fill="#6C4CFF" stroke="white" stroke-width="0.5" stroke-linecap="round" stroke-linejoin="round"/>
</svg>
