<svg width="73" height="72" viewBox="0 0 73 72" fill="none" xmlns="http://www.w3.org/2000/svg">
<path d="M54.5006 66.4401L51.7979 65.0459L49.2696 63.2887L47.3806 62.5262L45.4552 63.7606L43.3265 64.2544L41.1324 64.1237L37.9211 61.9308L37.2672 63.0926L36.3881 63.6953L35.785 62.3883L36.1774 60.9868L34.0196 59.9921L31.6729 61.0667L30.2343 61.1393L28.7667 60.7981L28.8466 62.4899L28.7667 64.298L28.1927 65.8809L26.7615 66.5344L25.5191 68.0448L24.4366 69.7149L22.2424 70.4773L19.9393 70.8476L16.8152 68.2989L13.2915 67.5075L12.8483 64.8571L14.73 63.2451L14.8027 61.713L13.6257 61.2991L12.594 60.2172L12.1871 58.4309L11.1991 55.8096L10.0875 53.2972L10.2473 50.4798L11.4461 47.9238L11.417 45.8979L11.9692 44.1916H13.2188L14.4176 43.9447L13.4295 39.5952L10.6178 35.8629L10.7704 33.2416L12.5795 31.281L10.2182 28.5944L6.92703 27.3382L7.0796 24.666L6.78899 22.0738L4.84188 21.1371L2.53875 20.8393L1.02029 18.4504L0.540771 15.7855L2.64774 15.1683L4.86367 13.5272L6.85437 11.4433L8.08222 8.87278L8.53267 5.06062L11.2209 3.81169L13.2479 2.25778L15.2095 2.67167L17.1203 2.26504L19.2854 2.67893L20.9928 1.66961L24.6981 0.282715L28.4979 1.4663L32.9007 4.14571L36.4171 7.87799L35.1094 12.0169L36.141 12.8592L37.289 13.5345L42.4764 14.2171L46.872 15.6693L46.4215 20.2439L47.0318 23.7003L52.4663 23.6858L54.5006 24.6007L56.5858 24.5862L59.659 21.3767L61.5408 21.0572L63.3426 20.5271L63.6986 15.9452L65.464 15.9743L67.2949 16.4608L71.5597 17.3394L72.308 21.5146L70.6951 22.6474L69.5036 24.3974L68.6754 27.1349L68.1958 29.8506L70.993 35.1949L70.8404 40.2414L69.6053 40.2632L68.3557 41.2871L67.3676 44.3368L66.1688 46.6241L63.4152 47.6552L61.6134 50.6105L62.507 52.2588L64.1345 53.2391L63.4225 54.8874L61.5771 55.3449L61.3519 57.0803L60.589 59.0771L59.0705 59.3022L57.9444 60.4277L59.1505 62.0833L59.2812 64.0947L57.1598 64.5957L55.9319 65.8519L54.5151 66.4328L54.5006 66.4401Z" fill="#6C4CFF" stroke="white" stroke-width="0.5" stroke-linecap="round" stroke-linejoin="round"/>
</svg>
