<svg width="88" height="89" viewBox="0 0 88 89" fill="none" xmlns="http://www.w3.org/2000/svg">
<path d="M87.4488 26.0397L82.6464 38.5726L81.4839 40.4823L79.9872 41.6006L74.1313 43.1835L73.1505 43.8588L72.5693 44.0621H71.7265V44.8681L74.7126 47.1046L75.3011 48.005L75.1994 49.3846L73.5501 54.5038L72.3659 60.1967L71.7556 61.2931L71 62.0701L70.3316 62.9051L69.9756 64.2121L70.1354 66.8407L71.4214 72.2068L71.7265 74.6248L71.2543 82.5541L71.7265 84.3113L70.0046 85.6328L69.3944 85.6982L67.3237 86.526L65.4929 88.1815L62.9427 88.7116L60.4361 87.7314L58.0386 86.4824L55.8081 84.8559L53.9627 82.4887L51.8921 80.5427L49.6907 79.1994L47.3658 78.4732L44.1545 80.5137L36.5985 82.4234L32.3555 81.4794L28.4322 79.1195L26.427 78.8944L24.5888 78.2409L21.9079 73.9132L18.5368 70.5875L14.381 69.2151L9.25167 72.1995L4.29669 73.296L2.08804 70.6529L0.809326 67.7484L2.82185 66.1799L7.97296 63.319L12.0343 62.2879L11.5621 59.4342L7.63878 58.0764L10.0363 56.1013L8.04564 53.7559L9.46962 51.2363L12.2523 49.6533L12.3177 46.8795L9.4769 45.754L7.23192 43.5175L7.5516 40.6058L9.4769 39.1608L12.4993 38.8703L15.449 38.166L15.6089 35.8569L15.5798 32.8798L17.9483 32.0012L20.0698 30.3093L18.9074 28.2834L17.4252 26.2285L17.338 23.2514L18.1227 21.0221L19.8446 19.0616L22.896 14.6032L21.8135 12.9839L20.7891 12.04L21.799 10.6313L22.7653 7.9664L18.5659 6.55046L23.1576 2.48415L30.0669 0.487305L33.4671 1.49662L36.0318 5.11999L36.5985 7.97367L38.7418 9.02655L39.6572 8.48922L40.3402 7.76309L42.0693 7.53073L43.7185 6.73199L44.6122 4.45921L45.9417 3.96545L48.8988 8.22781L52.3208 11.4228L55.5102 12.0835L57.7189 14.0368L59.2955 16.9922L63.5385 22.1985L68.6097 24.8271L70.3679 24.2244L71.7701 22.5978L74.2912 21.4143L77.0084 21.5885L79.3697 23.9847L81.1352 26.2793L84.1648 26.2648L87.1872 25.909L87.4488 26.0252V26.0397Z" fill="#6C4CFF" stroke="white" stroke-width="0.5" stroke-linecap="round" stroke-linejoin="round"/>
</svg>
