<svg width="96" height="111" viewBox="0 0 96 111" fill="none" xmlns="http://www.w3.org/2000/svg">
<path d="M18.7765 0.356682L19.0598 0.523694L22.0096 2.81099L25.1555 4.64083L28.8898 5.14186L30.8588 4.62631L34.4115 3.04335L35.7048 2.81099L36.3368 4.15432L37.9134 9.36791L36.068 13.456L34.1863 14.9446L34.6368 17.5005L39.0105 20.8407L39.1631 22.3002L40.4854 22.5181L41.6551 21.1747L42.9411 21.9371L42.1055 25.2701L41.5025 28.4578L46.2759 33.272L51.18 35.1526L52.2916 32.9815L54.3622 32.967L55.0524 34.3321L56.3675 34.3103L57.6534 35.7481L59.3463 37.331L62.2596 38.1733L65.2239 38.4493L67.4544 38.9721L69.6994 38.8777L72.1115 37.6215L74.5962 37.6796L75.0394 40.221L75.795 42.9875L78.7811 44.1203L81.9052 44.3309L85.1964 45.5871L87.5576 48.2737L85.7486 50.2343L85.596 52.8556L88.4077 56.5879L89.3958 60.9374L88.197 61.1988H86.9474L86.3952 62.8907L86.4242 64.9165L85.2255 67.4725L85.0656 70.2899L86.1772 72.8023L87.1653 75.4236L87.5722 77.2099L88.6039 78.2918L89.7808 78.7057L89.7082 80.2378L87.8265 81.8498L88.2697 84.5002L91.7934 85.2916L94.9175 87.8403L92.9921 92.4367L89.265 94.6151L87.2162 95.225L85.8939 97.309L86.09 100.693L85.0366 103.285L83.0313 103.271L81.0406 103.721L79.2679 105.725L77.3498 107.148L71.7046 106.328L67.8249 107.184L63.9089 107.308L62.0853 107.039L60.2762 107.351L58.6633 107.112L57.1085 106.603L53.9771 108.063L52.3788 109.392L51.0565 110.278L49.538 109.319L47.5255 109.159L45.5639 104.374L47.3947 100.715L48.1431 97.9916L48.1794 94.9273L47.1695 93.1846L45.4839 92.6836L41.8004 88.9949L43.7911 82.5178L42.3235 77.9432L37.0997 77.0646L34.4333 76.2296L28.4321 76.4692L22.8596 75.823L20.6219 74.7773L19.4739 71.6623L18.2388 69.1571L6.607 68.9611L4.35473 67.1893L2.90891 64.1977L1.01993 62.818L0.496826 60.5525L4.28207 56.5298L3.85342 48.9127L5.4954 48.5642L7.12283 48.0559L8.53231 46.7198L10.0871 45.6524L13.6544 42.2251L13.1894 37.7812L11.3658 34.0199L10.6102 29.7575L6.93393 29.9608L5.93857 27.4339L8.67036 24.6964L11.1551 21.5378L13.1022 17.3771L12.4338 16.2443L11.0243 16.012L10.3559 12.345L12.9206 9.19364L14.1121 4.4012L16.2191 2.47697L18.5294 1.03924L18.7765 0.327637V0.356682Z" fill="#6C4CFF" stroke="white" stroke-width="0.5" stroke-linecap="round" stroke-linejoin="round"/>
</svg>
