<svg width="62" height="101" viewBox="0 0 62 101" fill="none" xmlns="http://www.w3.org/2000/svg">
<path d="M29.955 0.181641L48.4091 12.8162L51.5186 14.1814L55.4274 14.7114L57.1638 15.4956L59.1109 16.3743L59.8883 20.0484L58.4207 23.7154L55.4201 25.3782L53.5457 25.6324L50.1237 26.7579L48.3509 27.0193L46.6363 28.1448L45.6773 30.8242L43.5994 39.77L43.643 42.464L44.711 44.7222L46.8833 46.6174L49.5279 47.2491L60.9491 46.2253L60.5713 50.4804L59.8883 53.276L57.7668 53.8714L55.6526 53.7044L54.3013 55.389L55.5727 57.0228L57.3019 57.4512L58.9656 58.1555L59.5251 60.5735L60.4623 63.0061L59.5251 64.6834L55.3693 66.2446L52.3687 70.9499L51.119 77.318L52.0563 79.0825L53.938 79.5036L54.4538 81.7546L53.7418 83.7442L48.9104 85.2473L43.9481 85.8209L40.7659 87.019L39.0367 87.9993L39.0803 90.4972L36.8063 96.7056L32.7522 100.387L32.3235 100.075L30.9141 99.4431L30.0786 99.3487L28.4438 99.4358L27.6301 99.1308L27.1361 98.5935L26.9326 98.3684L25.9736 96.3498L25.327 95.6309L24.5278 95.4058L22.6751 95.5075L21.7597 95.2969L20.946 94.6724L19.7399 93.0532L19.1442 92.436L16.2962 91.0781L15.1192 89.9671L14.3054 87.7089L12.6998 82.0814L11.6536 79.9103L11.5809 79.3294L11.6681 78.734L11.9079 78.1531L12.0169 77.8481L12.0532 77.5431L12.0169 77.2527L11.9079 76.9695L11.6245 76.5628L11.5373 76.1199L11.6245 75.6915L11.9079 75.2631L11.9369 75.2122L11.9587 75.1542L11.9369 75.0961L11.9079 75.0162L11.254 73.5494L11.1741 70.8264L10.6074 69.2653L9.72101 68.4012L7.19266 66.9998L6.11739 65.9977L5.33273 64.7488L4.64978 63.2965L4.09762 61.7499L3.71255 60.2032L3.69076 59.2157L4.01043 57.2334L3.92325 56.3112L1.69278 53.6318L0.56665 50.4078L1.0171 47.8155L2.11417 45.0708L2.92789 41.4038L3.095 37.8313L3.34928 37.2286L4.19933 35.6456L4.42456 35.1156L4.62072 33.2567L4.66431 29.8003L4.86048 28.319L5.90669 26.6998L7.83928 25.8647L10.5493 25.429L11.8861 25.2112L13.7969 25.1531L14.7632 23.9114L15.417 22.1905L16.4124 20.702L18.1706 20.0702L19.9361 20.1937L21.4618 19.8887L22.4717 18.0443V16.9915L21.905 14.4645L21.8178 13.2955L21.9849 11.9449L22.8713 8.40139H22.7478L22.5807 8.01654L22.4862 7.37755L22.6025 6.65142L22.8059 6.49894L24.2009 4.87968L25.5086 2.73034L26.2642 1.9316L29.9478 0.203424L29.955 0.181641Z" fill="#6C4CFF" stroke="white" stroke-width="0.5" stroke-linecap="round" stroke-linejoin="round"/>
</svg>
