<svg width="88" height="101" viewBox="0 0 88 101" fill="none" xmlns="http://www.w3.org/2000/svg">
<path d="M25.7797 2.28564L27.0874 2.50347L34.3601 0.876953L36.2636 1.24728L41.1677 4.13L71.21 11.7108L72.0527 11.9213L87.2882 11.1734L86.6271 16.8808L83.067 22.3412L78.2574 24.7375L75.5038 24.4543L73.1716 26.5237L70.8394 29.3629L68.6961 31.3815L70.4108 35.0049L71.3771 39.2745L73.7238 42.9414L77.6907 43.7474L79.26 49.3096L79.3472 51.3282L78.6788 53.63L77.9595 60.4701L73.8836 62.6122L70.8903 62.1039L67.9769 62.2782L66.3422 63.3456L65.3904 64.6018L64.1262 64.0209L62.8548 63.6941L56.5121 66.1992L54.9864 69.6701L54.1146 72.03L54.8629 73.6275L60.6534 75.9729L61.3509 80.4967L60.6534 85.2092L59.7598 87.8523L57.5874 87.8378L56.1053 86.509L54.783 87.4094L55.2407 90.735L56.4177 93.8356L54.8338 96.2318L52.8213 97.6115L51.3537 96.5586L49.9588 95.8397L41.4728 94.2785L38.247 92.8916L35.8785 94.431L34.0113 96.7982L31.8608 97.655L29.594 97.5388L28.2862 95.9196L26.9276 94.6343L23.2586 97.7276L19.902 99.7898L18.1365 97.8148L16.8433 95.1935L14.838 92.5794L12.564 90.4083L11.1182 89.4135L9.82493 88.15L9.77407 85.8119L10.9801 84.8099L12.8037 84.7881L12.1353 83.2051L9.49799 81.8327L6.70809 81.7166L6.51192 78.5434L8.91676 76.5538L11.1545 76.336L12.2516 73.642L6.96237 70.7303L0.539795 68.4357L1.26633 65.1754L3.38782 62.525L5.13877 59.243L7.22393 56.2949L7.89234 51.6912L7.72524 47.1457L10.3553 43.3481L13.8645 41.3004L15.9278 42.5929L17.6425 42.7163L19.3643 42.5929L21.2824 40.3419L23.3458 38.7372L24.7698 39.6593L25.9468 38.5847L25.8378 37.1324L24.7843 36.5443L23.8689 35.6221L23.2005 34.4675L22.1542 34.119L21.2388 33.451L19.7857 32.006L20.2435 30.2415L21.7619 29.1596L22.7645 27.5911L22.6338 26.1389L22.859 24.7302L24.5663 20.7873L25.925 16.5395L26.8549 6.21398L25.7869 2.27838L25.7797 2.28564Z" fill="#6C4CFF" stroke="white" stroke-width="0.5" stroke-linecap="round" stroke-linejoin="round"/>
</svg>
