<svg width="84" height="97" viewBox="0 0 84 97" fill="none" xmlns="http://www.w3.org/2000/svg">
<path d="M79.1866 71.7357H79.0704L77.0143 72.7813L75.1035 76.3757L73.447 77.5229L72.2555 78.0312L71.4853 79.2148L70.7806 80.609L69.8216 81.7562L69.0733 81.9523L67.4603 81.6909L66.5667 82.0757L65.644 83.0052L64.8521 82.9907L64.0456 82.6857L63.1084 82.7147L62.1857 83.2956L61.1467 84.1815L60.2676 84.9222L59.5556 85.2852L58.6111 85.0311L57.02 83.6369L56.2136 83.2375L55.1819 83.5425L53.3292 85.4232L52.4501 86.0622L50.8009 86.251L42.729 84.9004L41.196 85.0892L39.8011 86.0912L37.3236 88.7561L36.6915 89.2281L36.1612 89.7654L35.8051 90.5206L35.9577 90.9708L36.9967 91.6243L37.251 92.0164L37.1783 92.6627L36.815 93.6792L36.7206 94.2819L36.6625 94.979L36.6116 95.008L34.7589 96.0609L32.5939 94.9572L30.4288 93.5703L28.6851 91.5299L28.8159 87.1732L26.7307 84.2977L23.781 83.6369L21.9428 86.0985L20.6714 88.1607L19.9085 86.3454L19.2619 82.751L16.6609 80.7832L8.79253 79.7521L1.43271 76.0344L1.4763 72.8031L0.299316 69.688L0.342907 63.1529L3.45975 60.4517L4.70212 56.1821L4.09184 50.5474L8.49464 39.8806L6.91807 38.7333L4.23715 38.6026L3.64866 34.3257L6.77276 34.0788L9.28657 32.3361L8.41474 28.7345L10.2383 27.6163L14.5903 29.2138L18.5862 27.8777L20.3735 23.2741L21.8193 21.8944L23.454 21.0521L22.5386 19.4982L21.6595 17.6103L23.9263 16.0055L26.3965 15.3956L31.3515 15.8603L36.321 14.2846L37.6287 12.5782L38.9656 11.3148L40.1934 10.487L41.0217 9.36149L43.3175 9.78263L44.4437 9.12185L45.3228 7.79305L46.1946 4.32943L45.9476 0.480957L50.9825 1.25792L54.2519 7.67687L54.9421 10.9227L55.9811 13.8853L57.1072 14.9091L57.7248 16.4485L57.8919 17.937L58.6257 19.0117L61.9968 23.2014L63.8349 24.2761L63.9075 26.6433L71.6888 32.4087L72.3935 34.4855L73.3307 36.4532L75.8518 37.3391L78.5255 37.3827L81.1192 39.0383L82.7684 42.2477L82.2381 45.8784L79.3828 47.5339L78.2276 49.5308V52.2174L78.511 54.2216L77.6028 56.6032L76.7891 59.9797L77.9951 63.1093L79.7969 66.2462L79.1212 70.5086L79.1939 71.7067V71.7284L79.1866 71.7357Z" fill="#6C4CFF" stroke="white" stroke-width="0.5" stroke-linecap="round" stroke-linejoin="round"/>
</svg>
