<svg width="369" height="274" viewBox="0 0 369 274" fill="none" xmlns="http://www.w3.org/2000/svg">
<circle cx="106.78" cy="166.25" r="106.78" fill="white"/>
<circle cx="183.824" cy="77.044" r="77.044" fill="white"/>
<circle cx="256.137" cy="160.171" r="112.863" fill="white"/>
<rect x="106.78" y="216.265" width="154.088" height="56.7692" fill="white"/>
<path d="M283.187 160.386C283.037 158.562 282.579 156.999 281.287 155.681C280.716 155.099 280.025 154.655 279.296 154.325C278.169 152.862 276.487 151.858 274.534 151.797C272.784 151.751 271.018 151.85 269.253 151.912C270.072 149.475 269.659 146.61 267.728 144.779C265.362 142.518 263.011 140.258 260.63 138.013C259.248 136.703 257.467 136.014 255.702 136.014C253.989 136.014 252.292 136.657 250.962 138.013C248.416 140.626 248.228 145.315 250.962 147.889C252.457 149.291 253.974 150.671 255.484 152.057C250.376 152.111 245.268 152.195 240.161 152.226C238.899 152.226 237.644 152.188 236.382 152.188C236.262 150.617 235.631 149.406 234.662 148.165C233.738 146.978 232.814 145.782 231.898 144.602C230.929 143.361 228.983 142.756 227.496 142.756C225.858 142.756 224.266 143.423 223.109 144.602C221.952 145.782 221.276 147.407 221.276 149.092C221.276 150.234 221.637 151.161 222.125 152.034C216.101 151.912 210.084 151.751 204.06 151.605C203.992 151.605 203.924 151.605 203.857 151.605C203.714 151.031 203.564 150.456 203.308 149.866C202.895 148.939 202.49 148.027 202.092 147.108C201.483 145.713 199.831 144.633 198.448 144.258C197.923 144.112 197.389 144.035 196.848 144.035C195.774 144.035 194.708 144.319 193.776 144.878C192.424 145.683 191.395 147.031 190.982 148.579C190.711 149.598 190.779 150.517 190.982 151.421C182.651 151.337 174.314 151.283 165.983 151.184C159.733 151.107 153.484 151.061 147.257 150.831C144.665 150.739 142.074 150.709 139.475 150.64C139.362 148.847 139.264 147.047 139.189 145.254C139.084 142.541 138.919 139.822 138.806 137.094C138.581 131.769 138.273 126.459 138.153 121.135C138.017 115.948 138.032 110.768 138.017 105.581C137.987 100.708 138.077 95.8662 138.603 91.024C139.016 88.488 139.625 86.0746 140.511 83.6764C140.872 82.9103 141.27 82.1671 141.721 81.4545C141.901 81.2553 142.081 81.0638 142.269 80.8799C142.352 80.8263 142.434 80.7803 142.509 80.7343C143.133 80.5351 143.764 80.3666 144.402 80.2287C145.168 80.1827 145.927 80.1904 146.686 80.2363C147.767 80.4509 148.834 80.742 149.871 81.1098C150.704 81.5388 151.478 82.0598 152.267 82.5655C151.704 84.1055 151.365 85.6762 151.726 87.4154C152.087 89.1239 153.078 90.4188 154.107 91.7213C155.407 93.6367 156.631 95.7437 158.404 97.23C159.448 98.0958 160.59 98.9309 161.957 99.1455C163.579 99.3753 165.067 99.3447 166.584 98.6858C168.327 97.9426 169.619 97.1534 171.091 95.9122C173.097 94.2266 174.704 92.1503 176.297 90.0433C177.949 87.8597 179.467 85.5536 180.954 83.2627C182.216 81.3396 183.5 79.3935 184.792 77.5011C185.964 75.7695 187.309 74.084 188.24 72.2068C188.969 70.7664 189.457 69.2188 189.472 67.5945C189.502 63.4955 185.799 61.2966 182.343 60.5227C179.812 59.9481 177.273 59.4271 174.772 58.7146C174.268 58.5766 173.765 58.5077 173.262 58.5077C172.383 58.5077 171.527 58.7069 170.745 59.0823C170.355 59.0363 169.964 59.1436 169.574 59.1743C169.063 57.9484 168.289 56.8298 167.087 56.1402C164.458 54.6232 162.107 52.6618 159.501 51.0758C156.811 49.4209 153.672 48.2716 150.637 47.4212C147.542 46.5554 144.207 46.2106 141.014 46.1187C140.827 46.1034 140.624 46.0957 140.414 46.0957C137.274 46.0957 134.036 46.7469 131.092 47.7889C129.304 48.4095 127.591 49.1374 125.886 49.9266C123.783 50.8996 122.002 52.4319 120.215 53.8877C119.111 54.7841 118.209 55.918 117.315 57.029C116.068 58.5766 114.889 60.2163 113.777 61.8865C112.973 63.0817 112.215 64.3076 111.486 65.5565C110.187 67.8014 109.398 70.4447 108.714 72.9424C107.805 76.2829 107.347 79.746 107.017 83.1861C105.867 95.4602 106.303 107.857 106.288 120.177C106.273 126.107 106.228 132.06 106.153 138.006C106.108 140.841 106.078 143.683 106.153 146.518C106.175 147.728 106.183 148.947 106.221 150.157C105.898 150.15 105.567 150.157 105.244 150.15C103.291 150.119 101.338 150.088 99.3849 150.088C97.5746 150.088 95.7718 150.111 93.9691 150.18C92.6245 150.234 91.4301 150.77 90.3935 151.506C89.3269 151.835 88.3128 152.341 87.5166 153.153C86.1494 154.547 85.6687 156.187 85.511 158.102C85.3457 160.056 85.1955 162.002 85.1203 163.971C85.0452 166.155 85.1955 168.193 85.5185 170.361C86.3072 175.786 90.6114 179.402 95.539 180.827C95.3812 186.152 95.5165 191.523 96.1625 196.817C96.5531 200.004 96.9812 203.207 97.4995 206.394C97.9728 209.26 98.3784 212.118 99.2572 214.891C100.286 218.17 102.037 220.944 104.065 223.648C106.175 226.453 108.376 229.203 111.148 231.387C111.922 231.992 112.741 232.544 113.537 233.111C112.38 235.708 111.223 238.313 110.202 240.956C109.458 242.872 109.203 244.917 108.97 246.948C108.85 247.89 109.045 249.285 109.255 250.135C109.496 251.154 109.834 252.181 110.314 253.092C111.531 255.414 113.499 257.084 115.685 258.402C118.69 260.21 122.168 260.647 125.578 260.34C127.749 260.141 129.747 259.75 131.723 258.777C134.224 257.552 136.215 255.835 137.837 253.544C140.008 250.51 140.947 246.657 142.329 243.193C142.412 242.979 142.336 242.711 142.382 242.473C143.869 242.519 145.349 242.55 146.806 242.588C152.815 242.741 158.825 242.895 164.834 243.063C176.567 243.393 188.278 244.082 200.018 244.006C206.013 243.96 211.992 243.883 217.971 243.852C222.884 243.829 227.804 243.262 232.694 242.703C232.784 244.404 232.934 246.09 233.347 247.737C233.821 249.652 234.82 251.514 235.849 253.184C236.683 254.533 237.727 255.766 238.929 256.778C242.647 259.904 247.289 261.13 252.051 260.432C255.281 259.965 258.136 258.218 260.577 256.08C262.14 254.717 263.184 252.878 263.957 250.97C264.461 249.729 264.896 248.541 264.956 247.147C265.137 243.791 263.987 240.849 262.275 238.06C261.426 236.681 260.562 235.333 259.803 233.907C259.706 233.724 259.503 233.655 259.39 233.486C260.096 232.873 260.825 232.291 261.494 231.632C262.846 230.283 263.995 228.644 265.092 227.081C265.895 225.962 266.654 224.744 267.263 223.518C268.99 220.101 270.402 216.569 271.409 212.884C272.468 209.06 272.896 204.992 273.302 201.062C273.835 195.783 274.241 190.435 274.061 185.11C275.6 184.489 277.118 183.83 278.537 182.965C279.83 182.206 281.512 180.689 282.211 179.325C282.999 177.747 283.36 176.521 283.548 174.774C283.638 173.924 283.668 173.089 283.668 172.223C283.698 168.262 283.518 164.331 283.187 160.386ZM270.605 173.449C270.658 173.38 270.71 173.311 270.755 173.242V173.273C270.71 173.334 270.658 173.395 270.605 173.449ZM271.251 172.476C271.311 172.33 271.371 172.185 271.431 172.039C271.386 172.185 271.326 172.323 271.266 172.46L271.251 172.476ZM174.081 70.5443C174.133 70.5519 174.186 70.5519 174.238 70.5596C174.186 70.5596 174.133 70.5519 174.081 70.5443C174.193 70.5519 174.306 70.5672 174.411 70.5826C174.479 70.5902 174.546 70.5979 174.614 70.6055C174.546 70.5979 174.486 70.5902 174.419 70.5826C174.712 70.6285 174.997 70.6668 175.29 70.7128C174.509 71.8544 173.743 72.996 172.991 74.1606C170.723 77.639 168.597 81.1787 166.148 84.5346C165.577 85.2394 164.984 85.9213 164.346 86.5726C164.173 86.3274 163.993 86.0822 163.82 85.8371C164.218 85.2165 164.616 84.5959 164.977 83.9599C165.9 82.3356 166.839 80.7267 167.861 79.179C169.822 76.2139 171.955 73.3868 174.081 70.5443ZM117.864 101.36C117.939 95.3376 118.134 89.3461 118.788 83.3547C119.035 81.6921 119.306 80.0525 119.681 78.4052C120.072 76.666 120.68 74.9497 121.319 73.2718C122.205 71.387 123.362 69.7015 124.579 68.0312C125.894 66.338 127.253 64.7213 128.823 63.2426C129.822 62.5224 130.844 61.8865 131.948 61.3195C134.059 60.5074 136.199 59.8868 138.408 59.4731C140.414 59.3198 142.389 59.3428 144.402 59.5573C147.076 60.0094 149.608 60.7219 152.132 61.718C153.604 62.4152 154.956 63.212 156.278 64.1774C157.75 65.2577 159.178 66.3303 160.74 67.2574C160.838 67.3187 160.95 67.311 161.055 67.3646C160.086 68.7897 159.17 70.2454 158.246 71.7088C154.4 69.418 150.126 67.9316 145.732 67.9316C144.177 67.9316 142.614 68.1078 141.052 68.4986C139.632 68.8663 138.19 69.5099 136.913 70.2225C135.14 71.2185 133.773 72.8581 132.616 74.513C130.904 76.9265 129.905 79.9299 129.026 82.7341C127.223 88.5033 127.148 94.7017 126.975 100.701C126.81 106.286 126.96 111.856 126.99 117.434C127.02 123.41 127.493 129.363 127.599 135.339C127.704 140.343 127.674 145.353 127.764 150.364C124.586 150.333 121.394 150.303 118.217 150.264C118.059 146.173 118.006 142.082 117.954 138.006C117.864 131.876 117.819 125.747 117.819 119.618C117.803 113.534 117.803 107.451 117.864 101.36ZM98.7314 168.783C98.8141 168.89 98.8967 169.005 98.9868 169.112C98.8967 169.013 98.8141 168.905 98.7389 168.791L98.7314 168.783ZM98.446 168.292C98.4009 168.193 98.3559 168.093 98.3183 167.994C98.3634 168.086 98.4009 168.193 98.446 168.292ZM121.417 247.078H121.432C121.424 247.086 121.417 247.078 121.417 247.078ZM121.597 247.17V247.17C121.777 247.247 121.957 247.315 122.138 247.392C121.95 247.323 121.77 247.254 121.597 247.17ZM128.695 244.335C128.35 245.055 127.974 245.752 127.539 246.419C127.478 246.488 127.418 246.549 127.351 246.618C126.915 246.902 126.472 247.162 126.014 247.407C125.841 247.461 125.668 247.507 125.488 247.553C124.541 247.63 123.61 247.637 122.671 247.584C122.618 247.568 122.558 247.553 122.506 247.538C122.198 247.369 121.897 247.201 121.604 247.009C121.792 246.105 122.04 245.224 122.348 244.358C123.129 242.657 123.925 240.972 124.722 239.278C125.976 239.784 127.238 240.267 128.523 240.665C128.973 240.803 129.447 240.872 129.905 240.987C129.499 242.09 129.108 243.216 128.695 244.335ZM253.877 246.634C253.772 246.848 253.659 247.047 253.539 247.254C253.283 247.522 253.02 247.775 252.75 248.02C252.517 248.174 252.277 248.312 252.036 248.434C251.511 248.626 250.992 248.794 250.459 248.917C250.113 248.924 249.768 248.909 249.43 248.886C248.927 248.764 248.453 248.618 247.973 248.449C247.702 248.304 247.432 248.143 247.169 247.974C246.921 247.745 246.681 247.507 246.455 247.262C246.117 246.733 245.817 246.189 245.539 245.622C245.389 245.163 245.261 244.711 245.163 244.235C245.111 243.331 245.103 242.427 245.088 241.516C245.081 241.24 244.96 240.995 244.923 240.726C246.583 240.305 248.206 239.776 249.783 239.133C249.873 239.324 249.873 239.585 249.993 239.746C251.383 241.577 252.818 243.462 253.862 245.53C253.922 245.737 253.982 245.944 254.035 246.159C253.982 246.319 253.929 246.48 253.877 246.634ZM258.361 215.328C258.549 214.876 258.737 214.416 258.925 213.964C258.917 213.979 258.917 213.995 258.91 214.01C258.729 214.447 258.542 214.883 258.361 215.328ZM261.696 193.614C261.636 197.323 261.554 201.062 261.171 204.739C260.712 207.858 260.081 210.999 258.932 213.941C257.775 216.607 256.468 219.09 254.831 221.465C253.689 222.852 252.45 224.1 251.097 225.28C249.43 226.476 247.672 227.449 245.817 228.307C242.707 229.456 239.545 230.13 236.3 230.628C230.944 231.295 225.558 231.854 220.172 232.237C214.343 232.659 208.454 232.59 202.602 232.636C190.839 232.728 179.053 232.406 167.305 231.938C161.964 231.739 156.624 231.502 151.298 231.318C146.52 231.149 141.728 230.873 136.988 230.314C134.171 229.816 131.497 229.065 128.823 228.039C125.601 226.537 122.536 224.698 119.636 222.614C117.736 220.944 116.076 219.105 114.491 217.113C113.394 215.581 112.358 214.018 111.539 212.317C110.54 209.413 110.179 206.371 109.728 203.322C109.338 200.548 108.872 197.782 108.474 195.001C107.941 190.105 108.046 185.24 108.241 180.314C108.354 177.969 106.934 175.954 105.019 174.82C104.711 172.468 103.058 170.384 100.699 169.71C100.422 169.633 100.151 169.549 99.8882 169.457C99.6479 169.327 99.4075 169.189 99.1821 169.043C99.0094 168.875 98.8441 168.706 98.6789 168.538V168.53C98.5512 166.691 98.6338 164.86 98.784 163.021C103.381 162.83 107.963 162.615 112.575 162.661C115.73 162.707 118.885 162.692 122.04 162.692C124.789 162.692 127.546 162.692 130.31 162.707C136.38 162.753 142.449 163.014 148.519 163.205C154.798 163.42 161.101 163.481 167.395 163.435C180.037 163.374 192.672 163.266 205.299 163.695C211.353 163.895 217.423 164.132 223.477 164.255C229.652 164.377 235.826 164.347 242.001 164.362C247.725 164.393 253.471 164.439 259.195 164.393C262.951 164.37 266.714 164.27 270.47 164.262C270.703 167.105 270.883 169.94 270.785 172.782C270.275 173.096 269.756 173.388 269.208 173.656C268.742 173.84 268.269 174.023 267.803 174.215C266.256 174.836 265.024 175.563 264.145 177.088C263.89 177.533 263.8 178.046 263.657 178.544C262.26 179.731 261.291 181.417 261.433 183.325C261.696 186.742 261.756 190.167 261.696 193.614ZM174.419 70.5826C174.359 70.5749 174.299 70.5672 174.238 70.5596C174.291 70.5672 174.351 70.5749 174.419 70.5826ZM184.462 117.84C183.065 118.675 181.367 118.897 179.805 118.461C178.422 118.062 176.815 117.005 176.191 115.626C175.538 114.155 175.02 112.638 174.419 111.136C173.9 109.834 173.307 108.523 172.991 107.144C172.308 104.08 173.87 100.908 176.935 100.042C177.423 99.904 177.927 99.835 178.43 99.835C179.436 99.835 180.428 100.103 181.292 100.632C182.659 101.436 183.358 102.624 183.898 104.072C183.958 104.233 184.011 104.401 184.071 104.562C184.199 104.93 184.342 105.298 184.484 105.658C184.897 106.6 185.333 107.497 185.866 108.363C187.203 109.994 187.819 112.009 187.249 114.147C186.828 115.702 185.821 117.036 184.462 117.84ZM182.351 130.26C181.788 128.697 182.201 126.636 183.004 125.234C183.838 123.778 185.22 122.698 186.813 122.246C187.369 122.085 187.94 122.008 188.511 122.008C189.637 122.008 190.764 122.315 191.741 122.897C193.258 123.809 194.077 125.142 194.67 126.797C195.414 128.888 196.142 131.003 196.871 133.11C198.005 136.42 195.609 140.136 192.484 141.001C190.862 141.469 189.096 141.231 187.632 140.366C186.084 139.438 185.386 138.151 184.747 136.527C183.913 134.451 183.125 132.359 182.351 130.26ZM189.938 78.3209C191.117 77.118 192.725 76.4974 194.325 76.4974C195.902 76.4974 197.479 77.095 198.644 78.3209C199.868 79.5851 201.04 80.9642 202.339 82.1518C202.4 82.1901 202.46 82.2284 202.527 82.259C205.307 84.1132 206.456 87.7372 204.713 90.7712C203.909 92.1656 202.587 93.2 201.07 93.6214C199.628 94.0351 197.637 93.9278 196.368 93.0008C194.047 91.2692 191.966 89.2542 189.938 87.1855C187.564 84.7797 187.572 80.7343 189.938 78.3209ZM213.104 101.911C214.268 99.881 216.551 98.6245 218.827 98.6245C219.917 98.6245 221.006 98.9156 221.975 99.5515C223.462 100.525 224.949 101.528 226.407 102.524C227.819 103.513 228.893 104.708 229.351 106.424C229.794 108.11 229.562 109.941 228.698 111.443C226.955 114.477 222.944 115.618 219.969 113.779C218.452 112.852 216.935 111.91 215.447 110.96C212.45 109.044 211.286 105.083 213.104 101.911ZM233.4 128.314C230.809 126.007 231.094 121.579 233.4 119.242C234.632 117.978 236.157 117.396 237.697 117.396C239.327 117.396 240.972 118.047 242.294 119.242C243.789 120.591 245.261 121.985 246.801 123.311C246.846 123.341 246.891 123.372 246.936 123.402C248.318 124.391 249.362 125.525 249.821 127.226C250.264 128.881 250.046 130.689 249.197 132.175C248.363 133.6 247.011 134.665 245.449 135.102C243.976 135.523 241.881 135.439 240.611 134.466C238.102 132.551 235.766 130.413 233.4 128.314ZM203.286 105.888C204.518 107.535 205.75 109.182 206.997 110.83C207.447 111.412 207.898 111.987 208.371 112.553C209.506 113.887 210.219 115.281 210.219 117.089C210.219 118.79 209.551 120.43 208.371 121.625C207.199 122.82 205.592 123.502 203.924 123.502C202.392 123.502 200.492 122.866 199.478 121.625C197.367 119.043 195.331 116.407 193.288 113.749C192.499 112.944 191.951 111.987 191.65 110.891C191.35 109.742 191.35 108.585 191.65 107.435C192.094 105.811 193.153 104.417 194.58 103.566C195.564 102.976 196.691 102.678 197.817 102.678C198.373 102.678 198.929 102.754 199.47 102.9C201.228 103.398 202.227 104.478 203.286 105.888ZM209.415 130.045C209.859 128.421 210.918 127.011 212.345 126.145C213.321 125.563 214.448 125.264 215.575 125.264C216.146 125.264 216.717 125.341 217.273 125.494C219.015 125.992 220.022 127.072 221.081 128.482C221.825 129.501 222.561 130.52 223.312 131.539C223.447 131.708 223.582 131.876 223.718 132.037C224.837 133.386 225.565 134.772 225.565 136.588C225.565 138.274 224.897 139.929 223.718 141.124C221.396 143.492 217.1 143.737 214.824 141.124C213.141 139.186 211.609 137.102 210.061 135.056C209.077 133.746 209.017 131.547 209.415 130.045ZM252.833 190.956C253.028 196.572 252.758 202.334 251.09 207.735C249.948 211.42 248.13 215.09 245.396 217.826C243.135 220.07 240.431 221.925 237.824 223.74C235.045 225.663 231.011 224.284 229.404 221.495C227.826 218.722 228.585 214.393 231.605 212.907C232.777 212.34 233.836 211.658 234.88 210.915C235.691 210.24 236.45 209.536 237.141 208.739C237.644 207.98 238.102 207.206 238.493 206.394C239.282 204.119 239.777 201.767 240.138 199.376C240.408 196.572 240.236 193.752 240.108 190.956C239.943 187.401 243.113 184.459 246.478 184.459C250.038 184.459 252.712 187.416 252.833 190.956Z" fill="#0081C7" fill-opacity="0.05"/>
</svg>
