<svg width="335" height="263" viewBox="0 0 335 263" fill="none" xmlns="http://www.w3.org/2000/svg">
<circle cx="73.931" cy="188.293" r="73.931" fill="white"/>
<circle cx="136.888" cy="80.2845" r="80.2845" fill="white"/>
<ellipse cx="211.397" cy="171.543" rx="123.603" ry="90.681" fill="white"/>
<rect x="73.9309" y="213.708" width="131.69" height="48.5172" fill="white"/>
<g clip-path="url(#clip0_449_78)">
<path fill-rule="evenodd" clip-rule="evenodd" d="M196.065 87.6826C200.994 87.6828 205.826 89.0554 210.019 91.6466C214.212 94.2379 217.601 97.9455 219.806 102.354L232.071 126.874C234.23 125.989 236.354 125.034 238.442 124.007C240.542 122.958 242.974 122.787 245.201 123.53C247.428 124.273 249.268 125.871 250.317 127.972C251.366 130.072 251.538 132.503 250.794 134.73C250.051 136.957 248.453 138.798 246.353 139.847C244.226 140.793 242.087 141.714 239.937 142.608L248.441 159.624C250.287 163.314 251.247 167.382 251.246 171.508V193.869C251.246 197.604 250.458 201.297 248.933 204.706C247.408 208.116 245.181 211.165 242.397 213.655V224.84C242.397 228.36 240.999 231.737 238.51 234.226C236.02 236.715 232.644 238.113 229.124 238.113C225.604 238.113 222.228 236.715 219.738 234.226C217.249 231.737 215.851 228.36 215.851 224.84V220.416H109.664V224.84C109.664 228.36 108.266 231.737 105.777 234.226C103.287 236.715 99.9113 238.113 96.391 238.113C92.8707 238.113 89.4946 236.715 87.0053 234.226C84.5161 231.737 83.1177 228.36 83.1177 224.84V213.655C77.6845 208.788 74.2688 201.727 74.2688 193.869V171.499C74.2705 167.38 75.2308 163.317 77.0739 159.633L85.5069 142.749C83.3713 141.852 81.2624 140.888 79.1799 139.856C77.0901 138.793 75.5015 136.952 74.7567 134.729C74.0118 132.506 74.1703 130.079 75.1979 127.972C75.717 126.931 76.436 126.003 77.3138 125.241C78.1917 124.479 79.2112 123.897 80.314 123.529C81.4169 123.16 82.5814 123.013 83.7412 123.095C84.901 123.177 86.0332 123.487 87.0731 124.007C89.1674 125.04 91.2911 125.995 93.4443 126.874L105.709 102.363C107.913 97.9527 111.301 94.2433 115.494 91.6504C119.688 89.0575 124.52 87.6836 129.45 87.6826H196.065ZM122.938 167.322C119.417 167.322 116.041 168.721 113.552 171.21C111.063 173.699 109.664 177.075 109.664 180.596C109.664 184.116 111.063 187.492 113.552 189.981C116.041 192.471 119.417 193.869 122.938 193.869C126.458 193.869 129.834 192.471 132.323 189.981C134.812 187.492 136.211 184.116 136.211 180.596C136.211 177.075 134.812 173.699 132.323 171.21C129.834 168.721 126.458 167.322 122.938 167.322ZM202.577 167.322C199.057 167.322 195.681 168.721 193.192 171.21C190.703 173.699 189.304 177.075 189.304 180.596C189.304 184.116 190.703 187.492 193.192 189.981C195.681 192.471 199.057 193.869 202.577 193.869C206.098 193.869 209.474 192.471 211.963 189.981C214.452 187.492 215.851 184.116 215.851 180.596C215.851 177.075 214.452 173.699 211.963 171.21C209.474 168.721 206.098 167.322 202.577 167.322ZM129.45 105.38C127.994 105.38 126.56 105.739 125.276 106.426C123.991 107.113 122.896 108.107 122.088 109.318L121.539 110.274L110.301 132.732C123.999 136.838 142.458 140.776 162.758 140.776C181.712 140.776 199.047 137.342 212.4 133.546L215.205 132.732L203.976 110.274C203.324 108.971 202.362 107.85 201.173 107.009C199.985 106.167 198.607 105.632 197.162 105.451L196.074 105.38H129.45Z" fill="#0081C7" fill-opacity="0.05"/>
</g>
<defs>
<clipPath id="clip0_449_78">
<rect width="176.981" height="176.981" fill="white" transform="translate(74.2688 83.75)"/>
</clipPath>
</defs>
</svg>
