<svg width="325" height="255" viewBox="0 0 325 255" fill="none" xmlns="http://www.w3.org/2000/svg">
<circle cx="71.7241" cy="182.671" r="71.7241" fill="white"/>
<circle cx="132.802" cy="77.8879" r="77.8879" fill="white"/>
<ellipse cx="205.086" cy="166.422" rx="119.914" ry="87.9741" fill="white"/>
<rect x="71.7241" y="207.327" width="127.759" height="47.069" fill="white"/>
<path d="M139.98 177.879C152.526 177.879 162.696 167.851 162.696 155.482C162.696 143.112 152.526 133.085 139.98 133.085C127.434 133.085 117.263 143.112 117.263 155.482C117.263 167.851 127.434 177.879 139.98 177.879Z" fill="#0081C7" fill-opacity="0.05"/>
<path d="M236.525 187.957L224.599 168.92C222.328 165 222.895 159.961 225.735 156.601C233.118 148.763 233.118 137.004 225.735 129.165L220.624 124.126C219.488 122.446 218.352 121.886 216.648 121.886H208.13V105.649C214.945 106.768 221.76 109.568 226.871 114.607C228.007 115.727 229.71 116.287 230.846 116.287C231.982 116.287 233.686 115.727 234.822 114.607C237.093 112.368 237.093 109.008 234.822 106.768C226.303 98.3696 215.513 93.8902 203.586 93.8902H191.092C187.685 93.8902 185.413 96.1299 185.413 99.4895C185.413 102.849 187.685 105.089 191.092 105.089H196.771V121.886H188.253C186.549 121.886 185.413 122.446 184.277 123.566L179.166 128.605C171.783 136.444 171.783 148.203 179.166 156.042C182.573 159.401 183.141 164.44 180.302 168.36L168.375 187.957C163.832 195.236 163.832 203.635 167.808 210.914C171.783 218.193 179.734 222.672 188.253 222.672H216.648C225.167 222.672 232.55 218.193 237.093 210.914C241.069 203.635 240.501 194.676 236.525 187.957ZM187.685 136.444L191.092 133.085H213.809L217.216 136.444C220.624 139.804 220.624 144.843 217.216 148.203C210.969 154.922 209.833 163.88 213.241 172.279H191.092C195.068 164.44 193.364 154.922 187.117 148.203C184.277 145.403 184.277 139.804 187.685 136.444Z" fill="#0081C7" fill-opacity="0.05"/>
<path d="M158.153 216.513C152.474 206.435 152.474 194.116 157.585 184.038C152.474 187.397 146.227 189.077 139.98 189.077C121.238 189.077 105.905 173.959 105.905 155.482C105.905 137.004 121.238 121.886 139.98 121.886C149.634 121.886 158.153 125.806 164.4 131.965C165.536 128.045 167.808 124.126 171.215 121.326L176.326 116.287C177.462 115.167 179.166 114.047 180.87 112.928C176.326 109.568 174.055 104.529 174.055 99.4895C174.055 98.9295 174.055 98.3696 174.055 97.2498C163.832 91.6505 151.906 88.291 139.98 88.291C102.497 88.291 71.8296 118.527 71.8296 155.482C71.8296 192.436 102.497 222.672 139.98 222.672C146.795 222.672 153.61 221.552 160.425 219.313C159.289 218.753 158.721 217.633 158.153 216.513Z" fill="#0081C7" fill-opacity="0.05"/>
</svg>
