<svg width="1920" height="800" viewBox="0 0 1920 800" fill="none" xmlns="http://www.w3.org/2000/svg">
<circle cx="940.5" cy="347.5" r="347.5" fill="#F8F198"/>
<g clip-path="url(#clip0_450_576)">
<path d="M1919.77 684.749C1919.41 723.11 1921.19 761.68 1918.37 800L1223.14 797.192C1203.06 794.833 1189.42 791.754 1172.79 785.947C1172.27 785.768 1168.87 778.871 1165.79 777.512C1158.74 774.403 1141.48 776.442 1135.02 771.895C1128.01 766.957 1131.86 759.001 1130.82 757.842C1132.64 755.543 1139.08 755.883 1142.01 755.033C1144.4 769.686 1152.35 758.122 1153.2 757.842C1157.52 756.413 1154.5 756.483 1161.6 755.033C1157.39 777.042 1186.63 771.145 1178.39 755.033C1265.51 749.106 1352.79 751.595 1439.97 743.789C1600.73 729.386 1757.49 682.281 1919.77 684.759V684.749Z" fill="#694122"/>
<path d="M1919.76 620.092C1919.76 625.979 1919.8 631.956 1919.76 637.843C1901.74 650.276 1878.34 639.442 1866.4 654.114C1880.09 671.036 1918.88 648.547 1912.14 671.865L1919.76 661.511C1919.66 670.346 1919.87 679.301 1919.76 688.137C1698.69 685.538 1485.13 735.103 1266.13 750.265C1147.37 758.481 1028.46 755.862 909.781 762.099C908.169 762.179 910.497 758.381 886.912 762.099C877.253 763.618 881.361 763.558 875.482 765.057C870.936 746.817 861.437 761.829 860.233 762.099C856.234 762.989 847.471 762.639 844.984 765.057C816.694 740.61 804.309 762.919 795.436 735.473C785.778 705.628 788.642 653.505 784.007 620.092H1919.76Z" fill="#805D37"/>
<path d="M1919.76 636.963C1919.71 645.538 1919.85 654.224 1919.76 662.8L1911.83 674.104C1918.84 648.647 1878.51 673.204 1864.27 654.724C1876.69 638.702 1901.01 650.536 1919.75 636.963H1919.76Z" fill="#694122"/>
<path d="M1384.02 645.388C1387.42 644.669 1432.41 646.927 1432.98 649.606C1418.19 655.593 1393.94 670.665 1378.43 665.068C1366.17 660.64 1370.81 648.197 1384.02 645.388Z" fill="#694122"/>
<path d="M1224.54 634.154C1247.55 630.016 1268.23 649.406 1244.13 656.642C1216.27 665.008 1192.72 639.871 1224.54 634.154Z" fill="#694122"/>
<path d="M1803.67 656.643C1842.27 649.846 1835.51 684.928 1798.08 676.322C1786.04 670.505 1794.18 658.312 1803.67 656.643Z" fill="#694122"/>
<path d="M1481.93 687.557C1485.99 686.258 1510.88 685.658 1508.51 694.584C1504.39 710.106 1457.84 695.263 1481.93 687.557Z" fill="#694122"/>
<path d="M1168.59 701.62C1171.97 700.43 1194.4 700.54 1195.17 705.837C1188.59 722.429 1150.7 707.926 1168.59 701.62Z" fill="#694122"/>
<path d="M1705.74 667.877C1709.11 666.777 1729.53 667.067 1729.53 672.095C1723.98 683.229 1690.95 672.724 1705.74 667.877Z" fill="#694122"/>
<path d="M1300.08 653.824C1310.61 651.415 1315.88 665.258 1305.67 667.877C1290.2 671.845 1291.54 655.783 1300.08 653.824Z" fill="#694122"/>
<path d="M1658.19 673.505C1663.88 671.496 1673.5 686.678 1663.78 690.376C1654.06 694.074 1649.79 676.473 1658.19 673.505Z" fill="#694122"/>
<path d="M1574.26 653.824C1583.36 652.275 1590.98 665.688 1579.85 667.877C1568.06 670.206 1565.05 655.384 1574.26 653.824Z" fill="#694122"/>
<path d="M1199.37 726.917C1219.49 719.5 1215.35 743.588 1199.37 738.161C1194.16 736.402 1194.06 728.876 1199.37 726.917Z" fill="#694122"/>
<path d="M1350.45 665.068C1369.04 658.632 1365.36 681.45 1350.45 676.312C1345.19 674.503 1345.19 666.887 1350.45 665.068Z" fill="#694122"/>
<path d="M1868.02 636.963C1871.02 635.953 1883.4 636.993 1883.4 641.18C1883.4 651.325 1853.13 641.94 1868.02 636.963Z" fill="#694122"/>
<path d="M1744.92 634.154C1748.01 633.115 1754.61 632.585 1754.71 638.372C1754.86 646.828 1733.03 638.152 1744.92 634.154Z" fill="#694122"/>
<path d="M1100.38 640.751C1118.97 634.314 1115.29 657.132 1100.38 651.995C1095.13 650.186 1095.13 642.57 1100.38 640.751Z" fill="#694122"/>
<path d="M1919.99 690.366C1917.03 709.766 1914.47 730.276 1906.57 749.396C1858.13 745.268 1855.62 761.28 1842.84 763.449C1832.6 765.188 1823.41 758.311 1802.59 763.449C1767.37 772.134 1758.47 784.418 1738.86 791.554C1737.14 792.184 1743.8 799.71 1718.74 797.171L11.4095 799.98C-6.05797 796.732 1.87003 715.143 1.34282 701.59C119.567 702.71 293.585 708.337 407.213 698.782C417.827 697.892 401.274 691.615 407.213 690.346C427.277 686.088 458.113 696.013 460.879 695.963C752.027 691.655 1072.51 722.26 1366.53 690.346H1919.99V690.366Z" fill="#694122"/>
<path d="M1136.14 617.283C1133.4 644.649 1130.45 672.075 1128.25 699.521H802.986C630.192 735.433 441.839 701.001 270.736 705.848C269.114 705.898 250.98 694.724 239.193 699.521C235.701 700.941 245.43 708.007 239.193 709.006C172.417 719.761 70.1483 713.434 0.666367 712.165C0.0297395 680.631 0.437579 648.817 0.666367 617.273H1136.14V617.283Z" fill="#805D37"/>
<path d="M357.267 636.964C369.771 635.065 392.749 647.968 406.228 649.617C383.906 680.951 310.654 644.05 357.267 636.964Z" fill="#694122"/>
<path d="M687.389 656.643C723.925 646.599 717.39 683.59 687.389 676.323C674.945 673.305 674 660.332 687.389 656.643Z" fill="#694122"/>
<path d="M609.054 642.58C616.315 639.302 647.321 646.718 655.219 652.415C650.862 655.593 578.108 656.553 609.054 642.58Z" fill="#694122"/>
<path d="M290.123 648.207C294.092 646.928 324.202 646.908 325.098 652.425C316.026 663.839 301.035 661.441 290.123 656.643C285.667 654.234 285.438 649.717 290.123 648.207Z" fill="#694122"/>
<path d="M214.583 636.963C218.701 635.744 240.675 635.304 238.367 643.99C230.141 656.573 193.346 643.23 214.583 636.963Z" fill="#694122"/>
<path d="M312.505 681.94C318.811 679.561 329.465 682.2 333.483 688.967C325.993 701.28 296.698 687.907 312.505 681.94Z" fill="#694122"/>
<path d="M765.724 642.581C768.877 641.132 786.026 641.791 783.907 649.607C780.933 660.602 747.122 651.136 765.724 642.581Z" fill="#694122"/>
<path d="M122.262 645.389C125.485 644.29 143.241 644.789 143.241 649.607C137.392 660.671 108.406 650.107 122.262 645.389Z" fill="#694122"/>
<path d="M74.7043 634.155C78.7727 634.385 86.273 648.188 77.4995 651.026C69.5118 653.605 62.6879 633.485 74.7043 634.155Z" fill="#694122"/>
<path d="M29.9412 656.643C31.6123 656.023 46.394 654.584 45.3297 660.861C39.0728 671.685 18.1636 660.981 29.9412 656.643Z" fill="#694122"/>
<path d="M522.333 642.581C525.327 641.581 537.871 642.681 537.722 646.799C537.413 655.304 506.547 647.868 522.333 642.581Z" fill="#694122"/>
<path d="M155.834 636.963C161.852 635.884 166.299 638.333 171.223 641.181C162.38 644.629 157.008 647.488 148.841 641.181C150.871 640.911 155.357 637.053 155.834 636.963Z" fill="#694122"/>
<path d="M239.193 697.323C247.479 694.404 261.465 697.633 266.737 705.918C256.909 720.971 218.443 704.619 239.193 697.323Z" fill="#694122"/>
<path d="M860.373 674.025C862.332 664.1 896.79 659.262 910.209 664.719C910.507 672.805 852.017 716.323 860.373 674.025Z" fill="#694122"/>
<path d="M974.319 637.703C974.667 632.626 987.658 629.687 996.491 643.96C1014.73 673.435 972.488 664.419 974.319 637.703Z" fill="#694122"/>
<path d="M1065.33 679.181C1068.48 677.732 1085.63 678.392 1083.51 686.208C1080.54 697.202 1046.73 687.737 1065.33 679.181Z" fill="#694122"/>
<path d="M1895.12 522.182C1879.72 549.878 1874.23 540.173 1875.02 540.283C1877.48 540.633 1876.47 578.643 1875.02 584.67L1919.77 588.828C1919.86 599.882 1919.77 611.057 1919.77 622.121H1086.22C1085.01 611.077 1084.68 599.692 1083.42 588.828C1093.31 586.619 1122.72 591.826 1129.58 588.828C1132.2 587.679 1140.77 540.833 1142.16 533.336C1145.08 517.634 1141.32 485.841 1150.56 477.845C1150.65 511.568 1150.5 545.36 1150.56 579.113L1146.36 577.724L1144.96 587.439C1149.67 593.136 1176.16 585.879 1181.32 586.049C1234.78 587.878 1288.52 588.708 1342.16 588.828C1350.32 584.87 1339.07 566.15 1340.76 558.314H1349.15C1351.33 568.748 1352.18 578.303 1353.35 588.828H1675.03C1682.87 585.38 1678.04 550.708 1679.23 541.662H1687.62C1686.78 546.47 1683.53 587.259 1686.22 588.828H1767.34C1770.38 586.689 1768.23 556.335 1768.74 549.988L1779.93 555.535C1780.2 561.572 1783.02 585.29 1786.92 588.828C1806.04 588.018 1825.06 587.329 1844.27 586.049C1847.22 585.85 1869.83 592.386 1872.24 584.66C1872.98 582.321 1870.74 544.481 1872.24 543.041C1875.25 540.153 1862.58 565.3 1860.33 525.161C1859.99 519.084 1859.85 500.633 1861.05 495.876C1864.22 483.402 1875.09 483.842 1877.83 479.224C1878.38 478.305 1871.11 465.361 1882.03 461.193C1900.99 477.345 1906.66 501.433 1895.14 522.162L1895.12 522.182Z" fill="#5EA023"/>
<path d="M560.093 363.664C560.7 376.667 558.511 390.16 561.496 403.024L567.086 383.344C575.402 402.154 585.807 409.85 585.27 383.344L595.058 273.71L602.051 331.34L607.641 306.043V366.482C606.646 382.444 605.632 398.226 604.846 414.268L590.86 443.783C595.963 474.067 598.291 503.192 596.45 533.737C592.133 544.071 570.866 528.159 561.476 532.327L548.882 359.446V483.133C535.135 472.548 538.488 482.293 537.692 492.967C522.104 436.366 524.044 376.627 518.105 318.677L543.282 216.069L537.692 322.895C548.485 342.984 543.232 267.643 554.473 272.301C556.253 302.885 558.641 333.039 560.063 363.664H560.093Z" fill="#5EA023"/>
<path d="M76.0971 422.693C76.117 423.633 76.0772 424.572 76.0971 425.502C76.3756 442.293 71.1533 459.914 73.3019 477.505C73.6301 480.174 81.2796 477.635 81.6974 480.314C82.6324 486.28 68.6664 517.455 90.0929 512.637C88.1333 535.445 103.243 562.202 95.6833 588.538C63.7922 591.317 32.4383 590.207 0.567139 591.347C1.07445 563.211 2.72571 534.966 3.36233 507.01L28.539 505.601C26.649 496.505 17.8854 421.304 36.9345 443.752C38.0884 445.122 28.9468 468.68 36.9345 473.267C36.3277 480.563 34.6168 487.09 34.1393 494.346L48.1252 477.475C50.9602 486.75 40.5553 512.667 53.7156 516.835C61.5939 491.158 51.9152 466.031 50.9204 439.534C73.3914 440.224 66.3288 429.769 76.0971 422.663V422.693Z" fill="#4B8B22"/>
<path d="M271.939 335.548C271.233 334.218 260.669 331.39 259.346 313.059L255.148 345.383L243.958 339.766C240.934 361.914 247.479 386.002 246.753 407.231C246.713 408.38 242.177 408.19 241.162 425.502C240.665 433.897 244.435 471.818 242.565 473.287C222.491 489.129 236.109 409.28 232.777 404.412C219.985 402.324 227.664 421.923 227.186 428.31C204.328 403.683 215.817 365.932 213.201 331.33C203.552 352.069 207.59 336.067 202.01 325.713V365.073L197.812 352.419L189.417 372.099C193.385 358.296 187.696 342.954 188.014 329.931C188.621 305.063 196.668 258.037 202 232.95C203.432 226.224 203.701 212.701 211.788 211.871L218.781 283.554C231.742 280.096 217.03 250.032 232.767 249.822L234.169 343.993L246.763 241.386C261.823 249.722 243.858 285.893 256.551 299.016C260.779 277.667 261.097 253.93 274.735 235.769L271.939 335.558V335.548Z" fill="#81BB36"/>
<path d="M299.911 315.878C300.449 330.321 296.718 348.411 297.116 363.664C297.992 397.746 300.309 433.848 299.911 467.67L281.728 459.235C277.033 462.013 290.67 484.032 277.53 480.314L273.332 439.555L270.537 476.096C257.118 461.214 267.175 435.237 263.544 415.657C243.202 416.117 256.859 448.47 241.163 425.492C242.177 408.181 246.723 408.371 246.753 407.221C247.479 385.992 240.934 361.904 243.958 339.756L255.149 345.373L259.346 313.05C260.659 331.38 271.233 334.209 271.94 335.538C272.954 337.437 270.348 349.531 273.342 349.591L287.328 234.34C294.779 258.827 298.966 290.341 299.921 315.858L299.911 315.878Z" fill="#5EA023"/>
<path d="M45.32 332.74C45.4095 380.615 40.8636 426.002 36.9245 473.288C28.9368 468.7 38.0784 445.132 36.9245 443.773C17.8754 421.314 26.6489 496.526 28.5289 505.621L3.35229 507.03C5.31192 421.304 20.9093 335.049 3.35229 249.822L27.1363 355.238L45.32 244.205C46.4043 273.61 43.8478 303.425 45.32 332.75V332.74Z" fill="#5EA023"/>
<path d="M154.432 310.251C152.632 323.374 151.816 336.308 151.637 349.611C151.169 384.583 157.784 419.925 157.227 455.027C156.71 488.31 131.096 519.774 176.813 529.519C176.963 541.193 176.704 552.947 176.813 564.661L167.025 566.07C167.901 555.225 161.226 548.169 158.63 563.261C153.785 550.478 146.007 560.813 143.241 556.235C141.182 552.817 156.073 522.472 143.241 525.311C142.565 530.048 139.64 601.652 129.255 584.341C137.213 507.23 127.813 429.51 132.051 352.429C132.757 339.576 133.513 325.843 134.846 313.07L147.439 355.238L154.432 310.261V310.251Z" fill="#5EA023"/>
<path d="M512.535 318.686C511.61 358.276 513.5 397.296 515.33 436.746C488.602 437.005 508.039 467.09 478.963 460.643L476.168 388.96C476.675 381.574 475.501 373.828 476.168 366.472C479.54 329.201 479.341 291.77 490.154 255.438L491.556 313.069C494.67 313.129 499.355 256.338 512.535 255.438C503.214 287.472 503.811 320.725 504.14 353.828C511.58 329.72 503.662 299.496 515.33 277.927C517.549 291.78 512.843 305.423 512.535 318.686Z" fill="#5EA023"/>
<path d="M176.813 321.495L165.622 359.445C159.933 415.936 176.107 474.226 176.813 529.518C131.095 519.773 156.71 488.309 157.227 455.026C157.774 419.924 151.159 384.582 151.637 349.61C162.29 337.606 157.575 309.601 160.032 294.798C151 290.271 154.969 306.422 154.442 310.26L147.449 355.237L134.855 313.069C137.531 287.552 148.065 262.695 143.251 235.769L148.841 255.449C160.291 253.649 146.096 212.96 153.039 211.881C159.027 221.446 154.899 250.441 165.632 232.96C163.862 263.165 173.272 292.11 176.823 321.505L176.813 321.495Z" fill="#81BB36"/>
<path d="M106.874 355.228C105.76 370.31 108.903 427.561 101.284 438.155C97.2847 443.712 89.7049 432.038 88.6902 442.373C84.96 432.488 92.8283 422.813 76.0969 425.502C76.0771 424.562 76.1168 423.623 76.0969 422.693C75.53 391.949 75.8085 371.959 73.3018 341.175L80.2947 206.244L106.874 355.228Z" fill="#81BB36"/>
<path d="M476.168 366.472C475.502 373.828 476.675 381.574 476.168 388.96C475.521 398.376 477.978 413.388 476.168 421.284C473.731 431.898 462.441 436.976 462.182 438.155C461.207 442.513 471.95 515.515 473.373 526.7L459.387 529.508C458.909 520.763 457.029 512.827 456.592 504.211C455.129 475.566 459.297 444.462 456.592 415.667C456.363 413.238 445.54 402.503 445.401 401.614C443.193 387.411 447.51 365.262 448.196 349.61C448.206 349.321 453.687 350.51 453.787 348.201C455.378 312.24 449.867 274.499 456.582 238.567L463.575 239.977L476.168 366.472Z" fill="#81BB36"/>
<path d="M638.428 335.548C627.745 351.599 632.709 383.713 627.238 401.604C626.273 404.752 617.877 401.204 616.047 404.412C612.625 410.429 621.627 463.402 621.637 474.686L602.051 473.277C601.773 453.347 603.871 434.047 604.846 414.247C605.632 398.196 606.647 382.424 607.641 366.462C608.467 353.169 614.983 327.712 616.037 311.65C617.818 284.334 615.649 255.978 614.634 228.722C622.025 226.374 636.777 326.153 638.418 335.548H638.428Z" fill="#5EA023"/>
<path d="M73.302 341.175C75.8187 371.959 75.5302 391.949 76.0972 422.693C66.3289 429.799 73.3915 440.244 50.9205 439.564C50.1347 418.685 54.5911 392.908 53.7157 374.907V235.759C60.5794 235.369 63.9316 259.107 64.9065 263.864C69.6812 287.292 71.3324 317.017 73.302 341.165V341.175Z" fill="#5EA023"/>
<path d="M518.136 318.687C524.074 376.637 522.125 436.376 537.722 492.977C536.568 508.369 541.78 550.518 543.312 568.878H534.917C534.181 555.955 529.406 543.931 529.326 530.928C525.875 526.95 524.164 531.667 520.931 532.337C518.553 500.593 516.813 468.56 515.34 436.766C513.5 397.316 511.62 358.296 512.545 318.707H518.136V318.687Z" fill="#81BB36"/>
<path d="M585.28 383.344C585.817 409.85 575.412 402.154 567.096 383.344L561.505 403.024C558.521 390.17 560.71 376.667 560.103 363.664L565.693 300.416L575.482 273.71C572.438 309.162 584.603 349.961 585.27 383.344H585.28Z" fill="#81BB36"/>
<path d="M53.7155 374.907C54.5809 392.908 50.1344 418.675 50.9203 439.564C51.915 466.061 61.5937 491.198 53.7155 516.865C40.5452 512.697 50.9501 486.78 48.1251 477.505L34.1392 494.376C34.6166 487.11 36.3276 480.593 36.9344 473.297C40.8735 426.001 45.4194 380.624 45.3299 332.749C46.056 347.202 53.606 372.589 53.7254 374.917L53.7155 374.907Z" fill="#81BB36"/>
<path d="M604.856 414.267C603.881 434.067 601.772 453.367 602.061 473.297C602.2 483.032 604.568 553.796 609.054 554.815C627.546 559.013 619.25 504.071 621.647 500.003C625.158 494.046 641.432 507.569 646.824 497.195L649.619 470.488C650.683 484.291 650.952 498.994 652.414 512.657C653.289 520.763 653.956 554.445 655.209 556.224C659.904 562.881 674.766 548.528 677.591 561.842C678.595 565.33 674.776 590.377 673.393 591.356C668.25 595.005 561.715 586.999 547.5 591.356C540.467 586.179 543.919 576.184 543.302 568.868C541.77 550.507 536.558 508.359 537.712 492.967C538.507 482.282 535.155 472.547 548.902 483.132V359.445L561.496 532.327C570.886 528.149 592.153 544.071 596.47 533.736C598.311 503.192 595.973 474.067 590.88 443.782L604.866 414.267H604.856Z" fill="#3F7C1F"/>
<path d="M241.162 425.502C256.859 448.47 243.202 416.127 263.544 415.667C267.185 435.247 257.128 461.214 270.537 476.106L273.332 439.565L277.53 480.324C290.67 484.042 277.032 462.013 281.728 459.245L299.911 467.681C299.464 505.371 295.544 522.473 291.516 554.826C278.803 551.528 281.956 578.524 280.325 588.559C260.938 588.639 247.469 591.467 227.167 588.559C227.972 562.902 234.816 538.264 218.771 515.476C223.098 486.811 224.988 457.226 227.167 428.331C227.644 421.944 219.975 402.354 232.757 404.433C236.089 409.3 222.471 489.15 242.545 473.308C244.415 471.828 240.655 433.918 241.143 425.522L241.162 425.502Z" fill="#5EA023"/>
<path d="M291.516 588.548C294.988 579.602 290.432 563.561 291.516 554.815C295.535 522.462 299.464 505.36 299.912 467.67C300.309 433.847 297.982 397.746 297.116 363.663C308.118 373.958 302.717 426.491 308.307 435.346C310.356 438.595 317.369 434.907 319.498 438.155C322.512 442.763 301.841 532.427 308.307 547.789C341.074 550.377 322.014 508.339 327.893 491.568C337.274 464.821 332.748 531.137 333.484 533.736C334.09 535.855 343.123 534.116 344.674 539.353C345.49 542.122 345.639 584.96 344.674 587.139C340.656 596.224 298.409 588.298 291.516 588.548Z" fill="#4B8B22"/>
<path d="M456.582 504.221C457.019 512.847 458.899 520.783 459.377 529.518C459.476 531.367 456.303 544.241 456.582 544.981C461.635 558.444 467.215 549.228 470.568 559.033C472.219 563.861 470.607 580.093 473.363 587.139C471.155 591.916 426.422 592.766 424.402 591.357C421.677 589.448 415.768 530.328 417.409 525.301C419.886 517.734 427.774 524.371 428.6 522.492C435.911 505.881 407.532 437.346 439.791 435.347L445.381 508.429L456.572 504.211L456.582 504.221Z" fill="#3F7C1F"/>
<path d="M820.285 484.542C818.345 517.874 812.089 556.395 809.094 591.367C746.924 596.704 770.35 579.003 758.741 530.928C778.327 523.831 762.173 558.724 775.532 559.033L772.737 483.132L782.525 501.403C782.485 488.789 774.13 467.75 795.119 476.106C792.562 495.236 789.508 514.586 786.723 533.736C804.976 538.404 785.261 495.406 809.104 514.056L800.709 439.565C801.783 438.355 799.008 429.76 809.104 435.347C817.45 451.628 799.983 483.662 820.295 484.542H820.285Z" fill="#4B8B22"/>
<path d="M515.33 436.756C516.812 468.56 518.553 500.594 520.921 532.327C520.463 532.427 522.065 542.512 512.525 536.545C515.39 521.993 516.733 519.154 499.932 521.083L497.137 532.327L494.341 521.083C490.323 521.183 497.485 545.081 487.348 533.737L476.158 563.251C474.447 552.637 474.775 537.844 473.363 526.71C471.94 515.516 461.197 442.513 462.172 438.165C462.43 436.996 473.721 431.919 476.158 421.294C477.968 413.398 475.511 398.386 476.158 388.971L478.953 460.654C508.029 467.101 488.592 437.016 515.32 436.756H515.33Z" fill="#5EA023"/>
<path d="M520.931 532.327C524.163 531.658 525.864 526.95 529.326 530.918C529.416 543.921 534.19 555.945 534.916 568.869C535.294 575.535 540.388 587.849 533.514 591.357C523.935 588.319 484.563 594.336 480.355 591.357C479.202 590.538 476.924 568.019 476.158 563.252L487.348 533.737C497.495 545.091 490.323 521.183 494.341 521.083L497.137 532.327L499.932 521.083C516.733 519.144 515.39 521.983 512.525 536.545C522.065 542.512 520.463 532.427 520.921 532.327H520.931Z" fill="#3F7C1F"/>
<path d="M95.683 588.548C103.243 562.222 88.133 535.455 90.0926 512.647C90.7591 504.821 98.2494 500.723 98.4882 499.993C100.547 493.777 93.7632 471.938 111.081 476.096C124.918 479.424 115.07 572.226 118.074 589.947C116.712 593.156 96.8071 588.448 95.693 588.538L95.683 588.548Z" fill="#4B8B22"/>
<path d="M227.177 588.549C225.854 588.359 207.988 593.746 204.795 581.522C204.258 579.483 207.073 541.653 207.591 539.354C207.909 537.915 215.121 539.694 218.781 515.456C234.816 538.254 227.983 562.892 227.177 588.539V588.549Z" fill="#3F7C1F"/>
<path d="M800.699 439.564L809.094 514.056C785.251 495.406 804.966 538.404 786.713 533.736C789.498 514.586 792.552 495.236 795.108 476.106C797.366 459.174 789.926 451.748 800.699 439.564Z" fill="#81BB36"/>
<path d="M769.922 307.443C762.352 300.696 766.281 302.205 761.526 294.789C763.048 314.729 762.67 335.388 764.322 355.228L757.329 335.548C750.445 334.659 754.225 434.417 755.926 443.773C756.344 446.062 761.019 444.282 761.516 446.581C764.411 459.834 756.97 466.511 771.305 478.905C783.371 452.288 772.598 420.395 769.902 391.759L767.107 336.947C774.428 331.25 772.309 344.703 774.1 343.974C777.074 342.764 774.806 329.261 775.502 325.703L781.093 331.32C779.959 323.524 776.984 318.177 775.502 310.241C771.533 289.112 770.409 268.173 767.107 246.994C771.653 242.076 774.766 253.02 775.502 255.429C788.285 297.428 782.644 355.348 797.884 395.977L823.06 235.749C818.505 284.534 814.784 332.78 814.665 381.924C814.595 410.2 824.085 441.574 823.06 470.469C822.832 476.846 820.554 479.564 820.265 484.522C799.953 483.652 817.42 451.609 809.074 435.327C798.978 429.73 801.753 438.335 800.679 439.545C789.896 451.729 797.347 459.165 795.089 476.086C774.1 467.73 782.465 488.78 782.495 501.383L772.707 483.113L775.502 559.014C762.153 558.704 778.307 523.802 758.711 530.908C770.32 578.983 746.904 596.684 809.064 591.347C808.189 601.562 807.095 611.917 806.269 622.271H0.557076C0.61676 612.006 0.368077 601.612 0.557076 591.347C32.4382 590.208 63.7822 591.317 95.6733 588.539C96.7874 588.439 116.692 593.156 118.055 589.948C115.051 572.227 124.889 479.424 111.062 476.096C93.7435 471.928 100.537 493.777 98.4685 499.994C98.2297 500.714 90.7493 504.821 90.0729 512.647C68.6464 517.455 82.6124 486.291 81.6774 480.324C81.2596 477.645 73.6101 480.174 73.2819 477.515C71.1432 459.924 76.3655 442.303 76.0771 425.512C92.8084 422.823 84.9401 432.488 88.6704 442.383C89.685 432.049 97.2549 443.723 101.264 438.166C108.893 427.571 105.75 370.32 106.854 355.238C110.057 311.93 113.36 268.932 119.447 225.924L132.041 352.42C127.803 429.5 137.203 507.22 129.245 584.331C139.63 601.632 142.555 530.039 143.231 525.301C156.063 522.462 141.172 552.807 143.231 556.225C145.987 560.803 153.776 550.468 158.62 563.251C161.206 548.159 167.891 555.226 167.015 566.06L176.804 564.651C176.694 552.947 176.953 541.183 176.804 529.509C176.097 474.217 159.923 415.927 165.613 359.436L176.804 321.485C179.022 339.826 178.325 359.346 181.001 377.707L187.994 329.921C187.676 342.944 193.366 358.286 189.397 372.089L197.792 352.41L201.99 365.063V325.703C207.571 336.058 203.532 352.07 213.181 331.32C215.807 365.923 204.318 403.673 227.167 428.301C224.988 457.196 223.108 486.781 218.771 515.446C215.111 539.674 207.899 537.904 207.58 539.344C207.063 541.643 204.248 579.463 204.785 581.512C207.978 593.736 225.844 588.349 227.167 588.539C247.469 591.447 260.938 588.618 280.325 588.539C284.294 588.519 287.139 588.688 291.516 588.539C298.399 588.299 340.656 596.225 344.674 587.129C345.639 584.94 345.49 542.112 344.674 539.344C343.123 534.096 334.09 535.846 333.484 533.727C332.738 531.138 337.264 464.822 327.893 491.558C322.014 508.33 341.073 550.368 308.307 547.779C301.841 532.417 322.512 442.753 319.498 438.146C317.369 434.897 310.356 438.585 308.307 435.337C302.717 426.482 308.118 373.948 297.116 363.654C296.728 348.402 300.449 330.311 299.911 315.868L308.307 362.254L332.091 237.159L326.501 296.188L350.285 246.994C344.326 270.541 341.471 294.309 341.889 318.677C328.997 324.214 338 342.814 336.299 356.627C333.364 380.405 323.914 405.942 319.518 429.71C351.09 438.515 334.369 403.773 336.299 395.977C336.587 394.818 347.121 376.557 347.489 374.898C351.19 358.217 357.874 336.987 358.68 320.086C359.426 304.424 351.2 246.984 353.09 241.376C360.013 220.797 361.724 293.38 369.871 289.162L365.673 211.862L388.055 304.624C398.38 283.555 393.884 232.081 403.443 213.261C412.028 196.379 407.492 325.533 410.436 327.112L423.029 238.568L427.227 293.38L445.411 227.324L448.206 349.601C447.51 365.263 443.202 387.402 445.411 401.604C445.55 402.494 456.373 413.238 456.601 415.657C459.307 444.452 455.139 475.556 456.601 504.202L445.411 508.42L439.82 435.337C407.561 437.336 435.941 505.861 428.63 522.482C427.804 524.361 419.916 517.725 417.439 525.291C415.798 530.318 421.706 589.448 424.432 591.347C426.451 592.756 471.184 591.907 473.393 587.129C470.637 580.073 472.249 563.851 470.597 559.024C467.245 549.219 461.665 558.434 456.611 544.971C456.333 544.231 459.506 531.358 459.407 529.509L473.393 526.7C474.805 537.835 474.477 552.627 476.188 563.241C476.954 568.009 479.232 590.537 480.386 591.347C484.583 594.326 523.965 588.309 533.544 591.347C540.417 587.839 535.325 575.525 534.947 568.859H543.342C543.959 576.175 540.507 586.17 547.54 591.347C561.754 586.989 668.29 594.995 673.433 591.347C674.816 590.368 678.635 565.31 677.631 561.832C674.806 548.509 659.944 562.862 655.249 556.215C653.996 554.436 653.319 520.753 652.454 512.647C670.449 509.849 665.415 514.027 677.631 522.482C664.52 492.997 675.989 464.482 674.835 438.146C673.841 415.597 663.884 337.507 653.857 400.195L635.673 362.244L638.468 421.274L641.263 387.542C643.511 386.222 646.774 395.477 646.854 395.977C651.479 422.084 647.998 449.05 649.649 470.469L646.854 497.175C641.462 507.56 625.188 494.027 621.677 499.984C619.28 504.052 627.586 559.004 609.084 554.796C604.598 553.776 602.23 483.003 602.091 473.278L621.677 474.687C621.667 463.403 612.655 410.42 616.087 404.413C617.917 401.205 626.313 404.753 627.277 401.604C632.748 383.713 627.785 351.59 638.468 335.548C639.234 339.936 634.29 360.096 644.059 356.627L653.847 276.508C658.432 297.618 655.906 328.412 652.444 351C660.133 369.541 671.881 261.636 684.614 265.264L694.402 353.809L688.812 216.069C699.943 221.267 699.455 249.022 702.797 262.456C693.934 276.618 696.182 305.583 697.207 322.895C700.519 378.946 705.712 445.282 705.603 507.02C695.665 505.861 702.509 516.445 698.61 521.073C697.864 521.963 678.019 529.819 677.631 530.908C672.945 543.831 684.972 555.286 700.012 550.588C699.356 567.299 703.812 578.554 693.019 591.347C712.277 595.235 705.105 556.615 705.612 540.753C718.554 531.798 710.556 554.956 722.394 542.162C720.295 520.274 714.864 496.486 713.998 474.697C711.452 410.22 717.957 342.605 708.408 282.136L719.598 238.568L716.803 311.65L727.994 336.947L754.573 209.043L769.962 307.433L769.922 307.443Z" fill="#5EA023"/>
<path d="M708.378 282.146C717.937 342.615 711.432 410.22 713.968 474.707C714.824 496.496 720.265 520.284 722.364 542.172C710.517 554.976 718.524 531.808 705.583 540.763C705.921 530.109 705.563 517.925 705.583 507.03C705.702 445.292 700.5 378.956 697.187 322.905C696.163 305.594 693.915 276.639 702.778 262.466C704.041 267.533 708.02 279.937 708.368 282.146H708.378Z" fill="#81BB36"/>
<path d="M347.469 374.909C347.101 376.568 336.567 394.828 336.279 395.988C334.339 403.784 351.06 438.526 319.498 429.721C323.904 405.943 333.354 380.416 336.279 356.638C337.98 342.825 328.987 324.225 341.869 318.688C342.197 337.518 348.892 355.868 347.459 374.909H347.469Z" fill="#81BB36"/>
<path d="M769.922 307.443C770.777 308.202 770.19 311.93 775.512 310.251C777.004 318.197 779.969 323.534 781.103 331.33L775.512 325.713C774.826 329.271 777.094 342.774 774.11 343.984C772.319 344.713 774.438 331.26 767.117 336.957L769.912 391.769C768.858 380.605 765.575 370.3 764.322 355.228C762.67 335.388 763.048 314.739 761.526 294.789C766.281 302.205 762.352 300.696 769.922 307.443Z" fill="#A8D06A"/>
<path d="M652.424 512.648C650.952 498.985 650.693 484.282 649.629 470.479C647.968 449.06 651.459 422.094 646.834 395.988C646.744 395.488 643.481 386.233 641.243 387.552L638.448 421.285L635.653 362.255L653.836 400.205C663.863 337.518 673.821 415.608 674.815 438.156C675.979 464.483 664.51 493.008 677.611 522.493C665.395 514.027 670.419 509.849 652.434 512.658L652.424 512.648Z" fill="#81BB36"/>
<path d="M764.331 355.229C765.585 370.301 768.877 380.606 769.922 391.77C772.617 420.405 783.39 452.299 771.324 478.915C756.99 466.522 764.421 459.845 761.536 446.592C761.039 444.293 756.353 446.062 755.946 443.783C754.235 434.428 750.455 334.659 757.348 335.559L764.341 355.239L764.331 355.229Z" fill="#5EA023"/>
<path d="M705.573 507.03C705.553 517.925 705.911 530.109 705.573 540.763C705.065 556.635 712.238 595.255 692.98 591.357C703.772 578.564 699.326 567.3 699.972 550.598C684.932 555.306 672.906 543.842 677.591 530.918C677.989 529.829 697.824 521.963 698.57 521.083C702.469 516.456 695.625 505.871 705.563 507.03H705.573Z" fill="#4B8B22"/>
<path d="M726.561 546.38C737.702 543.482 738.727 588.169 734.957 591.357C723.537 601.032 720.324 547.999 726.561 546.38Z" fill="#4B8B22"/>
<path d="M407.621 546.38C411.252 546.38 423.765 607.099 400.628 587.139L407.621 546.38Z" fill="#4B8B22"/>
<path d="M291.516 554.816C290.432 563.561 294.988 579.603 291.516 588.548C287.139 588.698 284.294 588.528 280.325 588.548C281.957 578.513 278.803 551.517 291.516 554.816Z" fill="#3F7C1F"/>
<path d="M1178.39 335.548C1177.88 359.845 1179.03 384.343 1178.39 408.63L1171.4 369.271L1165.8 366.462C1166.78 385.142 1152.69 376.867 1147.62 384.733C1144.93 388.9 1147.54 436.016 1147.62 445.172C1143.09 452.998 1144.17 465.591 1142.03 474.686C1141.37 477.475 1134.56 474.687 1133.64 477.495C1133.03 479.334 1152.43 496.186 1114.05 495.766C1113.28 487.61 1117.21 463.282 1104.26 462.033L1100.06 505.601L1094.47 335.528C1097.08 302.435 1101.17 268.612 1105.66 235.739L1114.06 365.053V232.95L1126.65 299.007L1132.24 217.488L1139.24 300.416L1144.83 247.003L1160.21 360.855L1186.79 238.577C1179.42 270.411 1179.08 303.074 1178.4 335.558L1178.39 335.548Z" fill="#81BB36"/>
<path d="M1114.04 495.786C1114.68 502.572 1112.91 529.588 1114.04 530.928C1116.85 534.246 1135.9 529.458 1133.63 542.172L1142.02 535.146C1140.62 542.742 1132.05 590.207 1129.43 591.367C1122.57 594.405 1093.15 589.128 1083.26 591.367C1080.9 570.827 1078.28 549.928 1074.87 529.518C1093.47 487.68 1088.38 442.813 1091.66 397.396C1093.13 376.927 1092.83 356.177 1094.45 335.548L1100.04 505.621L1104.24 462.053C1117.2 463.302 1113.26 487.63 1114.03 495.786H1114.04Z" fill="#4B8B22"/>
<path d="M1919.77 591.357L1875.01 587.139C1876.46 581.032 1873.86 544.401 1875.01 542.162C1875.69 540.813 1889.11 534.866 1894.59 521.083L1902.99 522.492L1904.39 498.595L1914.18 508.43V417.066C1915.84 475.267 1919.28 532.837 1919.77 591.357Z" fill="#4B8B22"/>
<path d="M1091.66 397.397C1088.38 442.803 1093.48 487.67 1074.87 529.519C1071.71 510.659 1066.5 491.199 1066.5 473.208C1067.5 462.213 1071.56 442.284 1072.07 432.539C1075.16 372.779 1073.74 309.122 1066.48 249.822L1091.66 397.407V397.397Z" fill="#81BB36"/>
<path d="M1281.9 552.007C1290.11 549.799 1303.89 554.826 1305.68 552.007C1308.83 547.05 1306.05 540.343 1307.09 535.136C1308.63 527.34 1309.57 524.212 1309.88 515.456C1327.56 518.974 1324.79 499.354 1332.26 504.212L1323.87 559.024L1342.05 551.997C1346.57 555.536 1340.22 557.775 1340.65 560.433C1342.02 568.929 1350.21 587.339 1342.05 591.357C1288.41 591.237 1234.65 590.398 1181.18 588.549C1181.65 579.274 1180.52 569.688 1181.18 560.443L1197.97 567.47C1199.86 553.537 1196.58 540.264 1195.18 526.71C1198.99 525.881 1208.38 527.93 1210.57 526.71C1213.34 525.171 1211.37 520.704 1211.97 518.275C1213.83 510.689 1208.74 502.213 1209.18 500.004C1209.35 499.125 1222.99 489.639 1223.16 488.76C1223.95 484.792 1221.32 461.564 1220.37 456.436C1230.27 476.996 1232.41 466.411 1237.16 450.819C1236.89 464.562 1234.88 545.041 1237.16 550.608C1237.44 551.278 1248 555.106 1249.75 557.635C1245.32 539.524 1261.85 535.206 1262.34 533.737C1269.88 511.158 1260.74 482.003 1266.54 459.245L1265.14 561.852C1271.95 561.473 1272.32 554.596 1281.93 552.017L1281.9 552.007Z" fill="#4B8B22"/>
<path d="M1329.46 431.129C1334.76 437.086 1342.05 456.926 1343.44 464.862C1343.97 467.86 1348.27 501.493 1342.04 501.403L1328.06 464.862C1325.01 486.691 1323.66 467.28 1319.66 467.67C1318.75 467.76 1304.64 476.666 1304.27 477.505C1303.52 479.264 1310.21 505.931 1309.86 515.456C1309.54 524.201 1308.6 527.34 1307.07 535.136C1295.3 535.655 1298.6 537.045 1295.88 528.109C1289.23 506.34 1297.12 463.932 1293.08 440.964C1292.23 436.126 1293.55 431.429 1286.09 431.129L1281.89 552.007C1272.28 554.596 1271.92 561.462 1265.1 561.842L1266.5 459.235C1260.7 481.993 1269.84 511.148 1262.3 533.726C1261.82 535.196 1245.28 539.513 1249.71 557.624C1247.96 555.095 1237.4 551.267 1237.12 550.598C1234.84 545.031 1236.85 464.552 1237.12 450.809C1237.37 437.796 1235.79 424.312 1238.52 411.449L1255.31 453.617C1270.79 444.142 1255.94 438.505 1266.5 425.512C1271.38 482.433 1287.79 397.426 1291.68 397.406C1297.02 401.424 1300.22 427.201 1305.66 428.33C1307.23 428.65 1311.94 411.489 1329.45 431.139L1329.46 431.129Z" fill="#81BB36"/>
<path d="M1421.78 411.449C1417.2 425.092 1434.6 441.684 1435.76 455.017C1437.4 473.667 1417.92 498.335 1438.56 504.212C1436.81 514.556 1442.68 569.328 1434.36 571.677C1415.81 576.924 1428.9 513.917 1427.37 502.802L1411.98 537.944L1404.99 508.429L1396.59 518.264C1395.85 492.697 1396.37 442.043 1391 419.875L1397.99 414.258L1414.79 433.938C1424.84 426.232 1411.24 414.937 1413.38 404.423C1417.07 401.594 1421.15 411.049 1421.78 411.449Z" fill="#5EA023"/>
<path d="M1382.62 439.565C1382.18 472.098 1377.24 504.921 1377.03 535.136L1364.43 549.189C1356.56 541.333 1361.92 525.041 1346.25 540.753C1343.72 529.728 1342.02 507.17 1332.26 504.212C1324.79 499.354 1327.56 518.974 1309.88 515.456C1310.23 505.931 1303.53 479.264 1304.29 477.505C1304.66 476.666 1318.77 467.76 1319.68 467.67C1323.67 467.27 1325.03 486.691 1328.08 464.862L1342.06 501.403C1348.29 501.493 1343.99 467.86 1343.46 464.862H1349.05C1350.05 475.956 1351.66 509.739 1363.04 511.248L1351.85 456.436C1351.49 442.803 1351.59 433.188 1347.65 419.895C1355.71 416.057 1362.11 445.212 1364.44 450.819L1382.63 439.575L1382.62 439.565Z" fill="#5EA023"/>
<path d="M1511.3 439.565C1513.21 445.651 1511.96 463.013 1516.9 469.079C1492.99 464.152 1503.57 479.304 1497.31 495.786C1497.1 496.345 1490.25 494.406 1488.91 497.195C1484.67 506.08 1497.52 546.17 1490.32 554.825C1480.38 557.334 1474.25 559.333 1466.53 550.608C1469.87 538.304 1471.33 525.341 1472.12 512.657C1473.7 487.5 1477.56 457.505 1472.12 431.139C1470.68 424.152 1466.72 417.336 1460.93 412.868C1475.48 411.949 1481.12 419.605 1487.51 431.139L1493.1 408.65C1501.34 418.485 1507.37 427.031 1511.28 439.575L1511.3 439.565Z" fill="#81BB36"/>
<path d="M1178.39 408.64C1178.19 416.086 1178.72 423.692 1178.39 431.129C1177.75 445.571 1179.65 459.114 1175.59 473.297C1169.02 496.255 1172.03 480.653 1167.2 483.132C1164.01 484.771 1154.46 501.842 1157.41 476.106C1156.52 475.076 1151.25 478.184 1150.42 478.914C1150.39 467.5 1147.72 457.375 1147.62 445.181C1147.54 436.026 1144.93 388.91 1147.62 384.742C1152.69 376.876 1166.79 385.152 1165.8 366.472L1171.4 369.28L1178.39 408.64Z" fill="#5EA023"/>
<path d="M1183.98 431.129C1185.78 458.705 1191.91 495.136 1195.17 526.7C1196.57 540.253 1199.85 553.526 1197.96 567.459L1181.17 560.433C1182.22 545.8 1187.28 530.518 1182.58 515.456C1177.91 520.173 1182.18 570.507 1167.19 550.598C1164.85 547.499 1180.48 484.042 1175.58 473.297C1179.64 459.115 1177.74 445.572 1178.38 431.129H1183.97H1183.98Z" fill="#81BB36"/>
<path d="M1391.01 419.884C1396.38 442.053 1395.87 492.707 1396.6 518.274C1396.88 527.819 1406.21 551.697 1389.61 554.815C1370.88 558.344 1376.95 544.88 1377.02 535.135C1377.23 504.921 1382.18 472.088 1382.61 439.564C1382.77 427.531 1380.52 376.677 1391 419.884H1391.01Z" fill="#81BB36"/>
<path d="M1472.14 431.129C1477.58 457.495 1473.72 487.49 1472.14 512.647C1443.76 524.301 1456.04 510.548 1452.56 507.03C1449.7 480.484 1452.15 448.99 1438.57 425.512L1446.97 418.485C1457.73 434.687 1459.9 457.785 1462.35 481.733L1472.14 431.139V431.129Z" fill="#5EA023"/>
<path d="M1220.35 456.426C1221.31 461.553 1223.93 484.781 1223.14 488.749C1222.96 489.629 1209.32 499.114 1209.16 499.994C1208.72 502.202 1213.81 510.688 1211.95 518.264C1195.22 494.266 1224.31 480.104 1204.96 456.416L1202.16 481.713C1195.68 457.575 1188.08 431.549 1192.37 405.812C1198.97 405.692 1218.8 448.14 1220.35 456.406V456.426Z" fill="#81BB36"/>
<path d="M1438.57 425.502C1452.16 448.98 1449.7 480.474 1452.56 507.02C1451.11 505.561 1442.69 511.338 1442.77 495.776C1436.32 495.136 1439.21 500.464 1438.57 504.212C1417.92 498.335 1437.41 473.667 1435.77 455.017C1434.61 441.684 1417.21 425.092 1421.79 411.449C1428.54 415.787 1434.24 418.006 1438.58 425.502H1438.57Z" fill="#81BB36"/>
<path d="M1211.96 518.274C1211.36 520.703 1213.33 525.161 1210.56 526.71C1208.37 527.929 1198.98 525.88 1195.17 526.71C1191.91 495.146 1185.78 458.705 1183.98 431.139C1183.41 422.443 1181.3 406.042 1192.37 405.842C1188.08 431.579 1195.69 457.595 1202.16 481.743L1204.96 456.446C1224.3 480.124 1195.22 494.286 1211.95 518.294L1211.96 518.274Z" fill="#5EA023"/>
<path d="M1349.04 464.861C1348.82 462.303 1351.95 461.903 1351.84 459.244C1351.8 458.305 1351.86 457.365 1351.84 456.436L1363.03 511.247C1351.65 509.748 1350.04 475.956 1349.04 464.861Z" fill="#81BB36"/>
<path d="M1351.84 459.245C1351.95 461.914 1348.82 462.303 1349.04 464.862H1343.45C1342.05 456.926 1334.77 437.086 1329.47 431.129C1345.3 415.697 1338.14 458.865 1351.85 459.235L1351.84 459.245Z" fill="#699371"/>
<path d="M1648.4 478.915L1642.81 530.918L1649.8 523.892L1651.2 536.545C1654.41 542.892 1660.6 513.327 1662.39 509.839C1662.71 509.209 1669 511.288 1670.79 508.43C1671.74 506.9 1664.89 489.869 1676.38 494.377L1681.97 529.519C1681.36 534.286 1679.88 538.054 1679.18 543.572C1677.99 552.737 1682.83 587.859 1674.98 591.357H1353.24C1352.07 580.693 1351.22 571.008 1349.04 560.433C1347.85 554.636 1347.88 547.899 1346.25 540.753C1361.93 525.031 1356.56 541.333 1364.43 549.189L1377.03 535.136C1376.96 544.871 1370.89 558.344 1389.62 554.816C1406.22 551.688 1396.89 527.81 1396.61 518.275L1405.01 508.44L1412 537.955L1427.39 502.813C1428.92 513.927 1415.83 576.925 1434.38 571.687C1442.7 569.338 1436.83 514.567 1438.58 504.222C1439.22 500.474 1436.33 495.146 1442.78 495.786C1442.71 511.348 1451.12 505.571 1452.57 507.03C1456.04 510.549 1443.77 524.302 1472.15 512.648C1471.36 525.331 1469.9 538.294 1466.56 550.598C1474.27 559.324 1480.41 557.325 1490.35 554.816C1497.56 546.17 1484.7 506.081 1488.94 497.185C1490.28 494.397 1497.12 496.336 1497.34 495.776L1498.74 532.317C1512.4 518.455 1507.66 531.138 1515.53 537.935C1509.8 519.254 1517.16 520.084 1529.52 509.829C1535.31 526.44 1517.83 535.266 1542.11 537.935C1542.14 554.686 1552.3 550.218 1558.9 539.344L1563.1 566.05C1571.71 561.682 1565.08 545.841 1564.5 537.945L1571.5 535.136V554.816C1580.19 547.959 1568.72 502.313 1591.08 515.456C1595.45 518.025 1577.93 566.23 1602.27 557.624C1613.52 503.712 1613.96 564.431 1616.26 566.06C1617.12 566.67 1623.75 558.904 1634.44 564.651C1638.78 556.535 1636.52 549.019 1637.24 540.753C1638.91 521.573 1639.53 495.286 1637.24 476.096C1644.78 472.388 1639.44 475.826 1648.43 478.905L1648.4 478.915Z" fill="#4B8B22"/>
<path d="M1757.5 431.129C1773.03 487.5 1773.31 493.137 1768.69 552.007C1768.18 558.444 1770.34 589.188 1767.29 591.367H1686.16C1683.46 589.778 1686.72 548.449 1687.56 543.582C1690.02 529.439 1692.11 528.03 1697.35 515.476C1703.63 520.873 1700.69 534.016 1712.74 528.129C1715.1 516.246 1710.74 503.542 1709.94 492.987C1717.83 488.39 1717.08 488 1718.34 497.205C1720.84 515.676 1715.35 536.255 1719.74 554.836C1735.74 533.367 1727.7 505.631 1729.53 480.344C1734.2 475.746 1734.85 481.653 1735.12 481.753C1734.81 493.877 1735.55 506.181 1735.12 518.294C1734.63 532.077 1732.92 545.311 1732.32 559.054C1759.01 570.977 1750.43 549.049 1751.91 537.974C1754.33 519.794 1753.32 502.653 1754.71 484.562C1754.81 483.282 1758.93 483.003 1757.5 463.483C1757.43 462.583 1763.23 458.665 1763.09 457.865C1762.79 456.106 1745.1 445.752 1751.9 428.351C1753.87 431.409 1755.03 432.678 1756.1 436.786L1757.5 431.169V431.129Z" fill="#4B8B22"/>
<path d="M1183.24 557.614C1182.53 567.1 1183.75 576.934 1183.24 586.46C1177.68 586.28 1149.18 593.816 1144.1 587.899L1145.6 577.804L1150.12 579.243C1150.05 544.161 1150.21 509.029 1150.12 473.977C1151.01 473.228 1156.69 470.039 1157.65 471.089C1154.47 497.495 1164.76 479.984 1168.18 478.295C1173.37 475.746 1170.14 491.758 1177.21 468.2C1182.49 479.235 1165.67 544.331 1168.18 547.51C1184.32 567.939 1176.08 511.928 1184.74 511.458C1189.82 526.91 1184.37 542.592 1183.24 557.604V557.614Z" fill="#3F7C1F"/>
<path d="M1861.02 526.71C1863.62 558.204 1869.58 538.604 1872.21 544.981C1873.02 546.93 1872.95 584.77 1872.21 587.149C1869.8 594.975 1847.18 588.358 1844.24 588.558C1843.54 574.915 1847.88 565.65 1840.04 554.826C1828.81 559.583 1835.81 573.826 1830.25 581.532C1811.71 607.249 1823.81 543.411 1824.66 537.964C1846.07 541.452 1835.7 528.899 1840.05 515.476L1847.05 528.129L1848.45 487.37L1861.04 526.73L1861.02 526.71Z" fill="#4B8B22"/>
<path d="M1698.75 445.182C1702.35 462.113 1708.38 472.288 1709.94 492.967C1710.74 503.512 1715.1 516.215 1712.74 528.109C1700.7 533.996 1703.63 520.853 1697.35 515.456C1692.11 528.009 1690.02 529.419 1687.56 543.561H1679.17C1679.88 538.044 1681.36 534.276 1681.96 529.509C1687.48 485.931 1694.17 479.024 1679.17 433.938C1691.08 435.956 1690.77 465.751 1698.75 445.182Z" fill="#81BB36"/>
<path d="M1774.29 439.565C1789.02 481.074 1778.06 516.515 1779.88 557.624L1768.69 552.007C1773.31 493.137 1773.03 487.5 1757.5 431.129C1754.97 421.974 1748.42 414.068 1756.1 408.641C1764.46 418.086 1770.05 427.641 1774.28 439.565H1774.29Z" fill="#81BB36"/>
<path d="M1150.41 478.914C1141.18 487.01 1144.95 519.224 1142.01 535.136L1133.62 542.162C1135.89 529.448 1116.84 534.236 1114.03 530.918C1112.9 529.578 1114.67 502.572 1114.03 495.776C1152.41 496.186 1133.01 479.344 1133.62 477.505C1134.54 474.687 1141.35 477.485 1142.01 474.697C1144.16 465.601 1143.07 453.008 1147.6 445.182C1147.7 457.375 1150.37 467.5 1150.4 478.914H1150.41Z" fill="#5EA023"/>
<path d="M1346.25 540.763C1347.89 547.899 1347.85 554.646 1349.04 560.443H1340.65C1340.22 557.784 1346.57 555.545 1342.05 552.007L1323.87 559.034L1332.26 504.222C1342.02 507.18 1343.72 529.739 1346.25 540.763Z" fill="#95CF3E"/>
<path d="M1735.12 417.077C1733.6 408.221 1741.09 412.809 1743.51 411.46C1745 416.037 1749.39 424.423 1751.91 428.331C1745.11 445.742 1762.8 456.087 1763.1 457.846C1763.24 458.645 1757.44 462.573 1757.51 463.463C1758.94 482.983 1754.81 483.263 1754.72 484.542L1749.13 480.324L1751.92 537.955C1750.45 549.029 1759.02 570.958 1732.33 559.034C1732.93 545.291 1734.64 532.048 1735.13 518.275C1740.68 531.438 1743.54 506.381 1743.52 505.621C1743.29 495.247 1746.78 485.941 1735.13 481.724C1734.86 481.624 1734.2 475.727 1729.54 480.314C1727.71 505.601 1735.74 533.337 1719.75 554.806C1715.37 536.236 1720.86 515.656 1718.35 497.176C1717.09 487.97 1717.84 488.36 1709.95 492.958C1708.39 472.278 1702.36 462.104 1698.76 445.172C1697.91 441.144 1692.66 403.913 1694.56 403.004C1696.77 408.491 1709.78 430.45 1714.15 431.11C1716.64 431.489 1719.55 407.612 1733.74 450.789L1735.14 417.057L1735.12 417.077Z" fill="#5EA023"/>
<path d="M1351.84 338.366C1350.64 347.402 1341.89 411.869 1344.85 414.268C1365.63 402.644 1383.25 386.212 1402.2 372.099C1421.72 372.189 1525.23 312.07 1532.29 313.069C1534.61 313.399 1560.68 346.842 1561.67 349.611C1564.53 357.707 1557.62 383.783 1553.27 390.37C1547.11 399.725 1539.97 394.548 1533.69 403.023C1524.88 414.897 1522.34 429.66 1511.3 439.565C1507.38 427.031 1501.36 418.475 1493.12 408.64L1487.53 431.129C1481.14 419.595 1475.5 411.939 1460.95 412.858C1466.74 417.326 1470.7 424.142 1472.14 431.129L1462.35 481.723C1459.9 457.775 1457.73 434.677 1446.97 418.475L1438.57 425.502C1434.23 418.006 1428.53 415.787 1421.78 411.449C1421.15 411.049 1417.07 401.594 1413.38 404.423C1411.23 414.937 1424.84 426.231 1414.79 433.937L1398 414.258L1391 419.875C1380.53 376.667 1382.77 427.521 1382.61 439.555L1364.42 450.799C1362.1 445.192 1355.69 416.037 1347.63 419.875C1351.56 433.168 1351.47 442.783 1351.83 456.416C1351.85 457.355 1351.79 458.295 1351.83 459.225C1338.12 458.855 1345.28 415.687 1329.45 431.119C1311.95 411.459 1307.23 428.63 1305.66 428.31C1300.22 427.181 1297.02 401.404 1291.68 397.386C1287.79 397.416 1271.37 482.423 1266.5 425.492C1255.94 438.485 1270.79 444.132 1255.31 453.597L1238.52 411.429C1235.79 424.282 1237.38 437.776 1237.12 450.789C1232.38 466.381 1230.24 476.975 1220.33 456.406C1218.77 448.13 1198.94 405.682 1192.35 405.812C1181.28 406.022 1183.39 422.413 1183.96 431.109H1178.37C1178.7 423.673 1178.17 416.067 1178.37 408.62C1179.01 384.333 1177.86 359.825 1178.37 335.538C1187.97 331.35 1196.54 325.303 1206.34 321.485C1212.01 319.276 1247.88 303.174 1249.7 304.614C1253.74 307.812 1248.46 326.882 1252.5 329.911C1259.45 324.214 1307.02 298.337 1311.24 298.987C1315.17 299.596 1343.61 335.058 1351.81 338.346L1351.84 338.366Z" fill="#749FA6"/>
<path d="M1735.12 417.077L1733.72 450.809C1719.53 407.631 1716.62 431.509 1714.13 431.129C1709.77 430.46 1696.75 408.501 1694.54 403.024C1692.64 403.933 1697.89 441.164 1698.74 445.192C1690.76 465.762 1691.08 435.967 1679.16 433.948C1676.59 426.222 1682.82 421.354 1669.37 414.268C1660.99 413.798 1676.61 454.887 1649.78 411.459V436.756L1627.4 397.397L1628.8 432.539L1617.61 429.73L1612.02 471.898L1591.04 425.512C1588.45 444.612 1603.48 480.664 1574.25 478.925L1553.27 404.433C1540.93 393.998 1554.25 437.866 1546.28 436.756C1533.76 433.488 1534.04 416.017 1533.69 403.024C1539.97 394.548 1547.11 399.725 1553.27 390.37C1557.62 383.784 1564.53 357.707 1561.67 349.611C1566.51 352.779 1569.19 354.089 1572.86 348.202C1592.25 317.108 1602.94 244.125 1623.21 209.053C1623.4 208.993 1622.77 205.735 1626.01 206.245L1735.12 417.077Z" fill="#749FA6"/>
<path d="M1819.05 332.739C1819.18 347.312 1823.61 417.945 1819.05 426.911C1813.86 437.106 1787.85 409.28 1784.08 403.013C1779.53 405.162 1809.11 449.149 1791.07 457.825L1775.68 419.874L1774.28 439.554C1770.05 427.63 1764.46 418.075 1756.1 408.63C1748.42 414.057 1754.97 421.963 1757.5 431.119L1756.1 436.736C1755.03 432.628 1753.87 431.368 1751.9 428.3C1749.39 424.392 1744.99 416.016 1743.5 411.429L1749.1 407.211C1742.42 402.024 1743.8 411.259 1743.5 411.429C1741.08 412.788 1733.59 408.2 1735.11 417.046L1626 206.214L1819.03 332.709L1819.05 332.739Z" fill="#457983"/>
<path d="M1511.3 284.954C1474.39 312.34 1439.36 344.423 1402.19 372.099C1383.25 386.212 1365.63 402.644 1344.84 414.268C1341.88 411.869 1350.63 347.402 1351.83 338.367C1358.17 290.701 1367.75 242.726 1374.21 195L1511.29 284.954H1511.3Z" fill="#457983"/>
<path d="M1374.22 195C1367.76 242.726 1358.18 290.691 1351.84 338.367C1343.64 335.078 1315.2 299.616 1311.27 299.007C1307.05 298.347 1259.48 324.224 1252.53 329.931C1248.49 326.902 1253.77 307.832 1249.73 304.634C1247.9 303.185 1212.04 319.296 1206.37 321.505L1374.22 195Z" fill="#B2CFD8"/>
<path d="M1623.21 209.053C1602.93 244.125 1592.24 317.107 1572.86 348.201C1569.19 354.078 1566.51 352.779 1561.67 349.611C1560.68 346.842 1534.61 313.399 1532.29 313.069C1525.23 312.07 1421.72 372.189 1402.2 372.099C1439.37 344.423 1474.39 312.35 1511.31 284.954C1512.73 283.904 1515.3 287.912 1515.51 287.762C1542.47 267.823 1594.24 217.858 1623.22 209.053H1623.21Z" fill="#B2CFD8"/>
<path d="M1743.51 411.449C1743.82 411.279 1742.44 402.044 1749.11 407.231L1743.51 411.449Z" fill="#5EA023"/>
<path d="M1914.17 417.076V508.439L1904.38 498.604L1902.98 522.502L1894.58 521.092C1903.91 497.654 1900.96 478.424 1881.99 462.063C1871.07 466.291 1878.34 479.404 1877.79 480.333C1875.05 485.011 1864.17 484.561 1861 497.205C1859.8 502.032 1860.49 520.573 1861 526.72L1848.41 487.36L1847.01 528.119L1840.01 515.465C1835.66 528.888 1846.04 541.442 1824.62 537.954C1836.61 460.963 1839.08 417.605 1841.42 339.775C1841.57 334.808 1843.97 325.812 1835.83 327.122C1842.3 297.817 1846.34 267.952 1852.62 238.577L1858.21 300.425L1862.4 231.551C1871.66 254.559 1860.22 294.608 1863.81 314.478C1864.53 318.506 1862.31 324.323 1869.4 320.095V261.066L1880.59 275.118C1879.6 264.704 1869.91 242.025 1879.19 234.359L1895.98 355.237L1897.38 277.937L1905.78 291.99C1910.11 279.696 1903.11 251.151 1916.97 247.013C1906.66 302.974 1912.55 360.465 1914.17 417.086V417.076Z" fill="#81BB36"/>
<path d="M1835.84 327.123C1843.99 325.803 1841.58 334.809 1841.43 339.776C1839.09 417.606 1836.63 460.964 1824.64 537.955C1823.79 543.402 1811.69 607.249 1830.23 581.522C1835.79 573.816 1828.78 559.573 1840.01 554.816C1847.85 565.64 1843.52 574.906 1844.21 588.549C1825 589.838 1805.98 590.538 1786.86 591.357C1782.95 587.769 1780.13 563.741 1779.86 557.624C1778.04 516.506 1789 481.074 1774.27 439.565L1775.67 419.885L1791.06 457.836C1809.1 449.16 1779.52 405.173 1784.07 403.024C1787.84 409.291 1813.85 437.116 1819.04 426.921C1823.6 417.956 1819.17 347.322 1819.04 332.75C1818.76 300.886 1817.54 269.082 1817.64 237.179L1830.24 339.786C1839.19 344.474 1834.98 331.001 1835.83 327.133L1835.84 327.123Z" fill="#4B8B22"/>
<path d="M1798.08 462.054C1805.69 486.161 1802.1 514.507 1807.86 539.354C1777.44 555.436 1800.43 479.825 1798.08 462.054Z" fill="#81BB36"/>
<path d="M1826.05 456.427L1823.25 492.968C1821.3 492.948 1812.61 458.636 1826.05 456.427Z" fill="#81BB36"/>
<path d="M1564.46 537.944C1565.04 545.84 1571.67 561.692 1563.06 566.05L1558.86 539.343C1552.27 550.218 1542.1 554.686 1542.07 537.934C1542.07 532.587 1553.17 491.918 1557.46 484.521C1561.33 502.062 1563.13 519.983 1564.45 537.934L1564.46 537.944Z" fill="#81BB36"/>
<path d="M1662.38 509.839C1660.59 513.327 1654.4 542.892 1651.19 536.545L1649.79 523.891L1642.8 530.918L1648.39 478.915C1648.72 479.024 1647.23 469.439 1653.98 474.697L1655.38 501.403L1662.37 480.324V509.839H1662.38Z" fill="#81BB36"/>
<path d="M1679.17 433.938C1694.17 479.025 1687.48 485.941 1681.96 529.509L1676.37 494.367C1664.87 489.859 1671.73 506.891 1670.78 508.42C1669 511.268 1662.71 509.199 1662.38 509.829V480.314L1655.39 501.393L1653.99 474.687C1647.23 469.43 1648.73 479.015 1648.4 478.905C1639.41 475.827 1644.75 472.388 1637.21 476.096C1632.58 478.365 1635.41 487.421 1630.21 484.532C1624.79 481.514 1630.31 458.066 1620.43 460.634C1626.18 468.3 1622.06 479.914 1623.22 488.74C1623.57 491.389 1631.38 488.92 1631.62 491.548C1632.44 500.644 1617.62 543.132 1637.21 540.743C1636.48 549.009 1638.75 556.515 1634.41 564.641C1623.72 558.894 1617.09 566.66 1616.23 566.05C1613.93 564.421 1613.48 503.712 1602.24 557.615C1577.9 566.22 1595.42 518.015 1591.05 515.446C1568.69 502.293 1580.16 547.95 1571.47 554.806V535.126L1564.47 537.935C1563.15 519.984 1561.35 502.063 1557.48 484.522C1553.19 491.918 1542.08 532.577 1542.09 537.935C1517.81 535.256 1535.29 526.441 1529.5 509.829C1517.13 520.094 1509.78 519.254 1515.51 537.935C1507.65 531.138 1512.38 518.455 1498.72 532.318L1497.32 495.776C1503.58 479.295 1493 464.152 1516.91 469.07C1511.97 463.003 1513.21 445.642 1511.31 439.555C1522.35 429.64 1524.89 414.878 1533.7 403.014C1534.05 416.007 1533.76 433.478 1546.29 436.747C1554.26 437.856 1540.95 393.988 1553.28 404.423L1574.26 478.915C1603.49 480.664 1588.46 444.613 1591.05 425.502L1612.03 471.889L1617.62 429.72L1628.81 432.529L1627.41 397.387L1649.79 436.747V411.45C1676.61 454.887 1660.99 413.788 1669.38 414.258C1682.84 421.334 1676.6 426.212 1679.17 433.938Z" fill="#5EA023"/>
<path d="M1637.21 476.106C1639.5 495.296 1638.88 521.583 1637.21 540.763C1617.62 543.152 1632.43 500.664 1631.62 491.568C1631.38 488.94 1623.57 491.408 1623.22 488.76C1622.06 479.924 1626.18 468.31 1620.43 460.654C1630.31 458.086 1624.8 481.534 1630.21 484.552C1635.41 487.44 1632.58 478.385 1637.21 476.116V476.106Z" fill="#81BB36"/>
<path d="M1529.5 422.693C1532.51 433.438 1532.39 445.812 1523.91 453.618C1517.41 443.143 1525.62 432.768 1529.5 422.693Z" fill="#6A9591"/>
<path d="M1307.08 535.136C1306.05 540.333 1308.83 547.05 1305.67 552.007C1303.88 554.826 1290.11 549.798 1281.89 552.007L1286.09 431.129C1293.55 431.429 1292.24 436.136 1293.08 440.964C1297.12 463.922 1289.23 506.34 1295.88 528.109C1298.6 537.045 1295.3 535.655 1307.07 535.136H1307.08Z" fill="#5EA023"/>
<path d="M1754.71 484.542C1753.32 502.633 1754.33 519.774 1751.91 537.955L1749.12 480.324L1754.71 484.542Z" fill="#81BB36"/>
<path d="M1735.12 518.275C1735.55 506.161 1734.81 493.857 1735.12 481.733C1746.77 485.951 1743.28 495.256 1743.51 505.631C1743.53 506.391 1740.67 531.448 1735.12 518.285V518.275Z" fill="#81BB36"/>
<path d="M1086.41 591.147H805.891V622.132H1086.41V591.147Z" fill="#5EA023"/>
</g>
<defs>
<clipPath id="clip0_450_576">
<rect width="1920" height="605" fill="white" transform="translate(0 195)"/>
</clipPath>
</defs>
</svg>
