<svg width="288" height="192" viewBox="0 0 288 192" fill="none" xmlns="http://www.w3.org/2000/svg">
<ellipse cx="83.4894" cy="116.425" rx="83.4894" ry="75.0638" fill="white"/>
<ellipse cx="143.617" cy="54" rx="60.1277" ry="54" fill="white"/>
<ellipse cx="199.915" cy="112.213" rx="88.0851" ry="79.2766" fill="white"/>
<rect x="83.4893" y="151.659" width="120.255" height="39.8298" fill="white"/>
<path d="M130 164C124.493 164 119.849 162.111 116.067 158.333C112.285 154.555 110.396 149.91 110.4 144.4C110.4 143.56 110.518 142.907 110.753 142.44C110.988 141.973 110.964 141.6 110.68 141.32C110.396 141.04 110.023 141.018 109.56 141.253C109.097 141.488 108.444 141.604 107.6 141.6C102.093 141.6 97.4491 139.711 93.6672 135.933C89.8853 132.155 87.9963 127.51 88 122C88.0037 116.49 89.8947 111.845 93.6728 108.067C97.4509 104.289 102.093 102.4 107.6 102.4C109.747 102.4 111.707 102.68 113.48 103.24C115.253 103.8 116.933 104.64 118.52 105.76L141.76 82.52C140.64 80.9333 139.8 79.2533 139.24 77.48C138.68 75.7067 138.4 73.7467 138.4 71.6C138.4 66.0933 140.291 61.4491 144.073 57.6672C147.855 53.8853 152.497 51.9963 158 52C163.503 52.0037 168.147 53.8947 171.933 57.6728C175.718 61.4509 177.607 66.0933 177.6 71.6C177.6 72.44 177.484 73.0933 177.253 73.56C177.021 74.0267 177.044 74.4 177.32 74.68C177.596 74.96 177.97 74.9843 178.44 74.7528C178.91 74.5213 179.564 74.4037 180.4 74.4C185.907 74.4 190.551 76.2909 194.333 80.0728C198.115 83.8547 200.004 88.4971 200 94C199.996 99.5029 198.107 104.147 194.333 107.933C190.558 111.718 185.914 113.607 180.4 113.6C178.253 113.6 176.293 113.32 174.52 112.76C172.747 112.2 171.067 111.36 169.48 110.24L146.24 133.48C147.36 135.067 148.2 136.747 148.76 138.52C149.32 140.293 149.6 142.253 149.6 144.4C149.6 149.907 147.711 154.551 143.933 158.333C140.155 162.115 135.51 164.004 130 164Z" fill="#0081C7" fill-opacity="0.05"/>
</svg>
