<svg width="361" height="267" viewBox="0 0 361 267" fill="none" xmlns="http://www.w3.org/2000/svg">
<circle cx="104.421" cy="162.579" r="104.421" fill="white"/>
<circle cx="179.762" cy="75.3416" r="75.3416" fill="white"/>
<circle cx="250.478" cy="156.632" r="110.369" fill="white"/>
<rect x="104.421" y="211.485" width="150.683" height="55.5149" fill="white"/>
<path d="M181.059 146.563C170.156 146.563 159.7 142.218 151.991 134.484C144.282 126.75 139.951 116.26 139.951 105.322H156.394C156.394 111.885 158.992 118.178 163.618 122.819C168.244 127.46 174.517 130.067 181.059 130.067C187.6 130.067 193.874 127.46 198.499 122.819C203.125 118.178 205.723 111.885 205.723 105.322H222.166C222.166 116.26 217.835 126.75 210.126 134.484C202.417 142.218 191.961 146.563 181.059 146.563ZM181.059 64.0805C187.6 64.0805 193.874 66.6875 198.499 71.3281C203.125 75.9686 205.723 82.2626 205.723 88.8253H156.394C156.394 82.2626 158.992 75.9686 163.618 71.3281C168.244 66.6875 174.517 64.0805 181.059 64.0805ZM238.61 88.8253H222.166C222.166 83.4094 221.103 78.0466 219.037 73.0429C216.971 68.0393 213.943 63.4929 210.126 59.6633C206.309 55.8337 201.777 52.7959 196.79 50.7233C191.802 48.6507 186.457 47.584 181.059 47.584C170.156 47.584 159.7 51.929 151.991 59.6633C144.282 67.3975 139.951 77.8874 139.951 88.8253H123.508C114.382 88.8253 107.064 96.1663 107.064 105.322V204.301C107.064 208.676 108.797 212.872 111.881 215.966C114.964 219.06 119.147 220.798 123.508 220.798H238.61C242.971 220.798 247.153 219.06 250.237 215.966C253.32 212.872 255.053 208.676 255.053 204.301V105.322C255.053 100.947 253.32 96.7507 250.237 93.657C247.153 90.5633 242.971 88.8253 238.61 88.8253Z" fill="#0081C7" fill-opacity="0.05"/>
</svg>
