<svg width="395" height="235" viewBox="0 0 395 235" fill="none" xmlns="http://www.w3.org/2000/svg">
<ellipse cx="114.55" cy="150.1" rx="114.55" ry="84.2667" fill="white"/>
<circle cx="184.333" cy="59.25" r="59.25" fill="white"/>
<ellipse cx="280.45" cy="150.1" rx="114.55" ry="84.2667" fill="white"/>
<rect x="110.6" y="179.066" width="179.067" height="55.3" fill="white"/>
<path d="M193.55 77.6833C188.46 77.6833 184.333 81.8098 184.333 86.9V123.767H165.9V86.9C165.9 71.6294 178.279 59.25 193.55 59.25C208.821 59.25 221.2 71.6294 221.2 86.9V105.333H202.767V86.9C202.767 81.8098 198.64 77.6833 193.55 77.6833Z" fill="#0081C7" fill-opacity="0.05"/>
<path d="M258.067 142.2V160.633H239.633L221.2 206.717H147.467L129.033 160.633H110.6V142.2H258.067Z" fill="#0081C7" fill-opacity="0.05"/>
</svg>
