<svg width="1920" height="801" viewBox="0 0 1920 801" fill="none" xmlns="http://www.w3.org/2000/svg">
<circle cx="940.5" cy="347.5" r="347.5" fill="#F8F198"/>
<g clip-path="url(#clip0_375_2)">
<path d="M1919.94 696C1919.58 734.38 1921.37 772.97 1918.53 811.31L1219.62 808.5C1199.43 806.14 1185.72 803.06 1169 797.25C1168.48 797.07 1165.06 790.17 1161.97 788.81C1154.88 785.7 1137.53 787.74 1131.03 783.19C1123.99 778.25 1127.86 770.29 1126.81 769.13C1128.64 766.83 1135.11 767.17 1138.06 766.32C1140.46 780.98 1148.45 769.41 1149.31 769.13C1153.65 767.7 1150.62 767.77 1157.75 766.32C1153.52 788.34 1182.92 782.44 1174.63 766.32C1262.21 760.39 1349.96 762.88 1437.6 755.07C1599.21 740.66 1756.8 693.53 1919.94 696.01V696Z" fill="#694122"/>
<path d="M1894.63 527.25C1889.12 541.04 1875.63 547 1874.94 548.34C1873.79 550.58 1876.4 587.23 1874.94 593.34L1919.94 597.56C1920.03 608.77 1919.94 620.1 1919.94 631.31H1081.82C1080.61 620.11 1080.28 608.57 1079.01 597.56C1088.95 595.32 1118.53 600.6 1125.42 597.56C1128.06 596.4 1136.67 548.91 1138.08 541.31C1141.02 525.39 1137.24 493.16 1146.52 485.06C1146.61 519.24 1146.46 553.5 1146.52 587.72L1142.3 586.31L1140.89 596.15C1145.63 601.92 1172.26 594.57 1177.45 594.74C1231.2 596.59 1285.24 597.43 1339.17 597.55C1347.37 593.54 1339.15 575.11 1337.76 566.61H1346.2C1348.39 577.19 1349.24 586.88 1350.42 597.55H1673.86C1681.75 594.05 1676.89 558.91 1678.08 549.74H1686.52C1685.67 554.61 1682.41 595.96 1685.11 597.55H1766.67C1769.73 595.38 1767.57 564.61 1768.08 558.17L1779.33 563.79C1779.6 569.91 1782.43 593.95 1786.36 597.54C1805.59 596.72 1824.71 596.02 1844.02 594.73C1846.98 594.53 1869.71 601.16 1872.14 593.32C1872.88 590.95 1872.95 553.08 1872.14 551.13C1869.49 544.75 1863.5 564.36 1860.89 532.85C1860.38 526.7 1859.68 508.15 1860.89 503.32C1864.07 490.68 1875 491.12 1877.77 486.44C1878.32 485.51 1871 472.39 1881.99 468.16C1901.06 484.53 1904.01 503.78 1894.65 527.22L1894.63 527.25Z" fill="#5EA023"/>
<path d="M1919.94 631.31C1919.94 636.91 1919.97 642.59 1919.94 648.19C1906.64 660.01 1889.38 649.71 1880.56 663.66C1890.66 679.75 1919.28 658.36 1914.31 680.54L1919.93 670.7C1919.86 679.1 1920.01 687.61 1919.93 696.01C1756.79 693.54 1599.2 740.66 1437.59 755.07C1349.95 762.88 1262.2 760.39 1174.62 766.32C1173.43 766.4 1175.15 762.78 1157.74 766.32C1150.61 767.77 1153.64 767.71 1149.3 769.13C1145.94 751.79 1138.94 766.06 1138.05 766.32C1135.1 767.17 1128.63 766.84 1126.8 769.13C1105.93 745.89 1096.79 767.09 1090.24 741.01C1083.12 712.63 1085.23 663.09 1081.8 631.32H1919.92L1919.94 631.31Z" fill="#805D37"/>
<path d="M1919.94 648.19C1919.9 655.66 1920 663.22 1919.94 670.69L1914.32 680.53C1919.29 658.36 1890.67 679.74 1880.57 663.65C1889.38 649.7 1906.64 660 1919.95 648.18L1919.94 648.19Z" fill="#694122"/>
<path d="M1381.35 656.62C1384.77 655.9 1430 658.16 1430.57 660.84C1415.7 666.83 1391.32 681.91 1375.73 676.31C1363.41 671.88 1368.07 659.43 1381.35 656.62Z" fill="#694122"/>
<path d="M1221.03 645.38C1244.16 641.24 1264.95 660.64 1240.72 667.88C1212.71 676.25 1189.04 651.1 1221.03 645.38Z" fill="#694122"/>
<path d="M1803.22 667.88C1842.03 661.08 1835.23 696.18 1797.6 687.57C1785.5 681.75 1793.68 669.55 1803.22 667.88Z" fill="#694122"/>
<path d="M1479.78 698.81C1483.86 697.51 1508.88 696.91 1506.5 705.84C1502.36 721.37 1455.56 706.52 1479.78 698.81Z" fill="#694122"/>
<path d="M1164.78 712.88C1168.18 711.69 1190.73 711.8 1191.5 717.1C1184.89 733.7 1146.8 719.19 1164.78 712.88Z" fill="#694122"/>
<path d="M1174.63 766.31C1182.93 782.43 1153.52 788.33 1157.75 766.31C1175.16 762.77 1173.43 766.39 1174.63 766.31Z" fill="white"/>
<path d="M1704.78 679.12C1708.16 678.02 1728.69 678.31 1728.69 683.34C1723.11 694.48 1689.91 683.97 1704.78 679.12Z" fill="#694122"/>
<path d="M1296.97 665.06C1307.55 662.65 1312.85 676.5 1302.59 679.12C1287.03 683.09 1288.38 667.02 1296.97 665.06Z" fill="#694122"/>
<path d="M1656.97 684.75C1662.69 682.74 1672.36 697.93 1662.59 701.63C1652.54 705.43 1648.53 687.72 1656.97 684.75Z" fill="#694122"/>
<path d="M1572.6 665.06C1581.75 663.51 1589.41 676.93 1578.22 679.12C1566.37 681.45 1563.34 666.62 1572.6 665.06Z" fill="#694122"/>
<path d="M1195.72 738.19C1215.95 730.77 1211.79 754.87 1195.72 749.44C1190.49 747.68 1190.39 740.15 1195.72 738.19Z" fill="#694122"/>
<path d="M1347.6 676.31C1366.29 669.87 1362.59 692.7 1347.6 687.56C1342.32 685.75 1342.32 678.13 1347.6 676.31Z" fill="#694122"/>
<path d="M1867.91 648.19C1870.93 647.18 1883.38 648.22 1883.38 652.41C1883.38 662.56 1852.95 653.17 1867.91 648.19Z" fill="#694122"/>
<path d="M1149.31 769.12C1148.45 769.4 1140.46 780.97 1138.06 766.31C1138.95 766.05 1145.95 751.78 1149.31 769.12Z" fill="#DAE1E5"/>
<path d="M1744.16 645.38C1747.27 644.34 1753.9 643.81 1754 649.6C1754.16 658.06 1732.21 649.38 1744.16 645.38Z" fill="#694122"/>
<path d="M794.94 701.62C793.7 721.03 792.62 741.55 789.32 760.68C769.01 756.55 767.96 772.57 762.6 774.74C758.31 776.48 754.46 769.6 745.72 774.74C730.95 783.43 727.22 795.72 719 802.86C718.28 803.49 721.07 811.02 710.56 808.48L-5.21997 811.29C-12.54 808.04 -9.21997 726.41 -9.43997 712.85C40.12 713.97 113.08 719.6 160.72 710.04C165.17 709.15 158.23 702.87 160.72 701.6C169.13 697.34 182.06 707.27 183.22 707.22C305.28 702.91 439.64 733.53 562.91 701.6H794.94V701.62Z" fill="#694122"/>
<path d="M711.97 766.31C723.16 765.27 722.86 783.67 714.78 786C699.8 790.32 701.44 767.29 711.97 766.31Z" fill="#D8EFF5"/>
<path d="M800.56 628.5C798.6 652.84 796.5 677.22 794.94 701.62H562.91C439.64 733.55 305.29 702.94 183.22 707.24C182.06 707.28 169.13 697.35 160.72 701.62C158.23 702.88 165.17 709.16 160.72 710.06C113.08 719.62 40.13 713.99 -9.43998 712.87C-9.89998 684.83 -9.59998 656.54 -9.43998 628.49H800.56V628.5Z" fill="#805D37"/>
<path d="M349.16 648.19C361.73 646.29 384.83 659.2 398.38 660.85C375.94 692.2 302.3 655.28 349.16 648.19Z" fill="#694122"/>
<path d="M681.03 667.88C717.76 657.83 711.19 694.84 681.03 687.57C668.52 684.55 667.57 671.57 681.03 667.88Z" fill="#694122"/>
<path d="M602.28 653.81C609.58 650.53 640.75 657.95 648.69 663.65C644.31 666.83 571.17 667.79 602.28 653.81Z" fill="#694122"/>
<path d="M281.66 659.44C285.65 658.16 315.92 658.14 316.82 663.66C307.7 675.08 292.63 672.68 281.66 667.88C277.18 665.47 276.95 660.95 281.66 659.44Z" fill="#694122"/>
<path d="M205.72 648.19C209.86 646.97 231.95 646.53 229.63 655.22C221.36 667.81 184.37 654.46 205.72 648.19Z" fill="#694122"/>
<path d="M304.16 693.19C310.5 690.81 321.21 693.45 325.25 700.22C317.72 712.54 288.27 699.16 304.16 693.19Z" fill="#694122"/>
<path d="M759.78 653.81C762.95 652.36 780.19 653.02 778.06 660.84C775.07 671.84 741.08 662.37 759.78 653.81Z" fill="#694122"/>
<path d="M112.91 656.62C116.15 655.52 134 656.02 134 660.84C128.12 671.91 98.9801 661.34 112.91 656.62Z" fill="#694122"/>
<path d="M65.1001 645.38C69.1901 645.61 76.7301 659.42 67.9101 662.26C59.8801 664.84 53.0201 644.71 65.1001 645.38Z" fill="#694122"/>
<path d="M20.1 667.88C21.78 667.26 36.64 665.82 35.57 672.1C29.28 682.93 8.26005 672.22 20.1 667.88Z" fill="#694122"/>
<path d="M515.1 653.81C518.11 652.81 530.72 653.91 530.57 658.03C530.26 666.54 499.23 659.1 515.1 653.81Z" fill="#694122"/>
<path d="M146.66 648.19C152.71 647.11 157.18 649.56 162.13 652.41C153.24 655.86 147.84 658.72 139.63 652.41C141.67 652.14 146.18 648.28 146.66 648.19Z" fill="#694122"/>
<path d="M1219.63 808.5C1185.74 818.54 1158.71 823.22 1122.6 825.38C1025.94 831.15 902.19 829.28 804.79 825.38C784.42 824.57 734.95 823.46 717.6 819.76C710.33 818.21 709.88 814.93 710.57 808.51C721.08 811.04 718.28 803.51 719.01 802.89L1169.01 797.27C1185.73 803.08 1199.45 806.16 1219.63 808.52V808.5Z" fill="#B2CFD8"/>
<path d="M1090.25 741C1096.8 767.09 1105.94 745.88 1126.81 769.12C1127.86 770.29 1123.99 778.24 1131.03 783.18C1137.52 787.73 1154.88 785.69 1161.97 788.8C1165.06 790.16 1168.48 797.06 1169 797.24L719 802.86C727.22 795.71 730.95 783.42 745.72 774.74C754.45 769.6 758.3 776.48 762.6 774.74C767.96 772.56 769.01 756.55 789.32 760.68C791.83 761.19 812.47 780.74 816.04 780.37C817.76 780.19 825.17 769.62 827.29 769.12C835.89 767.07 843.31 775 844.17 774.74C846.05 774.19 850.36 754.12 862.45 755.05C862.61 755.78 872.51 761.54 873.7 764.89C877.15 774.57 863.91 777.1 872.29 783.17C885.63 785.49 881.79 755.32 915.88 757.86C917.21 757.96 934.52 764.94 941.19 766.3C941.63 766.39 943.42 773.42 948.22 771.92C954.13 770.08 962.45 734.06 990.41 743.8C1002.56 753.33 1001.52 769.33 1004.47 783.18C1010.65 764.02 1052.73 767.79 1055.09 766.3C1061.45 762.29 1058.65 730.7 1090.25 740.99V741Z" fill="#D8EFF5"/>
<path d="M1059.31 479.44C1066.58 497.44 1067.39 516.82 1070.56 535.69C1073.98 556.1 1076.62 577.01 1079 597.57C1080.27 608.58 1080.6 620.12 1081.81 631.32C1085.24 663.08 1083.12 712.63 1090.25 741.01C1058.65 730.72 1061.46 762.31 1055.09 766.32C1052.73 767.81 1010.64 764.04 1004.47 783.2C1001.51 769.36 1002.55 753.36 990.41 743.82C962.45 734.09 954.14 770.11 948.22 771.94C943.42 773.43 941.63 766.4 941.19 766.32L920.1 580.7L915.88 757.89C881.78 755.36 885.62 785.52 872.29 783.2C863.91 777.13 877.14 774.6 873.7 764.92C872.51 761.57 862.61 755.81 862.45 755.08C858.76 738.25 869.48 710.59 865.26 691.8L859.64 719.92V663.67L854.02 674.92C854.96 665.63 846.68 617.56 842.77 613.04C840.72 610.67 831.77 622.46 828.71 615.85C826.61 611.32 844.72 530.24 845.59 517.41L851.21 514.6L858.24 538.51C862.01 534.75 865.51 503.48 873.71 508.98L886.37 589.14L899.03 537.11C933.28 507.99 923.65 572.64 937 589.14C940.33 579.39 938.63 516.13 948.25 516.02L962.31 608.83C972.18 598.91 972 516.24 984.81 516.02C1005.7 539.83 1000.08 581.03 1005.9 610.24C1006.86 615.04 1008.11 628.16 1015.74 625.71C1026.75 590.5 1014.6 547.84 1038.24 518.83C1045.8 517.05 1052.78 573.59 1053.71 576.49C1054.54 579.07 1057.52 589.8 1062.15 584.93L1056.53 476.65L1059.34 479.46L1059.31 479.44Z" fill="#70CDED"/>
<path d="M1056.5 476.62L1062.12 584.9C1057.49 589.77 1054.51 579.05 1053.68 576.46C1052.75 573.56 1045.78 517.02 1038.21 518.8C1014.57 547.8 1026.72 590.46 1015.71 625.68C1008.08 628.13 1006.82 615.01 1005.87 610.21C1000.05 581 1005.67 539.8 984.78 515.99C971.97 516.21 972.15 598.88 962.28 608.8L948.22 515.99C938.6 516.11 940.3 579.37 936.97 589.11C923.62 572.6 933.25 507.96 899 537.08L886.34 589.11L873.68 508.95C865.48 503.45 861.99 534.72 858.21 538.48L851.18 514.57L845.56 517.38C844.69 530.21 826.58 611.29 828.68 615.82C831.75 622.43 840.69 610.64 842.74 613.01C846.65 617.53 854.93 665.59 853.99 674.89L859.61 663.64V719.89L865.23 691.77C869.45 710.56 858.73 738.22 862.42 755.05C850.33 754.12 846.02 774.18 844.14 774.74C843.29 774.99 835.87 767.07 827.26 769.12C825.14 769.62 817.73 780.19 816.01 780.37C812.44 780.75 791.8 761.19 789.29 760.68C792.6 741.55 793.67 721.03 794.91 701.62C796.47 677.22 798.58 652.83 800.53 628.5C801.36 618.15 802.46 607.78 803.34 597.56C806.35 562.57 812.64 524.03 814.59 490.68C814.88 485.71 817.17 483 817.4 476.62H1056.46H1056.5Z" fill="#70CDED"/>
<path d="M941.19 766.31C934.52 764.95 917.21 757.97 915.88 757.87L920.1 580.68L941.19 766.3V766.31Z" fill="#70CDED"/>
<path d="M553.06 369.75C553.67 382.76 551.47 396.26 554.47 409.13L560.09 389.44C568.45 408.26 578.91 415.96 578.37 389.44L588.21 279.75L595.24 337.41L600.86 312.1V372.57C599.86 388.54 598.84 404.33 598.05 420.38L583.99 449.91C589.12 480.21 591.46 509.35 589.61 539.91C585.27 550.25 563.89 534.33 554.45 538.5L541.79 365.53V489.28C527.97 478.69 531.34 488.44 530.54 499.12C514.87 442.49 516.82 382.72 510.85 324.74L536.16 222.08L530.54 328.96C541.39 349.06 536.11 273.68 547.42 278.34C549.21 308.94 551.61 339.11 553.04 369.75H553.06Z" fill="#5EA023"/>
<path d="M66.5001 428.81C66.5201 429.75 66.4801 430.69 66.5001 431.62C66.7801 448.42 61.5301 466.05 63.6901 483.65C64.0201 486.32 71.7101 483.78 72.1301 486.46C73.0701 492.43 59.0301 523.62 80.5701 518.8C78.6001 541.62 93.7901 568.39 86.1901 594.74C54.1301 597.52 22.6101 596.41 -9.42993 597.55C-8.91993 569.4 -7.25993 541.14 -6.61993 513.17L18.6901 511.76C16.7901 502.66 7.98007 427.42 27.1301 449.88C28.2901 451.25 19.1001 474.82 27.1301 479.41C26.5201 486.71 24.8001 493.24 24.3201 500.5L38.3801 483.62C41.2301 492.9 30.7701 518.83 44.0001 523C51.9201 497.31 42.1901 472.17 41.1901 445.66C63.7801 446.35 56.6801 435.89 66.5001 428.78V428.81Z" fill="#4B8B22"/>
<path d="M263.38 341.62C262.67 340.29 252.05 337.46 250.72 319.12L246.5 351.46L235.25 345.84C232.21 368 238.79 392.1 238.06 413.34C238.02 414.49 233.46 414.3 232.44 431.62C231.94 440.02 235.73 477.96 233.85 479.43C213.67 495.28 227.36 415.39 224.01 410.52C211.15 408.43 218.87 428.04 218.39 434.43C195.41 409.79 206.96 372.02 204.33 337.4C194.63 358.15 198.69 342.14 193.08 331.78V371.16L188.86 358.5L180.42 378.19C184.41 364.38 178.69 349.03 179.01 336C179.62 311.12 187.71 264.07 193.07 238.97C194.51 232.24 194.78 218.71 202.91 217.88L209.94 289.6C222.97 286.14 208.18 256.06 224 255.85L225.41 350.07L238.07 247.41C253.21 255.75 235.15 291.94 247.91 305.07C252.16 283.71 252.48 259.96 266.19 241.79L263.38 341.63V341.62Z" fill="#81BB36"/>
<path d="M291.5 321.94C292.04 336.39 288.29 354.49 288.69 369.75C289.57 403.85 291.9 439.97 291.5 473.81L273.22 465.37C268.5 468.15 282.21 490.18 269 486.46L264.78 445.68L261.97 482.24C248.48 467.35 258.59 441.36 254.94 421.77C234.49 422.23 248.22 454.6 232.44 431.61C233.46 414.29 238.03 414.48 238.06 413.33C238.79 392.09 232.21 367.99 235.25 345.83L246.5 351.45L250.72 319.11C252.04 337.45 262.67 340.28 263.38 341.61C264.4 343.51 261.78 355.61 264.79 355.67L278.85 240.36C286.34 264.86 290.55 296.39 291.51 321.92L291.5 321.94Z" fill="#5EA023"/>
<path d="M35.5601 338.81C35.6501 386.71 31.0801 432.12 27.1201 479.43C19.0901 474.84 28.2801 451.26 27.1201 449.9C7.97012 427.43 16.7901 502.68 18.6801 511.78L-6.62988 513.19C-4.65988 427.42 11.0201 341.12 -6.62988 255.85L17.2801 361.32L35.5601 250.23C36.6501 279.65 34.0801 309.48 35.5601 338.82V338.81Z" fill="#5EA023"/>
<path d="M145.25 316.31C143.44 329.44 142.62 342.38 142.44 355.69C141.97 390.68 148.62 426.04 148.06 461.16C147.54 494.46 121.79 525.94 167.75 535.69C167.9 547.37 167.64 559.13 167.75 570.85L157.91 572.26C158.79 561.41 152.08 554.35 149.47 569.45C144.6 556.66 136.78 567 134 562.42C131.93 559 146.9 528.64 134 531.48C133.32 536.22 130.38 607.86 119.94 590.54C127.94 513.39 118.49 435.63 122.75 358.51C123.46 345.65 124.22 331.91 125.56 319.13L138.22 361.32L145.25 316.32V316.31Z" fill="#5EA023"/>
<path d="M505.25 324.75C504.32 364.36 506.22 403.4 508.06 442.87C481.19 443.13 500.73 473.23 471.5 466.78L468.69 395.06C469.2 387.67 468.02 379.92 468.69 372.56C472.08 335.27 471.88 297.82 482.75 261.47L484.16 319.13C487.29 319.19 492 262.37 505.25 261.47C495.88 293.52 496.48 326.79 496.81 359.91C504.29 335.79 496.33 305.55 508.06 283.97C510.29 297.83 505.56 311.48 505.25 324.75Z" fill="#5EA023"/>
<path d="M167.75 327.56L156.5 365.53C150.78 422.05 167.04 480.37 167.75 535.69C121.79 525.94 147.54 494.46 148.06 461.16C148.61 426.04 141.96 390.68 142.44 355.69C153.15 343.68 148.41 315.66 150.88 300.85C141.8 296.32 145.79 312.48 145.26 316.32L138.23 361.32L125.57 319.13C128.26 293.6 138.85 268.73 134.01 241.79L139.63 261.48C151.14 259.68 136.87 218.97 143.85 217.89C149.87 227.46 145.72 256.47 156.51 238.98C154.73 269.2 164.19 298.16 167.76 327.57L167.75 327.56Z" fill="#81BB36"/>
<path d="M97.4402 361.31C96.3202 376.4 99.4802 433.68 91.8202 444.28C87.8002 449.84 80.1802 438.16 79.1602 448.5C75.4102 438.61 83.3202 428.93 66.5002 431.62C66.4802 430.68 66.5202 429.74 66.5002 428.81C65.9302 398.05 66.2102 378.05 63.6902 347.25L70.7202 212.25L97.4402 361.31Z" fill="#81BB36"/>
<path d="M468.69 372.56C468.02 379.92 469.2 387.67 468.69 395.06C468.04 404.48 470.51 419.5 468.69 427.4C466.24 438.02 454.89 443.1 454.63 444.28C453.65 448.64 464.45 521.68 465.88 532.87L451.82 535.68C451.34 526.93 449.45 518.99 449.01 510.37C447.54 481.71 451.73 450.59 449.01 421.78C448.78 419.35 437.9 408.61 437.76 407.72C435.54 393.51 439.88 371.35 440.57 355.69C440.58 355.4 446.09 356.59 446.19 354.28C447.79 318.3 442.25 280.54 449 244.59L456.03 246L468.69 372.56Z" fill="#81BB36"/>
<path d="M631.81 341.62C621.07 357.68 626.06 389.81 620.56 407.71C619.59 410.86 611.15 407.31 609.31 410.52C605.87 416.54 614.92 469.54 614.93 480.83L595.24 479.42C594.96 459.48 597.07 440.17 598.05 420.36C598.84 404.3 599.86 388.52 600.86 372.55C601.69 359.25 608.24 333.78 609.3 317.71C611.09 290.38 608.91 262.01 607.89 234.74C615.32 232.39 630.15 332.22 631.8 341.62H631.81Z" fill="#5EA023"/>
<path d="M63.6901 347.25C66.2201 378.05 65.9301 398.05 66.5001 428.81C56.6801 435.92 63.7801 446.37 41.1901 445.69C40.4001 424.8 44.8801 399.01 44.0001 381V241.78C50.9001 241.39 54.2701 265.14 55.2501 269.9C60.0501 293.34 61.7101 323.08 63.6901 347.24V347.25Z" fill="#5EA023"/>
<path d="M510.88 324.75C516.85 382.73 514.89 442.5 530.57 499.13C529.41 514.53 534.65 556.7 536.19 575.07H527.75C527.01 562.14 522.21 550.11 522.13 537.1C518.66 533.12 516.94 537.84 513.69 538.51C511.3 506.75 509.55 474.7 508.07 442.89C506.22 403.42 504.33 364.38 505.26 324.77H510.88V324.75Z" fill="#81BB36"/>
<path d="M578.38 389.44C578.92 415.96 568.46 408.26 560.1 389.44L554.48 409.13C551.48 396.27 553.68 382.76 553.07 369.75L558.69 306.47L568.53 279.75C565.47 315.22 577.7 356.04 578.37 389.44H578.38Z" fill="#81BB36"/>
<path d="M44.0001 381C44.8701 399.01 40.4001 424.79 41.1901 445.69C42.1901 472.2 51.9201 497.35 44.0001 523.03C30.7601 518.86 41.2201 492.93 38.3801 483.65L24.3201 500.53C24.8001 493.26 26.5201 486.74 27.1301 479.44C31.0901 432.12 35.6601 386.72 35.5701 338.82C36.3001 353.28 43.8901 378.68 44.0101 381.01L44.0001 381Z" fill="#81BB36"/>
<path d="M598.06 420.38C597.08 440.19 594.96 459.5 595.25 479.44C595.39 489.18 597.77 559.98 602.28 561C620.87 565.2 612.53 510.23 614.94 506.16C618.47 500.2 634.83 513.73 640.25 503.35L643.06 476.63C644.13 490.44 644.4 505.15 645.87 518.82C646.75 526.93 647.42 560.63 648.68 562.41C653.4 569.07 668.34 554.71 671.18 568.03C672.19 571.52 668.35 596.58 666.96 597.56C661.79 601.21 554.69 593.2 540.4 597.56C533.33 592.38 536.8 582.38 536.18 575.06C534.64 556.69 529.4 514.52 530.56 499.12C531.36 488.43 527.99 478.69 541.81 489.28V365.53L554.47 538.5C563.91 534.32 585.29 550.25 589.63 539.91C591.48 509.35 589.13 480.21 584.01 449.91L598.07 420.38H598.06Z" fill="#3F7C1F"/>
<path d="M232.44 431.62C248.22 454.6 234.49 422.24 254.94 421.78C258.6 441.37 248.49 467.35 261.97 482.25L264.78 445.69L269 486.47C282.21 490.19 268.5 468.15 273.22 465.38L291.5 473.82C291.05 511.53 287.11 528.64 283.06 561.01C270.28 557.71 273.45 584.72 271.81 594.76C252.32 594.84 238.78 597.67 218.37 594.76C219.18 569.09 226.06 544.44 209.93 521.64C214.28 492.96 216.18 463.36 218.37 434.45C218.85 428.06 211.14 408.46 223.99 410.54C227.34 415.41 213.65 495.3 233.83 479.45C235.71 477.97 231.93 440.04 232.42 431.64L232.44 431.62Z" fill="#5EA023"/>
<path d="M283.06 594.75C286.55 585.8 281.97 569.75 283.06 561C287.1 528.63 291.05 511.52 291.5 473.81C291.9 439.97 289.56 403.85 288.69 369.75C299.75 380.05 294.32 432.61 299.94 441.47C302 444.72 309.05 441.03 311.19 444.28C314.22 448.89 293.44 538.6 299.94 553.97C332.88 556.56 313.72 514.5 319.63 497.72C329.06 470.96 324.51 537.31 325.25 539.91C325.86 542.03 334.94 540.29 336.5 545.53C337.32 548.3 337.47 591.16 336.5 593.34C332.46 602.43 289.99 594.5 283.06 594.75Z" fill="#4B8B22"/>
<path d="M449 510.38C449.44 519.01 451.33 526.95 451.81 535.69C451.91 537.54 448.72 550.42 449 551.16C454.08 564.63 459.69 555.41 463.06 565.22C464.72 570.05 463.1 586.29 465.87 593.34C463.65 598.12 418.68 598.97 416.65 597.56C413.91 595.65 407.97 536.5 409.62 531.47C412.11 523.9 420.04 530.54 420.87 528.66C428.22 512.04 399.69 443.47 432.12 441.47L437.74 514.59L448.99 510.37L449 510.38Z" fill="#3F7C1F"/>
<path d="M814.63 490.69C812.68 524.04 806.39 562.58 803.38 597.57C740.88 602.91 764.43 585.2 752.76 537.1C772.45 530 756.21 564.91 769.64 565.22L766.83 489.28L776.67 507.56C776.63 494.94 768.23 473.89 789.33 482.25C786.76 501.39 783.69 520.75 780.89 539.91C799.24 544.58 779.42 501.56 803.39 520.22L794.95 445.69C796.03 444.48 793.24 435.88 803.39 441.47C811.78 457.76 794.22 489.81 814.64 490.69H814.63Z" fill="#4B8B22"/>
<path d="M508.06 442.88C509.55 474.7 511.3 506.75 513.68 538.5C513.22 538.6 514.83 548.69 505.24 542.72C508.12 528.16 509.47 525.32 492.58 527.25L489.77 538.5L486.96 527.25C482.92 527.35 490.12 551.26 479.93 539.91L468.68 569.44C466.96 558.82 467.29 544.02 465.87 532.88C464.44 521.68 453.64 448.64 454.62 444.29C454.88 443.12 466.23 438.04 468.68 427.41C470.5 419.51 468.03 404.49 468.68 395.07L471.49 466.79C500.72 473.24 481.18 443.14 508.05 442.88H508.06Z" fill="#5EA023"/>
<path d="M513.69 538.5C516.94 537.83 518.65 533.12 522.13 537.09C522.22 550.1 527.02 562.13 527.75 575.06C528.13 581.73 533.25 594.05 526.34 597.56C516.71 594.52 477.13 600.54 472.9 597.56C471.74 596.74 469.45 574.21 468.68 569.44L479.93 539.91C490.13 551.27 482.92 527.35 486.96 527.25L489.77 538.5L492.58 527.25C509.47 525.31 508.12 528.15 505.24 542.72C514.83 548.69 513.22 538.6 513.68 538.5H513.69Z" fill="#3F7C1F"/>
<path d="M86.1901 594.75C93.7901 568.41 78.6001 541.63 80.5701 518.81C81.2401 510.98 88.7701 506.88 89.0101 506.15C91.0801 499.93 84.2601 478.08 101.67 482.24C115.58 485.57 105.68 578.42 108.7 596.15C107.33 599.36 87.3201 594.65 86.2001 594.74L86.1901 594.75Z" fill="#4B8B22"/>
<path d="M218.38 594.75C217.05 594.56 199.09 599.95 195.88 587.72C195.34 585.68 198.17 547.83 198.69 545.53C199.01 544.09 206.26 545.87 209.94 521.62C226.06 544.43 219.19 569.08 218.38 594.74V594.75Z" fill="#3F7C1F"/>
<path d="M794.94 445.69L803.38 520.22C779.41 501.56 799.23 544.58 780.88 539.91C783.68 520.75 786.75 501.39 789.32 482.25C791.59 465.31 784.11 457.88 794.94 445.69Z" fill="#81BB36"/>
<path d="M764 313.5C756.39 306.75 760.34 308.26 755.56 300.84C757.09 320.79 756.71 341.46 758.37 361.31L751.34 341.62C744.42 340.73 748.22 440.54 749.93 449.9C750.35 452.19 755.05 450.41 755.55 452.71C758.46 465.97 750.98 472.65 765.39 485.05C777.52 458.42 766.69 426.51 763.98 397.86L761.17 343.02C768.53 337.32 766.4 350.78 768.2 350.05C771.19 348.84 768.91 335.33 769.61 331.77L775.23 337.39C774.09 329.59 771.1 324.24 769.61 316.3C765.62 295.16 764.49 274.21 761.17 253.02C765.74 248.1 768.87 259.05 769.61 261.46C782.46 303.48 776.79 361.43 792.11 402.08L817.42 241.77C812.84 290.58 809.1 338.85 808.98 388.02C808.91 416.31 818.45 447.7 817.42 476.61C817.19 482.99 814.9 485.71 814.61 490.67C794.19 489.8 811.75 457.74 803.36 441.45C793.21 435.85 796 444.46 794.92 445.67C784.08 457.86 791.57 465.3 789.3 482.23C768.2 473.87 776.61 494.93 776.64 507.54L766.8 489.26L769.61 565.2C756.19 564.89 772.43 529.97 752.73 537.08C764.4 585.18 740.86 602.89 803.35 597.55C802.47 607.77 801.37 618.13 800.54 628.49H-9.43986C-9.37986 618.22 -9.62986 607.82 -9.43986 597.55C22.6101 596.41 54.1201 597.52 86.1801 594.74C87.3001 594.64 107.31 599.36 108.68 596.15C105.66 578.42 115.55 485.57 101.65 482.24C84.2401 478.07 91.0701 499.93 88.9901 506.15C88.7501 506.87 81.2301 510.98 80.5501 518.81C59.0101 523.62 73.0501 492.44 72.1101 486.47C71.6901 483.79 64.0001 486.32 63.6701 483.66C61.5201 466.06 66.7701 448.43 66.4801 431.63C83.3001 428.94 75.3901 438.61 79.1401 448.51C80.1601 438.17 87.7701 449.85 91.8001 444.29C99.4701 433.69 96.3101 376.41 97.4201 361.32C100.64 317.99 103.96 274.97 110.08 231.94L122.74 358.5C118.48 435.62 127.93 513.38 119.93 590.53C130.37 607.84 133.31 536.21 133.99 531.47C146.89 528.63 131.92 558.99 133.99 562.41C136.76 566.99 144.59 556.65 149.46 569.44C152.06 554.34 158.78 561.41 157.9 572.25L167.74 570.84C167.63 559.13 167.89 547.36 167.74 535.68C167.03 480.36 150.77 422.04 156.49 365.52L167.74 327.55C169.97 345.9 169.27 365.43 171.96 383.8L178.99 335.99C178.67 349.02 184.39 364.37 180.4 378.18L188.84 358.49L193.06 371.15V331.77C198.67 342.13 194.61 358.15 204.31 337.39C206.95 372.01 195.4 409.78 218.37 434.42C216.18 463.33 214.29 492.93 209.93 521.61C206.25 545.85 199 544.08 198.68 545.52C198.16 547.82 195.33 585.66 195.87 587.71C199.08 599.94 217.04 594.55 218.37 594.74C238.78 597.65 252.32 594.82 271.81 594.74C275.8 594.72 278.66 594.89 283.06 594.74C289.98 594.5 332.46 602.43 336.5 593.33C337.47 591.14 337.32 548.29 336.5 545.52C334.94 540.27 325.86 542.02 325.25 539.9C324.5 537.31 329.05 470.96 319.63 497.71C313.72 514.49 332.88 556.55 299.94 553.96C293.44 538.59 314.22 448.88 311.19 444.27C309.05 441.02 302 444.71 299.94 441.46C294.32 432.6 299.75 380.04 288.69 369.74C288.3 354.48 292.04 336.38 291.5 321.93L299.94 368.34L323.85 243.18L318.23 302.24L342.14 253.02C336.15 276.58 333.28 300.36 333.7 324.74C320.74 330.28 329.79 348.89 328.08 362.71C325.13 386.5 315.63 412.05 311.2 435.83C342.94 444.64 326.13 409.88 328.08 402.08C328.37 400.92 338.96 382.65 339.33 380.99C343.05 364.3 349.77 343.06 350.58 326.15C351.33 310.48 343.06 253.01 344.96 247.4C351.92 226.81 353.64 299.43 361.84 295.21L357.62 217.87L380.12 310.68C390.5 289.6 385.98 238.1 395.59 219.27C404.22 202.38 399.66 331.6 402.62 333.18L415.28 244.59L419.5 299.43L437.78 233.34L440.59 355.68C439.89 371.35 435.56 393.5 437.78 407.71C437.92 408.6 448.8 419.35 449.03 421.77C451.75 450.58 447.56 481.7 449.03 510.36L437.78 514.58L432.16 441.46C399.73 443.46 428.26 512.02 420.91 528.65C420.08 530.53 412.15 523.89 409.66 531.46C408.01 536.49 413.95 595.65 416.69 597.55C418.72 598.96 463.69 598.11 465.91 593.33C463.14 586.27 464.76 570.04 463.1 565.21C459.73 555.4 454.12 564.62 449.04 551.15C448.76 550.41 451.95 537.53 451.85 535.68L465.91 532.87C467.33 544.01 467 558.81 468.72 569.43C469.49 574.2 471.78 596.74 472.94 597.55C477.16 600.53 516.75 594.51 526.38 597.55C533.29 594.04 528.17 581.72 527.79 575.05H536.23C536.85 582.37 533.38 592.37 540.45 597.55C554.74 593.19 661.84 601.2 667.01 597.55C668.4 596.57 672.24 571.5 671.23 568.02C668.39 554.69 653.45 569.05 648.73 562.4C647.47 560.62 646.79 526.92 645.92 518.81C664.01 516.01 658.95 520.19 671.23 528.65C658.05 499.15 669.58 470.62 668.42 444.27C667.42 421.71 657.41 343.58 647.33 406.3L629.05 368.33L631.86 427.39L634.67 393.64C636.93 392.32 640.21 401.58 640.29 402.08C644.94 428.2 641.44 455.18 643.1 476.61L640.29 503.33C634.87 513.72 618.51 500.18 614.98 506.14C612.57 510.21 620.92 565.19 602.32 560.98C597.81 559.96 595.43 489.15 595.29 479.42L614.98 480.83C614.97 469.54 605.91 416.53 609.36 410.52C611.2 407.31 619.64 410.86 620.61 407.71C626.11 389.81 621.12 357.67 631.86 341.62C632.63 346.01 627.66 366.18 637.48 362.71L647.32 282.55C651.93 303.67 649.39 334.48 645.91 357.08C653.64 375.63 665.45 267.67 678.25 271.3L688.09 359.89L682.47 222.08C693.66 227.28 693.17 255.05 696.53 268.49C687.62 282.66 689.88 311.64 690.91 328.96C694.24 385.04 699.46 451.41 699.35 513.18C689.36 512.02 696.24 522.61 692.32 527.24C691.57 528.13 671.62 535.99 671.23 537.08C666.52 550.01 678.61 561.47 693.73 556.77C693.07 573.49 697.55 584.75 686.7 597.55C706.06 601.44 698.85 562.8 699.36 546.93C712.37 537.97 704.33 561.14 716.24 548.34C714.13 526.44 708.67 502.64 707.8 480.84C705.24 416.33 711.78 348.68 702.18 288.18L713.43 244.59L710.62 317.71L721.87 343.02L748.59 215.05L764.06 313.49L764 313.5Z" fill="#5EA023"/>
<path d="M702.13 288.19C711.74 348.69 705.2 416.33 707.75 480.85C708.61 502.65 714.08 526.45 716.19 548.35C704.28 561.16 712.33 537.98 699.31 546.94C699.65 536.28 699.29 524.09 699.31 513.19C699.43 451.42 694.2 385.05 690.87 328.97C689.84 311.65 687.58 282.68 696.49 268.5C697.76 273.57 701.76 285.98 702.11 288.19H702.13Z" fill="#81BB36"/>
<path d="M339.31 381C338.94 382.66 328.35 400.93 328.06 402.09C326.11 409.89 342.92 444.65 311.18 435.84C315.61 412.05 325.11 386.51 328.06 362.72C329.77 348.9 320.73 330.29 333.68 324.75C334.01 343.59 340.74 361.95 339.3 381H339.31Z" fill="#81BB36"/>
<path d="M764 313.5C764.86 314.26 764.27 317.99 769.62 316.31C771.12 324.26 774.1 329.6 775.24 337.4L769.62 331.78C768.93 335.34 771.21 348.85 768.21 350.06C766.41 350.79 768.54 337.33 761.18 343.03L763.99 397.87C762.93 386.7 759.63 376.39 758.37 361.31C756.71 341.46 757.09 320.8 755.56 300.84C760.34 308.26 756.39 306.75 764 313.5Z" fill="#A8D06A"/>
<path d="M645.88 518.81C644.4 505.14 644.14 490.43 643.07 476.62C641.4 455.19 644.91 428.21 640.26 402.09C640.17 401.59 636.89 392.33 634.64 393.65L631.83 427.4L629.02 368.34L647.3 406.31C657.38 343.59 667.39 421.72 668.39 444.28C669.56 470.62 658.03 499.16 671.2 528.66C658.92 520.19 663.97 516.01 645.89 518.82L645.88 518.81Z" fill="#81BB36"/>
<path d="M758.38 361.31C759.64 376.39 762.95 386.7 764 397.87C766.71 426.52 777.54 458.43 765.41 485.06C751 472.66 758.47 465.98 755.57 452.72C755.07 450.42 750.36 452.19 749.95 449.91C748.23 440.55 744.43 340.73 751.36 341.63L758.39 361.32L758.38 361.31Z" fill="#5EA023"/>
<path d="M699.31 513.19C699.29 524.09 699.65 536.28 699.31 546.94C698.8 562.82 706.01 601.46 686.65 597.56C697.5 584.76 693.03 573.49 693.68 556.78C678.56 561.49 666.47 550.02 671.18 537.09C671.58 536 691.52 528.13 692.27 527.25C696.19 522.62 689.31 512.03 699.3 513.19H699.31Z" fill="#4B8B22"/>
<path d="M720.41 552.56C731.61 549.66 732.64 594.37 728.85 597.56C717.37 607.24 714.14 554.18 720.41 552.56Z" fill="#4B8B22"/>
<path d="M399.78 552.56C403.43 552.56 416.01 613.31 392.75 593.34L399.78 552.56Z" fill="#4B8B22"/>
<path d="M283.06 561C281.97 569.75 286.55 585.8 283.06 594.75C278.66 594.9 275.8 594.73 271.81 594.75C273.45 584.71 270.28 557.7 283.06 561Z" fill="#3F7C1F"/>
<path d="M142.44 355.69C142.62 342.38 143.44 329.44 145.25 316.31C145.78 312.47 141.79 296.31 150.87 300.84C148.4 315.65 153.14 343.67 142.43 355.68L142.44 355.69Z" fill="#E7EBCA"/>
<path d="M1174.63 341.62C1174.12 365.93 1175.28 390.44 1174.63 414.74L1167.6 375.36L1161.98 372.55C1162.96 391.24 1148.8 382.96 1143.7 390.83C1140.99 395 1143.62 442.14 1143.7 451.3C1139.14 459.13 1140.23 471.73 1138.08 480.83C1137.42 483.62 1130.57 480.83 1129.64 483.64C1129.03 485.48 1148.53 502.34 1109.95 501.92C1109.18 493.76 1113.13 469.42 1100.11 468.17L1095.89 511.76L1090.27 341.6C1092.89 308.49 1097 274.65 1101.52 241.76L1109.96 371.14V238.97L1122.62 305.06L1128.24 223.5L1135.27 306.47L1140.89 253.03L1156.36 366.94L1183.08 244.6C1175.67 276.45 1175.33 309.13 1174.64 341.63L1174.63 341.62Z" fill="#81BB36"/>
<path d="M1109.94 501.94C1110.58 508.73 1108.8 535.76 1109.94 537.1C1112.77 540.42 1131.92 535.63 1129.63 548.35L1138.07 541.32C1136.66 548.92 1128.05 596.41 1125.41 597.57C1118.52 600.61 1088.94 595.33 1079 597.57C1076.63 577.02 1073.99 556.11 1070.56 535.69C1089.26 493.83 1084.14 448.94 1087.44 403.5C1088.92 383.02 1088.62 362.26 1090.25 341.62L1095.87 511.78L1100.09 468.19C1113.12 469.44 1109.16 493.78 1109.93 501.94H1109.94Z" fill="#4B8B22"/>
<path d="M1919.94 597.56L1874.94 593.34C1876.4 587.23 1873.79 550.58 1874.94 548.34C1875.63 546.99 1889.12 541.04 1894.63 527.25L1903.07 528.66L1904.48 504.75L1914.32 514.59V423.18C1915.99 481.41 1919.45 539.01 1919.94 597.56Z" fill="#4B8B22"/>
<path d="M1087.44 403.5C1084.15 448.93 1089.27 493.82 1070.56 535.69C1067.39 516.82 1066.58 497.44 1059.31 479.44C1066.38 472.48 1067.24 448.41 1067.75 438.66C1070.85 378.87 1069.43 315.18 1062.13 255.85L1087.44 403.51V403.5Z" fill="#81BB36"/>
<path d="M1278.69 558.19C1286.94 555.98 1300.8 561.01 1302.6 558.19C1305.76 553.23 1302.97 546.52 1304.01 541.31C1305.56 533.51 1306.51 530.38 1306.82 521.62C1324.59 525.14 1321.81 505.51 1329.32 510.37L1320.88 565.21L1339.16 558.18C1343.7 561.72 1337.32 563.96 1337.75 566.62C1339.13 575.12 1347.36 593.54 1339.16 597.56C1285.23 597.44 1231.19 596.6 1177.44 594.75C1177.91 585.47 1176.77 575.88 1177.44 566.63L1194.32 573.66C1196.22 559.72 1192.92 546.44 1191.51 532.88C1195.34 532.05 1204.78 534.1 1206.98 532.88C1209.77 531.34 1207.79 526.87 1208.39 524.44C1210.26 516.85 1205.14 508.37 1205.58 506.16C1205.76 505.28 1219.47 495.79 1219.64 494.91C1220.43 490.94 1217.79 467.7 1216.83 462.57C1226.79 483.14 1228.94 472.55 1233.71 456.95C1233.44 470.7 1231.42 551.22 1233.71 556.79C1233.99 557.46 1244.61 561.29 1246.37 563.82C1241.92 545.7 1258.53 541.38 1259.03 539.91C1266.61 517.32 1257.42 488.15 1263.25 465.38L1261.84 568.04C1268.69 567.66 1269.06 560.78 1278.72 558.2L1278.69 558.19Z" fill="#4B8B22"/>
<path d="M1326.5 437.25C1331.83 443.21 1339.16 463.06 1340.56 471C1341.09 474 1345.41 507.65 1339.15 507.56L1325.09 471C1322.03 492.84 1320.67 473.42 1316.65 473.81C1315.74 473.9 1301.55 482.81 1301.18 483.65C1300.42 485.41 1307.15 512.09 1306.8 521.62C1306.48 530.37 1305.53 533.51 1303.99 541.31C1292.16 541.83 1295.48 543.22 1292.74 534.28C1286.06 512.5 1293.99 470.07 1289.93 447.09C1289.07 442.25 1290.4 437.55 1282.9 437.25L1278.68 558.19C1269.02 560.78 1268.66 567.65 1261.8 568.03L1263.21 465.37C1257.38 488.14 1266.57 517.31 1258.99 539.9C1258.5 541.37 1241.88 545.69 1246.33 563.81C1244.57 561.28 1233.95 557.45 1233.67 556.78C1231.38 551.21 1233.4 470.69 1233.67 456.94C1233.92 443.92 1232.34 430.43 1235.08 417.56L1251.96 459.75C1267.52 450.27 1252.59 444.63 1263.21 431.63C1268.11 488.58 1284.61 403.53 1288.52 403.51C1293.89 407.53 1297.11 433.32 1302.58 434.45C1304.15 434.77 1308.89 417.6 1326.49 437.26L1326.5 437.25Z" fill="#81BB36"/>
<path d="M1419.31 417.56C1414.71 431.21 1432.2 447.81 1433.37 461.15C1435.01 479.81 1415.43 504.49 1436.18 510.37C1434.42 520.72 1440.32 575.52 1431.96 577.87C1413.31 583.12 1426.47 520.08 1424.93 508.96L1409.46 544.12L1402.43 514.59L1393.99 524.43C1393.24 498.85 1393.77 448.17 1388.37 425.99L1395.4 420.37L1412.28 440.06C1422.39 432.35 1408.72 421.05 1410.87 410.53C1414.58 407.7 1418.68 417.16 1419.31 417.56Z" fill="#5EA023"/>
<path d="M1379.94 445.69C1379.5 478.24 1374.54 511.08 1374.32 541.31L1361.66 555.37C1353.75 547.51 1359.13 531.21 1343.38 546.93C1340.84 535.9 1339.13 513.33 1329.32 510.37C1321.81 505.51 1324.59 525.14 1306.82 521.62C1307.17 512.09 1300.43 485.41 1301.2 483.65C1301.57 482.81 1315.76 473.9 1316.67 473.81C1320.68 473.41 1322.05 492.84 1325.11 471L1339.17 507.56C1345.43 507.65 1341.11 474 1340.58 471H1346.2C1347.2 482.1 1348.82 515.9 1360.26 517.41L1349.01 462.57C1348.65 448.93 1348.75 439.31 1344.79 426.01C1352.89 422.17 1359.33 451.34 1361.67 456.95L1379.95 445.7L1379.94 445.69Z" fill="#5EA023"/>
<path d="M1509.31 445.69C1511.23 451.78 1509.97 469.15 1514.93 475.22C1490.9 470.29 1501.53 485.45 1495.24 501.94C1495.03 502.5 1488.14 500.56 1486.8 503.35C1482.53 512.24 1495.45 552.35 1488.21 561.01C1478.22 563.52 1472.06 565.52 1464.3 556.79C1467.66 544.48 1469.12 531.51 1469.92 518.82C1471.51 493.65 1475.39 463.64 1469.92 437.26C1468.47 430.27 1464.49 423.45 1458.67 418.98C1473.3 418.06 1478.97 425.72 1485.39 437.26L1491.01 414.76C1499.29 424.6 1505.35 433.15 1509.29 445.7L1509.31 445.69Z" fill="#81BB36"/>
<path d="M1174.63 414.75C1174.43 422.2 1174.96 429.81 1174.63 437.25C1173.99 451.7 1175.9 465.25 1171.82 479.44C1165.21 502.41 1168.24 486.8 1163.38 489.28C1160.18 490.92 1150.57 508 1153.54 482.25C1152.65 481.22 1147.35 484.33 1146.51 485.06C1146.48 473.64 1143.8 463.51 1143.7 451.31C1143.62 442.15 1140.99 395.01 1143.7 390.84C1148.8 382.97 1162.97 391.25 1161.98 372.56L1167.6 375.37L1174.63 414.75Z" fill="#5EA023"/>
<path d="M1180.25 437.25C1182.06 464.84 1188.22 501.29 1191.5 532.87C1192.91 546.43 1196.21 559.71 1194.31 573.65L1177.43 566.62C1178.48 551.98 1183.57 536.69 1178.84 521.62C1170.75 522.08 1178.44 576.7 1163.37 556.78C1161.02 553.68 1176.73 490.19 1171.81 479.44C1175.89 465.25 1173.98 451.7 1174.62 437.25H1180.24H1180.25Z" fill="#81BB36"/>
<path d="M1388.38 426C1393.78 448.18 1393.26 498.86 1394 524.44C1394.28 533.99 1403.66 557.88 1386.97 561C1368.14 564.53 1374.24 551.06 1374.31 541.31C1374.53 511.08 1379.5 478.23 1379.93 445.69C1380.09 433.65 1377.83 382.77 1388.37 426H1388.38Z" fill="#81BB36"/>
<path d="M1469.94 437.25C1475.41 463.63 1471.53 493.64 1469.94 518.81C1441.41 530.47 1453.75 516.71 1450.25 513.19C1447.38 486.63 1449.84 455.12 1436.19 431.63L1444.63 424.6C1455.45 440.81 1457.63 463.92 1460.1 487.88L1469.94 437.26V437.25Z" fill="#5EA023"/>
<path d="M1216.81 462.56C1217.78 467.69 1220.41 490.93 1219.62 494.9C1219.44 495.78 1205.73 505.27 1205.56 506.15C1205.12 508.36 1210.24 516.85 1208.37 524.43C1191.55 500.42 1220.79 486.25 1201.34 462.55L1198.53 487.86C1192.01 463.71 1184.37 437.67 1188.69 411.92C1195.32 411.8 1215.26 454.27 1216.81 462.54V462.56Z" fill="#81BB36"/>
<path d="M1436.19 431.62C1449.85 455.11 1447.38 486.62 1450.25 513.18C1448.8 511.72 1440.33 517.5 1440.41 501.93C1433.93 501.29 1436.83 506.62 1436.19 510.37C1415.43 504.49 1435.02 479.81 1433.38 461.15C1432.21 447.81 1414.72 431.21 1419.32 417.56C1426.11 421.9 1431.84 424.12 1436.2 431.62H1436.19Z" fill="#81BB36"/>
<path d="M1208.38 524.44C1207.78 526.87 1209.76 531.33 1206.97 532.88C1204.77 534.1 1195.33 532.05 1191.5 532.88C1188.22 501.3 1182.06 464.84 1180.25 437.26C1179.68 428.56 1177.56 412.15 1188.69 411.95C1184.37 437.7 1192.02 463.73 1198.53 487.89L1201.34 462.58C1220.79 486.27 1191.55 500.44 1208.37 524.46L1208.38 524.44Z" fill="#5EA023"/>
<path d="M1346.19 471C1345.96 468.44 1349.11 468.04 1349 465.38C1348.96 464.44 1349.02 463.5 1349 462.57L1360.25 517.41C1348.81 515.91 1347.19 482.1 1346.19 471Z" fill="#81BB36"/>
<path d="M1349 465.38C1349.11 468.05 1345.96 468.44 1346.19 471H1340.57C1339.16 463.06 1331.84 443.21 1326.51 437.25C1342.43 421.81 1335.23 465 1349.01 465.37L1349 465.38Z" fill="#699371"/>
<path d="M1647.13 485.06L1641.51 537.09L1648.54 530.06L1649.95 542.72C1653.17 549.07 1659.4 519.49 1661.2 516C1661.52 515.37 1667.84 517.45 1669.64 514.59C1670.6 513.06 1663.71 496.02 1675.26 500.53L1680.88 535.69C1680.27 540.46 1678.78 544.23 1678.07 549.75C1676.88 558.92 1681.74 594.06 1673.85 597.56H1350.41C1349.23 586.89 1348.38 577.2 1346.19 566.62C1344.99 560.82 1345.02 554.08 1343.38 546.93C1359.14 531.2 1353.75 547.51 1361.66 555.37L1374.32 541.31C1374.25 551.05 1368.15 564.53 1386.98 561C1403.67 557.87 1394.29 533.98 1394.01 524.44L1402.45 514.6L1409.48 544.13L1424.95 508.97C1426.49 520.09 1413.33 583.12 1431.98 577.88C1440.34 575.53 1434.44 520.73 1436.2 510.38C1436.84 506.63 1433.94 501.3 1440.42 501.94C1440.35 517.51 1448.81 511.73 1450.26 513.19C1453.75 516.71 1441.42 530.47 1469.95 518.81C1469.15 531.5 1467.69 544.47 1464.33 556.78C1472.08 565.51 1478.25 563.51 1488.24 561C1495.49 552.35 1482.56 512.24 1486.83 503.34C1488.17 500.55 1495.05 502.49 1495.27 501.93L1496.68 538.49C1510.41 524.62 1505.65 537.31 1513.56 544.11C1507.8 525.42 1515.2 526.25 1527.62 515.99C1533.44 532.61 1515.87 541.44 1540.28 544.11C1540.31 560.87 1550.52 556.4 1557.16 545.52L1561.38 572.24C1570.04 567.87 1563.37 552.02 1562.79 544.12L1569.82 541.31V561C1578.56 554.14 1567.03 508.47 1589.51 521.62C1593.9 524.19 1576.29 572.42 1600.76 563.81C1612.07 509.87 1612.51 570.62 1614.82 572.25C1615.69 572.86 1622.35 565.09 1633.1 570.84C1637.46 562.72 1635.19 555.2 1635.91 546.93C1637.59 527.74 1638.21 501.44 1635.91 482.24C1643.49 478.53 1638.12 481.97 1647.16 485.05L1647.13 485.06Z" fill="#4B8B22"/>
<path d="M1756.81 437.25C1772.42 493.65 1772.7 499.29 1768.06 558.19C1767.55 564.63 1769.72 595.39 1766.65 597.57H1685.09C1682.38 595.98 1685.65 554.63 1686.5 549.76C1688.97 535.61 1691.07 534.2 1696.34 521.64C1702.65 527.04 1699.7 540.19 1711.81 534.3C1714.18 522.41 1709.8 509.7 1709 499.14C1716.93 494.54 1716.18 494.15 1717.44 503.36C1719.96 521.84 1714.44 542.43 1718.85 561.02C1734.93 539.54 1726.85 511.79 1728.69 486.49C1733.39 481.89 1734.04 487.8 1734.31 487.9C1734 500.03 1734.74 512.34 1734.31 524.46C1733.82 538.25 1732.1 551.49 1731.5 565.24C1758.33 577.17 1749.7 555.23 1751.19 544.15C1753.62 525.96 1752.61 508.81 1754 490.71C1754.1 489.43 1758.25 489.15 1756.81 469.62C1756.74 468.72 1762.57 464.8 1762.43 464C1762.13 462.24 1744.34 451.88 1751.18 434.47C1753.16 437.53 1754.33 438.8 1755.4 442.91L1756.81 437.29V437.25Z" fill="#4B8B22"/>
<path d="M1177.44 566.62C1176.77 575.87 1177.91 585.46 1177.44 594.74C1172.25 594.56 1145.62 601.92 1140.88 596.15L1142.29 586.31L1146.51 587.72C1146.45 553.51 1146.6 519.25 1146.51 485.06C1147.35 484.33 1152.65 481.22 1153.54 482.25C1150.57 508 1160.18 490.92 1163.38 489.28C1168.23 486.8 1165.21 502.41 1171.82 479.44C1176.74 490.2 1161.04 553.68 1163.38 556.78C1178.45 576.71 1170.76 522.08 1178.85 521.62C1183.59 536.69 1178.5 551.98 1177.44 566.62Z" fill="#3F7C1F"/>
<path d="M1860.88 532.88C1863.49 564.39 1869.48 544.78 1872.13 551.16C1872.94 553.11 1872.87 590.97 1872.13 593.35C1869.7 601.18 1846.96 594.56 1844.01 594.76C1843.31 581.11 1847.67 571.84 1839.79 561.01C1828.5 565.77 1835.53 580.02 1829.95 587.73C1811.31 613.46 1823.47 549.59 1824.33 544.14C1845.85 547.63 1835.42 535.07 1839.8 521.64L1846.83 534.3L1848.24 493.52L1860.9 532.9L1860.88 532.88Z" fill="#4B8B22"/>
<path d="M1697.75 451.31C1701.37 468.25 1707.43 478.43 1709 499.12C1709.8 509.67 1714.18 522.38 1711.81 534.28C1699.71 540.17 1702.65 527.02 1696.34 521.62C1691.07 534.18 1688.97 535.59 1686.5 549.74H1678.06C1678.78 544.22 1680.27 540.45 1680.87 535.68C1686.42 492.08 1693.14 485.17 1678.06 440.06C1690.04 442.08 1689.73 471.89 1697.75 451.31Z" fill="#81BB36"/>
<path d="M1773.69 445.69C1788.5 487.22 1777.48 522.68 1779.31 563.81L1768.06 558.19C1772.7 499.29 1772.42 493.65 1756.81 437.25C1754.27 428.09 1747.68 420.18 1755.4 414.75C1763.81 424.2 1769.43 433.76 1773.68 445.69H1773.69Z" fill="#81BB36"/>
<path d="M1146.5 485.06C1137.22 493.16 1141.01 525.39 1138.06 541.31L1129.62 548.34C1131.91 535.62 1112.76 540.41 1109.93 537.09C1108.79 535.75 1110.57 508.73 1109.93 501.93C1148.51 502.34 1129.01 485.49 1129.62 483.65C1130.55 480.83 1137.4 483.63 1138.06 480.84C1140.22 471.74 1139.12 459.14 1143.68 451.31C1143.78 463.51 1146.46 473.64 1146.49 485.06H1146.5Z" fill="#5EA023"/>
<path d="M1343.38 546.94C1345.03 554.08 1344.99 560.83 1346.19 566.63H1337.75C1337.32 563.97 1343.7 561.73 1339.16 558.19L1320.88 565.22L1329.32 510.38C1339.13 513.34 1340.84 535.91 1343.38 546.94Z" fill="#95CF3E"/>
<path d="M1734.31 423.19C1732.78 414.33 1740.31 418.92 1742.75 417.57C1744.24 422.15 1748.66 430.54 1751.19 434.45C1744.35 451.87 1762.14 462.22 1762.44 463.98C1762.58 464.78 1756.75 468.71 1756.82 469.6C1758.26 489.13 1754.11 489.41 1754.01 490.69L1748.39 486.47L1751.2 544.13C1749.72 555.21 1758.34 577.15 1731.51 565.22C1732.11 551.47 1733.83 538.22 1734.32 524.44C1739.9 537.61 1742.78 512.54 1742.76 511.78C1742.52 501.4 1746.03 492.09 1734.32 487.87C1734.05 487.77 1733.39 481.87 1728.7 486.46C1726.86 511.76 1734.93 539.51 1718.86 560.99C1714.46 542.41 1719.98 521.82 1717.45 503.33C1716.19 494.12 1716.94 494.51 1709.01 499.11C1707.44 478.42 1701.38 468.24 1697.76 451.3C1696.9 447.27 1691.63 410.02 1693.54 409.11C1695.76 414.6 1708.84 436.57 1713.23 437.23C1715.73 437.61 1718.66 413.72 1732.92 456.92L1734.33 423.17L1734.31 423.19Z" fill="#5EA023"/>
<path d="M1349 344.44C1347.79 353.48 1339 417.98 1341.97 420.38C1362.86 408.75 1380.58 392.31 1399.63 378.19C1419.25 378.28 1523.31 318.13 1530.41 319.13C1532.74 319.46 1558.95 352.92 1559.94 355.69C1562.82 363.79 1555.87 389.88 1551.5 396.47C1545.3 405.83 1538.13 400.65 1531.81 409.13C1522.96 421.01 1520.4 435.78 1509.31 445.69C1505.36 433.15 1499.31 424.59 1491.03 414.75L1485.41 437.25C1478.99 425.71 1473.32 418.05 1458.69 418.97C1464.51 423.44 1468.49 430.26 1469.94 437.25L1460.1 487.87C1457.63 463.91 1455.45 440.8 1444.63 424.59L1436.19 431.62C1431.83 424.12 1426.1 421.9 1419.31 417.56C1418.68 417.16 1414.58 407.7 1410.87 410.53C1408.71 421.05 1422.39 432.35 1412.28 440.06L1395.4 420.37L1388.37 425.99C1377.84 382.76 1380.09 433.64 1379.93 445.68L1361.65 456.93C1359.31 451.32 1352.87 422.15 1344.77 425.99C1348.72 439.29 1348.63 448.91 1348.99 462.55C1349.01 463.49 1348.95 464.43 1348.99 465.36C1335.21 464.99 1342.41 421.8 1326.49 437.24C1308.9 417.57 1304.15 434.75 1302.58 434.43C1297.11 433.3 1293.89 407.51 1288.52 403.49C1284.61 403.52 1268.1 488.57 1263.21 431.61C1252.59 444.61 1267.52 450.26 1251.96 459.73L1235.08 417.54C1232.34 430.4 1233.93 443.9 1233.67 456.92C1228.91 472.52 1226.76 483.12 1216.79 462.54C1215.23 454.26 1195.29 411.79 1188.67 411.92C1177.54 412.13 1179.66 428.53 1180.23 437.23H1174.61C1174.94 429.79 1174.41 422.18 1174.61 414.73C1175.26 390.43 1174.1 365.91 1174.61 341.61C1184.26 337.42 1192.88 331.37 1202.73 327.55C1208.43 325.34 1244.49 309.23 1246.32 310.67C1250.38 313.87 1245.07 332.95 1249.13 335.98C1256.12 330.28 1303.94 304.39 1308.19 305.04C1312.14 305.65 1340.73 341.13 1348.97 344.42L1349 344.44Z" fill="#749FA6"/>
<path d="M1734.31 423.19L1732.9 456.94C1718.64 413.74 1715.71 437.63 1713.21 437.25C1708.83 436.58 1695.74 414.61 1693.52 409.13C1691.61 410.04 1696.88 447.29 1697.74 451.32C1689.72 471.9 1690.04 442.09 1678.05 440.07C1675.47 432.34 1681.73 427.47 1668.21 420.38C1659.79 419.91 1675.49 461.02 1648.52 417.57V442.88L1626.02 403.5L1627.43 438.66L1616.18 435.85L1610.56 478.04L1589.47 431.63C1586.86 450.74 1601.97 486.81 1572.59 485.07L1551.5 410.54C1539.09 400.1 1552.48 443.99 1544.47 442.88C1531.88 439.61 1532.17 422.13 1531.81 409.13C1538.13 400.65 1545.3 405.83 1551.5 396.47C1555.87 389.88 1562.82 363.79 1559.94 355.69C1564.81 358.86 1567.5 360.17 1571.19 354.28C1590.68 323.17 1601.43 250.15 1621.81 215.06C1622 215 1621.37 211.74 1624.62 212.25L1734.31 423.19Z" fill="#749FA6"/>
<path d="M1818.69 338.81C1818.82 353.39 1823.27 424.06 1818.69 433.03C1813.47 443.23 1787.32 415.39 1783.53 409.12C1778.96 411.27 1808.69 455.28 1790.56 463.96L1775.09 425.99L1773.68 445.68C1769.43 433.75 1763.81 424.19 1755.4 414.74C1747.68 420.17 1754.27 428.08 1756.81 437.24L1755.4 442.86C1754.33 438.75 1753.16 437.49 1751.18 434.42C1748.66 430.51 1744.23 422.13 1742.74 417.54L1748.36 413.32C1741.65 408.13 1743.04 417.37 1742.74 417.54C1740.3 418.9 1732.77 414.31 1734.3 423.16L1624.61 212.22L1818.67 338.78L1818.69 338.81Z" fill="#457983"/>
<path d="M1509.31 291C1472.2 318.4 1436.98 350.5 1399.62 378.19C1380.58 392.31 1362.86 408.75 1341.96 420.38C1338.99 417.98 1347.78 353.48 1348.99 344.44C1355.36 296.75 1364.99 248.75 1371.49 201L1509.3 291H1509.31Z" fill="#457983"/>
<path d="M1371.5 201C1365 248.75 1355.37 296.74 1349 344.44C1340.76 341.15 1312.17 305.67 1308.22 305.06C1303.97 304.4 1256.15 330.29 1249.16 336C1245.1 332.97 1250.41 313.89 1246.35 310.69C1244.51 309.24 1208.46 325.36 1202.76 327.57L1371.5 201Z" fill="#B2CFD8"/>
<path d="M1621.81 215.06C1601.42 250.15 1590.67 323.17 1571.19 354.28C1567.5 360.16 1564.81 358.86 1559.94 355.69C1558.95 352.92 1532.74 319.46 1530.41 319.13C1523.31 318.13 1419.25 378.28 1399.63 378.19C1436.99 350.5 1472.2 318.41 1509.32 291C1510.74 289.95 1513.33 293.96 1513.54 293.81C1540.64 273.86 1592.68 223.87 1621.82 215.06H1621.81Z" fill="#B2CFD8"/>
<path d="M1742.75 417.56C1743.06 417.39 1741.67 408.15 1748.37 413.34L1742.75 417.56Z" fill="#5EA023"/>
<path d="M1914.31 423.19V514.6L1904.47 504.76L1903.06 528.67L1894.62 527.26C1903.99 503.81 1901.03 484.57 1881.96 468.2C1870.98 472.43 1878.29 485.55 1877.74 486.48C1874.98 491.16 1864.04 490.71 1860.86 503.36C1859.65 508.19 1860.35 526.74 1860.86 532.89L1848.2 493.51L1846.79 534.29L1839.76 521.63C1835.38 535.06 1845.82 547.62 1824.29 544.13C1836.34 467.1 1838.82 423.72 1841.17 345.85C1841.32 340.88 1843.74 331.88 1835.55 333.19C1842.06 303.87 1846.12 273.99 1852.43 244.6L1858.05 306.48L1862.27 237.57C1871.57 260.59 1860.07 300.66 1863.68 320.54C1864.41 324.57 1862.17 330.39 1869.3 326.16V267.1L1880.55 281.16C1879.56 270.74 1869.81 248.05 1879.14 240.38L1896.02 361.32L1897.43 283.98L1905.87 298.04C1910.23 285.74 1903.19 257.18 1917.12 253.04C1906.76 309.03 1912.68 366.55 1914.31 423.2V423.19Z" fill="#81BB36"/>
<path d="M1879.16 288.19C1879.6 305.03 1884.6 321.9 1881.97 338.81C1875.1 335.4 1876.6 288.19 1879.16 288.19Z" fill="#E7EBCA"/>
<path d="M1835.56 333.19C1843.76 331.87 1841.33 340.88 1841.18 345.85C1838.83 423.72 1836.36 467.1 1824.3 544.13C1823.45 549.58 1811.29 613.46 1829.92 587.72C1835.51 580.01 1828.47 565.76 1839.76 561C1847.64 571.83 1843.28 581.1 1843.98 594.75C1824.67 596.04 1805.55 596.74 1786.32 597.56C1782.39 593.97 1779.56 569.93 1779.29 563.81C1777.46 522.67 1788.48 487.22 1773.67 445.69L1775.08 426L1790.55 463.97C1808.68 455.29 1778.95 411.28 1783.52 409.13C1787.31 415.4 1813.46 443.24 1818.68 433.04C1823.26 424.07 1818.81 353.4 1818.68 338.82C1818.39 306.94 1817.17 275.12 1817.27 243.2L1829.93 345.86C1838.93 350.55 1834.7 337.07 1835.55 333.2L1835.56 333.19Z" fill="#4B8B22"/>
<path d="M1797.6 468.19C1805.25 492.31 1801.65 520.67 1807.44 545.53C1776.85 561.62 1799.97 485.97 1797.6 468.19Z" fill="#81BB36"/>
<path d="M1825.72 462.56L1822.91 499.12C1820.95 499.1 1812.21 464.77 1825.72 462.56Z" fill="#81BB36"/>
<path d="M1562.75 544.12C1563.33 552.02 1570 567.88 1561.34 572.24L1557.12 545.52C1550.49 556.4 1540.27 560.87 1540.24 544.11C1540.24 538.76 1551.4 498.07 1555.71 490.67C1559.6 508.22 1561.41 526.15 1562.74 544.11L1562.75 544.12Z" fill="#81BB36"/>
<path d="M1661.19 516C1659.39 519.49 1653.16 549.07 1649.94 542.72L1648.53 530.06L1641.5 537.09L1647.12 485.06C1647.45 485.17 1645.96 475.58 1652.74 480.84L1654.15 507.56L1661.18 486.47V516H1661.19Z" fill="#81BB36"/>
<path d="M1678.06 440.06C1693.14 485.17 1686.42 492.09 1680.87 535.68L1675.25 500.52C1663.69 496.01 1670.59 513.05 1669.63 514.58C1667.84 517.43 1661.52 515.36 1661.19 515.99V486.46L1654.16 507.55L1652.75 480.83C1645.96 475.57 1647.46 485.16 1647.13 485.05C1638.09 481.97 1643.46 478.53 1635.88 482.24C1631.23 484.51 1634.07 493.57 1628.85 490.68C1623.4 487.66 1628.95 464.2 1619.01 466.77C1624.79 474.44 1620.65 486.06 1621.82 494.89C1622.17 497.54 1630.02 495.07 1630.26 497.7C1631.09 506.8 1616.19 549.31 1635.88 546.92C1635.15 555.19 1637.43 562.7 1633.07 570.83C1622.32 565.08 1615.66 572.85 1614.79 572.24C1612.48 570.61 1612.03 509.87 1600.73 563.8C1576.26 572.41 1593.87 524.18 1589.48 521.61C1567 508.45 1578.53 554.13 1569.79 560.99V541.3L1562.76 544.11C1561.43 526.15 1559.62 508.22 1555.73 490.67C1551.42 498.07 1540.25 538.75 1540.26 544.11C1515.85 541.43 1533.42 532.61 1527.6 515.99C1515.17 526.26 1507.78 525.42 1513.54 544.11C1505.64 537.31 1510.39 524.62 1496.66 538.49L1495.25 501.93C1501.54 485.44 1490.91 470.29 1514.94 475.21C1509.98 469.14 1511.23 451.77 1509.32 445.68C1520.41 435.76 1522.97 420.99 1531.82 409.12C1532.18 422.12 1531.88 439.6 1544.48 442.87C1552.49 443.98 1539.11 400.09 1551.51 410.53L1572.6 485.06C1601.98 486.81 1586.87 450.74 1589.48 431.62L1610.57 478.03L1616.19 435.84L1627.44 438.65L1626.03 403.49L1648.53 442.87V417.56C1675.49 461.02 1659.79 419.9 1668.22 420.37C1681.75 427.45 1675.48 432.33 1678.06 440.06Z" fill="#5EA023"/>
<path d="M1635.88 482.25C1638.18 501.45 1637.56 527.75 1635.88 546.94C1616.19 549.33 1631.08 506.82 1630.26 497.72C1630.02 495.09 1622.17 497.56 1621.82 494.91C1620.65 486.07 1624.79 474.45 1619.01 466.79C1628.95 464.22 1623.41 487.68 1628.85 490.7C1634.07 493.59 1631.23 484.53 1635.88 482.26V482.25Z" fill="#81BB36"/>
<path d="M1527.6 428.81C1530.63 439.56 1530.51 451.94 1521.98 459.75C1515.45 449.27 1523.7 438.89 1527.6 428.81Z" fill="#6A9591"/>
<path d="M1304 541.31C1302.97 546.51 1305.76 553.23 1302.59 558.19C1300.79 561.01 1286.94 555.98 1278.68 558.19L1282.9 437.25C1290.4 437.55 1289.08 442.26 1289.93 447.09C1293.99 470.06 1286.06 512.5 1292.74 534.28C1295.48 543.22 1292.16 541.83 1303.99 541.31H1304Z" fill="#5EA023"/>
<path d="M1754 490.69C1752.61 508.79 1753.62 525.94 1751.19 544.13L1748.38 486.47L1754 490.69Z" fill="#81BB36"/>
<path d="M1734.31 524.44C1734.74 512.32 1734 500.01 1734.31 487.88C1746.02 492.1 1742.51 501.41 1742.75 511.79C1742.77 512.55 1739.89 537.62 1734.31 524.45V524.44Z" fill="#81BB36"/>
</g>
<path d="M918.323 623.181C917.95 641.417 913.043 732.298 918.323 740.472C918.77 741.159 930.97 745.396 933.324 747.038C933.544 747.191 932.344 747.779 937.07 750.788C937.784 751.242 944.117 761.584 948.324 749.847C950.704 743.208 948.071 695.172 948.324 683.228C948.444 677.623 948.237 671.944 948.324 666.339L953.951 623.174C953.804 635.639 953.824 648.236 953.951 660.708C954.064 672.245 952.111 742.24 953.951 746.097C957.484 753.517 972.371 743.842 976.451 740.465C972.518 722.102 975.111 703.512 974.578 685.103C974.404 679.097 972.991 674.079 972.704 668.214H976.451C976.478 668.855 980.138 679.458 980.198 680.412C980.791 689.573 977.698 735.821 980.198 740.465C980.664 741.326 995.918 745.55 998.945 746.097C996.211 708.557 1000.98 667.741 995.198 630.681C1006.21 628.792 1002.04 635.832 1002.7 643.819C1003.68 655.79 1004.17 669.349 1004.57 681.353C1004.96 692.976 1002.12 753.624 1007.38 758.295C1011.16 759.783 1033.79 756.593 1034.57 755.479C1036.89 752.203 1033.02 713.188 1032.7 705.748C1032.53 701.297 1031.91 692.729 1038.33 692.609C1039.15 708.337 1037.57 746.01 1040.2 757.354C1040.38 758.134 1049.56 763.606 1048.64 769.551L1053.33 764.86C1048.95 734.14 1052.75 702.798 1051.45 671.964C1051.18 665.405 1049.99 658.139 1049.58 651.319L1054.27 643.812C1058.46 655.937 1054.66 664.418 1055.21 679.471C1056.21 707.269 1058.35 735.067 1057.08 762.985C1062.75 763.906 1066.41 767.923 1070.21 769.551C1071.44 770.078 1074.55 769.024 1075.83 769.551C1077.23 770.125 1078.17 770.886 1079.58 771.426C1081.74 772.254 1083.08 773.201 1083.33 773.301C1083.63 774.569 1084.53 775.99 1085.2 777.051C1088.63 782.449 1094.11 782.176 1094.57 782.683C1095.19 783.35 1101.03 798.27 1104.89 797.696C1105.74 797.57 1111.11 784.758 1118.01 786.433C1123.01 787.647 1122.53 797.063 1123.64 797.696C1124.54 798.21 1140.12 796.876 1144.27 799.571C1149.59 803.035 1144.27 809.247 1150.83 812.71C1128.88 812.483 1106.99 810.988 1085.2 810.835C1090.91 805.65 1077.97 794.694 1074.89 793.946C1068.5 792.392 1066.01 797.77 1065.51 797.696C1063.13 797.349 1060.03 785.612 1056.14 784.558C1052.25 783.504 1039.99 792.639 1039.27 792.065C1037.53 790.697 1033.21 773.034 1022.39 773.301C1020.45 773.348 1000.91 782.383 999.891 788.315C985.391 776.244 974.604 761.09 953.017 765.795C945.197 767.496 943.531 780.601 937.077 774.242C945.571 767.356 919.957 746.504 917.39 747.031C912.83 747.972 914.857 758.588 914.577 759.229C913.523 761.658 899.117 762.258 914.577 766.735C900.963 767.263 891.683 778.946 877.076 777.999C875.309 774.863 897.29 762.165 885.516 758.295C881.83 757.08 859.069 782.556 857.389 784.571C853.189 786.446 838.209 753.691 828.329 779.881C828.502 781.489 853.976 801.8 846.142 805.217C842.849 796.415 830.869 798.757 829.269 797.71C828.655 797.309 822.895 790.45 818.955 787.387C818.769 787.24 823.102 784.038 819.895 782.696C809.722 778.433 804.122 787.421 801.148 788.328C796.062 789.876 792.195 786.226 791.775 786.453C786.762 789.109 778.415 807.799 774.901 808.973C768.108 811.242 752.994 805.81 745.841 810.848C738.994 810.888 731.981 810.808 725.214 810.848C727.707 808.319 730.807 800.179 728.961 797.71C731.134 798.05 730.707 795.868 730.834 795.835C753.514 790.25 739.274 783.884 746.774 780.821C755.581 777.218 753.528 791.751 754.274 792.085C754.914 792.365 762.141 783.137 763.648 782.703C778.148 778.533 768.888 793.066 787.088 775.196C788.922 773.401 790.982 771.179 792.715 769.565C799.842 762.932 792.715 763.9 803.968 758.301C805.808 757.387 811.729 759.643 813.342 757.36C815.969 753.644 814.855 701.818 815.215 692.616C815.549 684.102 818.949 681.146 818.962 680.418C818.995 679.037 815.175 679.925 815.215 678.543C815.622 662.055 817.409 646.301 817.089 629.753C817.022 626.41 815.342 620.445 820.835 621.306L822.709 645.701C821.869 659.193 818.009 750.781 820.835 755.485C821.529 756.64 845.329 763.626 847.089 761.117C847.042 733.279 847.889 705.381 848.962 677.603L856.463 670.096C855.696 697.267 853.356 724.444 854.589 751.729C855.789 764.213 883.876 744.082 884.59 742.347C889.263 730.95 880.376 684.275 886.463 668.221C886.623 669.108 892.216 675.461 892.09 683.234C892.03 701.664 892.13 720.147 892.09 738.597L909.903 739.538C912.097 716.471 910.19 693.197 910.843 670.103C911.39 650.652 912.663 631.448 912.717 611.924C915.83 611.737 914.257 608.388 914.59 606.292C920.45 605.265 918.45 617.896 918.337 623.181H918.323Z" fill="white"/>
<path d="M1085.2 810.848C972.164 810.047 858.856 810.228 745.821 810.848C752.981 805.81 768.088 811.242 774.881 808.973C778.395 807.799 786.741 789.109 791.755 786.453C792.175 786.226 796.042 789.883 801.128 788.328C804.102 787.421 809.702 778.433 819.875 782.696C823.082 784.038 818.749 787.24 818.935 787.387C822.875 790.45 828.635 797.309 829.249 797.71C830.849 798.757 842.836 796.415 846.122 805.216C853.962 801.8 828.482 781.489 828.309 779.881C838.189 753.69 853.169 786.446 857.369 784.571C859.049 782.563 881.81 757.087 885.496 758.295C897.27 762.165 875.289 774.863 877.056 777.999C891.663 778.946 900.943 767.269 914.557 766.735C899.097 762.258 913.503 761.658 914.557 759.229C914.837 758.588 912.81 747.972 917.37 747.031C919.937 746.504 945.551 767.356 937.057 774.242C943.511 780.608 945.171 767.503 952.997 765.795C974.584 761.09 985.378 776.244 999.871 788.315C1000.89 782.383 1020.43 773.348 1022.37 773.301C1033.19 773.034 1037.51 790.697 1039.25 792.065C1039.97 792.639 1052.41 783.557 1056.12 784.558C1060.01 785.606 1063.11 797.349 1065.49 797.696C1065.99 797.77 1068.48 792.392 1074.87 793.946C1077.95 794.694 1090.89 805.65 1085.18 810.835L1085.2 810.848Z" fill="#DBF3FA"/>
<path d="M873.323 480.554L848.949 544.364C844.382 543.857 839.509 544.717 834.889 544.364C827.042 541.254 847.062 487.4 856.449 480.554C861.949 480.04 867.776 480.8 873.323 480.554Z" fill="#7ED1EE"/>
<path d="M886.443 480.553C876.956 501.499 870.523 523.038 869.569 546.239C866.669 546.386 853.049 544.817 848.942 544.364L873.316 480.553C877.656 480.36 882.096 480.694 886.443 480.553Z" fill="#A7E0F3"/>
<path d="M893.943 480.554L880.816 543.423C877.903 547.68 873.669 546.032 869.562 546.239C870.516 523.038 876.949 501.499 886.436 480.554C888.916 480.473 891.456 480.614 893.936 480.554H893.943Z" fill="#7ED1EE"/>
<path d="M848.942 677.603C847.869 705.381 847.022 733.272 847.069 761.117C845.316 763.626 821.509 756.64 820.815 755.485C817.989 750.781 821.849 659.193 822.689 645.701C823.469 633.19 827.442 564.682 830.189 558.436C831.842 554.68 853.162 553.392 854.562 556.561C851.456 596.904 850.502 637.193 848.936 677.609L848.942 677.603Z" fill="#63BEE0"/>
<path d="M886.443 668.221C880.356 684.282 889.243 730.95 884.57 742.347C883.856 744.082 855.769 764.213 854.569 751.729C853.336 724.444 855.676 697.26 856.443 670.096C857.396 636.359 856.163 596.797 865.816 565.943C868.309 557.989 858.243 549.568 882.69 556.561L879.876 625.062C887.576 613.686 881.463 583.218 886.436 573.456C887.35 571.661 889.93 574.617 890.183 575.331C893.263 583.926 882.79 648.263 886.436 668.228L886.443 668.221Z" fill="#63BEE0"/>
<path d="M948.324 666.346C948.237 671.951 948.444 677.629 948.324 683.234C945.904 686.537 937.31 685.516 937.07 686.05C934.724 691.328 936.817 740.612 937.07 750.795C932.344 747.785 933.537 747.191 933.324 747.045L929.577 603.477C919.03 606.459 934.15 624.842 918.323 623.181C918.43 617.889 920.43 605.265 914.577 606.292C915.723 599.146 918.257 600.174 918.323 599.726C918.903 595.85 916.797 538.358 929.577 554.686C933.744 560.011 924.47 569.82 934.264 568.759C942.117 565.736 937.277 560.338 939.89 553.745C942.217 554.132 946.957 552.745 948.331 554.686C951.551 559.244 945.87 652.554 948.331 666.346H948.324Z" fill="#63BEE0"/>
<path d="M1032.7 705.754C1033.02 713.201 1036.89 752.209 1034.57 755.485C1033.79 756.6 1011.16 759.789 1007.39 758.301C1002.13 753.63 1004.96 692.976 1004.57 681.359C1025.67 678.09 1011.57 687.758 1021.45 695.432C1021.37 684.896 1019.75 674.707 1017.7 664.464C1029.51 673.159 1020.91 660.26 1030.83 663.523C1029.93 677.576 1032.09 691.709 1032.7 705.748V705.754Z" fill="#30809F"/>
<path d="M995.198 630.687C1000.98 667.747 996.211 708.564 998.945 746.104C995.918 745.557 980.658 741.333 980.198 740.472C977.698 735.828 980.791 689.58 980.198 680.418C980.138 679.458 976.471 668.855 976.451 668.221C975.818 651.726 977.664 634.991 974.578 618.49C988.158 612.892 978.404 635.619 984.891 643.826C995.038 640.363 983.758 608.227 995.205 618.49C995.611 622.4 994.618 626.924 995.205 630.687H995.198Z" fill="#398FB0"/>
<path d="M972.698 668.221C972.984 674.086 974.398 679.104 974.571 685.109C957.471 687.385 978.418 655.443 953.944 660.714C953.817 648.243 953.797 635.645 953.944 623.181C954.211 600.38 953.744 577.507 953.944 554.68C972.078 548.668 964.184 579.595 965.197 590.338C965.597 594.622 965.151 593.674 965.197 594.088C966.111 602.569 970.417 608.281 970.824 612.851C972.404 630.694 971.811 650.098 972.698 668.214V668.221Z" fill="#63BEE0"/>
<path d="M912.696 600.661C912.756 604.391 912.71 608.187 912.696 611.924C912.643 631.448 911.37 650.652 910.823 670.103L902.383 685.116C886.636 688.252 904.876 654.369 893.943 653.214C894.77 628.819 894.036 604.23 897.69 580.022L901.436 605.358L912.69 600.667L912.696 600.661Z" fill="#63BEE0"/>
<path d="M1049.57 651.333C1049.99 658.152 1051.17 665.412 1051.45 671.978L1038.32 679.484C1036.18 638.494 1036.48 597.318 1030.82 556.561C1032.93 554.473 1035.75 550.369 1039.26 551.87C1043.87 553.852 1048.86 639.595 1049.57 651.333Z" fill="#63BEE0"/>
<path d="M910.823 670.096C910.176 693.19 912.076 716.464 909.883 739.531L892.07 738.59C892.11 720.141 892.01 701.657 892.07 683.228C892.103 672.985 893.603 663.163 893.943 653.201C904.876 654.355 886.636 688.245 902.383 685.103L910.823 670.089V670.096Z" fill="#30809F"/>
<path d="M820.822 621.306C815.328 620.438 817.008 626.41 817.075 629.753C817.388 646.301 815.608 662.062 815.202 678.543C815.168 679.925 818.982 679.037 818.948 680.418C818.928 681.146 815.528 684.102 815.202 692.616L807.701 689.8C818.922 677.089 806.835 679.965 805.828 664.464C807.715 628.132 810.382 592.32 817.082 556.555L822.708 554.68C824.122 557.342 817.068 606.773 817.082 614.733C817.095 621.599 820.682 618.41 820.828 621.299L820.822 621.306Z" fill="#63BEE0"/>
<path d="M1051.45 671.971C1052.75 702.805 1048.95 734.146 1053.32 764.867L1048.63 769.558C1049.55 763.606 1040.37 758.141 1040.19 757.36C1037.57 746.017 1039.14 708.343 1038.32 692.616C1038.09 688.279 1038.55 683.815 1038.32 679.478L1051.45 671.971Z" fill="#30809F"/>
<path d="M815.195 692.616C814.835 701.818 815.949 753.644 813.322 757.36C811.708 759.643 805.788 757.381 803.948 758.301C803.288 726.973 804.202 695.719 805.822 664.471C806.828 679.971 818.922 677.096 807.695 689.807L815.195 692.623V692.616Z" fill="#398FB0"/>
<path d="M1017.7 664.464C1019.75 674.707 1021.37 684.896 1021.45 695.432C1011.56 687.752 1025.67 678.09 1004.57 681.359C1004.16 669.355 1003.68 655.796 1002.7 643.826C1021.07 646.241 1015.34 652.674 1017.7 664.471V664.464Z" fill="#398FB0"/>
<path d="M912.697 600.661L901.443 605.352L897.696 580.016C899.19 570.113 896.816 552.104 912.697 556.555C912.87 571.248 912.457 585.988 912.697 600.654V600.661Z" fill="#63BEE0"/>
<path d="M856.442 480.554C847.056 487.4 827.035 541.254 834.882 544.364C839.502 544.717 844.382 543.857 848.942 544.364C853.049 544.824 866.669 546.386 869.569 546.239C873.676 546.032 877.909 547.68 880.823 543.423L893.95 480.554C898.356 480.447 904.63 482.442 905.203 482.429C909.297 492.738 898.403 542.249 901.456 547.173C902.25 548.454 906.843 548.561 908.017 548.114C912.55 546.386 912.637 490.683 912.703 482.429C955.004 481.761 997.725 479.219 1040.21 480.554C1042.53 484.664 1051.92 495.353 1055.21 497.442C1055.25 498.676 1055.1 499.971 1055.21 501.192C1055.53 504.915 1067.59 532.48 1070.21 536.85C1070.31 537.031 1073.85 538.545 1073.95 538.725C1073.69 541.141 1074.35 543.897 1073.95 546.232C1073.88 546.659 1070.24 551.363 1072.08 554.68L1088.95 643.819C1091.21 670.096 1091.53 696.313 1092.7 722.636C1093.38 737.93 1093.81 753.303 1094.57 768.617C1094.63 769.772 1099.92 774.236 1094.57 782.69C1094.11 782.189 1088.63 782.463 1085.2 777.058C1094.53 770.259 1083.81 773.502 1083.33 773.308C1083.07 773.208 1081.73 772.26 1079.58 771.433C1084.35 764.153 1075.99 761.077 1075.83 769.558C1074.55 769.031 1071.44 770.085 1070.21 769.558L1066.46 639.128C1062.49 637.02 1062.25 637.22 1060.83 641.003C1058.75 646.595 1066.21 692.389 1062.71 702.932C1057.29 697.04 1065.81 681.753 1055.21 679.471C1054.67 664.418 1058.46 655.943 1054.27 643.812L1049.58 651.319C1048.87 639.575 1043.89 553.839 1039.27 551.857C1035.77 550.356 1032.93 554.459 1030.83 556.548C1036.49 597.298 1036.19 638.481 1038.33 679.471C1038.55 683.808 1038.1 688.272 1038.33 692.609C1031.91 692.723 1032.53 701.297 1032.7 705.748C1032.09 691.709 1029.93 677.576 1030.83 663.523C1020.9 660.254 1029.51 673.159 1017.7 664.464C1015.34 652.667 1021.07 646.235 1002.7 643.819C1002.04 635.832 1006.21 628.799 995.198 630.681C994.611 626.911 995.605 622.393 995.198 618.483C983.751 608.221 995.038 640.356 984.884 643.819C978.398 635.612 988.151 612.885 974.571 618.483C977.664 634.991 975.811 651.72 976.444 668.214H972.698C971.811 650.098 972.398 630.694 970.824 612.852C970.418 608.281 966.111 602.569 965.197 594.088C965.151 593.668 965.598 594.615 965.197 590.338C964.191 579.595 972.078 548.668 953.944 554.68C953.744 577.507 954.211 600.374 953.944 623.181L948.317 666.346C945.857 652.554 951.537 559.244 948.317 554.686C946.951 552.745 942.21 554.132 939.877 553.745C937.27 560.338 942.104 565.736 934.25 568.759C924.457 569.82 933.73 560.011 929.564 554.686C916.79 538.358 918.897 595.85 918.31 599.726C918.243 600.18 915.71 599.146 914.563 606.292C914.23 608.388 915.803 611.737 912.69 611.924C912.703 608.194 912.75 604.397 912.69 600.661C912.45 585.994 912.863 571.254 912.69 556.561C896.81 552.104 899.183 570.12 897.69 580.022C894.03 604.231 894.77 628.819 893.943 653.214C893.603 663.176 892.103 672.999 892.07 683.241C892.196 675.467 886.61 669.115 886.443 668.228C882.803 648.263 893.27 583.926 890.19 575.331C889.93 574.611 887.356 571.655 886.443 573.456C881.47 583.225 887.583 613.686 879.883 625.062L882.696 556.561C858.249 549.568 868.309 557.989 865.823 565.943C856.169 596.797 857.402 636.366 856.449 670.096L848.949 677.603C850.509 637.187 851.469 596.897 854.576 556.555C853.169 553.392 831.855 554.673 830.202 558.43C827.455 564.675 823.482 633.183 822.702 645.694L820.829 621.299C820.675 618.41 817.089 621.599 817.082 614.733C817.069 606.773 824.122 557.342 822.709 554.68L817.082 556.555C810.382 592.313 807.722 628.125 805.828 664.464C804.202 695.719 803.288 726.967 803.955 758.295C792.701 763.886 799.835 762.919 792.701 769.558C791.088 768.991 788.875 759.783 788.955 759.235C797.028 701.29 792.748 634.204 802.082 572.509C805.735 548.367 807.902 524.693 820.829 503.074C824.575 496.801 836.122 482.368 843.329 480.554C846.602 479.733 852.482 480.92 856.456 480.554H856.442Z" fill="#A7E0F3"/>
<path d="M912.697 482.429C912.63 490.676 912.543 546.379 908.01 548.114C906.837 548.561 902.243 548.454 901.45 547.173C898.403 542.249 909.297 492.738 905.197 482.429C907.797 482.375 910.263 482.469 912.697 482.429Z" fill="#63BEE0"/>
<path d="M1070.2 769.558C1066.41 767.93 1062.74 763.913 1057.07 762.992C1058.34 735.074 1056.2 707.276 1055.2 679.478C1065.81 681.753 1057.28 697.04 1062.7 702.939C1066.21 692.389 1058.74 646.602 1060.83 641.01C1062.24 637.227 1062.48 637.026 1066.45 639.135L1070.2 769.565V769.558Z" fill="#398FB0"/>
<path d="M1076.76 656.958L1081.45 706.689L1082.39 762.051C1073.31 748.933 1078.45 725.926 1077.7 710.445C1076.84 692.83 1072.23 674.573 1076.76 656.958Z" fill="#63BEE0"/>
<path d="M1029.89 542.482C1039.54 542.148 1060.34 543.536 1067.39 546.232C1036.92 551.864 1005.66 553.532 974.571 550.923L1029.89 542.475V542.482Z" fill="#A7E0F3"/>
<path d="M1085.2 600.661C1087.12 614.747 1087.73 629.613 1088.95 643.826L1072.07 554.686C1070.23 551.377 1073.87 546.666 1073.95 546.239C1077.81 564.201 1082.71 582.438 1085.2 600.661Z" fill="#E9EEDD"/>
<path d="M975.511 553.745C980.584 549.548 982.898 592.14 982.071 594.095C972.857 615.968 972.691 556.074 975.511 553.745Z" fill="#63BEE0"/>
<path d="M1070.2 536.85C1067.58 532.48 1055.52 504.915 1055.2 501.192C1063.21 510.981 1070.03 524.433 1070.2 536.85Z" fill="#E9EEDD"/>
<path d="M1073.01 613.799C1078.44 615.974 1075.57 628.305 1074.89 632.562C1069.49 630.514 1072.31 618.103 1073.01 613.799Z" fill="#63BEE0"/>
<path d="M1079.57 771.44C1078.16 770.899 1077.22 770.139 1075.83 769.565C1075.99 761.084 1084.35 764.16 1079.57 771.44Z" fill="#398FB0"/>
<path d="M1085.2 777.065C1084.53 776.004 1083.63 774.582 1083.33 773.315C1083.81 773.508 1094.53 770.272 1085.2 777.065Z" fill="#458797"/>
<path d="M933.324 747.038C930.97 745.39 918.77 741.159 918.323 740.472C913.043 732.291 917.95 641.417 918.323 623.181C934.144 624.842 919.03 606.459 929.577 603.477L933.324 747.045V747.038Z" fill="#44A4C8"/>
<path d="M974.571 685.109C975.104 703.512 972.511 722.109 976.444 740.472C972.364 743.842 957.477 753.524 953.944 746.104C952.104 742.254 954.057 672.251 953.944 660.714C978.418 655.443 957.464 687.385 974.571 685.109Z" fill="#398FB0"/>
<path d="M948.324 683.234C948.07 695.178 950.704 743.214 948.324 749.854C944.117 761.584 937.79 751.248 937.07 750.795C936.817 740.612 934.724 691.322 937.07 686.05C937.304 685.523 945.897 686.537 948.324 683.234Z" fill="#398FB0"/>
<path d="M781.441 441.145C776.748 442.68 788.081 462.851 788.941 463.665C784.975 468.67 780.348 479.119 783.315 484.31C781.101 485.665 752.728 519.502 749.567 523.719L683.94 566.884C684.973 555.567 687.406 546.592 683 534.982C677.726 554.64 674.746 588.73 663.313 605.358C661.426 608.107 614.945 646.655 611.752 647.583C606.992 648.97 591.265 648.19 582.692 649.458L578.945 641.951C581.525 641.51 591.605 640.863 593.005 640.076C603.179 634.377 604.879 576.766 603.319 563.134C613.132 527.649 610.499 518.581 649.259 506.83C656.646 504.588 684.413 503.327 685.82 502.139C686.92 501.219 689.387 478.799 691.447 473.988C695.687 464.066 710.947 455.898 712.074 444.902C715.054 443.38 723.507 435.667 724.26 435.52C734.281 433.538 770.954 438.996 781.448 441.152L781.441 441.145Z" fill="#CD9560"/>
<path d="M603.318 563.127C598.998 578.741 593.838 625.53 581.758 632.563C578.571 634.418 569.538 633.61 567.698 634.438C560.978 630.307 566.631 623.768 562.071 614.733C561.798 614.199 552.657 609.375 552.697 607.227C552.797 602.002 557.844 606.913 558.324 601.595C558.391 600.828 549.531 591.713 548.951 589.397L604.265 516.205C616.245 506.764 668.406 494.539 675.519 488.054C688.073 476.603 674.959 463.839 712.08 444.888C710.953 455.892 695.7 464.052 691.453 473.974C689.399 478.785 686.926 501.199 685.826 502.126C684.413 503.314 656.652 504.575 649.266 506.817C610.512 518.567 613.145 527.629 603.325 563.121L603.318 563.127Z" fill="#EBC18E"/>
<path d="M820.822 503.074C807.895 524.693 805.721 548.367 802.075 572.509L798.328 569.693C790.295 600 760.774 627.024 755.201 656.958C759.754 643.752 728.654 610.069 728.947 607.227C729.167 605.118 755.094 582.358 758.947 577.2C777.321 552.578 789.948 516.626 820.822 503.074Z" fill="#503B25"/>
<path d="M704.567 608.167L725.194 734.84L663.319 692.616C662.186 678.664 660.739 669.275 663.319 655.083C665.526 642.925 674.426 629.546 676.446 619.424C686.6 616.575 693.933 610.923 704.573 608.161L704.567 608.167Z" fill="#AF7A4F"/>
<path d="M749.567 523.719C728.754 551.49 715.573 567.258 725.194 605.352C723.38 610.67 710.013 606.753 704.567 608.167C693.926 610.923 686.6 616.575 676.439 619.431C679.353 604.811 682.58 581.817 683.94 566.884L749.567 523.719Z" fill="#AF7A4F"/>
<path d="M569.564 735.781C576.151 730.583 574.045 730.236 577.065 724.518C577.451 723.791 582.585 722.423 582.691 721.702C583.271 717.725 575.451 717.685 578.945 707.63C579.151 707.036 586.158 701.564 587.385 698.248C591.211 707.549 620.845 728.101 618.325 736.722L569.578 735.781H569.564Z" fill="#AF7A4F"/>
<path d="M740.194 780.821L734.567 771.44C737.887 764.62 748.22 739.972 749.567 733.906C751.474 742.094 752.821 754.925 751.44 762.992C751.247 764.113 746.26 767.229 745.814 768.624C743.42 776.137 753.447 771.166 740.187 780.821H740.194Z" fill="#503B25"/>
<path d="M728.94 797.71C730.787 800.179 727.68 808.319 725.194 810.848C711.08 810.935 696.04 812.616 682.066 812.723C682.26 811.128 681.626 810.955 680.193 810.848C677.973 809.287 676.706 803.668 676.446 803.342C689.34 807.125 702.9 803.902 715.82 805.217C716.014 805.237 715.14 808.279 716.76 808.967C721.827 809.32 719.374 804.015 715.82 803.335C718.06 799.138 718.514 804.369 723.32 801.46C726.787 799.358 724.66 796.262 725.194 795.828C727.48 793.98 728.027 796.482 728.94 797.703V797.71Z" fill="#503B25"/>
<path d="M781.441 441.145C786.808 442.246 828.949 454.757 831.129 456.158C834.955 458.621 841.435 475.376 843.315 480.554C836.109 482.368 824.562 496.801 820.815 503.074C789.935 516.632 777.314 552.584 758.941 577.2C755.087 582.358 729.16 605.118 728.94 607.227C728.647 610.076 759.741 643.752 755.194 656.958C750.767 680.732 755.367 707.776 749.567 733.9C748.221 739.965 737.887 764.614 734.567 771.433C733.767 773.074 731.22 773.281 727.067 782.696C726.98 782.89 726.094 782.736 725.194 786.446C724.854 787.841 714.327 793.926 730.82 793.953V795.828C730.694 795.861 731.114 798.043 728.947 797.703C728.034 796.482 727.48 793.973 725.2 795.828L723.327 801.46C718.52 804.376 718.067 799.138 715.827 803.335V805.21C702.9 803.895 689.34 807.118 676.453 803.335C649.146 769.872 602.465 747.231 560.198 741.406C560.851 738.41 568.665 736.495 569.571 735.775L618.319 736.715C620.839 728.101 591.212 707.543 587.378 698.241C586.158 701.564 579.145 707.029 578.938 707.623C563.684 695.385 580.878 698.575 577.065 688.859C575.138 683.948 569.378 682.354 567.691 679.478C555.438 658.632 586.078 670.016 567.691 652.267C571.438 647.269 577.711 650.192 582.691 649.451C591.265 648.183 606.992 648.957 611.752 647.576C614.952 646.642 661.426 608.101 663.313 605.352C674.746 588.723 677.726 554.633 683 534.975C687.4 546.586 684.966 555.56 683.94 566.877C682.58 581.811 679.353 604.804 676.44 619.424C674.42 629.546 665.526 642.925 663.313 655.083C659.299 651.733 642.912 675.134 642.686 676.662C641.839 682.44 660.966 699.462 664.246 698.241C665.039 696.693 663.519 695.212 663.306 692.609L725.18 734.834L704.553 608.161C710 606.753 723.367 610.663 725.18 605.345C715.56 567.251 728.747 551.477 749.554 523.712C752.721 519.488 781.094 485.658 783.301 484.304C795.275 476.97 831.629 480.54 825.488 459.908C817.195 461.13 795.275 469.697 788.928 463.658C788.068 462.844 776.734 442.673 781.428 441.138L781.441 441.145Z" fill="#855B3A"/>
<path d="M606.132 692.616C630.559 685.009 704.747 734.053 689.573 759.235C685.713 765.634 657.446 765.835 651.132 762.051C641.746 756.426 632.139 728.368 627.692 721.702C625.472 718.366 598.832 696.7 606.132 692.616Z" fill="#AF7A4F"/>
<path d="M783.321 484.304C780.348 479.119 784.975 468.663 788.948 463.658C795.295 469.691 817.222 461.13 825.509 459.908C831.649 480.54 795.295 476.97 783.321 484.304Z" fill="#AF7A4F"/>
<path d="M663.319 655.083C660.739 669.275 662.186 678.664 663.319 692.616C663.533 695.218 665.053 696.7 664.259 698.248C660.979 699.462 641.852 682.44 642.699 676.668C642.926 675.14 659.313 651.74 663.326 655.089L663.319 655.083Z" fill="#503B25"/>
<path d="M740.194 780.821C734.627 784.878 735.407 788.428 727.067 782.696C731.22 773.288 733.767 773.081 734.567 771.433L740.194 780.815V780.821Z" fill="white"/>
<path d="M723.32 801.466L725.194 795.835C724.66 796.268 726.787 799.365 723.32 801.466Z" fill="white"/>
<path d="M578.938 641.944C566.658 644.046 567.585 641.043 562.064 640.069C563.304 639.055 565.711 635.332 567.691 634.437C569.531 633.61 578.565 634.417 581.751 632.562C593.838 625.53 598.992 578.741 603.312 563.127C604.872 576.759 603.172 634.377 592.998 640.069C591.592 640.857 581.518 641.504 578.938 641.944Z" fill="#855B3A"/>
<path d="M802.068 572.509C792.735 634.204 797.015 701.297 788.941 759.235C788.868 759.783 791.075 768.991 792.688 769.558C790.955 771.166 788.895 773.388 787.061 775.19C789.621 774.382 790.288 764.654 784.248 767.683C781.321 769.151 784.641 775.95 787.061 775.19C768.861 793.059 778.128 778.526 763.621 782.696C762.114 783.13 754.887 792.365 754.247 792.078C753.501 791.751 755.554 777.218 746.747 780.815C739.254 783.877 753.487 790.243 730.807 795.828V793.953L725.18 786.446C726.08 782.736 726.974 782.883 727.054 782.696C735.394 788.428 734.614 784.872 740.18 780.821C753.441 771.166 743.414 776.137 745.807 768.624C746.254 767.229 751.241 764.113 751.434 762.992C752.814 754.918 751.461 742.087 749.561 733.906C755.361 707.783 750.761 680.739 755.187 656.964C760.761 627.031 790.281 600.007 798.315 569.7L802.061 572.516L802.068 572.509Z" fill="#503B25"/>
<path d="M730.82 793.96C714.333 793.933 724.854 787.848 725.194 786.453L730.82 793.96Z" fill="white"/>
<path d="M774.881 762.051L778.628 771.433C771.694 772.801 775.268 767.096 774.881 762.051Z" fill="white"/>
<path d="M787.068 775.19C784.648 775.95 781.328 769.151 784.255 767.683C790.295 764.654 789.628 774.382 787.068 775.19Z" fill="white"/>
<path d="M761.754 767.683C766.167 766.949 767.308 772.701 763.627 773.315C759.214 774.049 758.074 768.297 761.754 767.683Z" fill="white"/>
<path d="M754.254 775.19C755.821 774.236 759.054 777.759 758.941 778.006C757.521 781.122 750.061 777.739 754.254 775.19Z" fill="white"/>
<path d="M771.134 773.315C773.054 773.909 772.728 780.294 769.261 778.946C766.414 777.839 770.488 773.115 771.134 773.315Z" fill="white"/>
<path d="M750.508 767.683C752.828 771.133 751.241 775.437 748.634 771.433C747.308 769.398 749.361 769.171 750.508 767.683Z" fill="#EDE7CF"/>
<path d="M1272.7 519.962C1276.21 529.858 1281.8 558.176 1283.96 569.693C1292.32 614.546 1272.73 653.528 1343.96 637.253C1344.67 633.31 1311.9 630.174 1309.27 628.806C1295.42 621.613 1293.88 569.686 1289.58 553.739C1295.46 549.608 1300.38 540.374 1306.46 540.6C1329.06 573.79 1359.88 594.008 1394.58 613.792C1398.39 615.961 1395.69 621.633 1405.84 617.542C1405.62 621.132 1411.42 623.681 1411.46 624.108C1411.5 624.482 1408.78 627.011 1407.72 630.674C1405.2 639.369 1401.97 640.022 1400.22 645.688C1367.83 631.155 1338.84 647.489 1308.34 647.562C1304.54 647.569 1278.9 646.121 1277.4 645.688C1274.08 644.72 1225.95 604.424 1223.96 601.588C1209.31 580.643 1209.64 543.817 1201.46 519.955C1198.93 494.006 1185.13 468.209 1173.33 444.888C1191.85 459.648 1202.56 464.506 1202.39 491.804C1212.15 489.868 1232.65 488.12 1241.77 489.929C1253.37 492.224 1268.24 507.344 1272.71 519.955L1272.7 519.962Z" fill="#AF7A4F"/>
<path d="M1173.33 444.895C1185.13 468.216 1198.91 494.012 1201.45 519.962C1202.75 533.254 1199.79 549.208 1201.45 562.186C1203.99 582.017 1213.85 604.804 1216.45 625.056C1213.34 614.64 1193.61 553.946 1190.2 549.048C1183.14 538.919 1163.71 532.386 1153.64 525.587L1151.77 529.337C1152.32 530.878 1172.27 548.668 1158.33 548.1C1156.63 543.977 1104.05 482.782 1100.2 480.54C1093.89 459.508 1092.11 459.121 1102.07 439.25C1109.43 437.168 1145.37 428.254 1150.82 427.987C1159.54 432.097 1165.93 438.983 1173.32 444.875L1173.33 444.895Z" fill="#CD9560"/>
<path d="M1100.2 480.554C1104.05 482.796 1156.63 543.99 1158.33 548.114C1160.79 554.126 1165.51 592.453 1163.95 597.845C1163.51 599.38 1157.94 601.515 1156.45 604.411C1121.21 573.803 1104.39 530.138 1067.39 501.192C1064.77 499.143 1056.48 498.249 1055.21 497.442C1051.92 495.353 1042.53 484.664 1040.21 480.554C1042.62 477.778 1041.5 475.489 1042.08 473.047C1055.55 474.481 1089.41 474.261 1100.21 480.554H1100.2Z" fill="#AF7A4F"/>
<path d="M1306.45 540.607C1300.38 540.38 1295.45 549.615 1289.58 553.745C1286.87 543.71 1280.28 527.095 1272.7 519.969C1268.23 507.357 1253.37 492.237 1241.76 489.942C1232.64 488.134 1212.15 489.882 1202.39 491.817C1202.55 464.519 1191.84 459.662 1173.33 444.902C1165.93 439.01 1159.55 432.124 1150.83 428.013C1157.73 427.68 1193.05 443.661 1198.64 448.658C1206.45 455.638 1208.3 474.728 1213.64 478.685C1222.89 485.545 1279 494.332 1288.64 503.08C1290.18 504.475 1301.12 532.787 1306.46 540.614L1306.45 540.607Z" fill="#A06D46"/>
<path d="M1102.07 439.263C1092.11 459.128 1093.89 459.515 1100.2 480.554C1089.4 474.261 1055.54 474.481 1042.07 473.047C1042.73 470.298 1045.23 461.303 1046.76 459.908C1048.95 457.927 1095.69 441.072 1102.07 439.263Z" fill="#CD9560"/>
<path d="M1156.45 604.411C1149.72 617.542 1141.4 630.014 1135.82 643.819C1134.28 635.959 1108.12 599.173 1102.07 588.456C1093.77 573.757 1087.58 553.465 1079.57 539.666C1078.47 537.758 1074.2 539.159 1073.95 538.725C1073.84 538.545 1070.31 537.031 1070.2 536.85C1070.03 524.433 1063.21 510.981 1055.2 501.192C1055.09 499.964 1055.25 498.676 1055.2 497.442C1056.47 498.256 1064.77 499.143 1067.39 501.192C1104.39 530.131 1121.21 573.803 1156.45 604.411Z" fill="#63472E"/>
<path d="M1092.7 722.643C1091.53 696.319 1091.21 670.096 1088.95 643.826C1087.73 629.613 1087.13 614.747 1085.21 600.661C1089.21 600.013 1084.53 593.508 1089.89 596.911C1092.86 598.792 1123.81 653.641 1124.58 657.905C1129.81 686.864 1116.11 718.272 1097.39 739.538L1096.45 714.202L1092.71 722.649L1092.7 722.643Z" fill="#503B25"/>
<path d="M1400.2 645.701C1395.94 659.5 1397.83 663.15 1390.83 677.603H1309.27C1297.82 676.729 1288.06 685.33 1280.21 686.984C1266.5 689.88 1239.68 693.177 1227.71 698.248C1231.79 694.358 1242.71 681.806 1246.45 679.484C1264.45 668.308 1293 666.333 1308.33 647.583C1338.83 647.509 1367.82 631.175 1400.2 645.708V645.701Z" fill="#A06D46"/>
<path d="M1308.33 647.576C1293 666.326 1264.44 668.301 1246.45 679.478C1244.29 673.205 1239.37 666.646 1235.2 661.648C1234.06 660.281 1226.53 648.837 1223.95 655.083C1223.77 652.047 1224.38 648.55 1223.95 645.701C1222.94 639.108 1218.35 631.428 1216.45 625.056C1213.84 604.811 1203.99 582.017 1201.45 562.186C1199.79 549.208 1202.75 533.254 1201.45 519.962C1209.63 543.823 1209.29 580.65 1223.95 601.595C1225.93 604.437 1274.06 644.727 1277.39 645.694C1278.88 646.128 1304.52 647.583 1308.33 647.569V647.576Z" fill="#855B3A"/>
<path d="M1289.58 553.745C1293.88 569.693 1295.41 621.619 1309.26 628.812C1311.9 630.18 1344.66 633.316 1343.95 637.26C1272.72 653.535 1292.32 614.553 1283.95 569.7C1281.8 558.183 1276.21 529.864 1272.7 519.969C1280.28 527.095 1286.86 543.717 1289.57 553.745H1289.58Z" fill="#63472E"/>
<path d="M1392.7 686.984C1403.92 695.118 1386.24 702.872 1383.33 707.629C1381.79 710.145 1380.36 711.706 1381.46 715.136C1385.68 728.435 1413.72 729.442 1425.52 728.275C1429.1 727.921 1449.61 710.178 1452.7 732.025C1384.72 725.319 1290.88 738.797 1257.7 807.091C1232.86 803.121 1189.28 812.403 1166.76 807.091C1163.96 806.431 1164.82 800.099 1160.2 801.46C1160.29 800.853 1160.15 800.199 1160.2 799.585C1160.34 797.803 1155.07 793.966 1162.07 786.446C1174.95 795.294 1189.75 776.257 1202.39 771.433C1216.98 765.861 1232.63 763.032 1250.2 756.42C1288.02 742.18 1365.57 718.786 1388.95 685.103C1388.77 688.065 1392.1 686.544 1392.7 686.978L1392.7 686.984Z" fill="#855B3A"/>
<path d="M1216.45 625.056C1218.35 631.428 1222.94 639.108 1223.95 645.701L1180.82 609.108C1174.27 614.88 1178.75 660.02 1177.07 671.037C1175.01 684.602 1157.76 730.443 1145.2 737.656C1138.59 705.141 1141.27 671.564 1135.83 643.826C1141.41 630.014 1149.72 617.542 1156.45 604.417C1157.94 601.515 1163.51 599.386 1163.95 597.852C1165.51 592.46 1160.79 554.133 1158.33 548.12C1172.27 548.681 1152.32 530.898 1151.77 529.357L1153.64 525.607C1163.71 532.4 1183.15 538.939 1190.2 549.068C1193.61 553.966 1213.33 614.653 1216.45 625.076L1216.45 625.056Z" fill="#CD9560"/>
<path d="M1223.95 645.701C1224.38 648.557 1223.77 652.047 1223.95 655.083C1224.72 668.528 1226.57 683.108 1218.32 694.491C1213.84 700.67 1191.11 716.664 1182.69 725.459C1171.65 737.002 1163.63 752.016 1150.82 762.051C1147.57 752.263 1147.13 747.171 1145.19 737.656C1157.75 730.436 1175.01 684.602 1177.07 671.037C1178.74 660.02 1174.27 614.873 1180.81 609.108L1223.94 645.701H1223.95Z" fill="#AF7A4F"/>
<path d="M1222.07 700.123C1214.54 704.266 1168.71 760.877 1161.13 771.44C1158.6 774.969 1157.4 775.63 1158.32 780.821C1151.99 772.127 1153.58 770.365 1150.82 762.058C1163.63 752.022 1171.65 737.009 1182.69 725.465C1191.11 716.671 1213.84 700.677 1218.32 694.498L1222.07 700.129L1222.07 700.123Z" fill="#855B3A"/>
<path d="M1135.83 643.826C1141.27 671.564 1138.59 705.141 1145.2 737.656C1147.13 747.171 1147.57 752.263 1150.83 762.051C1153.59 770.359 1151.99 772.12 1158.33 780.815C1159.08 781.842 1161.71 786.193 1162.07 786.446C1155.07 793.966 1160.34 797.803 1160.2 799.585C1157.82 799.265 1156.71 803.308 1156.45 803.335C1155.1 803.495 1152.79 800.179 1149.89 801.46C1147.03 812.049 1153.23 807.005 1156.45 807.092C1157.33 807.112 1157.47 810.755 1160.2 805.217C1161.94 801.693 1159.91 803.368 1160.2 801.467C1164.82 800.105 1163.96 806.438 1166.76 807.098C1189.28 812.41 1232.85 803.128 1257.7 807.098C1257.46 807.599 1257.93 808.439 1257.7 808.973C1257.62 809.167 1254.81 808.9 1255.83 812.723C1220.87 812.156 1185.79 813.09 1150.83 812.723C1144.26 809.267 1149.58 803.048 1144.27 799.585C1140.12 796.889 1124.54 798.224 1123.64 797.71C1122.54 797.083 1123.01 787.661 1118.01 786.446C1111.11 784.772 1105.74 797.576 1104.89 797.71C1101.03 798.284 1095.19 783.364 1094.57 782.696C1099.92 774.236 1094.63 769.778 1094.57 768.624C1093.81 753.317 1093.38 737.943 1092.7 722.643L1096.45 714.195L1097.39 739.531C1116.11 718.259 1129.8 686.858 1124.57 657.898C1123.81 653.635 1092.85 598.786 1089.89 596.904C1084.53 593.508 1089.21 600.007 1085.2 600.654C1082.71 582.431 1077.81 564.195 1073.95 546.232C1074.35 543.897 1073.69 541.141 1073.95 538.725C1074.2 539.152 1078.47 537.758 1079.57 539.666C1087.58 553.465 1093.77 573.763 1102.07 588.456C1108.12 599.166 1134.28 635.959 1135.82 643.819L1135.83 643.826Z" fill="#503B25"/>
<path d="M1101.14 778.946C1109.81 775.603 1108.19 790.27 1103.01 790.21C1100.59 790.176 1095.11 781.275 1101.14 778.946Z" fill="white"/>
<path d="M1156.45 803.341C1156.27 803.415 1156.55 805.977 1156.45 807.091C1153.22 807.011 1147.01 812.049 1149.89 801.46C1152.79 800.179 1155.1 803.495 1156.45 803.335V803.341Z" fill="white"/>
<path d="M1127.39 778.946C1134.5 777.986 1130.45 787.234 1125.51 786.453C1120.85 785.719 1125.15 779.247 1127.39 778.946Z" fill="white"/>
<path d="M1140.51 788.328C1142.59 788.722 1144.88 794.22 1142.39 795.835C1135.63 800.212 1135.75 787.434 1140.51 788.328Z" fill="white"/>
<path d="M1114.26 775.19C1119.95 774.723 1119.67 782.309 1116.13 782.696C1114.73 782.85 1109.11 775.617 1114.26 775.19Z" fill="white"/>
<path d="M1140.51 778.946C1143.75 778.946 1143.74 786.46 1140.51 786.453C1137.27 786.453 1137.29 778.94 1140.51 778.946Z" fill="white"/>
<path d="M1148.01 786.453C1152.16 786.68 1151.67 791.151 1149.89 792.085C1146.25 793.993 1144.15 786.24 1148.01 786.453Z" fill="white"/>
<path d="M1160.2 801.466C1159.91 803.368 1161.94 801.693 1160.2 805.216C1158.6 805.537 1157.79 802.774 1156.45 803.341C1156.71 803.308 1157.83 799.271 1160.2 799.591C1160.15 800.212 1160.29 800.866 1160.2 801.466Z" fill="white"/>
<path d="M1390.83 677.603C1390.22 678.85 1391.28 681.76 1388.96 685.109C1365.58 718.793 1288.02 742.187 1250.21 756.426C1252.44 746.771 1257.02 730.063 1261.46 721.709C1266.46 712.3 1287.97 695.405 1280.21 686.991C1288.06 685.329 1297.83 676.728 1309.27 677.609H1390.83V677.603Z" fill="#AF7A4F"/>
<path d="M1246.45 679.478C1242.71 681.8 1231.79 694.351 1227.7 698.241C1225.98 698.968 1222.53 699.869 1222.07 700.116L1218.33 694.484C1226.58 683.101 1224.73 668.521 1223.95 655.076C1226.53 648.837 1234.06 660.274 1235.21 661.642C1239.37 666.639 1244.29 673.199 1246.46 679.471L1246.45 679.478Z" fill="#503B25"/>
<path d="M1280.2 686.984C1287.96 695.399 1266.46 712.294 1261.46 721.702C1257.02 730.056 1252.44 746.764 1250.2 756.42C1232.63 763.032 1216.98 765.861 1202.39 771.433C1189.75 776.257 1174.95 795.294 1162.07 786.446C1161.71 786.193 1159.07 781.849 1158.33 780.815C1157.41 775.623 1158.61 774.963 1161.14 771.433C1168.72 760.877 1214.55 704.266 1222.08 700.116C1222.53 699.862 1225.99 698.968 1227.71 698.241C1239.68 693.17 1266.5 689.88 1280.21 686.978L1280.2 686.984Z" fill="#CD9560"/>
<path d="M1198.64 741.413C1202.55 746.631 1234.41 746.698 1231.45 753.61C1226.47 765.288 1180.97 768.657 1198.64 741.413Z" fill="#CD9560"/>
<path d="M617.002 519.975C613.496 529.871 607.902 558.189 605.749 569.706C597.382 614.56 616.976 653.541 545.748 637.267C545.035 633.323 577.802 630.187 580.435 628.819C594.289 621.626 595.822 569.7 600.122 553.752C594.249 549.622 589.322 540.387 583.249 540.614C560.642 573.803 529.828 594.021 495.121 613.806C491.314 615.974 494.014 621.646 483.867 617.556C484.08 621.146 478.28 623.695 478.24 624.122C478.207 624.495 480.927 627.024 481.987 630.687C484.5 639.382 487.734 640.036 489.487 645.701C521.874 631.168 550.861 647.502 581.362 647.576C585.162 647.583 610.809 646.135 612.302 645.701C615.629 644.733 663.756 604.437 665.743 601.602C680.397 580.656 680.063 543.83 688.243 519.969C690.777 494.019 704.57 468.223 716.371 444.902C697.857 459.662 687.144 464.519 687.31 491.817C677.55 489.882 657.05 488.134 647.936 489.942C636.336 492.237 621.469 507.357 616.996 519.969L617.002 519.975Z" fill="#AF7A4F"/>
<path d="M716.378 444.908C704.577 468.229 690.791 494.026 688.25 519.975C686.95 533.267 689.911 549.221 688.25 562.2C685.71 582.031 675.857 604.818 673.25 625.069C676.364 614.653 696.091 553.959 699.504 549.061C706.564 538.932 725.998 532.4 736.065 525.6L737.938 529.35C737.385 530.892 717.438 548.681 731.378 548.114C733.071 543.99 785.652 482.796 789.505 480.554C795.819 459.521 797.592 459.134 787.632 439.263C780.272 437.182 744.338 428.267 738.885 428C730.165 432.11 723.778 438.996 716.384 444.888L716.378 444.908Z" fill="#CD9560"/>
<path d="M789.505 480.567C785.659 482.809 733.071 544.003 731.378 548.127C728.911 554.139 724.191 592.467 725.751 597.858C726.198 599.393 731.764 601.528 733.251 604.424C768.498 573.817 785.312 530.151 822.312 501.205C824.933 499.157 833.226 498.263 834.499 497.455C837.786 495.367 847.179 484.677 849.5 480.567C847.086 477.791 848.206 475.502 847.626 473.06C834.159 474.495 800.299 474.275 789.499 480.567H789.505Z" fill="#AF7A4F"/>
<path d="M583.255 540.62C589.329 540.394 594.256 549.629 600.129 553.759C602.836 543.723 609.429 527.108 617.003 519.982C621.476 507.371 636.336 492.251 647.943 489.955C657.063 488.147 677.557 489.895 687.317 491.83C687.157 464.533 697.864 459.675 716.378 444.915C723.771 439.023 730.158 432.137 738.878 428.027C731.971 427.693 696.657 443.674 691.064 448.672C683.25 455.651 681.404 474.742 676.064 478.699C666.817 485.558 610.703 494.346 601.062 503.094C599.522 504.488 588.582 532.8 583.249 540.627L583.255 540.62Z" fill="#A06D46"/>
<path d="M787.632 439.277C797.592 459.141 795.819 459.528 789.505 480.567C800.305 474.275 834.166 474.495 847.633 473.06C846.979 470.311 844.479 461.316 842.946 459.922C840.759 457.94 794.012 441.085 787.632 439.277Z" fill="#CD9560"/>
<path d="M733.258 604.424C739.984 617.556 748.305 630.027 753.885 643.833C755.425 635.972 781.585 599.186 787.632 588.47C795.932 573.77 802.125 553.479 810.132 539.68C811.239 537.771 815.506 539.173 815.759 538.739C815.866 538.559 819.399 537.044 819.506 536.864C819.672 524.446 826.492 510.994 834.506 501.205C834.613 499.978 834.459 498.69 834.506 497.455C833.232 498.269 824.939 499.157 822.319 501.205C785.318 530.144 768.498 573.817 733.258 604.424Z" fill="#63472E"/>
<path d="M797.006 722.656C798.172 696.333 798.492 670.109 800.752 643.839C801.979 629.627 802.579 614.76 804.499 600.674C800.492 600.027 805.172 593.521 799.812 596.924C796.846 598.806 765.892 653.655 765.125 657.918C759.898 686.878 773.592 718.286 792.312 739.551L793.252 714.215L796.999 722.663L797.006 722.656Z" fill="#503B25"/>
<path d="M489.501 645.714C493.767 659.513 491.874 663.163 498.874 677.616H580.435C591.882 676.742 601.649 685.343 609.496 686.998C623.203 689.894 650.023 693.19 661.997 698.261C657.91 694.371 646.99 681.82 643.25 679.498C625.256 668.321 596.702 666.346 581.375 647.596C550.875 647.523 521.888 631.188 489.501 645.721V645.714Z" fill="#A06D46"/>
<path d="M581.375 647.589C596.702 666.339 625.263 668.314 643.25 679.491C645.416 673.219 650.336 666.66 654.503 661.662C655.643 660.294 663.177 648.85 665.757 655.096C665.93 652.06 665.323 648.563 665.757 645.714C666.763 639.122 671.35 631.442 673.257 625.069C675.864 604.824 685.717 582.031 688.257 562.2C689.917 549.221 686.957 533.267 688.257 519.975C680.077 543.837 680.41 580.663 665.757 601.608C663.77 604.451 615.643 644.74 612.316 645.708C610.829 646.141 585.182 647.596 581.375 647.583V647.589Z" fill="#855B3A"/>
<path d="M600.129 553.759C595.829 569.706 594.296 621.633 580.442 628.826C577.809 630.194 545.041 633.33 545.755 637.273C616.983 653.548 597.389 614.566 605.756 569.713C607.902 558.196 613.496 529.878 617.009 519.982C609.429 527.108 602.842 543.73 600.136 553.759H600.129Z" fill="#63472E"/>
<path d="M497.001 686.998C485.787 695.132 503.461 702.885 506.375 707.643C507.915 710.158 518.593 700.57 517.5 704C467.252 692.351 571.567 743.295 535 715.149C531.413 714.796 571.593 720.654 568.5 742.5C636.488 735.794 598.823 738.811 632.003 807.105C656.843 803.135 700.424 812.416 722.944 807.105C725.745 806.444 724.884 800.112 729.505 801.473C729.411 800.866 729.551 800.212 729.505 799.598C729.365 797.817 734.631 793.98 727.631 786.46C714.758 795.308 699.951 776.271 687.317 771.446C672.724 765.875 657.07 763.046 639.503 756.433C601.683 742.194 524.135 718.799 500.754 685.116C500.934 688.079 497.601 686.557 497.008 686.991L497.001 686.998Z" fill="#855B3A"/>
<path d="M673.257 625.069C671.35 631.442 666.763 639.122 665.757 645.714L708.884 609.122C715.431 614.893 710.957 660.034 712.631 671.05C714.691 684.616 731.944 730.456 744.504 737.67C751.111 705.154 748.438 671.577 753.878 643.839C748.298 630.027 739.984 617.556 733.251 604.431C731.764 601.528 726.197 599.4 725.751 597.865C724.191 592.473 728.911 554.146 731.378 548.134C717.437 548.694 737.384 530.912 737.938 529.37L736.064 525.62C725.991 532.413 706.557 538.952 699.504 549.081C696.09 553.979 676.37 614.667 673.25 625.089L673.257 625.069Z" fill="#CD9560"/>
<path d="M665.757 645.714C665.323 648.57 665.93 652.06 665.757 655.096C664.983 668.541 663.13 683.121 671.383 694.504C675.864 700.683 698.597 716.678 707.011 725.472C718.051 737.016 726.078 752.029 738.885 762.065C742.138 752.276 742.578 747.185 744.511 737.67C731.951 730.45 714.697 684.616 712.637 671.05C710.964 660.034 715.437 614.887 708.891 609.122L665.763 645.714H665.757Z" fill="#AF7A4F"/>
<path d="M667.63 700.136C675.163 704.28 720.991 760.89 728.571 771.453C731.104 774.983 732.304 775.643 731.384 780.835C737.718 772.14 736.124 770.379 738.884 762.071C726.077 752.036 718.051 737.022 707.01 725.479C698.597 716.684 675.863 700.69 671.383 694.511L667.637 700.143L667.63 700.136Z" fill="#855B3A"/>
<path d="M753.878 643.839C748.438 671.577 751.112 705.154 744.505 737.67C742.571 747.185 742.131 752.276 738.878 762.065C736.118 770.372 737.711 772.134 731.378 780.828C730.625 781.856 727.991 786.206 727.631 786.46C734.631 793.98 729.365 797.817 729.505 799.598C731.885 799.278 732.991 803.322 733.251 803.348C734.605 803.508 736.911 800.192 739.811 801.473C742.678 812.063 736.478 807.018 733.251 807.105C732.378 807.125 732.231 810.768 729.505 805.23C727.764 801.707 729.798 803.382 729.505 801.48C724.884 800.119 725.744 806.451 722.944 807.112C700.424 812.423 656.85 803.141 632.003 807.112C632.243 807.612 631.776 808.453 632.003 808.987C632.083 809.18 634.896 808.913 633.876 812.737C668.83 812.169 703.917 813.104 738.878 812.737C745.445 809.28 740.125 803.061 745.438 799.598C749.585 796.902 765.165 798.237 766.065 797.723C767.165 797.096 766.698 787.674 771.692 786.46C778.592 784.785 783.965 797.59 784.819 797.723C788.672 798.297 794.512 783.377 795.132 782.71C789.785 774.249 795.072 769.792 795.132 768.637C795.899 753.33 796.326 737.957 797.006 722.656L793.259 714.209L792.319 739.545C773.599 718.272 759.905 686.871 765.132 657.912C765.898 653.648 796.852 598.799 799.819 596.917C805.179 593.521 800.499 600.02 804.506 600.667C806.992 582.444 811.899 564.208 815.759 546.246C815.359 543.91 816.019 541.154 815.759 538.739C815.506 539.166 811.239 537.771 810.132 539.68C802.126 553.479 795.932 573.777 787.632 588.47C781.585 599.179 755.425 635.972 753.885 643.833L753.878 643.839Z" fill="#503B25"/>
<path d="M788.566 778.96C779.892 775.617 781.519 790.283 786.692 790.223C789.112 790.19 794.599 781.289 788.566 778.96Z" fill="white"/>
<path d="M733.258 803.355C733.432 803.428 733.158 805.991 733.258 807.105C736.485 807.025 742.692 812.063 739.818 801.473C736.918 800.192 734.605 803.508 733.258 803.348V803.355Z" fill="white"/>
<path d="M762.319 778.96C755.205 777.999 759.252 787.247 764.192 786.466C768.852 785.732 764.552 779.26 762.319 778.96Z" fill="white"/>
<path d="M749.191 788.341C747.111 788.735 744.825 794.233 747.318 795.848C754.071 800.225 753.958 787.447 749.191 788.341Z" fill="white"/>
<path d="M775.446 775.203C769.752 774.736 770.039 782.323 773.572 782.71C774.979 782.863 780.599 775.63 775.446 775.203Z" fill="white"/>
<path d="M749.192 778.96C745.952 778.96 745.965 786.473 749.192 786.466C752.432 786.466 752.418 778.953 749.192 778.96Z" fill="white"/>
<path d="M741.691 786.466C737.545 786.693 738.038 791.164 739.818 792.098C743.451 794.007 745.558 786.253 741.691 786.466Z" fill="white"/>
<path d="M729.505 801.48C729.798 803.382 727.765 801.707 729.505 805.23C731.105 805.55 731.918 802.788 733.251 803.355C732.991 803.321 731.878 799.285 729.505 799.605C729.551 800.225 729.411 800.879 729.505 801.48Z" fill="white"/>
<path d="M498.874 677.616C499.481 678.864 498.421 681.773 500.747 685.123C524.128 718.806 601.682 742.2 639.496 756.44C637.263 746.784 632.689 730.076 628.243 721.722C623.243 712.314 601.736 695.419 609.496 687.004C601.642 685.343 591.875 676.742 580.435 677.623H498.874V677.616Z" fill="#AF7A4F"/>
<path d="M643.256 679.491C646.997 681.813 657.917 694.364 662.003 698.254C663.723 698.982 667.177 699.883 667.63 700.129L671.377 694.498C663.123 683.114 664.977 668.535 665.75 655.089C663.177 648.85 655.643 660.287 654.497 661.655C650.33 666.653 645.417 673.212 643.243 679.484L643.256 679.491Z" fill="#503B25"/>
<path d="M609.502 686.998C601.742 695.412 623.249 712.307 628.249 721.715C632.689 730.07 637.263 746.778 639.503 756.433C657.07 763.046 672.723 765.875 687.317 771.446C699.95 776.271 714.757 795.308 727.631 786.46C727.997 786.206 730.631 781.862 731.378 780.828C732.298 775.637 731.098 774.976 728.564 771.446C720.984 760.89 675.157 704.28 667.623 700.129C667.17 699.876 663.716 698.982 661.996 698.254C650.023 693.183 623.202 689.894 609.496 686.991L609.502 686.998Z" fill="#CD9560"/>
<path d="M691.064 741.426C687.157 746.644 655.296 746.711 658.25 753.624C663.237 765.301 708.737 768.671 691.064 741.426Z" fill="#CD9560"/>
<defs>
<clipPath id="clip0_375_2">
<rect width="1930.17" height="628.03" fill="white" transform="translate(-10 201)"/>
</clipPath>
</defs>
</svg>
