<svg width="209" height="154" viewBox="0 0 209 154" fill="none" xmlns="http://www.w3.org/2000/svg">
<circle cx="60.2276" cy="93.7706" r="60.2276" fill="white"/>
<circle cx="103.683" cy="43.4554" r="43.4554" fill="white"/>
<circle cx="144.47" cy="90.3419" r="63.6583" fill="white"/>
<rect x="60.2276" y="121.98" width="86.9107" height="32.0197" fill="white"/>
<path d="M159.727 90.4633C159.642 89.4348 159.384 88.5532 158.655 87.8099C158.333 87.4815 157.943 87.2308 157.532 87.045C156.897 86.2196 155.948 85.6535 154.846 85.6189C153.859 85.593 152.863 85.6492 151.868 85.6838C152.33 84.3095 152.097 82.6933 151.008 81.6605C149.673 80.3856 148.347 79.1108 147.004 77.8446C146.224 77.1056 145.22 76.7167 144.225 76.7167C143.259 76.7167 142.301 77.0797 141.551 77.8446C140.115 79.3182 140.009 81.963 141.551 83.415C142.394 84.2058 143.25 84.9837 144.102 85.7659C141.221 85.7961 138.34 85.8436 135.459 85.8609C134.747 85.8609 134.039 85.8393 133.327 85.8393C133.26 84.9534 132.904 84.2706 132.357 83.5706C131.836 82.9007 131.315 82.2266 130.798 81.5611C130.252 80.861 129.154 80.5196 128.315 80.5196C127.392 80.5196 126.493 80.8956 125.841 81.5611C125.189 82.2266 124.807 83.1427 124.807 84.0935C124.807 84.7374 125.011 85.2603 125.286 85.7529C121.888 85.6838 118.494 85.593 115.096 85.5109C115.058 85.5109 115.02 85.5109 114.982 85.5109C114.902 85.1868 114.817 84.8627 114.673 84.5299C114.44 84.007 114.211 83.4928 113.986 82.9742C113.643 82.1877 112.711 81.5784 111.932 81.3666C111.635 81.2845 111.334 81.2413 111.029 81.2413C110.423 81.2413 109.822 81.4012 109.296 81.7166C108.534 82.1704 107.953 82.931 107.72 83.8039C107.568 84.3787 107.606 84.8972 107.72 85.4072C103.022 85.3596 98.3187 85.3294 93.62 85.2732C90.095 85.23 86.57 85.2041 83.0577 85.0744C81.596 85.0226 80.1343 85.0053 78.6683 84.9664C78.6048 83.9552 78.5497 82.9396 78.5073 81.9284C78.448 80.3986 78.3548 78.8645 78.2912 77.326C78.1641 74.3226 77.9904 71.3278 77.9226 68.3244C77.8464 65.3988 77.8548 62.4775 77.8464 59.5519C77.8294 56.8034 77.8803 54.0722 78.1768 51.3411C78.4099 49.9107 78.7531 48.5494 79.253 47.1968C79.4564 46.7646 79.6809 46.3455 79.9351 45.9436C80.0368 45.8312 80.1385 45.7232 80.2444 45.6195C80.291 45.5892 80.3376 45.5633 80.38 45.5373C80.7316 45.425 81.0875 45.3299 81.4477 45.2521C81.8798 45.2262 82.3077 45.2305 82.7357 45.2564C83.3458 45.3774 83.9474 45.5417 84.5321 45.7491C85.0023 45.9911 85.4387 46.285 85.8836 46.5702C85.5658 47.4388 85.3752 48.3247 85.5786 49.3057C85.7819 50.2693 86.3412 50.9997 86.9216 51.7343C87.6546 52.8147 88.3452 54.0031 89.3451 54.8415C89.934 55.3298 90.578 55.8008 91.3491 55.9218C92.2642 56.0515 93.1031 56.0342 93.959 55.6625C94.9419 55.2434 95.6706 54.7982 96.5011 54.0982C97.6323 53.1474 98.539 51.9763 99.4372 50.7879C100.369 49.5563 101.225 48.2555 102.064 46.9634C102.776 45.8787 103.5 44.7811 104.229 43.7137C104.89 42.737 105.648 41.7863 106.174 40.7276C106.585 39.9151 106.86 39.0422 106.869 38.126C106.885 35.814 104.797 34.5738 102.848 34.1373C101.42 33.8132 99.988 33.5193 98.5771 33.1175C98.2932 33.0397 98.0094 33.0008 97.7255 33.0008C97.2298 33.0008 96.7468 33.1131 96.3062 33.3249C96.0859 33.299 95.8655 33.3595 95.6452 33.3767C95.3571 32.6853 94.9207 32.0544 94.2428 31.6654C92.76 30.8098 91.4338 29.7035 89.9637 28.809C88.4469 27.8755 86.6759 27.2273 84.9642 26.7476C83.2187 26.2593 81.3375 26.0648 79.5369 26.013C79.4309 26.0043 79.3165 26 79.1979 26C77.4269 26 75.6009 26.3673 73.94 26.955C72.9317 27.3051 71.9657 27.7156 71.0039 28.1607C69.8176 28.7096 68.8135 29.5739 67.8051 30.3949C67.1823 30.9005 66.6739 31.5401 66.1697 32.1667C65.4664 33.0397 64.8012 33.9645 64.1742 34.9065C63.7208 35.5807 63.2929 36.2721 62.8819 36.9765C62.149 38.2427 61.7041 39.7336 61.3186 41.1424C60.8059 43.0266 60.5475 44.9799 60.361 46.9202C59.7128 53.8432 59.9585 60.8353 59.9501 67.7842C59.9416 71.1291 59.9162 74.4868 59.8738 77.8403C59.8484 79.4392 59.8314 81.0425 59.8738 82.6414C59.8865 83.3242 59.8908 84.0113 59.9119 84.6941C59.7298 84.6898 59.5433 84.6941 59.3612 84.6898C58.2596 84.6725 57.158 84.6552 56.0564 84.6552C55.0354 84.6552 54.0185 84.6682 53.0017 84.7071C52.2433 84.7374 51.5697 85.0399 50.985 85.4547C50.3833 85.6405 49.8114 85.9258 49.3623 86.3838C48.5912 87.1703 48.32 88.0951 48.231 89.1755C48.1378 90.2775 48.0531 91.3751 48.0107 92.4857C47.9684 93.7174 48.0531 94.8669 48.2353 96.0898C48.6801 99.1494 51.1078 101.189 53.8872 101.993C53.7982 104.996 53.8745 108.026 54.2388 111.012C54.4592 112.81 54.7007 114.616 54.993 116.414C55.2599 118.03 55.4887 119.642 55.9844 121.206C56.5649 123.056 57.552 124.62 58.696 126.146C59.8865 127.727 61.1279 129.279 62.6913 130.51C63.1277 130.852 63.5895 131.163 64.0386 131.483C63.3861 132.948 62.7337 134.417 62.1575 135.908C61.738 136.988 61.594 138.142 61.4626 139.287C61.3948 139.819 61.505 140.605 61.6236 141.085C61.7592 141.66 61.9498 142.239 62.221 142.753C62.9074 144.062 64.0174 145.005 65.2503 145.748C66.9451 146.768 68.9067 147.014 70.8302 146.841C72.0546 146.729 73.1816 146.508 74.2959 145.96C75.7068 145.268 76.8295 144.3 77.7447 143.008C78.9691 141.297 79.4987 139.123 80.2783 137.17C80.3249 137.049 80.2825 136.897 80.308 136.763C81.1468 136.789 81.9815 136.807 82.8034 136.828C86.1929 136.915 89.5823 137.001 92.9718 137.096C99.5897 137.282 106.195 137.671 112.817 137.628C116.198 137.602 119.571 137.559 122.943 137.541C125.714 137.528 128.489 137.209 131.247 136.893C131.298 137.852 131.383 138.803 131.616 139.732C131.883 140.813 132.446 141.863 133.027 142.805C133.497 143.565 134.086 144.261 134.764 144.832C136.861 146.595 139.479 147.286 142.165 146.893C143.987 146.629 145.597 145.644 146.974 144.438C147.855 143.669 148.444 142.632 148.881 141.556C149.165 140.856 149.41 140.186 149.444 139.4C149.546 137.507 148.898 135.847 147.932 134.274C147.453 133.496 146.966 132.736 146.538 131.932C146.483 131.828 146.368 131.789 146.305 131.694C146.703 131.349 147.114 131.02 147.491 130.649C148.254 129.888 148.902 128.963 149.521 128.082C149.974 127.451 150.402 126.764 150.745 126.072C151.719 124.145 152.516 122.153 153.084 120.074C153.681 117.918 153.923 115.623 154.151 113.406C154.452 110.428 154.681 107.412 154.579 104.409C155.448 104.059 156.304 103.687 157.104 103.199C157.833 102.771 158.782 101.915 159.176 101.146C159.621 100.256 159.824 99.5643 159.93 98.579C159.981 98.0993 159.998 97.6283 159.998 97.14C160.015 94.9058 159.913 92.6889 159.727 90.4633ZM152.63 97.8314C152.66 97.7925 152.69 97.7536 152.715 97.7147V97.732C152.69 97.7666 152.66 97.8011 152.63 97.8314ZM152.995 97.2826C153.029 97.2005 153.063 97.1184 153.096 97.0362C153.071 97.1184 153.037 97.1961 153.003 97.2739L152.995 97.2826ZM98.1873 39.7898C98.217 39.7941 98.2466 39.7941 98.2763 39.7984C98.2466 39.7984 98.217 39.7941 98.1873 39.7898C98.2509 39.7941 98.3144 39.8028 98.3737 39.8114C98.4119 39.8157 98.45 39.82 98.4881 39.8244C98.45 39.82 98.4161 39.8157 98.378 39.8114C98.5432 39.8373 98.7042 39.8589 98.8694 39.8849C98.4288 40.5288 97.9967 41.1727 97.573 41.8295C96.2935 43.7915 95.0944 45.788 93.7132 47.6808C93.3912 48.0784 93.0565 48.463 92.6964 48.8303C92.599 48.692 92.4973 48.5537 92.3998 48.4154C92.6244 48.0654 92.8489 47.7154 93.0523 47.3567C93.5734 46.4405 94.103 45.533 94.6792 44.6601C95.785 42.9877 96.9883 41.3931 98.1873 39.7898ZM66.479 57.1707C66.5214 53.7741 66.6315 50.3947 67.0001 47.0153C67.1399 46.0775 67.2925 45.1527 67.5043 44.2236C67.7246 43.2426 68.0678 42.2746 68.4279 41.3282C68.9279 40.2652 69.5803 39.3144 70.2667 38.3724C71.0082 37.4173 71.775 36.5055 72.6605 35.6714C73.224 35.2652 73.8002 34.9065 74.423 34.5868C75.6136 34.1287 76.8211 33.7786 78.0667 33.5453C79.1979 33.4588 80.3122 33.4718 81.4477 33.5928C82.956 33.8478 84.3838 34.2497 85.8073 34.8115C86.6378 35.2047 87.4004 35.6542 88.1461 36.1987C88.9765 36.808 89.7815 37.413 90.6627 37.9359C90.7178 37.9705 90.7814 37.9661 90.8407 37.9964C90.2941 38.8002 89.7772 39.6213 89.2561 40.4467C87.0869 39.1545 84.6761 38.3162 82.1976 38.3162C81.3206 38.3162 80.4393 38.4156 79.558 38.636C78.7573 38.8434 77.9438 39.2064 77.2236 39.6083C76.2237 40.1701 75.4526 41.0949 74.8001 42.0283C73.8341 43.3896 73.2706 45.0836 72.7749 46.6652C71.7581 49.9193 71.7157 53.4154 71.6183 56.7991C71.525 59.9494 71.6098 63.0911 71.6267 66.2372C71.6437 69.6079 71.9106 72.9657 71.9699 76.3364C72.0292 79.1583 72.0123 81.9846 72.0631 84.8108C70.2709 84.7935 68.4703 84.7762 66.6781 84.7546C66.5892 82.447 66.5595 80.1393 66.5298 77.8403C66.479 74.3831 66.4536 70.926 66.4536 67.4688C66.4451 64.0375 66.4451 60.6063 66.479 57.1707ZM55.6878 95.1996C55.7344 95.2601 55.781 95.3249 55.8319 95.3854C55.781 95.3293 55.7344 95.2688 55.6921 95.2039L55.6878 95.1996ZM55.5268 94.923C55.5014 94.8669 55.476 94.8107 55.4548 94.7545C55.4802 94.8064 55.5014 94.8669 55.5268 94.923ZM68.483 139.361H68.4915C68.4873 139.365 68.483 139.361 68.483 139.361ZM68.5847 139.413V139.413C68.6864 139.456 68.7881 139.495 68.8897 139.538C68.7838 139.499 68.6821 139.46 68.5847 139.413ZM72.5885 137.814C72.3936 138.22 72.1818 138.613 71.936 138.989C71.9021 139.028 71.8682 139.062 71.8301 139.101C71.5844 139.261 71.3344 139.408 71.0759 139.546C70.9785 139.577 70.8811 139.603 70.7794 139.629C70.2455 139.672 69.7202 139.676 69.1906 139.646C69.1609 139.637 69.127 139.629 69.0974 139.62C68.9236 139.525 68.7542 139.43 68.5889 139.322C68.6949 138.812 68.8347 138.315 69.0084 137.827C69.449 136.867 69.8981 135.916 70.3472 134.961C71.0548 135.247 71.7665 135.519 72.491 135.744C72.7452 135.821 73.0122 135.86 73.2706 135.925C73.0418 136.547 72.8215 137.183 72.5885 137.814ZM143.195 139.11C143.136 139.231 143.072 139.343 143.004 139.46C142.86 139.611 142.712 139.754 142.559 139.892C142.428 139.979 142.293 140.056 142.157 140.126C141.86 140.234 141.568 140.329 141.267 140.398C141.072 140.402 140.877 140.394 140.687 140.381C140.403 140.311 140.136 140.229 139.865 140.134C139.712 140.052 139.56 139.961 139.412 139.866C139.272 139.737 139.136 139.603 139.009 139.464C138.818 139.166 138.649 138.859 138.492 138.54C138.407 138.28 138.335 138.025 138.28 137.757C138.251 137.247 138.246 136.738 138.238 136.223C138.234 136.068 138.166 135.929 138.145 135.778C139.081 135.54 139.996 135.242 140.886 134.879C140.937 134.987 140.937 135.134 141.005 135.225C141.788 136.258 142.598 137.321 143.187 138.488C143.22 138.604 143.254 138.721 143.284 138.842C143.254 138.933 143.225 139.024 143.195 139.11ZM145.724 121.453C145.83 121.198 145.936 120.938 146.042 120.683C146.038 120.692 146.038 120.701 146.034 120.709C145.932 120.956 145.826 121.202 145.724 121.453ZM147.606 109.205C147.572 111.297 147.525 113.406 147.309 115.48C147.05 117.239 146.695 119.011 146.046 120.67C145.394 122.174 144.657 123.574 143.733 124.914C143.089 125.696 142.39 126.401 141.627 127.066C140.687 127.74 139.695 128.289 138.649 128.773C136.895 129.421 135.111 129.802 133.281 130.082C130.26 130.458 127.222 130.774 124.184 130.99C120.897 131.228 117.575 131.189 114.274 131.215C107.64 131.267 100.992 131.085 94.3657 130.821C91.3533 130.709 88.341 130.575 85.3371 130.471C82.6424 130.376 79.9394 130.221 77.2659 129.905C75.6771 129.624 74.1688 129.201 72.6605 128.622C70.8429 127.775 69.1143 126.738 67.4789 125.562C66.407 124.62 65.4706 123.583 64.5767 122.459C63.9581 121.595 63.3734 120.714 62.9116 119.754C62.3481 118.116 62.1447 116.401 61.8905 114.681C61.6702 113.116 61.4075 111.556 61.183 109.988C60.8822 107.226 60.9415 104.482 61.0516 101.703C61.1152 100.381 60.3144 99.2445 59.2341 98.6049C59.0603 97.2783 58.1282 96.1028 56.7979 95.7225C56.6411 95.6793 56.4886 95.6318 56.3403 95.5799C56.2047 95.5064 56.0692 95.4287 55.942 95.3466C55.8446 95.2515 55.7514 95.1564 55.6582 95.0613V95.057C55.5862 94.0199 55.6328 92.987 55.7175 91.9499C58.3104 91.8418 60.8949 91.7208 63.4963 91.7468C65.2757 91.7727 67.0552 91.7641 68.8347 91.7641C70.3853 91.7641 71.9403 91.7641 73.4994 91.7727C76.9227 91.7986 80.3461 91.9456 83.7694 92.0536C87.3114 92.1746 90.8661 92.2092 94.4165 92.1832C101.547 92.1487 108.673 92.0882 115.796 92.3302C119.21 92.4425 122.634 92.5765 126.049 92.6456C129.531 92.7148 133.014 92.6975 136.497 92.7061C139.725 92.7234 142.966 92.7494 146.195 92.7234C148.313 92.7105 150.436 92.6543 152.554 92.65C152.685 94.2532 152.787 95.8522 152.732 97.4554C152.444 97.6326 152.152 97.7968 151.842 97.9481C151.58 98.0518 151.313 98.1555 151.05 98.2635C150.177 98.6136 149.482 99.0241 148.987 99.8841C148.843 100.135 148.792 100.424 148.711 100.705C147.923 101.375 147.377 102.326 147.457 103.402C147.605 105.329 147.639 107.261 147.606 109.205ZM98.378 39.8114C98.3441 39.8071 98.3102 39.8028 98.2763 39.7984C98.3059 39.8028 98.3398 39.8071 98.378 39.8114ZM104.043 66.4662C103.255 66.9372 102.297 67.0626 101.416 66.8162C100.636 66.5915 99.7295 65.9952 99.3779 65.2173C99.0093 64.3876 98.7169 63.5319 98.378 62.6849C98.0856 61.9503 97.7509 61.2113 97.573 60.4334C97.1874 58.7048 98.0687 56.9158 99.7973 56.4274C100.073 56.3497 100.357 56.3108 100.64 56.3108C101.208 56.3108 101.767 56.462 102.255 56.7602C103.026 57.2139 103.42 57.8838 103.725 58.7005C103.759 58.7913 103.788 58.8863 103.822 58.9771C103.894 59.1845 103.975 59.392 104.055 59.5951C104.288 60.1266 104.534 60.6322 104.835 61.1205C105.589 62.041 105.936 63.1776 105.614 64.3833C105.377 65.2605 104.809 66.0124 104.043 66.4662ZM102.852 73.4713C102.534 72.5897 102.767 71.4272 103.221 70.6364C103.691 69.8153 104.471 69.206 105.369 68.951C105.682 68.8603 106.004 68.8171 106.326 68.8171C106.962 68.8171 107.597 68.9899 108.148 69.3184C109.004 69.8326 109.466 70.5846 109.8 71.518C110.22 72.6978 110.631 73.8905 111.042 75.0789C111.682 76.9458 110.33 79.0417 108.568 79.53C107.652 79.7936 106.657 79.6596 105.831 79.1713C104.958 78.6484 104.564 77.9224 104.204 77.0063C103.733 75.8351 103.288 74.6554 102.852 73.4713ZM107.131 44.1761C107.796 43.4976 108.703 43.1476 109.606 43.1476C110.495 43.1476 111.385 43.4846 112.042 44.1761C112.732 44.8891 113.393 45.667 114.126 46.3368C114.16 46.3584 114.194 46.38 114.232 46.3973C115.8 47.4431 116.448 49.4872 115.465 51.1985C115.012 51.985 114.266 52.5684 113.41 52.806C112.597 53.0394 111.474 52.9789 110.758 52.456C109.449 51.4794 108.275 50.3428 107.131 49.176C105.792 47.8191 105.797 45.5373 107.131 44.1761ZM120.198 57.4819C120.854 56.3367 122.142 55.628 123.426 55.628C124.04 55.628 124.655 55.7922 125.201 56.1509C126.04 56.6997 126.879 57.2658 127.701 57.8276C128.497 58.3851 129.103 59.0592 129.362 60.0272C129.612 60.9779 129.48 62.0108 128.993 62.8578C128.01 64.5691 125.748 65.213 124.07 64.1758C123.214 63.6529 122.358 63.1214 121.519 62.5855C119.829 61.5052 119.172 59.271 120.198 57.4819ZM131.645 72.3736C130.184 71.0729 130.345 68.5751 131.645 67.257C132.34 66.544 133.2 66.2156 134.069 66.2156C134.988 66.2156 135.916 66.5829 136.662 67.257C137.505 68.0176 138.335 68.8041 139.204 69.5517C139.229 69.569 139.255 69.5863 139.28 69.6036C140.06 70.1611 140.649 70.8006 140.907 71.76C141.157 72.6934 141.034 73.7133 140.555 74.5517C140.085 75.3555 139.323 75.9561 138.441 76.2025C137.611 76.4401 136.429 76.3926 135.713 75.8438C134.298 74.7634 132.98 73.5577 131.645 72.3736ZM114.66 59.7247C115.355 60.6538 116.05 61.5829 116.753 62.5121C117.007 62.8405 117.261 63.1646 117.528 63.4844C118.168 64.2363 118.571 65.0228 118.571 66.0427C118.571 67.0021 118.194 67.9269 117.528 68.601C116.867 69.2752 115.961 69.6598 115.02 69.6598C114.156 69.6598 113.084 69.3011 112.512 68.601C111.321 67.1447 110.173 65.6581 109.021 64.1585C108.576 63.7048 108.267 63.1646 108.097 62.5466C107.928 61.8984 107.928 61.2459 108.097 60.5976C108.347 59.6815 108.945 58.895 109.75 58.4153C110.305 58.0826 110.94 57.914 111.576 57.914C111.889 57.914 112.203 57.9572 112.508 58.0393C113.499 58.3202 114.063 58.9296 114.66 59.7247ZM118.117 73.3503C118.367 72.4341 118.965 71.639 119.77 71.1507C120.32 70.8222 120.956 70.6537 121.591 70.6537C121.913 70.6537 122.235 70.6969 122.549 70.7833C123.532 71.0642 124.1 71.6736 124.697 72.4687C125.116 73.0435 125.532 73.6182 125.955 74.193C126.032 74.2881 126.108 74.3831 126.184 74.4739C126.815 75.2345 127.226 76.0166 127.226 77.0408C127.226 77.9915 126.849 78.925 126.184 79.5991C124.875 80.9345 122.452 81.0728 121.168 79.5991C120.219 78.5058 119.354 77.3304 118.482 76.1765C117.927 75.4376 117.893 74.1973 118.117 73.3503ZM142.606 107.706C142.716 110.874 142.564 114.123 141.623 117.17C140.979 119.249 139.954 121.319 138.412 122.861C137.136 124.128 135.611 125.173 134.141 126.197C132.573 127.282 130.298 126.504 129.391 124.931C128.502 123.367 128.93 120.925 130.633 120.087C131.294 119.767 131.891 119.383 132.48 118.963C132.938 118.583 133.366 118.185 133.755 117.736C134.039 117.308 134.298 116.872 134.518 116.414C134.963 115.13 135.242 113.804 135.446 112.455C135.598 110.874 135.501 109.283 135.429 107.706C135.336 105.701 137.124 104.041 139.022 104.041C141.03 104.041 142.538 105.709 142.606 107.706Z" fill="#0081C7"/>
</svg>
