<svg width="241" height="157" viewBox="0 0 241 157" fill="none" xmlns="http://www.w3.org/2000/svg">
<g clip-path="url(#clip0_286_2223)">
<path d="M181.058 113.37V113.36L181.025 112.823L181.328 110.911L180.521 109.504L179.98 108.1L180.345 106.585L180.752 105.517L180.625 104.618V103.413L181.142 102.517L182.421 101.774L182.659 100.146L181.92 98.7061L180.758 97.9635L179.56 97.9439L178.431 97.5466L178.011 96.6638L177.696 95.7323L174.21 93.1461L174.177 92.0842L173.354 91.6022L171.844 89.7228L171.515 89.2407L171.44 88.573L171.164 87.8825L170.659 87.4232L170.194 86.0943L169.885 84.6383L168.42 81.7589L166.165 81.4104L164.889 82.0716L163.561 82.4723L162.627 81.9804L161.69 81.3681L160.472 80.9707L159.939 79.6124L160.902 78.733L162.106 78.2835L162.988 77.492L162.793 76.1826L162.956 75.212L163.528 74.4465L163.083 73.0948L162.529 71.6877L162.891 70.4858L162.76 69.4467L165.563 68.7399L165.956 69.5282L165.924 70.6975L167.271 71.2805L168.775 71.0004L170.067 70.2545L170.894 68.6618L171.554 68.2285L172.319 68.2709L174.503 68.0885L175.72 68.9093L176.98 68.6487L178.503 68.5836L180.127 69.1829L181.988 68.678L183.798 67.8735L186.017 67.3817L188.315 66.043L190.177 66.6586L191.687 68.1504L192.888 70.0917L193.711 70.3848L194.61 70.4858L196.367 71.5444L198.268 71.9678L201.652 71.1112L203.091 70.1959L204.132 70.5216L205.118 71.1242L206.046 71.9971L206.873 73.059L207.872 73.7886L208.946 74.3488L210.069 74.7885L211.211 74.5508L212.031 73.8081L212.959 73.4368L213.232 73.4075L213.216 74.2706L213.525 75.4041L213.737 76.7885V79.2932L213.642 80.2769L213.548 80.6417L211.579 80.7557L209.512 80.3974L207.813 80.3518L207.41 80.4333L207.136 80.7492L206.882 81.4788L206.759 82.0456L206.804 82.5276L207.081 82.9217L207.673 83.2312L206.642 83.4103L204.966 84.1399L204.1 84.3028L203.397 84.9086L203.472 86.2832L203.898 87.7457L204.233 88.6186L203.612 88.3222L200.025 88.2277L198.896 88.8792L198.398 89.954L198.124 91.2439L197.688 92.5435L196.998 92.195L196.637 92.6868L196.657 93.4653L197.129 93.9669L196.992 94.3284L196.956 94.5988L197.132 95.3968L197.239 95.0059L197.295 94.9375L197.275 94.931L197.132 94.7128L197.402 93.6412L198.606 94.9213L199 95.0352L199.469 94.589L199.778 93.9832L200.162 93.7356L200.839 94.3545L201.187 93.8171L201.516 93.8822L201.828 94.1819L202.128 94.3545L202.668 94.1982L203.045 93.9506L203.426 93.8073L203.963 93.9636L203.944 94.2307L203.905 94.2828L203.83 94.2698L203.7 94.3512L203.927 95.2535L204.305 95.8984L204.904 96.0254L205.825 95.3903L205.896 95.8821L206.108 96.1427L206.446 96.2013L206.876 96.1004V96.4912L206.655 96.5564L206.069 96.8462L206.355 97.3544L206.518 97.4847L206.879 97.5596L206.511 98.0775L206.466 98.7908L206.697 99.5171L207.14 100.051L207.699 100.292L208.152 100.234L208.627 100.081L209.242 100.048V100.374L209.017 100.66L209.011 100.947L209.193 101.227L209.528 101.504L208.572 102.305L208.116 103.273L208.298 104.237L209.245 105.025L209.076 105.165L209.06 105.217L208.985 105.413L210.371 106.321L210.583 106.657L210.765 107.038L211.205 107.54L211.725 108.002L212.161 108.253L212.083 108.429L211.976 108.836L211.898 108.996L213.04 109.66L213.333 110.018L213.997 111.448L216.067 112.774L216.321 113.276L216.64 113.754L217.177 113.924L217.017 114.494L217.206 114.979L217.577 115.38L217.964 115.696L217.987 115.956L217.932 116.025H217.828L217.701 116.08L218.14 116.549L218.43 117.22L218.478 117.94L218.228 118.559L218.342 119.083L216.965 118.774L216.386 118.585L214.505 118.803L213.981 118.64L212.962 118.139L212.012 117.894L211.657 117.878L210.925 117.995L210.768 117.933L210.615 117.911L210.459 117.933L210.31 117.995L210.192 118.516V119.217L210.108 119.728L210.707 120.099L210.593 120.412L210.111 120.604L209.61 120.624L209.086 120.445L207.078 119.334L205.659 119.282L202.665 120.064L202.57 120.581L202.437 120.835H202.235L201.945 120.614L201.63 121.028L201.239 121.288L200.412 121.578L200.464 121.702L200.572 121.78L200.689 121.845L200.793 121.917L200.67 122.031L200.432 122.155L200.341 122.269L200.875 122.5L200.246 122.774L199.739 122.415L198.827 121.116L198.245 120.614L195.417 119.015L194.492 118.207L193.646 117.204L192.016 114.676L190.971 113.631L189.741 112.894L188.387 112.575L187.547 112.696L187.062 113.083L186.206 114.236L186.105 114.445L186.073 114.627L185.907 114.696L184.973 114.448L184.11 114.409L183.681 114.448L183.088 113.966L182.437 113.585L181.738 113.363L181.064 113.35L181.058 113.37Z" fill="#0E4B9A" stroke="white" stroke-width="0.5" stroke-linecap="round" stroke-linejoin="round"/>
<path d="M181.058 113.369H181.005L180.084 113.838L179.228 115.45L178.486 115.965L177.953 116.193L177.608 116.724L177.292 117.349L176.862 117.864L176.527 117.952L175.805 117.835L175.404 118.007L174.991 118.424L174.636 118.418L174.275 118.281L173.855 118.294L173.442 118.555L172.976 118.952L172.583 119.284L172.264 119.447L171.841 119.333L171.128 118.708L170.767 118.528L170.304 118.665L169.475 119.509L169.081 119.796L168.342 119.88L164.726 119.274L164.039 119.359L163.415 119.809L162.305 121.004L162.022 121.216L161.784 121.457L161.625 121.795L161.693 121.997L162.158 122.291L162.272 122.466L162.24 122.756L162.077 123.212L162.035 123.483L162.009 123.795L161.986 123.808L161.156 124.281L160.186 123.786L159.216 123.163L158.435 122.248L158.494 120.294L157.56 119.004L156.238 118.708L155.415 119.812L154.845 120.737L154.504 119.923L154.214 118.31L153.049 117.428L149.524 116.965L146.227 115.297L146.247 113.848L145.72 112.451L145.739 109.519L147.135 108.307L147.692 106.392L147.418 103.865L149.391 99.0798L148.684 98.5651L147.484 98.5065L147.22 96.588L148.619 96.4773L149.745 95.6956L149.355 94.08L150.172 93.5784L152.121 94.295L153.911 93.6956L154.712 91.6306L155.36 91.0117L156.092 90.6339L155.682 89.9368L155.288 89.09L156.303 88.3701L157.41 88.0965L159.63 88.305L161.856 87.5982L162.441 86.8327L163.04 86.266L163.59 85.8947L163.961 85.3898L164.99 85.5787L165.494 85.2823L165.888 84.6862L166.279 83.1326L166.168 81.4062L168.423 81.7548L169.888 84.6341L170.197 86.0901L170.662 87.419L171.167 87.8783L171.444 88.5688L171.518 89.2365L171.847 89.7186L173.357 91.598L174.181 92.0801L174.213 93.1419L177.699 95.7281L178.015 96.6597L178.434 97.5424L179.564 97.9398L180.761 97.9593L181.923 98.702L182.662 100.142L182.424 101.77L181.145 102.513L180.628 103.409V104.614L180.755 105.513L180.348 106.581L179.984 108.096L180.524 109.5L181.331 110.907L181.028 112.819L181.061 113.356V113.366L181.058 113.369Z" fill="#0E4B9A" stroke="white" stroke-width="0.5" stroke-linecap="round" stroke-linejoin="round"/>
<path d="M162.005 123.795L161.973 124.167L161.81 125.105L161.491 126.049L160.974 126.759L159.135 127.326L155.177 127.153L153.586 128.554L153.042 129.798L152.899 130.919L153.166 131.955L153.557 132.505L152.076 132.645L151.269 132.411L150.771 131.99L149.749 130.815L149.43 130.616L148.876 130.574L148.034 131.388L145.925 131.453L144.893 131.736L143.858 132.583L143.572 132.707L143.308 132.723L143.051 132.805L142.787 133.104L142.572 133.746L142.55 134.492L142.657 135.222L142.839 135.824L143.012 136.081L142.992 136.072L142.738 135.935L141.098 136.495L140.675 137.355L139.972 137.339L139.344 137.687L139.061 138.749L137.521 140.257L135.835 139.462L134.084 137.577L133.827 136.567L133.684 135.511L132.34 135.007L130.983 135.674L130.517 136.687L129.743 137.251L129.063 137.134L128.415 136.769L127.579 137.143L126.83 137.287L125.541 136.599L125.763 135.179L126.635 133.13L125.626 131.065L125.216 130.43L124.78 130.01L124.064 130.004L123.406 129.574L122.694 128.701L121.851 128.74L121.177 129.492L120.354 129.564L119.524 128.837L117.952 128.127L117.587 127.401L117.639 126.391L117.216 125.603L116.481 125.636L115.823 126.027L114.948 127.108L113.779 127.515L111.748 127.137L110.349 123.961L110.801 122.655L112.77 121.336L114.072 119.118L114.183 118.297L113.747 117.831L113.565 117.372L113.783 116.789L113.483 114.926L113.102 113.154L113.167 110.757L113.529 110.747L114.108 110.854L114.918 111.21L116.285 111.809L117.122 111.753L117.558 111.802L117.861 112.001L118.287 112.398L118.729 112.496L119.156 112.48L119.55 112.545L119.921 110.698L120.477 109.024L121.743 108.516L123.039 108.982L124.9 107.659L126.212 108.311L126.267 109.213L126.195 110.115L125.619 110.92L126.583 111.2L127.78 110.62L128.854 111.525L130.446 113.18L131.357 114.473L133.163 113.604L134.761 112.034L135.188 111.415L135.722 111.06L136.047 111.271L138.791 112.056L140.808 114.281L141.801 115.737L142.917 116.646L144.532 115.802L146.217 115.291L149.514 116.958L153.039 117.421L154.204 118.304L154.494 119.916L154.836 120.73L155.405 119.805L156.229 118.701L157.55 118.997L158.484 120.287L158.425 122.242L159.206 123.157L160.176 123.779L161.146 124.274L161.976 123.802L161.999 123.789L162.005 123.795Z" fill="#0E4B9A" stroke="white" stroke-width="0.5" stroke-linecap="round" stroke-linejoin="round"/>
<path d="M13.4185 0.0810547L21.6851 5.74857L23.0781 6.36092L24.829 6.5987L25.6069 6.95048L26.4791 7.3446L26.8273 8.99274L26.1699 10.6376L24.8258 11.3835L23.9861 11.4975L22.4532 12.0024L21.6591 12.1196L20.891 12.6245L20.4614 13.8264L19.5306 17.8393L19.5501 19.0477L20.0285 20.0607L21.0017 20.9108L22.1863 21.1942L27.3025 20.7349L27.1332 22.6436L26.8273 23.8977L25.877 24.1647L24.9299 24.0898L24.3246 24.8455L24.8941 25.5784L25.6687 25.7705L26.414 26.0865L26.6646 27.1711L27.0844 28.2623L26.6646 29.0147L24.803 29.715L23.4588 31.8257L22.8991 34.6822L23.3189 35.4737L24.1618 35.6626L24.3929 36.6724L24.074 37.5648L21.9097 38.2391L19.6868 38.4964L18.2613 39.0338L17.4867 39.4736L17.5063 40.594L16.4876 43.3789L14.6715 45.0303L14.4795 44.8903L13.8481 44.6069L13.4739 44.5646L12.7416 44.6036L12.3771 44.4668L12.1558 44.2258L12.0646 44.1248L11.635 43.2193L11.3454 42.8969L10.9874 42.7959L10.1575 42.8415L9.74739 42.747L9.38288 42.4669L8.84262 41.7406L8.57575 41.4637L7.29996 40.8546L6.77272 40.3563L6.40821 39.3433L5.68896 36.8189L5.2203 35.845L5.18775 35.5845L5.22681 35.3174L5.33421 35.0568L5.38303 34.92L5.3993 34.7832L5.38303 34.6529L5.33421 34.5259L5.20728 34.3435L5.16823 34.1448L5.20728 33.9526L5.33421 33.7604L5.34723 33.7376L5.35699 33.7116L5.34723 33.6855L5.33421 33.6497L5.0413 32.9917L5.0055 31.7703L4.75164 31.07L4.35459 30.6824L3.222 30.0538L2.74033 29.6043L2.38884 29.044L2.08291 28.3926L1.83556 27.6988L1.66307 27.005L1.65331 26.562L1.79651 25.6728L1.75745 25.2592L0.758302 24.0573L0.253845 22.6111L0.455628 21.4482L0.947066 20.217L1.31158 18.5721L1.38643 16.9696L1.50034 16.6993L1.88112 15.9892L1.98202 15.7514L2.06989 14.9176L2.08942 13.3671L2.17729 12.7027L2.64595 11.9763L3.51166 11.6017L4.72561 11.4063L5.32445 11.3086L6.18039 11.2825L6.61325 10.7256L6.90616 9.95361L7.35204 9.28588L8.13964 9.00251L8.9305 9.05788L9.61395 8.92108L10.0663 8.09375V7.62146L9.81248 6.48796L9.77343 5.96355L9.84828 5.35771L10.2453 3.7682H10.19L10.1152 3.59557L10.0728 3.30893L10.1249 2.98321L10.216 2.91481L10.8409 2.18846L11.4267 1.22433L11.7652 0.866038L13.4153 0.0908263L13.4185 0.0810547Z" fill="#0E4B9A" stroke="white" stroke-width="0.5" stroke-linecap="round" stroke-linejoin="round"/>
<path d="M7.76861 72.1786L7.96713 71.8822L8.49112 71.5174L9.54234 71.3806L12.4422 72.1656L13.6105 71.8789L14.7789 71.3806L15.2313 70.8301L15.2606 70.752L15.4656 70.9637L16.3086 71.7193L16.9692 72.7551L17.1775 73.4001L17.5258 73.8919L17.8968 73.8528L18.1702 74.1166L18.8146 73.9798L19.3223 73.0548L19.8951 73.374L19.6575 75.0221L20.4093 75.5498L21.3727 74.9896L22.118 75.8951L22.7754 77.2012L23.9372 77.1947L24.3473 77.8982L25.0763 78.0578L26.2447 77.9047L26.9965 79.1132L27.5758 80.6734L28.5913 81.3541L29.4928 82.2694L30.1665 82.8231L30.9671 83.227L31.3739 84.1032L31.644 85.0934L31.8198 86.9272L33.0175 87.3962L35.2957 89.1421L36.0084 89.9694L34.7163 91.9367L33.8539 94.2721L34.2477 96.5489L33.7465 97.3209L33.5903 98.2752L32.5195 98.4088L31.4943 97.8485L30.3422 97.6596L29.2487 96.7085L28.7638 98.1254L28.1031 98.2068L27.3741 97.7443L25.2944 97.044L24.4352 97.2688L22.1082 97.4609L20.5753 98.7475L19.5208 98.9527L18.6095 98.399L17.9684 97.2851L17.1124 96.4349L16.2532 95.8975L15.6511 94.904L14.8603 93.9236L14.2484 93.0181L14.3689 91.3537L13.6952 90.3342L12.5528 90.6599L11.9149 89.8977L11.7522 88.8163L11.0817 88.1063L10.3625 86.8425L9.85478 85.3605L8.68314 84.7351L7.21859 84.8751L5.3342 84.5853L3.79154 84.709L3.91521 84.1651L4.09421 82.872L3.82083 82.1521L4.82323 80.2336L5.33745 79.7418L5.37976 79.5855L5.39278 79.4226L5.37976 79.263L5.33745 79.1067L4.76465 78.6506L4.24718 77.8591L3.33264 75.628L3.19595 75.4325L3.25454 75.2339L3.3717 75.0514L3.61579 74.6736L3.95101 74.3642L4.93063 73.843L5.33745 73.4945L5.93955 72.5662L6.28453 72.2665L6.81177 72.2535L7.49522 72.361L7.7621 72.2014L7.77512 72.1851L7.76861 72.1786Z" fill="#0E4B9A" stroke="white" stroke-width="0.5" stroke-linecap="round" stroke-linejoin="round"/>
<path d="M15.2639 70.7527L15.4917 70.1631L16.1719 67.6062L16.4095 66.9418L16.6796 66.4988L17.1287 66.2284L18.1962 65.9744L18.6974 65.7757H18.7039V65.7659L19.2117 65.0363L20.8259 63.5022L21.0277 63.095L21.3076 62.1276L21.4996 61.7563L21.8251 61.4632L22.476 61.1537L22.7884 60.9225L23.5728 59.7238L24.2823 57.9877L24.6891 56.2223L24.624 55.5514L26.3945 55.1475L29.1706 58.4796L30.1795 59.2515L33.7595 59.5675L35.0841 58.9454L36.2883 58.6196L37.5218 59.0594L39.2402 58.3786L40.6332 56.8347L41.8829 56.8868L43.0643 57.5024L43.3637 58.2125L42.5468 58.2223L42.0066 58.6717L42.0294 59.7206L42.6087 60.2873L43.2563 60.7336L44.275 61.7074L45.1733 62.88L45.7526 64.0559L46.5434 64.9418L48.047 64.0168L49.6906 62.6292L50.2992 63.2058L50.885 63.9321L51.9004 63.9842L52.8638 63.5999L53.7002 62.538L54.7612 61.8475L56.2062 62.4696L60.0075 63.1699L60.6324 63.4924L61.2898 63.9647L62.1913 63.3458L62.9008 62.2709L64.0074 62.2547L64.7039 63.0234L64.9968 63.8051L65.537 64.3523L65.7779 65.4402L65.485 66.5476L66.2921 67.5118L67.2522 68.4629L68.7428 68.8081L69.5955 70.2315L69.6931 71.935L69.6215 73.6418L69.1008 75.7557L69.8688 76.9479L74.7409 77.0097L75.6717 77.5276L76.5635 78.1563L77.7872 78.4331L79.0337 78.3061L77.631 80.7946L78.1289 83.1919L79.792 84.0648L80.9799 85.7586L81.9693 86.4556L81.7903 87.6152L80.7716 88.3448L79.4763 88.4034L78.6594 88.1135L77.8393 88.2731L77.2502 88.2406L76.7978 87.5793L76.0623 87.3676L75.3821 87.0452L75.1673 86.1103L74.7344 85.3026L73.6767 84.9378L72.5799 84.8628L71.9127 85.1462L71.239 85.2765L69.8298 85.853L68.7558 87.3774L67.8673 87.8204L66.9007 87.8367L65.1042 88.8562L64.1441 88.6021L63.3044 87.8823L62.2792 87.5012L61.215 87.6021L60.0726 88.0125L59.8448 89.1884L60.2061 90.2958L60.7398 91.2535L61.3679 91.7551L61.8496 92.4814L63.3109 93.8006L65.2571 93.4781L65.8722 94.5139L65.2441 96.4454L63.7535 97.0838L62.2076 97.263L61.5209 99.6342L62.136 101.572L62.7446 102.077L62.7739 102.944L62.1588 103.735L61.3549 103.471L60.8537 102.944L60.4046 102.279L59.4803 102.556L59.1776 104.077L57.9246 105.937L56.1053 106.689L55.8482 107.168L55.9068 107.865L55.3307 108.266L54.6538 108.442L54.0387 108.406L53.6091 108.992L52.9159 109.334L52.1641 109.005L50.8492 109.227L49.8273 109.634L48.3888 109.832L47.6402 111.731L46.3612 113.301L44.2848 112.526L45.2676 111.774L45.6777 110.647L44.6558 110.161L43.5069 110.067L42.7584 108.738L41.7657 107.963L40.0636 108.425L38.3387 108.673L37.7854 107.5L39.0026 105.891L39.4713 104.96L40.2459 104.693L40.6592 104.048L40.0896 102.95L39.2532 102.634L38.6251 101.937L38.3419 101.426L37.8961 101.181L36.6008 98.2401L35.7904 98.4453L34.8954 98.4942L34.2672 98.1522L33.5903 98.2597L33.7465 97.3053L34.2477 96.5334L33.8539 94.2566L34.7164 91.9212L36.0084 89.9538L39.1556 91.6508L40.542 92.729L41.9187 93.071L42.8658 91.5727L43.5981 90.0516L45.1602 90.374L45.1765 91.0059L45.4271 91.9147L46.2017 93.3413L45.7656 95.0774L46.794 95.781L48.4181 95.5074L49.5181 95.9829L50.4717 94.996L50.0811 93.2501L48.8672 92.0938L46.8461 88.5076L45.2188 84.5404L44.633 83.3906L45.3458 80.1888L47.4384 75.5994L48.2325 74.1108L48.7012 72.7331L47.3343 73.6842L45.8958 73.5962L44.3791 72.2282L42.6184 72.6093L40.7015 73.4333L38.8269 72.9057L36.9132 71.6256L36.4283 71.0328L35.8164 70.795L34.8921 72.6451L34.8628 75.0391L32.9687 76.6026L33.4471 77.5602L33.3625 78.596L32.7864 79.3028L32.103 79.6676L31.1884 79.5341L30.378 78.9771L28.7703 79.1497L27.5726 80.6676L26.9933 79.1074L26.2415 77.899L25.0731 78.0521L24.3441 77.8924L23.934 77.1889L22.7721 77.1954L22.1147 75.8893L21.3694 74.9838L20.4061 75.544L19.6543 75.0163L19.8919 73.3682L19.3191 73.049L18.8113 73.974L18.1669 74.1108L17.8936 73.847L17.5225 73.8861L17.1743 73.3943L16.966 72.7493L16.3053 71.7135L15.4624 70.9579L15.2606 70.7429L15.2639 70.7527Z" fill="#0E4B9A" stroke="white" stroke-width="0.5" stroke-linecap="round" stroke-linejoin="round"/>
<path d="M24.6272 55.5513L24.5686 54.9357L23.9275 54.649L22.0333 54.2354L21.3499 53.8087L20.8129 53.268L19.7942 51.8739L18.8634 50.9391L18.6258 50.5808L18.5054 50.1639L18.385 49.1998L18.245 48.7796L17.7601 48.0663L15.0068 45.2846L14.6715 45.0436L16.4876 43.3922L17.5063 40.6073L17.4867 39.4868L18.2613 39.0471L19.6868 38.5097L21.9097 38.2523L24.074 37.5781L24.3929 36.6856L24.1618 35.6759L23.3189 35.487L22.8991 34.6955L23.4588 31.8389L24.803 29.7283L26.6646 29.028L27.0844 28.2755L26.6646 27.1844L26.414 26.0997L25.6687 25.7838L24.8941 25.5916L24.3246 24.8588L24.9299 24.1031L25.877 24.178L26.8273 23.9109L27.1332 22.6569L27.3025 20.7482L30.3553 20.4746L31.5139 19.973L32.8613 19.6831L34.3063 18.9046L37.7952 18.4062L43.9333 18.7255L48.0893 21.0315L49.1731 21.214L49.6515 22.9794L49.2349 27.6111L48.6263 29.5165L47.8615 31.2852L47.7606 31.9171L47.8192 32.5685L47.3701 33.2721L46.6899 33.7574L46.4848 34.5489L47.1358 35.1971L47.5458 35.4967L48.0145 35.6531L48.3139 36.171L48.724 36.5846L49.1959 36.8485L49.2447 37.4999L48.7175 37.982L48.0796 37.5683L47.1553 38.2882L46.2961 39.2979L45.5247 39.3533L44.7567 39.2979L43.8324 38.7181L42.2604 39.6366L41.0823 41.3402L41.1571 43.3792L40.8577 45.4442L39.9237 46.7666L39.1393 48.2389L38.189 49.4278L37.8635 50.8902L40.7405 51.9195L43.1099 53.2257L42.6184 54.4341L41.616 54.5318L40.5388 55.4243L40.6266 56.8476L39.2337 58.3916L37.5153 59.0723L36.2818 58.6326L35.0776 58.9583L33.753 59.5804L30.173 59.2645L29.1641 58.4925L26.3879 55.1604L24.6175 55.5611L24.6272 55.5513Z" fill="#0E4B9A" stroke="white" stroke-width="0.5" stroke-linecap="round" stroke-linejoin="round"/>
<path d="M0.081349 101.383L0.816879 100.989L2.41812 100.96L3.11785 100.735L3.67438 99.9954L4.28624 98.0802L4.87857 97.3017L5.46764 97.0183L5.94932 96.9108L6.38217 96.6112L6.79225 95.7773L7.31623 93.8654L7.44641 92.7807L7.29019 91.9957V91.9892L6.99728 91.2531L6.5091 90.6505L5.3277 89.7906L3.33591 87.921L3.16992 87.8461L3.30662 86.8038L3.78504 84.7029L5.3277 84.5791L7.21209 84.869L8.67664 84.7289L9.84828 85.3543L10.356 86.8363L11.0752 88.1001L11.7489 88.8102L11.9117 89.8916L12.5496 90.6538L13.6919 90.328L14.3656 91.3476L14.2452 93.012L14.857 93.9175L15.6479 94.8979L16.25 95.8913L17.1092 96.4288L17.9651 97.2789L18.6063 98.3929L19.5176 98.9466L20.572 98.7414L22.1049 97.4548L24.432 97.2626L25.2912 97.0379L27.3708 97.7382L28.0998 98.2007L28.7605 98.1193L29.2454 96.7024L30.339 97.6535L31.4911 97.8424L32.5163 98.4026L33.587 98.2691L34.264 98.1616L34.8921 98.5036L35.7871 98.4547L36.5975 98.2495L37.8928 101.191L38.3387 101.435L38.6218 101.946L39.25 102.643L40.0864 102.959L40.6559 104.057L40.2426 104.702L39.468 104.969L38.9994 105.901L37.7821 107.51L38.3354 108.682L40.0603 108.435L41.7625 107.972L42.7551 108.747L43.5037 110.076L44.6525 110.171L45.6744 110.656L45.2644 111.783L44.2815 112.536L42.3841 114.06L40.1873 114.441L35.3119 112.858L34.5764 112.992L33.8409 112.907L33.0045 112.917L31.0908 113.904L30.0038 114.682L28.8256 115.024L27.6214 115.145L26.619 114.461L25.4799 114.044L24.3669 114.128L23.7062 113.151L22.7266 113.21L21.6103 115.05L21.3173 116.092L20.4907 115.952L19.8333 116.64L19.3418 117.281L19.267 116.917L19.0554 116.656L18.6226 116.366L18.4045 116.35L17.8154 116.555L17.5453 116.561L17.2426 116.324L17.1125 115.972L17.0213 115.63L16.8488 115.421L16.455 115.379L14.7008 115.457L14.447 115.353L14.2745 115.138L14.1313 114.91L13.9555 114.757L12.8067 114.516L10.932 113.555L10.5708 113.369L7.23487 110.959L6.43099 110.145L6.30732 109.93L5.83541 109.119L5.3277 107.624L3.87291 106.526L0.0780945 101.376L0.081349 101.383Z" fill="#0E4B9A" stroke="white" stroke-width="0.5" stroke-linecap="round" stroke-linejoin="round"/>
<path d="M22.0919 151.915L23.0097 151.195L23.1497 150.241L22.9544 149.163L22.8763 148.068L22.9999 147.752L23.4458 147.198L23.5402 146.957L23.4914 146.661L23.2701 146.137L23.218 145.886L23.1171 142.29L23.0943 141.502L23.2798 140.648L23.3124 140.349L23.2245 140L22.86 139.427L22.7363 139.134L22.6712 138.446L22.707 137.704L22.8275 136.99L23.0097 136.398L23.2017 136.222L23.8071 136.046L24.0186 135.916L24.139 135.658L24.3896 134.909L24.7281 134.362L25.2358 133.541L25.6557 132.342L25.6264 131.127L24.9462 130.04L24.5361 129.847L23.6248 129.799L23.205 129.61L22.9674 129.229L22.144 127.284L21.7339 125.515L21.4898 124.903L21.3108 124.694L20.8617 124.45L20.7478 124.323L20.699 124.268L20.5981 123.877L20.6144 123.115L20.5558 122.75L20.1424 121.568L19.856 120.379L19.7877 119.134L19.6966 118.577L19.3939 118.014L19.3809 118.007L19.3483 117.32L19.3418 117.291L19.8333 116.649L20.4907 115.962L21.3173 116.102L21.6103 115.06L22.7266 113.219L23.7062 113.161L24.3669 114.138L25.4799 114.053L26.619 114.47L27.6214 115.154L28.8256 115.034L30.0038 114.692L31.0908 113.913L33.0045 112.926L33.8409 112.916L34.5764 113.001L35.3119 112.868L40.1873 114.451L42.3841 114.07L44.2815 112.545L46.3579 113.32L47.6369 111.75L48.3855 109.851L49.824 109.653L50.8459 109.246L52.1608 109.024L52.9126 109.353L53.6058 109.011L54.0354 108.425L54.6505 108.461L55.015 109.47L55.7668 110.066L56.4405 110.783L56.6879 111.851L56.5805 112.685L56.1086 113.288L56.1216 114.425L56.8604 115.327L55.7603 116.604L54.7905 118.897L54.8393 119.936L54.6342 120.792L55.0899 121.721L55.6757 122.545L55.91 124.877L56.9124 126.795L57.8628 127.404L58.7024 128.264L59.3794 128.417L60.1377 128.206L60.6064 128.825L61.0067 129.629L65.3873 132.652L65.856 133.541L66.5655 133.893L67.122 134.173L67.48 134.824L68.5084 135.531L67.7566 136.459L66.7705 137.108L71.3659 141.023L71.379 141.036L71.3236 141.072L70.7573 141.57L70.5979 141.896L70.4319 142.704L70.3212 142.896L70.0348 142.873L69.8688 142.651L69.6996 142.355L69.4002 142.117L68.2546 141.775L66.7184 141.638L65.5923 142.166L65.6867 143.817L65.7909 144.957L65.7713 145.394L65.537 145.782L65.1074 145.993L64.6518 145.902L63.7991 145.335L63.6591 145.7L63.4769 145.824L63.2653 145.873L63.0505 146.019L62.4094 146.661L61.8398 146.7L60.0303 145.368L59.7211 145.326L58.6797 146.296L58.058 146.599L57.2639 146.804L56.447 146.899L55.7668 146.863L55.1908 147.143L54.3186 148.599L53.6937 148.765L52.4277 148.472L51.1519 148.482L50.4066 148.755L49.44 149.736L49.3293 149.807L48.8509 150.12L47.5621 150.068L45.0235 148.746L41.232 148.635L40.4997 148.873L39.3313 149.729L38.6446 150.107L37.8277 150.205L37.4274 149.817L37.0661 149.224L36.3534 148.72L35.6699 148.768L34.7717 149.156L33.9125 149.706L33.356 150.244L33.2258 150.638L33.1672 151.573L32.9654 152.071L32.6237 152.426L32.2038 152.667L31.3381 152.925L29.7239 153.113L22.0952 151.931L22.0919 151.915Z" fill="#0E4B9A" stroke="white" stroke-width="0.5" stroke-linecap="round" stroke-linejoin="round"/>
<path d="M188.937 5.81985L189.565 6.30843L189.383 7.52337L190.193 8.45167L192.361 9.49071L192.82 9.90763L193.562 11.2235L193.981 11.5265L201.32 11.4613L203.589 10.7382L204.468 11.0542L205.232 12.6795L205.48 13.015H205.467L204.429 12.9824L203.713 13.598L203.898 14.7837L203.195 15.5849L202.489 15.6142L202.707 16.2331L202.593 17.2526L201.46 17.4806L200.604 16.6956L199.644 16.9595L199.185 18.5848L199.28 20.2427L197.734 21.373L195.768 20.6499L194.564 20.8974L193.597 21.6824L194.069 24.2979L192.383 24.3337L190.616 22.8875L189.848 23.3012L189.37 24.3663L187.505 26.0731L187.407 28.4606L188.335 29.9101L187.661 30.1804L186.912 30.0045L184.361 29.9459L182.835 28.1805L181.295 27.1936L179.241 28.3662L178.112 27.4411L177.194 26.0601L176.57 25.679L175.876 26.1382L175.492 25.5161L175.482 24.3175L174.91 23.8061L174.519 23.2133L173.816 22.6856L173.204 21.7052L172.947 20.6824L172.371 20.7606L171.831 21.6075L171.147 21.8778L170.562 21.9853L170.262 22.627L169.712 21.6368L169.032 20.6173L167.74 20.474L164.482 19.3112L163.581 17.5718L163.281 16.6565L162.601 15.6989L161.729 15.2755L160.743 16.0214L159.649 16.3373L158.614 15.1713L157.329 14.826L155.978 15.0247L155.46 12.901L155.207 11.2822L154.185 11.1323L153.605 9.89786L153.521 9.38322L156.733 8.90767L164.368 7.77743L165.66 7.32142L166.432 7.23022L166.796 7.12599L167.561 6.64067L168.004 6.53318H169.735L171.112 6.113L174.757 3.93394L179.274 3.47468L180.273 2.83301L183.072 4.58212L187.124 5.39968L187.938 5.85568L188.875 5.76774L188.934 5.81334L188.937 5.81985Z" fill="#0E4B9A" stroke="white" stroke-width="0.5" stroke-linecap="round" stroke-linejoin="round"/>
<path d="M130.452 27.357L130.71 27.3505L132.308 26.6534L133.203 25.1649L133.274 24.9662L134.547 23.6438L135.699 22.9793L137.512 20.6569L137.821 19.898L138.185 19.2726L142.813 15.8526L143.096 15.0252L143.777 13.9927L145.196 12.3967L146.523 11.6703L149.628 10.8625L152.671 9.51733L153.511 9.39355L153.596 9.90819L154.175 11.1427L155.197 11.2925L155.451 12.9113L155.968 15.035L153.094 18.2108L152.248 20.2107L150.494 21.3116L150.403 23.4451L152.395 24.3864L153.557 24.4874L154.491 24.9988L153.804 25.9499L153.905 28.1192L153.127 28.5426L152.6 29.7217L152.092 30.5718L150.103 30.2754L148.668 31.3633L148.151 30.8324L147.653 30.4025L147.217 31.3666L147.311 32.5815L147.152 32.8616L146.943 33.0701L147.028 33.4447L147.099 33.8551L146.976 35.6954L147.815 37.0862L147.051 37.539L146.081 37.3533L145.225 37.5357L144.346 37.3501L143.438 38.0471L142.234 38.6073L142.032 40.3174L141.482 41.4704L140.59 42.4052L139.598 43.1413L138.654 43.4182L138.869 44.6136L139.549 45.6852L140.581 45.8188L141.453 46.2389L141.583 47.4018L141.515 48.6004L140.115 48.5059L138.778 47.9978L138.439 46.7568L138.241 45.6168L137.128 45.5908L136.047 46.1542L135.041 46.1966L134.042 45.9621L132.714 45.8383L131.409 45.4605L130.651 44.7504L130.075 44.1055L129.486 44.1152L129.177 43.5029L128.249 43.5094L127.751 44.4833L125.554 43.6397L123.416 41.4802L123.686 40.0503L124.06 38.5552L123.484 38.2132L122.96 38.8158L122.368 38.7181L122.3 38.0634L120.341 36.5651L120.139 35.4185L120.982 34.7508L121.808 32.917L121.102 30.5783L120.819 29.9758L121.063 29.9334L122.798 30.0311L123.673 29.9432L124.386 29.5686L125.108 29.3927L125.981 29.0149L126.804 28.5068L127.406 27.9302L128.093 27.4384L130.462 27.3635L130.452 27.357Z" fill="#0E4B9A" stroke="white" stroke-width="0.5" stroke-linecap="round" stroke-linejoin="round"/>
<path d="M205.476 13.0191L206.983 15.0809L209.509 14.4555L212.168 12.9442L214.309 12.6934V12.6999L215.224 14.2438L216.962 20.3934L218.264 21.4226L226.208 25.0544L234.416 26.4811L239.949 26.1586L239.864 26.8915L239.744 33.3537L239.838 34.0345L240.229 34.9661L240.619 35.611L240.883 36.194L240.915 36.9692L240.57 38.3307L239.949 40.0147L239.249 41.4446L238.666 42.0439L238.276 42.2524L236.492 43.9592L236.131 44.4705L235.923 45.135L235.894 46.0568L235.366 45.3239L233.638 44.3598L233.267 44.0504L232.838 43.5422L231.871 43.1449L230.061 42.7996L229.196 42.9722L227.747 43.7181L227.041 43.8875L224.532 43.7702L223.735 43.8875L222.257 44.7474L221.209 46.2099L221.033 46.6724L220.913 46.6203L219.559 46.7799L218.202 46.7864L217.411 45.7571L216.353 44.6823L215.136 44.6041L214.007 45.135L213.379 45.8646L212.591 46.135L210.319 44.9559L208.419 42.6205L207.712 41.2948L206.723 40.4186L205.294 40.1222L203.761 38.689L202.437 36.7771L201.841 36.9985L201.441 38.018L200.702 38.3763L199.927 38.4806L199.622 38.8063L199.211 39.0473L198.251 38.575L197.998 37.2949L196.849 35.6696L195.326 35.2169L194.935 33.7609L194.043 33.1909L192.497 33.484L190.974 33.9628L189.861 33.4254L189.067 31.8098L186.906 30.0216L187.655 30.1975L188.328 29.9272L187.401 28.4777L187.498 26.0902L189.363 24.3834L189.842 23.3183L190.61 22.9047L192.377 24.3509L194.063 24.315L193.591 21.6995L194.557 20.9145L195.762 20.667L197.727 21.3901L199.273 20.2598L199.179 18.6019L199.638 16.9766L200.598 16.7127L201.454 17.4977L202.586 17.2697L202.7 16.2502L202.482 15.6313L203.189 15.602L203.892 14.8008L203.706 13.6151L204.422 12.9995L205.46 13.0321H205.473L205.476 13.0191Z" fill="#0E4B9A" stroke="white" stroke-width="0.5" stroke-linecap="round" stroke-linejoin="round"/>
<path d="M49.1764 21.21L49.7622 21.3077L53.02 20.5781L53.8727 20.7442L56.0695 22.0373L69.5271 25.4379L69.9046 25.5323L76.7294 25.1968L76.4333 27.757L74.8386 30.2064L72.684 31.2813L71.4506 31.1542L70.4058 32.0825L69.3611 33.3561L68.401 34.2616L69.1691 35.8869L69.602 37.8022L70.6532 39.447L72.4302 39.8086L73.1332 42.3036L73.1722 43.2091L72.8728 44.2416L72.5506 47.3099L70.7248 48.2708L69.3839 48.0428L68.0788 48.121L67.3466 48.5998L66.9202 49.1633L66.3539 48.9027L65.7844 48.7561L62.9431 49.8798L62.2597 51.4368L61.8691 52.4954L62.2044 53.2119L64.7982 54.264L65.1107 56.2933L64.7982 58.4072L64.3979 59.5928L63.4248 59.5863L62.7609 58.9902L62.1686 59.3941L62.3736 60.8859L62.9008 62.2767L62.1913 63.3516L61.2898 63.9705L60.6324 63.4982L60.0075 63.1757L56.2062 62.4754L54.7612 61.8533L53.7002 62.5438L52.8638 63.6057L51.9004 63.99L50.885 63.9379L50.2992 63.2115L49.6906 62.635L48.047 64.0226L46.5434 64.9476L45.7526 64.0617L45.1733 62.8858L44.275 61.7132L43.2563 60.7393L42.6087 60.2931L42.0294 59.7263L42.0066 58.6775L42.5468 58.228L43.3637 58.2183L43.0643 57.5082L41.8829 56.8926L40.6331 56.8405L40.5453 55.4171L41.6225 54.5246L42.6249 54.4269L43.1164 53.2185L40.7471 51.9123L37.87 50.8831L38.1955 49.4206L39.1458 48.2317L39.9302 46.7594L40.8642 45.437L41.1636 43.372L41.0888 41.333L42.2669 39.6294L43.8389 38.7109L44.7632 39.2907L45.5313 39.3461L46.3026 39.2907L47.1618 38.281L48.0861 37.5611L48.724 37.9748L49.2512 37.4927L49.2024 36.8413L48.7305 36.5775L48.3204 36.1638L48.021 35.6459L47.5523 35.4896L47.1423 35.1899L46.4914 34.5417L46.6964 33.7502L47.3766 33.2649L47.8257 32.5613L47.7671 31.9099L47.868 31.278L48.6328 29.5093L49.2415 27.6039L49.658 22.9722L49.1796 21.2068L49.1764 21.21Z" fill="#0E4B9A" stroke="white" stroke-width="0.5" stroke-linecap="round" stroke-linejoin="round"/>
<path d="M76.7229 25.1974L77.5528 25.155L78.2168 24.9498L80.3615 23.3343L81.7122 22.8945L83.014 23.0509L89.2334 25.3895L90.9193 26.0247L92.7288 26.2885L100.849 25.712L105.386 27.3471L110.378 27.7217L111.957 28.106L113.229 28.865L113.119 29.1842L112.084 29.8291L111.14 30.6923L110.606 32.842L109.457 34.2556L109.757 35.9005L110.388 36.0047L110.687 36.5129L109.815 38.3792L108.702 39.7961L107.478 41.0241L107.924 42.1576L109.571 42.0664L109.91 43.9783L110.727 45.6656L110.935 47.659L109.337 49.1964L108.64 49.6752L108.009 50.2745L107.28 50.5025L106.544 50.6588L105.145 49.2811L104.172 47.2877L103.401 46.216L103.192 47.6036L102.509 48.2746L101.487 49.027L100.338 49.5221L99.2607 49.8348L98.2616 49.8836L97.4252 48.8869L95.9769 49.0693L95.0851 48.9944L92.7386 49.128L90.6915 50.6263L90.1512 51.4569L89.7184 51.7598L89.305 51.1539L88.8689 51.7728L88.55 52.5187L87.8307 53.4275L86.4703 54.5935L85.878 54.8183L85.7413 54.4274L85.4842 54.1343L83.6031 54.0496L80.8237 53.2385L80.0914 52.5187L79.5707 51.5025L78.8774 50.7566L78.1256 50.7435L77.3901 50.9781L76.6253 51.6816L75.9679 52.4666L74.8874 52.7467L73.758 53.2125L72.824 53.4926L71.8443 53.3395L70.6597 52.6848L69.794 52.8705L68.8827 52.1116L66.8584 53.0366L64.8015 54.258L62.2076 53.206L61.8724 52.4894L62.2629 51.4308L62.9464 49.8739L65.7876 48.7501L66.3572 48.8967L66.9235 49.1573L67.3498 48.5938L68.0821 48.115L69.3871 48.0368L70.728 48.2648L72.5538 47.3039L72.876 44.2357L73.1755 43.2031L73.1364 42.2976L72.4334 39.8026L70.6564 39.4411L69.6052 37.7962L69.1723 35.881L68.4043 34.2556L69.3644 33.3501L70.4091 32.0766L71.4538 31.1483L72.6873 31.2753L74.8418 30.2004L76.4365 27.751L76.7327 25.1909L76.7229 25.1974Z" fill="#0E4B9A" stroke="white" stroke-width="0.5" stroke-linecap="round" stroke-linejoin="round"/>
<path d="M113.233 28.8685L113.359 28.9434L114.681 29.9694L116.09 30.7902L117.763 31.015L118.645 30.7837L120.236 30.0737L120.816 29.9694L121.099 30.572L121.805 32.9107L120.978 34.7445L120.135 35.4122L120.337 36.5587L122.297 38.057L122.365 38.7117L122.957 38.8095L123.481 38.2069L124.057 38.5489L123.683 40.0439L123.413 41.4738L125.551 43.6334L127.748 44.477L128.246 43.5031L129.173 43.4966L129.483 44.1089L130.072 44.0991L130.648 44.7441L131.406 45.4541L132.711 45.832L134.039 45.9557L135.038 46.1903L136.044 46.1479L137.124 45.5844L138.237 45.6105L138.436 46.7505L138.774 47.9915L140.112 48.4996L141.511 48.5941L142.986 49.1576L144.043 50.3627L143.233 51.2422L143.165 52.418L144.424 54.0922L144.867 56.0433L144.33 56.1605H143.77L143.523 56.9195L143.536 57.8282L142.999 58.9747L142.927 60.2385L143.425 61.3655L143.868 62.5414L144.05 63.3426L144.512 63.828L145.039 64.0136L145.007 64.7009L144.164 65.424L144.362 66.6129L145.941 66.9679L147.34 68.1112L146.478 70.173L144.808 71.1501L143.89 71.4237L143.298 72.3585L143.386 73.8764L142.914 75.0392L142.016 75.0327L141.124 75.2347L140.33 76.1336L139.471 76.772L136.942 76.404L135.204 76.7883L133.45 76.8437L132.633 76.7232L131.823 76.8632L131.1 76.7558L130.404 76.5278L129.001 77.1825L128.285 77.7785L127.693 78.1759L127.012 77.746L126.111 77.6743L125.232 75.5278L126.052 73.8862L126.387 72.6647L126.404 71.2902L125.951 70.5085L125.196 70.2837L123.546 68.6291L124.438 65.7236L123.781 63.6716L121.441 63.2775L120.246 62.9029L117.558 63.0104L115.062 62.7205L114.059 62.2515L113.545 60.8541L112.992 59.7304L107.781 59.6425L106.772 58.8477L106.125 57.5057L105.278 56.8869L105.044 55.8706L106.74 54.0662L106.548 50.6494L107.283 50.493L108.012 50.265L108.644 49.6657L109.34 49.1869L110.938 47.6495L110.73 45.6561L109.913 43.9689L109.574 42.0569L107.928 42.1481L107.482 41.0146L108.705 39.7866L109.819 38.3697L110.691 36.5034L110.391 35.9952L109.76 35.891L109.461 34.2461L110.609 32.8325L111.143 30.6828L112.087 29.8196L113.122 29.1747L113.233 28.8555V28.8685Z" fill="#0E4B9A" stroke="white" stroke-width="0.5" stroke-linecap="round" stroke-linejoin="round"/>
<path d="M143.022 136.078L143.308 136.505L143.858 136.766L144.398 136.873L144.841 137.085L145.17 137.479L145.391 137.912L145.746 139.228L145.775 139.616L145.716 140.427L145.785 140.772L145.999 140.951L146.605 141.062L146.82 141.303L147.015 141.98L147.067 142.567L147.008 143.146L146.868 143.798L146.419 144.264L146.351 144.609L146.748 145.514L146.911 145.749L147.444 146.257L147.565 146.566L147.497 146.98L147.301 147.101L147.06 147.189L146.859 147.498L146.429 148.778L145.837 150.081L145.391 150.785L145.153 150.918L144.87 150.846L141.58 151.612L141.082 151.863L140.057 152.556L139.184 152.98L138.758 153.032L138.241 152.931L137.704 152.925L136.743 153.426L136.193 153.54L135.448 153.231L134.319 151.973L133.46 151.644L133.066 151.798L131.631 152.771L130.293 152.872L129.86 153.022L129.388 153.371L129.115 153.648L128.851 153.827L128.418 153.892L128.054 153.788L127.25 153.312L126.872 153.179L123.475 152.944L122.954 153.12L122.654 153.605L122.404 154.172L122.065 154.592L121.688 154.742L121.388 154.709L121.086 154.615L120.685 154.579L119.699 154.752L113.246 156.853L112.344 156.918L111.452 156.775L110.704 156.322L109.063 154.061L108.325 153.433L108.168 153.361L108.204 152.807L107.882 150.387L108.009 149.899L108.204 149.452L107.781 148.824L107.436 148.198L107.954 147.049L108.09 145.778L107.905 145.299L108.136 144.641L107.719 142.274L105.662 142.863L104.976 143.912L104.064 143.453L103.313 142.006L102.701 140.446L102.008 139.492L102.001 138.349L102.821 138.036L103.697 138.202L104.758 137.935L105.724 137.215L105.867 136.827L105.575 136.339L105.503 135.15L105.757 134.14L105.22 133.596L104.797 131.87L104.136 130.929L103.726 130.039L104.159 129.017L104.836 128.274L105.757 128.359L105.985 127.548L106.18 126.411L107.036 125.714L107.391 124.584L108.002 123.786L108.562 123.58L108.907 122.975L109.789 122.401L110.814 122.655L110.362 123.962L111.761 127.137L113.792 127.515L114.961 127.108L115.836 126.027L116.494 125.636L117.229 125.603L117.652 126.391L117.6 127.401L117.965 128.128L119.537 128.838L120.367 129.564L121.19 129.492L121.864 128.74L122.707 128.701L123.419 129.574L124.077 130.004L124.793 130.01L125.229 130.43L125.639 131.066L126.648 133.131L125.776 135.179L125.554 136.599L126.843 137.287L127.592 137.143L128.428 136.769L129.076 137.134L129.756 137.251L130.531 136.687L130.996 135.674L132.353 135.007L133.697 135.512L133.84 136.567L134.098 137.577L135.848 139.463L137.534 140.257L139.074 138.749L139.357 137.687L139.985 137.339L140.688 137.355L141.111 136.495L142.751 135.935L143.005 136.072L143.022 136.082V136.078Z" fill="#0E4B9A" stroke="white" stroke-width="0.5" stroke-linecap="round" stroke-linejoin="round"/>
<path d="M108.168 153.361L106.733 152.684L106.583 152.508L106.284 152L106.17 151.866H105.975L105.344 152L99.0557 149.316L97.8776 148.583L97.3601 148.518L96.9793 148.596L96.1754 148.883L94.6783 148.99L94.5579 149.674L94.6621 150.567L94.3333 151.313L93.5685 151.277L92.7289 150.524L91.4238 148.831L90.672 148.15L89.969 147.814L89.2139 147.704H88.3254L88.5598 147.192L87.2189 147.215L86.6949 147.085L86.1026 146.531L86.0733 146.342L86.1677 145.775L86.1254 145.521L85.9789 145.349L85.6144 145.114L85.4744 144.964L85.2661 144.668L85.0676 144.466L84.9082 144.228L84.7975 143.805L84.6738 142.381L84.1954 141.033L83.3948 140.306L82.285 140.74L81.4355 140.932L80.6512 142.056L80.0784 142.183L79.268 142.046L78.6757 142.108L77.3836 142.495L77.0419 142.531L76.0102 142.407L75.675 142.456L75.4244 142.603L75.1575 142.691L74.7995 142.567L74.7311 142.284L74.819 141.847L74.7832 141.398L74.0314 140.912L73.4098 140.209L72.7361 140.293L72.0071 140.603L71.3659 141.017L71.3529 141.004L66.7575 137.088L67.7436 136.44L68.4954 135.512L67.467 134.805L67.109 134.154L66.5524 133.874L67.698 132.685L67.5939 131.001L67.0178 130.229L66.3149 129.662L66.1879 128.421L67.5972 128.16L69.5173 128.467L71.0437 129.864L70.868 130.812L70.5783 131.721L71.265 131.773L72.0038 131.072L74.2007 131.007L75.867 129.506L75.8898 127.112L77.5236 124.832L78.6464 124.112L80.0751 123.382L80.687 121.724L81.1198 120.281L85.4061 123.604L87.2449 122.744L89.1228 121.526L91.1211 120.949L93.0152 120.711L94.8834 121.236L96.2861 123.056L98.0012 124.138L98.9483 125.011L99.6969 126.388L100.969 126.336L102.004 125.998L103.449 127.962L104.178 127.971L104.829 128.271L104.152 129.014L103.719 130.037L104.13 130.926L104.79 131.867L105.213 133.593L105.75 134.137L105.496 135.147L105.568 136.336L105.861 136.825L105.718 137.212L104.751 137.932L103.69 138.199L102.815 138.033L101.995 138.346L102.001 139.489L102.694 140.443L103.306 142.003L104.058 143.45L104.969 143.909L105.656 142.86L107.713 142.271L108.129 144.639L107.898 145.296L108.084 145.775L107.947 147.046L107.43 148.195L107.775 148.821L108.198 149.449L108.002 149.896L107.876 150.384L108.198 152.804L108.162 153.358L108.168 153.361Z" fill="#0E4B9A" stroke="white" stroke-width="0.5" stroke-linecap="round" stroke-linejoin="round"/>
<path d="M221.043 46.6691L218.892 52.291L218.371 53.1477L217.701 53.6493L215.077 54.3593L214.638 54.6623L214.378 54.7535H214V55.115L215.338 56.1182L215.601 56.5221L215.556 57.141L214.817 59.4373L214.287 61.9909L214.013 62.4828L213.675 62.8313L213.375 63.2059L213.216 63.7922L213.287 64.9713L213.863 67.3783L214 68.463L213.789 72.0198L214 72.8081L213.229 73.4009L212.955 73.4302L212.028 73.8015L211.208 74.5442L210.065 74.7819L208.943 74.3422L207.869 73.782L206.869 73.0524L206.043 71.9905L205.115 71.1176L204.129 70.515L203.088 70.1893L201.649 71.1046L198.264 71.9612L196.364 71.5378L194.606 70.4792L193.708 70.3782L192.885 70.0851L191.684 68.1438L190.174 66.652L188.312 66.0364L186.014 67.3751L183.795 67.8669L182.805 66.6813L182.232 65.3784L183.134 64.6749L185.441 63.3915L187.261 62.929L187.049 61.6489L185.292 61.0398L186.366 60.1539L185.474 59.1018L186.112 57.9716L187.358 57.2615L187.388 56.0172L186.115 55.5124L185.109 54.5092L185.253 53.203L186.115 52.5548L187.469 52.4246L188.79 52.1086L188.862 51.0728L188.849 49.7374L189.91 49.3433L190.86 48.5843L190.34 47.6756L189.676 46.7538L189.637 45.4183L189.988 44.4184L190.759 43.5389L192.126 41.539L191.641 40.8127L191.182 40.3892L191.635 39.7573L192.068 38.5619L190.187 37.9268L192.243 36.1028L195.339 35.207L196.862 35.6598L198.011 37.2851L198.264 38.5652L199.224 39.0375L199.635 38.7965L199.94 38.4707L200.715 38.3665L201.454 38.0082L201.854 36.9887L202.45 36.7672L203.774 38.6792L205.307 40.1124L206.736 40.4088L207.725 41.285L208.432 42.6106L210.332 44.946L212.604 46.1251L213.392 45.8548L214.02 45.1252L215.149 44.5943L216.366 44.6724L217.424 45.7473L218.215 46.7766L219.572 46.7701L220.926 46.6105L221.043 46.6626V46.6691Z" fill="#0E4B9A" stroke="white" stroke-width="0.5" stroke-linecap="round" stroke-linejoin="round"/>
<path d="M102.694 78.6606L102.496 80.5074L103.13 84.2532L102.769 85.2727L102.034 85.5398L102.968 87.6472L102.951 88.3475L103.251 89.494L103.895 90.3865L105.392 91.5233L107.124 91.5656L108.393 91.1487L109.021 92.204L108.269 94.0541L109.151 95.0736L109.653 95.3211L109.848 95.9954L109.607 96.7445L108.933 96.6566L107.501 96.0475L106.424 96.8195L106.652 98.663L106.71 99.9366L107.124 101.093L107.989 102.806L106.86 103.471L105.555 104.002L105.067 105.783L105.64 107.91L106.378 108.451L106.688 108.262L107.104 108.744L107.713 109.001L108.136 109.343L107.999 110.07L108.692 110.197L109.262 108.936L109.968 108.858L111.316 108.493L112.533 108.809L113.968 109.803L114.931 111.21L114.121 110.855L113.542 110.747L113.18 110.757L113.115 113.154L113.496 114.926L113.796 116.789L113.578 117.372L113.76 117.832L114.196 118.297L114.085 119.118L112.783 121.336L110.814 122.656L109.789 122.401L108.907 122.975L108.562 123.581L108.002 123.786L107.391 124.584L107.036 125.714L106.18 126.411L105.985 127.548L105.757 128.359L104.836 128.274L104.185 127.975L103.456 127.965L102.011 126.001L100.976 126.339L99.7034 126.392L98.9548 125.014L98.0077 124.141L96.2926 123.059L94.8899 121.239L93.0217 120.714L91.1276 120.952L89.1293 121.529L87.2514 122.747L85.4126 123.607L81.1263 120.284L81.569 117.874L80.9669 115.421L80.7521 113.991L81.2175 112.822L81.0938 110.669L81.9823 109.959L83.0433 109.692L83.6128 108.907L83.001 108.174L82.3566 107.682L82.3826 106.643L82.5746 105.161L82.2817 103.741L81.6568 102.829L81.6048 102.064L82.1743 100.702L81.2826 99.1614L80.5861 98.8715L80.5926 97.8618L80.2183 96.7022L80.1793 95.5394L80.2509 95.0215L79.7789 93.6958L78.9425 93.5232L79.0304 90.8946L79.473 88.4029L80.7683 88.3442L81.787 87.6146L81.966 86.4551L80.9766 85.758L79.7887 84.0643L78.1256 83.1914L77.6277 80.7941L79.0304 78.3056L80.6056 78.4749L83.0075 76.361L84.4623 76.335L86.2881 76.5402L88.0325 77.2372L89.3278 78.9603L90.8509 80.312L92.6995 80.6898L93.2788 80.5595L93.5848 80.185L95.6091 80.1915L97.5749 80.6507L99.3453 80.4521L100.94 79.5042L101.07 78.8593L101.471 78.3968L102.672 78.1166L102.685 78.6541L102.694 78.6606Z" fill="#0E4B9A" stroke="white" stroke-width="0.5" stroke-linecap="round" stroke-linejoin="round"/>
<path d="M114.931 111.21L113.968 109.803L112.533 108.809L111.316 108.493L109.968 108.858L109.262 108.936L108.692 110.197L107.999 110.07L108.136 109.344L107.713 109.002L107.104 108.744L106.688 108.262L106.378 108.451L105.64 107.91L105.067 105.783L105.555 104.002L106.86 103.471L107.989 102.806L107.124 101.093L106.71 99.9368L106.652 98.6632L106.424 96.8197L107.501 96.0477L108.933 96.6568L109.607 96.7447L109.848 95.9956L109.653 95.3213L109.151 95.0738L108.269 94.0543L109.021 92.2042L108.393 91.1489L107.124 91.5658L105.392 91.5235L103.895 90.3867L103.251 89.4942L102.951 88.3477L102.968 87.6474L102.034 85.54L102.769 85.2729L103.13 84.2534L102.496 80.5076L102.694 78.6608L104.67 78.8269L106.658 78.4361L108.644 77.485L110.574 77.384L111.13 78.2797L111.761 78.9507L113.32 78.0224L115.403 78.4361L117.411 79.3155L118.651 79.208L119.582 78.4914L120.23 78.6022L120.864 78.8139L121.561 78.5012L122.14 78.1234L122.86 78.4133L123.771 77.3775L124.399 77.6674L125.056 78.5696L125.824 79.2048L126.381 78.651L126.108 77.6836L127.009 77.7553L127.689 78.1852L128.282 77.7879L128.998 77.1918L130.4 76.5371L131.097 76.7651L131.819 76.8726L132.63 76.7325L133.447 76.8531L133.873 80.4132L134.976 84.1199L136.057 86.2207L136.223 88.0904L134.221 89.6408L134.648 90.4095L135.52 90.7352L136.18 91.9827L136.275 93.24L135.826 94.279L136.9 96.2627L136.851 97.5688L137.365 98.7479L139.142 101.243L139.926 103.604L139.741 107.419L141.674 109.747L142.859 109.353L143.975 109.318L144.821 109.705L145.733 109.526L145.713 112.457L146.24 113.855L146.221 115.304L144.535 115.816L142.921 116.659L141.804 115.75L140.812 114.295L138.794 112.07L136.05 111.285L135.725 111.073L135.191 111.428L134.765 112.047L133.167 113.617L131.36 114.487L130.449 113.194L128.858 111.539L127.784 110.633L126.586 111.213L125.623 110.933L126.199 110.129L126.27 109.226L126.215 108.324L124.903 107.673L123.042 108.995L121.746 108.529L120.48 109.037L119.924 110.712L119.553 112.558L119.159 112.493L118.733 112.51L118.29 112.412L117.864 112.014L117.561 111.816L117.125 111.767L116.289 111.822L114.922 111.223L114.931 111.21Z" fill="#0E4B9A" stroke="white" stroke-width="0.5" stroke-linecap="round" stroke-linejoin="round"/>
<path d="M145.739 109.519L144.828 109.698L143.982 109.311L142.865 109.346L141.681 109.741L139.747 107.412L139.933 103.598L139.149 101.236L137.372 98.741L136.857 97.5619L136.906 96.2558L135.832 94.2722L136.281 93.2331L136.187 91.9758L135.526 90.7283L134.654 90.4026L134.228 89.6339L136.229 88.0835L136.063 86.2139L134.983 84.113L133.879 80.4063L133.453 76.8462L135.207 76.7908L136.945 76.4065L139.474 76.7745L140.333 76.1361L141.127 75.2371L142.019 75.0352L142.917 75.0417L143.389 73.8789L143.301 72.361L143.894 71.4262L144.812 71.1526L146.481 70.1754L147.344 68.1136L148.375 67.9475L149.358 67.6055L149.843 66.8564L150.4 66.1789L151.041 65.8857L151.298 65.1757L151.334 64.3646L151.298 63.6057L151.955 63.7588L152.6 63.7262L153.651 63.2441L154.618 63.6904L154.442 64.319L154.712 64.9053L155.106 64.635L155.399 64.1138L156.837 65.1007L157.82 65.1594L158.774 64.9379L159.636 64.3842L160.482 64.7262L161.615 65.5144L162.826 66.1398L161.986 67.6609L162.751 69.4458L162.881 70.4849L162.52 71.6868L163.073 73.0939L163.519 74.4456L162.946 75.2111L162.783 76.1817L162.978 77.4911L162.096 78.2826L160.892 78.7321L159.929 79.6115L160.463 80.9698L161.68 81.3672L162.617 81.9795L163.551 82.4714L164.879 82.0707L166.155 81.4095L166.266 83.1358L165.875 84.6895L165.481 85.2856L164.977 85.582L163.948 85.3931L163.577 85.8979L163.027 86.2692L162.428 86.836L161.843 87.6014L159.617 88.3082L157.397 88.0998L156.29 88.3734L155.275 89.0932L155.669 89.9401L156.079 90.6371L155.347 91.015L154.699 91.6338L153.898 93.6989L152.108 94.2982L150.159 93.5816L149.342 94.0833L149.732 95.6988L148.606 96.4805L147.207 96.5913L147.471 98.5098L148.671 98.5684L149.378 99.083L147.405 103.868L147.679 106.395L147.122 108.311L145.726 109.522L145.739 109.519Z" fill="#0E4B9A" stroke="white" stroke-width="0.5" stroke-linecap="round" stroke-linejoin="round"/>
<path d="M162.757 69.4427L161.992 67.6578L162.832 66.1367L163.47 65.8761L164.02 65.3126L164.97 65.0879L164.912 64.1856L164.371 63.443L164.876 62.9381L165.556 62.8371L165.898 61.9414L165.999 61.1629L166.825 60.9577L167.144 60.2184L166.415 59.7786L166.015 59.0393L166.822 57.7136L168.056 57.2511L168.593 56.225L169.035 54.857L169.595 54.3978L170.148 54.388L170.217 52.1242L168.964 49.7269L169.178 48.5087L169.549 47.2808L170.083 46.4958L170.806 45.9877L170.47 44.1148L168.56 43.7207L168.912 42.2321L168.371 41.1214L168.57 39.8055L169.891 38.9065L171.336 38.4375L171.886 37.4213L171.242 36.3659L172.231 35.6298L173.374 34.581L174.34 33.4996L174.757 33.2911L175.203 33.2651L175.635 33.9719L176.231 34.3432L178.763 30.9362L179.726 30.0958L179.248 28.3826L181.302 27.21L182.841 28.1969L184.367 29.9623L186.919 30.0209L189.08 31.8091L189.874 33.4247L190.987 33.9621L192.51 33.4833L194.056 33.1902L194.948 33.7602L195.339 35.2161L192.243 36.1119L190.187 37.9359L192.068 38.5711L191.635 39.7664L191.182 40.3983L191.641 40.8218L192.126 41.5481L190.759 43.548L189.988 44.4275L189.637 45.4274L189.676 46.7629L190.34 47.6847L190.86 48.5934L189.91 49.3524L188.849 49.7465L188.862 51.0819L188.79 52.1177L187.469 52.4337L186.115 52.564L185.253 53.2121L185.109 54.5183L186.115 55.5215L187.388 56.0264L187.358 57.2706L186.112 57.9807L185.474 59.1109L186.366 60.163L185.292 61.0489L187.049 61.658L187.261 62.9381L185.441 63.4006L183.134 64.684L182.232 65.3875L182.805 66.6904L183.795 67.876L181.985 68.6805L180.123 69.1854L178.499 68.5861L176.976 68.6512L175.717 68.9118L174.5 68.091L172.316 68.2734L171.551 68.2311L170.89 68.6643L170.064 70.257L168.772 71.0029L167.268 71.283L165.921 70.7L165.953 69.5307L165.559 68.7424L162.754 69.446L162.757 69.4427Z" fill="#0E4B9A" stroke="white" stroke-width="0.5" stroke-linecap="round" stroke-linejoin="round"/>
<path d="M179.241 28.3797L179.72 30.093L178.757 30.9333L176.225 34.3403L175.629 33.969L175.196 33.2622L174.75 33.2883L174.334 33.4967L173.367 34.5781L172.225 35.6269L171.235 36.3631L171.88 37.4184L171.33 38.4346L169.885 38.9037L168.563 39.8027L168.365 41.1186L168.905 42.2293L168.554 43.7178L167.733 43.4996L166.943 43.4865L166.783 45.5418L165.976 45.7796L165.133 45.9229L163.756 47.3626L162.822 47.3691L161.911 46.9587L159.477 46.9652L159.203 45.4148L159.405 43.3628L157.436 42.7113L155.112 42.4052L154.598 42.1022L154.136 41.7244L154.722 39.8678L153.146 38.1936L151.174 36.9917L149.472 36.4608L147.812 37.0829L146.973 35.6921L147.096 33.8518L147.025 33.4414L146.94 33.0668L147.148 32.8583L147.308 32.5782L147.213 31.3633L147.65 30.3991L148.147 30.8291L148.665 31.36L150.1 30.2721L152.089 30.5685L152.596 29.7184L153.124 28.5393L153.902 28.1158L153.801 25.9466L154.487 24.9955L153.553 24.4841L152.391 24.3831L150.4 23.4418L150.491 21.3083L152.245 20.2074L153.091 18.2075L155.965 15.0317L157.319 14.833L158.604 15.1783L159.639 16.3443L160.733 16.0284L161.719 15.2825L162.591 15.7059L163.271 16.6636L163.571 17.5788L164.472 19.3182L167.73 20.481L169.022 20.6243L169.702 21.6438L170.252 22.634L170.552 21.9923L171.138 21.8848L171.821 21.6145L172.361 20.7676L172.937 20.6894L173.195 21.7122L173.806 22.6926L174.509 23.2203L174.9 23.8131L175.473 24.3245L175.482 25.5231L175.867 26.1452L176.56 25.686L177.185 26.0671L178.102 27.4481L179.232 28.3732L179.241 28.3797Z" fill="#0E4B9A" stroke="white" stroke-width="0.5" stroke-linecap="round" stroke-linejoin="round"/>
<path d="M162.832 66.1372L161.621 65.5119L160.489 64.7236L159.643 64.3816L158.78 64.9353L157.827 65.1568L156.844 65.0982L155.405 64.1145L155.112 64.6357L154.718 64.906L154.448 64.3197L154.624 63.6911L153.657 63.2448L152.606 63.7269L151.962 63.7595L151.304 63.6064L151.34 64.3653L151.304 65.1764L151.047 65.8864L150.406 66.1796L149.85 66.8571L149.365 67.6062L148.382 67.9482L147.35 68.1143L145.951 66.9711L144.372 66.616L144.174 65.4272L145.017 64.7041L145.049 64.0168L144.522 63.8311L144.06 63.3458L143.877 62.5445L143.435 61.3687L142.937 60.2417L143.009 58.9779L143.546 57.8314L143.533 56.9226L143.78 56.1572H144.34L144.877 56.0464L144.434 54.0954L143.175 52.4212L143.243 51.2453L144.053 50.3659L142.996 49.1607L141.521 48.5972L141.59 47.3986L141.459 46.2358L140.587 45.8156L139.555 45.6821L138.875 44.6104L138.66 43.415L139.604 43.1382L140.597 42.4021L141.489 41.4672L142.039 40.3142L142.24 38.6042L143.445 38.0439L144.353 37.3469L145.231 37.5326L146.087 37.3502L147.057 37.5358L147.822 37.0831L149.482 36.4609L151.184 36.9919L153.156 38.1938L154.731 39.868L154.146 41.7246L154.608 42.1024L155.122 42.4053L157.446 42.7115L159.415 43.3629L159.213 45.415L159.486 46.9654L161.921 46.9589L162.832 47.3693L163.766 47.3628L165.143 45.9231L165.986 45.7798L166.793 45.542L166.952 43.4867L167.743 43.4997L168.563 43.718L170.474 44.1121L170.809 45.985L170.086 46.4931L169.553 47.2781L169.182 48.506L168.967 49.7242L170.22 52.1215L170.152 54.3853L169.598 54.395L169.038 54.8543L168.596 56.2223L168.059 57.2483L166.825 57.7109L166.018 59.0365L166.419 59.7759L167.148 60.2156L166.829 60.955L166.002 61.1602L165.901 61.9387L165.559 62.8344L164.879 62.9354L164.375 63.4403L164.915 64.1829L164.974 65.0852L164.023 65.3099L163.473 65.8734L162.839 66.134L162.832 66.1372Z" fill="#0E4B9A" stroke="white" stroke-width="0.5" stroke-linecap="round" stroke-linejoin="round"/>
<path d="M102.694 78.6605L102.681 78.1231L102.346 75.5564L101.386 73.1526L99.8693 72.0842L98.1997 71.283L97.8255 70.7065L97.5977 70.029L97.7474 69.2277L97.5618 68.472L97.1453 66.1268L99.1729 63.6611L98.8441 61.9413L99.3323 59.7981L100.771 58.7428L101.054 56.7494L101.682 55.1045L103.475 55.3651L105.034 55.883L105.269 56.8992L106.115 57.5181L106.762 58.86L107.771 59.6548L112.982 59.7427L113.535 60.8665L114.049 62.2638L115.052 62.7328L117.548 63.0227L120.236 62.9152L121.431 63.2898L123.771 63.6839L124.428 65.736L123.536 68.6414L125.187 70.296L125.942 70.5208L126.394 71.3025L126.378 72.6771L126.042 73.8985L125.222 75.5401L126.101 77.6866L126.374 78.654L125.818 79.2077L125.05 78.5726L124.392 77.6703L123.764 77.3804L122.853 78.4162L122.134 78.1263L121.554 78.5042L120.858 78.8169L120.223 78.6051L119.576 78.4944L118.645 79.211L117.405 79.3185L115.397 78.439L113.314 78.0254L111.755 78.9537L111.124 78.2827L110.567 77.387L108.637 77.4879L106.652 78.439L104.663 78.8299L102.688 78.6638L102.694 78.6605Z" fill="#0E4B9A" stroke="white" stroke-width="0.5" stroke-linecap="round" stroke-linejoin="round"/>
<path d="M79.473 88.4094L79.0304 90.9011L78.9425 93.5297L79.779 93.7023L80.2509 95.028L80.1793 95.5459L80.2183 96.7087L80.5926 97.8683L80.5861 98.878L81.2826 99.1679L82.1743 100.709L81.6048 102.07L81.6568 102.835L82.2817 103.748L82.5746 105.168L82.3826 106.65L82.3566 107.689L83.001 108.181L83.6128 108.913L83.0433 109.698L81.9823 109.965L81.0938 110.676L81.2175 112.829L80.7521 113.998L80.9669 115.428L81.569 117.88L81.1264 120.291L80.6935 121.734L80.0816 123.392L78.6529 124.121L77.5301 124.841L75.8963 127.121L75.8735 129.515L74.2072 131.017L72.0103 131.082L71.2716 131.782L70.5848 131.73L70.8745 130.821L71.0502 129.873L69.5239 128.476L67.6037 128.17L66.1944 128.431L66.3214 129.672L67.0244 130.238L67.6004 131.01L67.7046 132.694L66.559 133.883L65.8495 133.531L65.3808 132.642L61.0002 129.619L60.5999 128.815L60.1312 128.196L59.3729 128.408L58.6959 128.255L57.8563 127.395L56.9059 126.786L55.9035 124.867L55.6692 122.535L55.0834 121.711L54.6277 120.783L54.8328 119.926L54.784 118.887L55.7538 116.594L56.8539 115.317L56.1151 114.415L56.1021 113.278L56.574 112.675L56.6814 111.842L56.434 110.773L55.7603 110.057L55.0085 109.461L54.644 108.451L55.321 108.275L55.897 107.874L55.8384 107.177L56.0956 106.699L57.9148 105.946L59.1679 104.086L59.4705 102.565L60.3948 102.288L60.8439 102.953L61.3452 103.48L62.149 103.744L62.7641 102.953L62.7348 102.086L62.1262 101.581L61.5111 99.6434L62.1978 97.2722L63.7438 97.0931L65.2343 96.4546L65.8625 94.5231L65.2474 93.4873L63.3011 93.8098L61.8398 92.4906L61.3582 91.7643L60.73 91.2627L60.1963 90.3051L59.835 89.1976L60.0629 88.0218L61.2052 87.6114L62.2694 87.5104L63.2946 87.8915L64.1343 88.6113L65.0944 88.8654L66.8909 87.8459L67.8575 87.8296L68.746 87.3866L69.82 85.8622L71.2292 85.2857L71.9029 85.1554L72.5701 84.8721L73.6669 84.947L74.7246 85.3118L75.1575 86.1196L75.3723 87.0544L76.0525 87.3769L76.788 87.5886L77.2404 88.2498L77.8295 88.2824L78.6496 88.1227L79.4633 88.4126L79.473 88.4094Z" fill="#0E4B9A" stroke="white" stroke-width="0.5" stroke-linecap="round" stroke-linejoin="round"/>
<path d="M102.681 78.1204L101.48 78.4005L101.08 78.863L100.95 79.5079L99.3551 80.4558L97.5847 80.6544L95.6189 80.1952L93.5946 80.1887L93.2886 80.5632L92.7093 80.6935L90.8607 80.3157L89.3376 78.964L88.0423 77.2409L86.2946 76.5471L84.4688 76.3419L83.014 76.368L80.6121 78.4819L79.0369 78.3125L77.7904 78.4396L76.5667 78.1627L75.675 77.5341L74.7442 77.0162L69.8721 76.9543L69.104 75.7621L69.6247 73.6482L69.6963 71.9415L69.5987 70.2379L68.746 68.8146L67.2554 68.4693L66.2953 67.5182L65.4882 66.5541L65.7811 65.4466L65.5403 64.3587L65 63.8115L64.7071 63.0298L64.0106 62.2611L62.9041 62.2774L62.3769 60.8865L62.1718 59.3947L62.7641 58.9909L63.4281 59.5869L64.4012 59.5934L64.8015 58.4078L65.1139 56.2939L64.8015 54.2647L66.8584 53.0432L68.8827 52.1182L69.794 52.8771L70.6597 52.6914L71.8444 53.3461L72.824 53.4992L73.758 53.2191L74.8874 52.7533L75.9679 52.4732L76.6253 51.6882L77.3901 50.9847L78.1257 50.7502L78.8775 50.7632L79.5707 51.5091L80.0914 52.5253L80.8237 53.2452L83.6031 54.0562L85.4842 54.1409L85.7413 54.434L85.878 54.8249L86.4703 54.6002L87.8307 53.4341L88.55 52.5253L88.8689 51.7794L89.3051 51.1606L89.7184 51.7664L90.1512 51.4635L90.6915 50.6329L92.7386 49.1346L95.0852 49.001L95.9769 49.076L97.4252 48.8936L98.2616 49.8903L99.2607 49.8414L100.338 49.5287L101.487 49.0336L102.509 48.2812L103.192 47.6102L103.401 46.2227L104.172 47.2943L105.145 49.2877L106.544 50.6655L106.736 54.0823L105.041 55.8867L103.482 55.3689L101.689 55.1083L101.061 56.7532L100.777 58.7466L99.3389 59.8019L98.8507 61.9451L99.1794 63.6649L97.1518 66.1306L97.5684 68.4758L97.7539 69.2315L97.6042 70.0327L97.832 70.7102L98.2063 71.2868L99.8759 72.088L101.392 73.1564L102.353 75.5602L102.688 78.1269L102.681 78.1204Z" fill="#0E4B9A" stroke="white" stroke-width="0.5" stroke-linecap="round" stroke-linejoin="round"/>
<path d="M27.5759 80.6704L28.7735 79.1526L30.3813 78.9799L31.1917 79.5369L32.1062 79.6704L32.7897 79.3056L33.3657 78.5988L33.4503 77.563L32.9719 76.6054L34.8661 75.042L34.8954 72.6479L35.8197 70.7979L36.4315 71.0356L36.9164 71.6284L38.8301 72.9085L40.7048 73.4362L42.6217 72.6121L44.3824 72.231L45.899 73.599L47.3375 73.687L48.7045 72.7359L48.2358 74.1137L47.4417 75.6022L45.349 80.1916L44.6363 83.3934L45.2221 84.5432L46.8494 88.5105L48.8704 92.0966L50.0844 93.2529L50.4749 94.9988L49.5214 95.9857L48.4213 95.5102L46.7973 95.7838L45.7688 95.0802L46.205 93.3441L45.4304 91.9175L45.1798 91.0087L45.1635 90.3768L43.6013 90.0544L42.869 91.5755L41.922 93.0738L40.5453 92.7318L39.1588 91.6537L36.0117 89.9567L35.2989 89.1293L33.0207 87.3835L31.8231 86.9144L31.6473 85.0806L31.3772 84.0905L30.9704 83.2143L30.1697 82.8104L29.4961 82.2567L28.5945 81.3414L27.5791 80.6606L27.5759 80.6704Z" fill="#0E4B9A" stroke="white" stroke-width="0.5" stroke-linecap="round" stroke-linejoin="round"/>
</g>
<defs>
<clipPath id="clip0_286_2223">
<rect width="241" height="157" fill="white"/>
</clipPath>
</defs>
</svg>
