<svg width="212" height="166" viewBox="0 0 212 166" fill="none" xmlns="http://www.w3.org/2000/svg">
<circle cx="46.7862" cy="119.158" r="46.7862" fill="white"/>
<circle cx="86.6276" cy="50.8069" r="50.8069" fill="white"/>
<ellipse cx="133.779" cy="108.559" rx="78.2207" ry="57.3862" fill="white"/>
<rect x="46.7862" y="135.242" width="83.3379" height="30.7034" fill="white"/>
<path fill-rule="evenodd" clip-rule="evenodd" d="M124.077 55.4893C127.196 55.4894 130.254 56.358 132.908 57.9978C135.561 59.6377 137.706 61.984 139.101 64.7739L146.863 80.2911C148.229 79.7312 149.573 79.1264 150.895 78.4768C152.224 77.8129 153.762 77.7043 155.172 78.1747C156.581 78.6452 157.746 79.6563 158.41 80.9855C159.074 82.3148 159.182 83.8533 158.712 85.2626C158.241 86.672 157.23 87.8367 155.901 88.5006C154.555 89.0996 153.201 89.6821 151.841 90.2477L157.223 101.016C158.391 103.351 158.998 105.926 158.998 108.537V122.688C158.998 125.051 158.499 127.388 157.534 129.546C156.569 131.704 155.16 133.633 153.398 135.209V142.287C153.398 144.515 152.513 146.652 150.938 148.227C149.362 149.802 147.226 150.687 144.998 150.687C142.77 150.687 140.634 149.802 139.058 148.227C137.483 146.652 136.598 144.515 136.598 142.287V139.487H69.3995V142.287C69.3995 144.515 68.5146 146.652 66.9393 148.227C65.364 149.802 63.2275 150.687 60.9997 150.687C58.7719 150.687 56.6354 149.802 55.0601 148.227C53.4849 146.652 52.5999 144.515 52.5999 142.287V135.209C49.1616 132.129 47 127.661 47 122.688V108.531C47.001 105.924 47.6088 103.353 48.7752 101.022L54.1119 90.3373C52.7604 89.7699 51.4258 89.1595 50.1079 88.5062C48.7854 87.8337 47.7801 86.6684 47.3087 85.2616C46.8374 83.8548 46.9376 82.3191 47.588 80.9855C47.9165 80.3271 48.3715 79.7399 48.927 79.2575C49.4825 78.775 50.1277 78.4068 50.8256 78.1738C51.5235 77.9408 52.2605 77.8477 52.9945 77.8997C53.7284 77.9516 54.4449 78.1477 55.103 78.4768C56.4283 79.1301 57.7723 79.7349 59.1349 80.2911L66.8964 64.7795C68.291 61.9885 70.4353 59.6411 73.089 58.0002C75.7427 56.3593 78.8009 55.4899 81.9209 55.4893H124.077ZM77.7994 105.888C75.5716 105.888 73.4351 106.773 71.8598 108.348C70.2845 109.924 69.3995 112.06 69.3995 114.288C69.3995 116.516 70.2845 118.652 71.8598 120.228C73.4351 121.803 75.5716 122.688 77.7994 122.688C80.0271 122.688 82.1637 121.803 83.7389 120.228C85.3142 118.652 86.1992 116.516 86.1992 114.288C86.1992 112.06 85.3142 109.924 83.7389 108.348C82.1637 106.773 80.0271 105.888 77.7994 105.888ZM128.198 105.888C125.971 105.888 123.834 106.773 122.259 108.348C120.683 109.924 119.798 112.06 119.798 114.288C119.798 116.516 120.683 118.652 122.259 120.228C123.834 121.803 125.971 122.688 128.198 122.688C130.426 122.688 132.563 121.803 134.138 120.228C135.713 118.652 136.598 116.516 136.598 114.288C136.598 112.06 135.713 109.924 134.138 108.348C132.563 106.773 130.426 105.888 128.198 105.888ZM81.9209 66.689C80.9992 66.6889 80.0917 66.9163 79.2789 67.351C78.4662 67.7857 77.7733 68.4143 77.2618 69.181L76.9146 69.7858L69.8027 83.9983C78.4713 86.5966 90.1527 89.0886 102.999 89.0886C114.994 89.0886 125.964 86.9158 134.414 84.5134L136.189 83.9983L129.083 69.7858C128.671 68.9615 128.062 68.2518 127.31 67.7194C126.557 67.187 125.686 66.8485 124.771 66.7338L124.082 66.689H81.9209Z" fill="#0081C7"/>
</svg>
