<svg width="218" height="170" viewBox="0 0 218 170" fill="none" xmlns="http://www.w3.org/2000/svg">
<circle cx="47.9295" cy="122.07" r="47.9295" fill="white"/>
<circle cx="88.7445" cy="52.0485" r="52.0485" fill="white"/>
<ellipse cx="137.048" cy="111.211" rx="80.1322" ry="58.7885" fill="white"/>
<rect x="47.9295" y="138.546" width="85.3745" height="31.4537" fill="white"/>
<path d="M93.4397 119C101.805 119 108.586 112.284 108.586 104C108.586 95.7157 101.805 89 93.4397 89C85.0745 89 78.2931 95.7157 78.2931 104C78.2931 112.284 85.0745 119 93.4397 119Z" fill="#0081C7"/>
<path d="M157.813 125.75L149.861 113C148.346 110.375 148.725 107 150.618 104.75C155.541 99.5 155.541 91.625 150.618 86.375L147.21 83C146.453 81.875 145.695 81.5 144.559 81.5H138.879V70.625C143.423 71.375 147.967 73.25 151.375 76.625C152.133 77.375 153.269 77.75 154.026 77.75C154.783 77.75 155.919 77.375 156.677 76.625C158.191 75.125 158.191 72.875 156.677 71.375C150.997 65.75 143.802 62.75 135.85 62.75H127.519C125.247 62.75 123.733 64.25 123.733 66.5C123.733 68.75 125.247 70.25 127.519 70.25H131.306V81.5H125.626C124.49 81.5 123.733 81.875 122.975 82.625L119.567 86C114.645 91.25 114.645 99.125 119.567 104.375C121.839 106.625 122.218 110 120.325 112.625L112.373 125.75C109.344 130.625 109.344 136.25 111.994 141.125C114.645 146 119.946 149 125.626 149H144.559C150.239 149 155.162 146 158.191 141.125C160.842 136.25 160.463 130.25 157.813 125.75ZM125.247 91.25L127.519 89H142.666L144.938 91.25C147.21 93.5 147.21 96.875 144.938 99.125C140.773 103.625 140.015 109.625 142.287 115.25H127.519C130.17 110 129.034 103.625 124.869 99.125C122.975 97.25 122.975 93.5 125.247 91.25Z" fill="#0081C7"/>
<path d="M105.557 144.875C101.77 138.125 101.77 129.875 105.178 123.125C101.77 125.375 97.605 126.5 93.4397 126.5C80.9438 126.5 70.7198 116.375 70.7198 104C70.7198 91.625 80.9438 81.5 93.4397 81.5C99.877 81.5 105.557 84.125 109.722 88.25C110.48 85.625 111.994 83 114.266 81.125L117.674 77.75C118.432 77 119.568 76.25 120.703 75.5C117.674 73.25 116.16 69.875 116.16 66.5C116.16 66.125 116.16 65.75 116.16 65C109.344 61.25 101.392 59 93.4397 59C68.4479 59 48 79.25 48 104C48 128.75 68.4479 149 93.4397 149C97.9837 149 102.528 148.25 107.072 146.75C106.314 146.375 105.936 145.625 105.557 144.875Z" fill="#0081C7"/>
</svg>
