<svg width="273" height="202" viewBox="0 0 273 202" fill="none" xmlns="http://www.w3.org/2000/svg">
<circle cx="79" cy="123" r="79" fill="white"/>
<circle cx="136" cy="57" r="57" fill="white"/>
<circle cx="189.5" cy="118.5" r="83.5" fill="white"/>
<rect x="79" y="160" width="114" height="42" fill="white"/>
<path d="M186.108 88.9999H177.885C175.733 88.9999 173.99 90.7406 173.99 92.8899V95.0281C163.678 95.318 155.356 97.853 148.859 101.966C147.019 103.131 145.411 104.372 144.024 105.648V90.9999H147.76C150.117 90.9999 152.029 89.0899 152.029 86.7338V79.2659C152.029 76.9097 150.117 74.9998 147.76 74.9998H144.024V63.2661C144.024 60.9099 142.112 59 139.755 59H116.273C113.915 59 112.004 60.9094 112.004 63.2661V75H108.269C105.911 75 104 76.9095 104 79.2661V86.734C104 89.0906 105.911 91.0001 108.269 91.0001H112.004V147H108.269C105.911 147 104 148.909 104 151.266V158.734C104 161.091 105.911 163 108.269 163H112.005V174.734C112.005 177.091 113.916 179 116.274 179H139.756C142.112 179 144.024 177.09 144.024 174.734V163H147.761C150.117 163 152.029 161.09 152.029 158.734V151.266C152.029 148.91 150.117 147 147.761 147H144.024V139.39C144.379 138.741 144.927 137.87 145.682 136.85C147.146 134.869 148.975 132.914 151.194 131.108C157.029 126.359 164.544 123.404 173.991 123.039V125.11C173.991 127.259 175.734 129 177.885 129H186.108C188.258 129 190 127.259 190 125.11V92.8899C190 90.7413 188.257 88.9999 186.108 88.9999ZM140.022 174.734C140.022 174.88 139.902 175 139.756 175H116.274C116.126 175 116.007 174.881 116.007 174.734V163H140.022V174.734ZM148.026 151.266V158.734C148.026 158.88 147.907 159 147.76 159H108.269C108.121 159 108.002 158.881 108.002 158.734V151.266C108.002 151.118 108.121 151 108.269 151H147.76C147.907 151 148.026 151.119 148.026 151.266ZM116.007 63.2661C116.007 63.1187 116.126 63.0001 116.273 63.0001H139.755C139.902 63.0001 140.021 63.1196 140.021 63.2661V75H116.007V63.2661ZM108.003 86.734V79.2659C108.003 79.1185 108.121 78.9999 108.269 78.9999H147.761C147.907 78.9999 148.027 79.1194 148.027 79.2659V86.7338C148.027 86.8803 147.907 86.9998 147.761 86.9998H142.027L142.023 86.9996H114.006L114.002 86.9998H108.269C108.121 87 108.003 86.8814 108.003 86.734ZM148.666 128.006C146.176 130.033 144.119 132.232 142.463 134.472C141.395 135.916 140.66 137.141 140.229 138.014C140.092 138.289 140.022 138.592 140.022 138.9V147H116.007V90.9999H140.022V110.922C140.022 112.923 142.636 113.684 143.711 111.995C144.832 110.235 147.184 107.762 151.001 105.345C156.867 101.632 164.451 99.3131 173.99 99.0293V119.035C163.586 119.408 155.194 122.693 148.666 128.006ZM185.998 125H177.993V121.027C177.993 121.018 177.994 121.009 177.994 121V96.9998C177.994 96.9905 177.993 96.9813 177.993 96.9722V93.0002H185.998V125Z" fill="#0081C7"/>
</svg>
