<svg width="273" height="202" viewBox="0 0 273 202" fill="none" xmlns="http://www.w3.org/2000/svg">
<circle cx="79" cy="123" r="79" fill="white"/>
<circle cx="136" cy="57" r="57" fill="white"/>
<circle cx="189.5" cy="118.5" r="83.5" fill="white"/>
<rect x="79" y="160" width="114" height="42" fill="white"/>
<path fill-rule="evenodd" clip-rule="evenodd" d="M100.086 119.541C103.247 123.421 111.291 137.799 112.999 145H159.001C160.71 137.806 168.744 123.428 171.905 119.55C177.306 112.933 180.706 104.899 181.703 96.4009C182.686 87.919 181.216 79.3322 177.468 71.6674C173.686 63.9444 167.803 57.4556 160.5 52.9531C153.135 48.4006 144.655 45.9933 136.007 46C127.342 46 118.852 48.409 111.514 52.9465C104.209 57.4472 98.3235 63.9348 94.5396 71.6575C90.7895 79.3193 89.3157 87.9037 90.2943 96.3844C91.2768 104.856 94.6711 112.884 100.086 119.541ZM139.286 72.4L119.571 102.1H132.715V121.9L152.43 92.2H139.286V72.4Z" fill="#0081C7"/>
<path d="M112.999 154.9C112.999 154.025 113.346 153.185 113.962 152.567C114.578 151.948 115.414 151.6 116.285 151.6H155.715C156.587 151.6 157.423 151.948 158.039 152.567C158.655 153.185 159.001 154.025 159.001 154.9C159.001 155.775 158.655 156.615 158.039 157.233C157.423 157.852 156.587 158.2 155.715 158.2H116.285C115.414 158.2 114.578 157.852 113.962 157.233C113.346 156.615 112.999 155.775 112.999 154.9ZM159.001 164.8H112.999V171.4C112.999 173.15 113.692 174.829 114.924 176.067C116.157 177.305 117.828 178 119.571 178H152.43C154.173 178 155.844 177.305 157.076 176.067C158.309 174.829 159.001 173.15 159.001 171.4V164.8Z" fill="#0081C7"/>
</svg>
