<svg width="273" height="202" viewBox="0 0 273 202" fill="none" xmlns="http://www.w3.org/2000/svg">
<circle cx="79" cy="123" r="79" fill="white"/>
<circle cx="136" cy="57" r="57" fill="white"/>
<circle cx="189.5" cy="118.5" r="83.5" fill="white"/>
<rect x="79" y="160" width="114" height="42" fill="white"/>
<path d="M92.8854 57H92.7834C92.3098 57.01 91.8419 57.1061 91.4025 57.2835C90.767 57.536 90.2082 57.9508 89.7816 58.4867C89.355 59.0227 89.0753 59.6612 88.9702 60.339C88.8446 61.0793 85 85.3106 85 96.375C85 103.856 88.468 110.526 93.8662 114.842C95.8277 116.425 96.7692 118.142 96.7692 119.575V123.512C96.7692 123.654 96.7614 123.796 96.7457 123.938C96.5338 125.985 95.5609 135.191 94.6429 144.657C93.7406 153.988 92.8462 163.95 92.8462 167.25C92.8462 171.427 94.4994 175.433 97.4423 178.387C100.385 181.341 104.377 183 108.538 183C112.7 183 116.692 181.341 119.635 178.387C122.577 175.433 124.231 171.427 124.231 167.25C124.231 163.943 123.336 153.988 122.434 144.657C121.763 137.75 121.062 130.846 120.331 123.945L120.308 123.512V119.575C120.308 118.134 121.249 116.425 123.211 114.842C125.976 112.63 128.208 109.821 129.743 106.624C131.278 103.427 132.076 99.9238 132.077 96.375C132.077 85.287 128.209 60.9454 128.107 60.3311C127.991 59.591 127.668 58.8992 127.175 58.3371C126.681 57.775 126.038 57.3657 125.321 57.1575C124.992 57.0608 124.652 57.0079 124.309 57H124.152H124.16C123.115 57.0083 122.115 57.431 121.379 58.1759C120.642 58.9208 120.229 59.9276 120.229 60.9769V92.4769C120.24 92.9888 120.15 93.4978 119.965 93.9749C119.78 94.452 119.503 94.8878 119.15 95.2575C118.797 95.6271 118.375 95.9234 117.908 96.1293C117.441 96.3352 116.938 96.4468 116.428 96.4577C115.918 96.4685 115.411 96.3785 114.935 96.1926C114.46 96.0067 114.026 95.7287 113.657 95.3744C113.289 95.0201 112.994 94.5965 112.789 94.1277C112.584 93.6589 112.472 93.1542 112.462 92.6423V60.9375C112.462 59.8932 112.048 58.8917 111.312 58.1533C110.577 57.4148 109.579 57 108.538 57C107.498 57 106.5 57.4148 105.764 58.1533C105.029 58.8917 104.615 59.8932 104.615 60.9375V92.4375L104.623 92.6895C104.595 93.7233 104.159 94.7036 103.411 95.4148C102.663 96.1259 101.664 96.5095 100.633 96.4813C99.6034 96.4531 98.6267 96.0154 97.9182 95.2644C97.2097 94.5134 96.8274 93.5107 96.8555 92.4769V60.9848C96.8555 59.9293 96.4383 58.9169 95.6955 58.1699C94.9526 57.4228 93.937 57.0021 92.8854 57ZM143.846 92.4375C143.846 83.0389 147.566 74.0252 154.188 67.3794C160.809 60.7336 169.79 57 179.154 57C180.194 57 181.192 57.4148 181.928 58.1533C182.664 58.8917 183.077 59.8932 183.077 60.9375V115.889L183.234 117.653C183.845 124.729 184.442 131.806 185.023 138.884C185.996 150.752 187 163.777 187 167.25C187 171.427 185.347 175.433 182.404 178.387C179.461 181.341 175.47 183 171.308 183C167.146 183 163.154 181.341 160.212 178.387C157.269 175.433 155.615 171.427 155.615 167.25C155.615 163.785 156.62 150.752 157.593 138.884C158.079 132.891 158.573 127.095 158.942 122.803L159.178 120H155.615C152.494 120 149.5 118.755 147.293 116.54C145.086 114.325 143.846 111.32 143.846 108.188V92.4375Z" fill="#0081C7"/>
</svg>
