<svg width="71" height="71" viewBox="0 0 71 71" fill="none" xmlns="http://www.w3.org/2000/svg">
<rect width="71" height="71" rx="35.5" fill="#65BBA9"/>
<path d="M35.431 46.432C34.919 46.432 34.487 46.256 34.135 45.904C33.783 45.52 33.607 45.072 33.607 44.56V37.024H26.071C25.559 37.024 25.127 36.848 24.775 36.496C24.423 36.112 24.247 35.664 24.247 35.152C24.247 34.608 24.423 34.16 24.775 33.808C25.127 33.456 25.559 33.28 26.071 33.28H33.607V25.744C33.607 25.232 33.783 24.8 34.135 24.448C34.487 24.096 34.919 23.92 35.431 23.92C35.975 23.92 36.423 24.096 36.775 24.448C37.127 24.8 37.303 25.232 37.303 25.744V33.28H44.839C45.351 33.28 45.783 33.472 46.135 33.856C46.519 34.208 46.711 34.64 46.711 35.152C46.711 35.664 46.519 36.112 46.135 36.496C45.783 36.848 45.351 37.024 44.839 37.024H37.303V44.56C37.303 45.072 37.127 45.52 36.775 45.904C36.423 46.256 35.975 46.432 35.431 46.432Z" fill="white"/>
</svg>
