<svg width="71" height="71" viewBox="0 0 71 71" fill="none" xmlns="http://www.w3.org/2000/svg">
<rect width="71" height="71" rx="30" fill="#4B39C3"/>
<path d="M43.207 48.112L25.495 37.504C24.631 36.96 24.199 36.224 24.199 35.296C24.199 34.464 24.631 33.744 25.495 33.136L43.207 22.48C44.071 22.032 44.903 22.032 45.703 22.48C46.503 22.896 46.903 23.568 46.903 24.496C46.903 25.456 46.503 26.176 45.703 26.656L29.527 36.256V34.192L45.703 43.888C46.503 44.4 46.903 45.104 46.903 46C46.903 46.64 46.695 47.184 46.279 47.632C45.895 48.048 45.415 48.32 44.839 48.448C44.263 48.544 43.719 48.432 43.207 48.112Z" fill="white"/>
</svg>
