<svg width="71" height="71" viewBox="0 0 71 71" fill="none" xmlns="http://www.w3.org/2000/svg">
<rect width="71" height="71" rx="30" fill="#1D4C1C"/>
<path d="M43.927 48.016L25.255 36.784C24.583 36.4 24.247 35.84 24.247 35.104C24.247 34.496 24.583 33.936 25.255 33.424L43.927 22.192C44.535 21.904 45.143 21.904 45.751 22.192C46.391 22.448 46.711 22.944 46.711 23.68C46.711 24.416 46.407 24.976 45.799 25.36L27.847 36.064V34L45.799 44.752C46.407 45.168 46.711 45.712 46.711 46.384C46.711 46.896 46.551 47.312 46.231 47.632C45.943 47.952 45.575 48.16 45.127 48.256C44.711 48.352 44.311 48.272 43.927 48.016Z" fill="white"/>
</svg>
