<svg width="290" height="227" viewBox="0 0 290 227" fill="none" xmlns="http://www.w3.org/2000/svg">
<circle cx="64" cy="163" r="64" fill="white"/>
<circle cx="118.5" cy="69.5" r="69.5" fill="white"/>
<ellipse cx="183" cy="148.5" rx="107" ry="78.5" fill="white"/>
<rect x="64" y="185" width="114" height="42" fill="white"/>
<path d="M195.12 148.185L181.293 172.071C178.583 176.815 173.55 179.298 168.461 178.967H157.4V190L143.572 165.176L157.4 140.351V151.384H172.997L160.718 130.145L184.667 116.354L194.623 133.566C197.499 137.813 197.886 143.495 195.12 148.185ZM125.376 80H153.03C158.45 80 163.152 83.1444 165.419 87.668L170.95 97.2668L180.519 91.7503L165.917 116.078L137.433 116.575L147.001 111.058L139.203 97.5426L126.98 118.781L102.975 104.99L112.931 87.7783C115.199 83.1996 119.9 80 125.376 80ZM102.367 172.126L88.5398 148.24C85.8296 143.551 86.2168 137.924 89.0376 133.676L94.5685 124.132L85 118.616L113.429 119.057L128.086 143.44L118.517 137.924L110.719 151.384H135.276V178.967H115.365C112.773 179.154 110.182 178.612 107.884 177.403C105.586 176.193 103.675 174.365 102.367 172.126Z" fill="#0081C7"/>
</svg>
