<svg width="273" height="202" viewBox="0 0 273 202" fill="none" xmlns="http://www.w3.org/2000/svg">
<circle cx="79" cy="123" r="79" fill="white"/>
<circle cx="136" cy="57" r="57" fill="white"/>
<circle cx="189.5" cy="118.5" r="83.5" fill="white"/>
<rect x="79" y="160" width="114" height="42" fill="white"/>
<path d="M137 110.857C128.749 110.857 120.836 107.571 115.001 101.722C109.167 95.8723 105.889 87.9389 105.889 79.6667H118.333C118.333 84.63 120.3 89.3901 123.801 92.8997C127.301 96.4093 132.049 98.381 137 98.381C141.951 98.381 146.699 96.4093 150.199 92.8997C153.7 89.3901 155.667 84.63 155.667 79.6667H168.111C168.111 87.9389 164.833 95.8723 158.999 101.722C153.164 107.571 145.251 110.857 137 110.857ZM137 48.4762C141.951 48.4762 146.699 50.4479 150.199 53.9575C153.7 57.4671 155.667 62.2271 155.667 67.1905H118.333C118.333 62.2271 120.3 57.4671 123.801 53.9575C127.301 50.4479 132.049 48.4762 137 48.4762ZM180.556 67.1905H168.111C168.111 63.0945 167.306 59.0386 165.743 55.2544C164.179 51.4702 161.888 48.0318 158.999 45.1355C156.11 42.2392 152.68 39.9417 148.906 38.3742C145.131 36.8068 141.086 36 137 36C128.749 36 120.836 39.2861 115.001 45.1355C109.167 50.9848 105.889 58.9182 105.889 67.1905H93.4444C86.5378 67.1905 81 72.7424 81 79.6667V154.524C81 157.833 82.3111 161.006 84.6449 163.346C86.9787 165.686 90.144 167 93.4444 167H180.556C183.856 167 187.021 165.686 189.355 163.346C191.689 161.006 193 157.833 193 154.524V79.6667C193 76.3578 191.689 73.1844 189.355 70.8447C187.021 68.5049 183.856 67.1905 180.556 67.1905Z" fill="#0081C7"/>
</svg>
