<svg width="139" height="153" viewBox="0 0 139 153" fill="none" xmlns="http://www.w3.org/2000/svg">
<path d="M1 60.1854L8.16544 51.086L17.7842 50.0511L22.6326 53.3901L28.104 54.1908L32.193 52.0037L35.6394 47.7664L36.1457 41.557L33.2834 35.8161L44.6157 26.4433L44.7909 12.0912L50.3208 1L53.9814 2.42544L56.8826 5.97932L68.3317 13.6533L79.5472 16.8166L91.0158 11.8764L101.55 9.59174L110.623 17.793L119.23 18.3202L127.408 12.6184L124.604 20.8782L119.853 29.8019L107.333 57.315L103.068 76.5098L106.573 83.4027L116.309 107.186L128.401 128.685L135.663 135.617L138 146.083L132.295 152L125.714 149.149L115.997 150.789L109.845 146.572L112.454 136.164L107.819 127.611L106.32 122.163L106.223 118.375L96.8766 116.442L92.4956 125.561L86.8294 134.543L78.5931 132.493L70.2983 126.03L51.4696 115.856L47.2054 110.896L33.5755 100.43L26.41 97.6181L25.3586 86.6246L23.7425 80.6885L21.3086 75.4358L16.5186 73.0145L12.4881 69.6949L7.09451 64.2079L1.01946 60.1269L1 60.1854Z" fill="#0E4B9A" stroke="white" stroke-width="0.5" stroke-linecap="round" stroke-linejoin="round"/>
</svg>
