<svg width="254" height="151" viewBox="0 0 254 151" fill="none" xmlns="http://www.w3.org/2000/svg">
<ellipse cx="73.66" cy="96.5197" rx="73.66" ry="54.1867" fill="white"/>
<circle cx="118.533" cy="38.1" r="38.1" fill="white"/>
<ellipse cx="180.34" cy="96.5197" rx="73.66" ry="54.1867" fill="white"/>
<rect x="71.12" y="115.147" width="115.147" height="35.56" fill="white"/>
<path d="M125.358 60.2542H136.439V71.3355H125.358V60.2542ZM92.1136 143.364H114.276V76.8762H92.1136V143.364ZM141.98 82.4169H153.061V71.3355H141.98V82.4169ZM158.602 76.8762H169.683V65.7949H158.602V76.8762ZM158.602 49.1729V60.2542H169.683V49.1729H158.602ZM141.98 65.7949H153.061V54.7135H141.98V65.7949ZM158.602 93.4982H169.683V82.4169H158.602V93.4982ZM92.1136 60.2542H93.942L97.6543 71.3355H108.736L112.448 60.2542H114.276V54.7135H92.1136V60.2542Z" fill="#0081C7"/>
</svg>
