<svg width="300" height="178" viewBox="0 0 300 178" fill="none" xmlns="http://www.w3.org/2000/svg">
<ellipse cx="87" cy="114" rx="87" ry="64" fill="white"/>
<circle cx="140" cy="45" r="45" fill="white"/>
<ellipse cx="213" cy="114" rx="87" ry="64" fill="white"/>
<rect x="84" y="136" width="136" height="42" fill="white"/>
<path d="M103.333 151V141.667C106.289 141.667 108.506 140.889 109.983 139.333C111.461 137.778 114.378 137 118.733 137C123.089 137 126.083 137.778 127.717 139.333C129.35 140.889 131.567 141.667 134.367 141.667C137.167 141.667 139.383 140.889 141.017 139.333C142.65 137.778 145.644 137 150 137C154.356 137 157.35 137.778 158.983 139.333C160.617 140.889 162.833 141.667 165.633 141.667C168.433 141.667 170.65 140.889 172.283 139.333C173.917 137.778 176.911 137 181.267 137C185.622 137 188.539 137.778 190.017 139.333C191.494 140.889 193.711 141.667 196.667 141.667V151C192.078 151 189.065 150.222 187.627 148.667C186.19 147.111 184.07 146.333 181.267 146.333C178.464 146.333 176.247 147.111 174.617 148.667C172.986 150.222 169.992 151 165.633 151C161.275 151 158.28 150.222 156.65 148.667C155.02 147.111 152.803 146.333 150 146.333C147.197 146.333 144.98 147.111 143.35 148.667C141.72 150.222 138.725 151 134.367 151C130.008 151 127.014 150.222 125.383 148.667C123.753 147.111 121.536 146.333 118.733 146.333C115.93 146.333 113.81 147.111 112.373 148.667C110.935 150.222 107.922 151 103.333 151ZM103.333 130V120.667C106.289 120.667 108.506 119.889 109.983 118.333C111.461 116.778 114.378 116 118.733 116C123.089 116 126.104 116.778 127.777 118.333C129.451 119.889 131.648 120.667 134.367 120.667C137.167 120.667 139.383 119.889 141.017 118.333C142.65 116.778 145.644 116 150 116C154.356 116 157.35 116.778 158.983 118.333C160.617 119.889 162.833 120.667 165.633 120.667C168.433 120.667 170.65 119.889 172.283 118.333C173.917 116.778 176.911 116 181.267 116C185.622 116 188.539 116.778 190.017 118.333C191.494 119.889 193.711 120.667 196.667 120.667V130C192.078 130 189.065 129.222 187.627 127.667C186.19 126.111 184.07 125.333 181.267 125.333C178.464 125.333 176.304 126.111 174.789 127.667C173.274 129.222 170.222 130 165.633 130C161.2 130 158.187 129.222 156.594 127.667C155.001 126.111 152.803 125.333 150 125.333C147.044 125.333 144.848 126.111 143.411 127.667C141.973 129.222 138.959 130 134.367 130C129.775 130 126.721 129.222 125.206 127.667C123.691 126.111 121.533 125.333 118.733 125.333C115.933 125.333 113.815 126.111 112.377 127.667C110.94 129.222 107.925 130 103.333 130ZM126.2 106.2L141.717 90.6833L137.05 86.0167C134.483 83.45 131.761 81.5833 128.883 80.4167C126.006 79.25 122.467 78.6667 118.267 78.6667V67C124.1 67 128.922 67.6425 132.733 68.9273C136.544 70.2122 140.278 72.6809 143.933 76.3333L173.8 106.2C172.478 107.056 171.194 107.737 169.95 108.244C168.706 108.751 167.267 109.003 165.633 109C162.833 109 160.617 108.222 158.983 106.667C157.35 105.111 154.356 104.333 150 104.333C145.644 104.333 142.65 105.111 141.017 106.667C139.383 108.222 137.167 109 134.367 109C132.733 109 131.294 108.748 130.05 108.244C128.806 107.74 127.522 107.059 126.2 106.2ZM171.933 67C175.2 67 177.961 68.148 180.217 70.444C182.472 72.74 183.6 75.4809 183.6 78.6667C183.6 81.9333 182.472 84.6945 180.217 86.95C177.961 89.2056 175.2 90.3333 171.933 90.3333C168.667 90.3333 165.906 89.2056 163.65 86.95C161.394 84.6945 160.267 81.9333 160.267 78.6667C160.267 75.4778 161.394 72.7353 163.65 70.4393C165.906 68.1433 168.667 66.9969 171.933 67Z" fill="#0081C7"/>
</svg>
