<svg width="55" height="57" viewBox="0 0 55 57" fill="none" xmlns="http://www.w3.org/2000/svg">
<path d="M27.6043 57C25.4481 57 23.7787 56.3534 22.5962 55.0602L0.476965 28.7855C-0.0794942 28.1193 -0.149051 27.4727 0.268293 26.8457C0.755194 26.1795 1.65944 25.6701 2.98103 25.3174C4.1635 24.9647 5.34598 24.906 6.52846 25.1411C7.78049 25.3762 8.71951 25.8268 9.34553 26.493L30.0041 51.5922H24.9959L45.4458 26.493C46.0718 25.8268 47.0108 25.3762 48.2629 25.1411C49.5845 24.906 50.906 24.9647 52.2276 25.3174C53.4797 25.6309 54.3144 26.1207 54.7317 26.7869C55.149 27.4531 55.0795 28.1193 54.523 28.7855L32.4038 55.0602C31.3604 56.3534 29.7606 57 27.6043 57Z" fill="#FFB157"/>
<path d="M27.6043 32C25.4481 32 23.7787 31.3534 22.5962 30.0602L0.476965 3.78545C-0.0794942 3.11927 -0.149051 2.47269 0.268293 1.8457C0.755194 1.17953 1.65944 0.670096 2.98103 0.317414C4.1635 -0.0352678 5.34598 -0.0940485 6.52846 0.141072C7.78049 0.376195 8.71951 0.826844 9.34553 1.49302L30.0041 26.5922H24.9959L45.4458 1.49302C46.0718 0.826844 47.0108 0.376195 48.2629 0.141072C49.5845 -0.0940485 50.906 -0.0352678 52.2276 0.317414C53.4797 0.63091 54.3144 1.12075 54.7317 1.78692C55.149 2.4531 55.0795 3.11927 54.523 3.78545L32.4038 30.0602C31.3604 31.3534 29.7606 32 27.6043 32Z" fill="#FFB157"/>
</svg>
