<svg width="1920" height="88" viewBox="0 0 1920 88" fill="none" xmlns="http://www.w3.org/2000/svg">
<rect width="1920" height="88" rx="40" fill="#F8F198"/>
<path d="M127.878 48.7687C127.84 48.3097 127.725 47.9163 127.4 47.5846C127.256 47.438 127.082 47.3262 126.898 47.2432C126.615 46.8749 126.191 46.6222 125.699 46.6068C125.258 46.5952 124.814 46.6203 124.37 46.6357C124.576 46.0224 124.472 45.3011 123.986 44.8402C123.39 44.2713 122.798 43.7023 122.198 43.1373C121.85 42.8075 121.402 42.6339 120.957 42.6339C120.526 42.6339 120.099 42.7959 119.764 43.1373C119.123 43.7949 119.075 44.9752 119.764 45.6232C120.14 45.9762 120.522 46.3233 120.903 46.6724C119.616 46.6859 118.33 46.7071 117.044 46.7148C116.726 46.7148 116.41 46.7052 116.093 46.7052C116.062 46.3098 115.903 46.0051 115.659 45.6926C115.427 45.3937 115.194 45.0929 114.963 44.7959C114.719 44.4834 114.23 44.3311 113.855 44.3311C113.443 44.3311 113.042 44.4989 112.75 44.7959C112.459 45.0929 112.289 45.5017 112.289 45.926C112.289 46.2134 112.38 46.4467 112.503 46.6666C110.986 46.6357 109.471 46.5952 107.954 46.5586C107.937 46.5586 107.92 46.5586 107.903 46.5586C107.867 46.4139 107.829 46.2693 107.765 46.1208C107.661 45.8874 107.558 45.6579 107.458 45.4265C107.305 45.0755 106.889 44.8036 106.541 44.7091C106.408 44.6724 106.274 44.6531 106.138 44.6531C105.868 44.6531 105.599 44.7245 105.364 44.8653C105.024 45.0678 104.765 45.4072 104.661 45.7968C104.593 46.0533 104.61 46.2847 104.661 46.5123C102.563 46.4911 100.464 46.4776 98.3661 46.4525C96.7924 46.4332 95.2187 46.4217 93.6507 46.3638C92.9982 46.3407 92.3456 46.3329 91.6912 46.3156C91.6628 45.8643 91.6383 45.4111 91.6193 44.9598C91.5929 44.2771 91.5512 43.5924 91.5229 42.9058C91.4661 41.5655 91.3886 40.229 91.3583 38.8886C91.3243 37.5829 91.3281 36.2792 91.3243 34.9736C91.3167 33.747 91.3394 32.5281 91.4718 31.3092C91.5758 30.6709 91.729 30.0634 91.9522 29.4597C92.043 29.2669 92.1433 29.0798 92.2567 28.9004C92.3021 28.8503 92.3475 28.8021 92.3948 28.7558C92.4156 28.7423 92.4364 28.7307 92.4554 28.7191C92.6123 28.669 92.7712 28.6266 92.932 28.5919C93.1249 28.5803 93.316 28.5822 93.507 28.5938C93.7794 28.6478 94.0479 28.7211 94.309 28.8136C94.5189 28.9216 94.7137 29.0528 94.9123 29.1801C94.7705 29.5677 94.6854 29.9631 94.7761 30.4009C94.8669 30.831 95.1166 31.1569 95.3757 31.4847C95.7029 31.9669 96.0112 32.4972 96.4576 32.8714C96.7205 33.0893 97.008 33.2995 97.3523 33.3535C97.7608 33.4114 98.1353 33.4037 98.5174 33.2378C98.9562 33.0508 99.2815 32.8521 99.6523 32.5397C100.157 32.1154 100.562 31.5927 100.963 31.0624C101.379 30.5127 101.761 29.9322 102.136 29.3556C102.453 28.8715 102.777 28.3816 103.102 27.9053C103.397 27.4694 103.736 27.0451 103.97 26.5726C104.154 26.2101 104.277 25.8205 104.281 25.4116C104.288 24.3798 103.356 23.8263 102.486 23.6315C101.848 23.4869 101.209 23.3557 100.579 23.1764C100.452 23.1417 100.326 23.1243 100.199 23.1243C99.9776 23.1243 99.762 23.1745 99.5653 23.269C99.4669 23.2574 99.3685 23.2844 99.2702 23.2921C99.1416 22.9835 98.9468 22.702 98.6441 22.5284C97.9821 22.1465 97.3901 21.6528 96.7338 21.2536C96.0566 20.837 95.266 20.5477 94.5019 20.3336C93.7226 20.1157 92.8828 20.0289 92.079 20.0058C92.0317 20.0019 91.9806 20 91.9276 20C91.137 20 90.3218 20.1639 89.5804 20.4262C89.1302 20.5824 88.699 20.7656 88.2696 20.9643C87.74 21.2092 87.2917 21.5949 86.8416 21.9614C86.5635 22.187 86.3366 22.4724 86.1115 22.7521C85.7975 23.1417 85.5005 23.5544 85.2206 23.9748C85.0182 24.2757 84.8272 24.5843 84.6437 24.8986C84.3165 25.4637 84.1179 26.1291 83.9458 26.7578C83.7169 27.5986 83.6015 28.4704 83.5183 29.3363C83.2289 32.4259 83.3386 35.5463 83.3349 38.6475C83.3311 40.1402 83.3197 41.6388 83.3008 43.1353C83.2895 43.8489 83.2819 44.5644 83.3008 45.278C83.3065 45.5827 83.3084 45.8894 83.3178 46.1941C83.2365 46.1922 83.1533 46.1941 83.0719 46.1922C82.5802 46.1844 82.0884 46.1767 81.5966 46.1767C81.1408 46.1767 80.6868 46.1825 80.2329 46.1999C79.8943 46.2134 79.5936 46.3484 79.3326 46.5335C79.064 46.6164 78.8087 46.7437 78.6082 46.9482C78.2639 47.2992 78.1429 47.7119 78.1031 48.194C78.0615 48.6858 78.0237 49.1757 78.0048 49.6713C77.9859 50.221 78.0237 50.734 78.105 51.2798C78.3036 52.6452 79.3874 53.5555 80.6282 53.9142C80.5885 55.2546 80.6225 56.6065 80.7852 57.9392C80.8836 58.7415 80.9914 59.5476 81.1219 60.3499C81.241 61.0712 81.3432 61.7906 81.5645 62.4887C81.8236 63.3142 82.2643 64.0123 82.775 64.6931C83.3065 65.399 83.8607 66.0913 84.5586 66.641C84.7534 66.7933 84.9596 66.9322 85.1601 67.0749C84.8688 67.7287 84.5775 68.3844 84.3203 69.0498C84.133 69.5319 84.0687 70.0469 84.0101 70.5579C83.9798 70.7951 84.029 71.1461 84.082 71.3602C84.1425 71.6167 84.2276 71.8752 84.3487 72.1047C84.6551 72.689 85.1506 73.1095 85.701 73.4412C86.4576 73.8963 87.3333 74.0062 88.1921 73.9291C88.7387 73.879 89.2418 73.7806 89.7393 73.5357C90.3691 73.2271 90.8703 72.7951 91.2789 72.2184C91.8255 71.4547 92.0619 70.4846 92.41 69.6129C92.4308 69.5589 92.4118 69.4914 92.4232 69.4316C92.7977 69.4432 93.1703 69.4509 93.5373 69.4606C95.0504 69.4991 96.5635 69.5377 98.0767 69.5801C101.031 69.6631 103.98 69.8366 106.936 69.8174C108.446 69.8058 109.951 69.7865 111.457 69.7788C112.694 69.773 113.933 69.6303 115.164 69.4895C115.187 69.9176 115.224 70.3419 115.328 70.7566C115.448 71.2387 115.699 71.7074 115.958 72.1278C116.168 72.4672 116.431 72.7777 116.734 73.0323C117.67 73.8192 118.839 74.1277 120.038 73.9522C120.851 73.8346 121.57 73.3949 122.185 72.8568C122.578 72.5135 122.841 72.0507 123.036 71.5704C123.163 71.258 123.272 70.9591 123.288 70.6081C123.333 69.7634 123.044 69.0228 122.612 68.3208C122.399 67.9736 122.181 67.6342 121.99 67.2755C121.966 67.2292 121.914 67.2118 121.886 67.1694C122.064 67.0151 122.247 66.8685 122.416 66.7027C122.756 66.3633 123.046 65.9505 123.322 65.5571C123.524 65.2755 123.715 64.9689 123.868 64.6603C124.303 63.8002 124.659 62.9111 124.912 61.9834C125.179 61.0211 125.287 59.997 125.389 59.0076C125.523 57.6788 125.625 56.3327 125.58 54.9923C125.968 54.8361 126.35 54.6702 126.707 54.4523C127.033 54.2614 127.456 53.8795 127.632 53.5362C127.831 53.1389 127.922 52.8304 127.969 52.3906C127.992 52.1766 127.999 51.9663 127.999 51.7484C128.007 50.7513 127.961 49.762 127.878 48.7687ZM124.71 52.057C124.723 52.0396 124.736 52.0223 124.748 52.0049V52.0126C124.736 52.0281 124.723 52.0435 124.71 52.057ZM124.873 51.8121C124.888 51.7754 124.903 51.7388 124.918 51.7021C124.907 51.7388 124.892 51.7735 124.876 51.8082L124.873 51.8121ZM100.405 26.1541C100.418 26.1561 100.432 26.1561 100.445 26.158C100.432 26.158 100.418 26.1561 100.405 26.1541C100.433 26.1561 100.462 26.1599 100.488 26.1638C100.505 26.1657 100.522 26.1676 100.539 26.1696C100.522 26.1676 100.507 26.1657 100.49 26.1638C100.564 26.1753 100.636 26.185 100.71 26.1966C100.513 26.4839 100.32 26.7713 100.131 27.0644C99.5596 27.94 99.0243 28.831 98.4077 29.6757C98.2639 29.8532 98.1145 30.0248 97.9537 30.1887C97.9102 30.127 97.8649 30.0653 97.8213 30.0036C97.9216 29.8474 98.0218 29.6912 98.1126 29.5311C98.3453 29.1222 98.5817 28.7172 98.8389 28.3276C99.3326 27.5813 99.8698 26.8696 100.405 26.1541ZM86.2496 33.9109C86.2685 32.395 86.3176 30.8869 86.4822 29.3787C86.5446 28.9602 86.6127 28.5475 86.7073 28.1329C86.8056 27.6951 86.9588 27.2631 87.1196 26.8407C87.3428 26.3663 87.6341 25.942 87.9405 25.5215C88.2715 25.0953 88.6138 24.6884 89.0092 24.3162C89.2607 24.1349 89.518 23.9748 89.796 23.8321C90.3275 23.6277 90.8665 23.4715 91.4226 23.3673C91.9276 23.3287 92.4251 23.3345 92.932 23.3885C93.6053 23.5023 94.2428 23.6817 94.8783 23.9324C95.249 24.1079 95.5895 24.3085 95.9223 24.5515C96.2931 24.8234 96.6524 25.0934 97.0459 25.3268C97.0705 25.3422 97.0988 25.3403 97.1253 25.3538C96.8813 25.7125 96.6506 26.0789 96.4179 26.4473C95.4495 25.8706 94.3733 25.4965 93.2668 25.4965C92.8752 25.4965 92.4818 25.5408 92.0884 25.6392C91.7309 25.7318 91.3678 25.8938 91.0462 26.0731C90.5999 26.3238 90.2556 26.7366 89.9643 27.1531C89.5331 27.7606 89.2815 28.5166 89.0602 29.2225C88.6063 30.6747 88.5874 32.235 88.5439 33.745C88.5023 35.151 88.5401 36.5531 88.5476 37.9571C88.5552 39.4614 88.6744 40.9599 88.7009 42.4642C88.7273 43.7236 88.7198 44.9849 88.7425 46.2462C87.9424 46.2384 87.1385 46.2307 86.3385 46.2211C86.2987 45.1912 86.2855 44.1613 86.2723 43.1353C86.2496 41.5925 86.2382 40.0496 86.2382 38.5067C86.2344 36.9754 86.2344 35.4441 86.2496 33.9109ZM81.4321 50.8825C81.4529 50.9095 81.4737 50.9384 81.4964 50.9654C81.4737 50.9403 81.4529 50.9133 81.434 50.8844L81.4321 50.8825ZM81.3602 50.759C81.3488 50.734 81.3375 50.7089 81.328 50.6838C81.3394 50.707 81.3488 50.734 81.3602 50.759ZM87.1442 70.5907H87.148C87.1461 70.5926 87.1442 70.5907 87.1442 70.5907ZM87.1896 70.6139V70.6139C87.235 70.6331 87.2804 70.6505 87.3258 70.6698C87.2785 70.6524 87.2331 70.6351 87.1896 70.6139ZM88.977 69.9003C88.89 70.0816 88.7954 70.2571 88.6857 70.4249C88.6706 70.4422 88.6555 70.4576 88.6384 70.475C88.5287 70.5464 88.4171 70.6119 88.3018 70.6736C88.2583 70.6871 88.2148 70.6987 88.1694 70.7103C87.931 70.7296 87.6965 70.7315 87.4601 70.718C87.4468 70.7141 87.4317 70.7103 87.4185 70.7064C87.3409 70.664 87.2653 70.6216 87.1915 70.5734C87.2388 70.3458 87.3012 70.124 87.3787 69.9061C87.5754 69.4779 87.7759 69.0536 87.9764 68.6274C88.2923 68.7547 88.6101 68.8762 88.9335 68.9765C89.047 69.0112 89.1661 69.0286 89.2815 69.0575C89.1794 69.3352 89.081 69.6187 88.977 69.9003ZM120.498 70.4789C120.471 70.5329 120.443 70.583 120.413 70.6351C120.348 70.7026 120.282 70.7662 120.214 70.8279C120.155 70.8665 120.095 70.9012 120.034 70.9321C119.902 70.9803 119.771 71.0227 119.637 71.0536C119.55 71.0555 119.463 71.0516 119.378 71.0459C119.251 71.015 119.132 70.9784 119.011 70.9359C118.943 70.8993 118.875 70.8588 118.809 70.8164C118.746 70.7585 118.686 70.6987 118.629 70.637C118.544 70.5039 118.468 70.367 118.398 70.2243C118.36 70.1086 118.328 69.9948 118.304 69.8752C118.29 69.6476 118.289 69.4201 118.285 69.1906C118.283 69.1211 118.253 69.0594 118.243 68.9919C118.661 68.8858 119.07 68.7528 119.467 68.5908C119.49 68.639 119.49 68.7046 119.52 68.7451C119.87 69.206 120.231 69.6804 120.494 70.2011C120.509 70.2532 120.524 70.3053 120.537 70.3593C120.524 70.3998 120.511 70.4403 120.498 70.4789ZM121.627 62.5986C121.674 62.4849 121.722 62.3691 121.769 62.2554C121.767 62.2592 121.767 62.2631 121.765 62.2669C121.72 62.3769 121.672 62.4868 121.627 62.5986ZM122.467 57.133C122.452 58.0665 122.431 59.0076 122.334 59.9333C122.219 60.7183 122.06 61.509 121.771 62.2496C121.479 62.9207 121.15 63.5456 120.738 64.1434C120.45 64.4925 120.138 64.8069 119.798 65.1039C119.378 65.4047 118.935 65.6497 118.468 65.8657C117.685 66.155 116.889 66.3247 116.072 66.45C114.723 66.6178 113.367 66.7586 112.011 66.855C110.543 66.9611 109.06 66.9438 107.587 66.9553C104.625 66.9785 101.657 66.8975 98.699 66.7798C97.3542 66.7297 96.0094 66.6699 94.6683 66.6236C93.4654 66.5812 92.2586 66.5118 91.0651 66.371C90.3559 66.2456 89.6825 66.0566 89.0092 65.7982C88.1977 65.4202 87.426 64.9573 86.6959 64.4327C86.2174 64.0123 85.7994 63.5494 85.4003 63.048C85.1242 62.6623 84.8631 62.2689 84.657 61.8407C84.4054 61.1098 84.3146 60.3441 84.2011 59.5766C84.1028 58.8784 83.9855 58.1822 83.8853 57.4821C83.751 56.2497 83.7774 55.0251 83.8266 53.785C83.855 53.1949 83.4975 52.6876 83.0152 52.4022C82.9377 51.8101 82.5215 51.2856 81.9276 51.1158C81.8576 51.0966 81.7896 51.0753 81.7234 51.0522C81.6628 51.0194 81.6023 50.9847 81.5456 50.9481C81.5021 50.9056 81.4604 50.8632 81.4188 50.8208V50.8188C81.3867 50.356 81.4075 49.895 81.4453 49.4322C82.6029 49.384 83.7566 49.33 84.918 49.3415C85.7124 49.3531 86.5068 49.3493 87.3012 49.3493C87.9935 49.3493 88.6876 49.3492 89.3837 49.3531C90.9119 49.3647 92.4402 49.4302 93.9685 49.4785C95.5497 49.5325 97.1367 49.5479 98.7217 49.5363C101.905 49.5209 105.086 49.4939 108.266 49.6019C109.79 49.652 111.319 49.7118 112.843 49.7427C114.398 49.7735 115.953 49.7658 117.507 49.7697C118.949 49.7774 120.396 49.789 121.837 49.7774C122.783 49.7716 123.73 49.7465 124.676 49.7446C124.735 50.4601 124.78 51.1737 124.755 51.8892C124.627 51.9683 124.496 52.0416 124.358 52.1091C124.241 52.1553 124.122 52.2016 124.004 52.2498C123.615 52.4061 123.305 52.5893 123.083 52.9731C123.019 53.0849 122.996 53.2141 122.96 53.3395C122.609 53.6384 122.365 54.0627 122.401 54.5429C122.467 55.4031 122.482 56.2652 122.467 57.133ZM100.49 26.1638C100.475 26.1618 100.46 26.1599 100.445 26.158C100.458 26.1599 100.473 26.1618 100.49 26.1638ZM103.019 38.0593C102.667 38.2695 102.24 38.3254 101.846 38.2155C101.498 38.1152 101.094 37.8491 100.937 37.5019C100.772 37.1316 100.641 36.7498 100.49 36.3718C100.36 36.0439 100.21 35.7141 100.131 35.367C99.9587 34.5956 100.352 33.7971 101.124 33.5792C101.247 33.5445 101.373 33.5271 101.5 33.5271C101.754 33.5271 102.003 33.5946 102.221 33.7277C102.565 33.9302 102.741 34.2291 102.877 34.5936C102.892 34.6341 102.906 34.6766 102.921 34.7171C102.953 34.8096 102.989 34.9022 103.025 34.9928C103.129 35.2301 103.238 35.4557 103.373 35.6736C103.709 36.0844 103.864 36.5916 103.721 37.1297C103.615 37.5212 103.361 37.8568 103.019 38.0593ZM102.488 41.1855C102.346 40.7921 102.45 40.2733 102.652 39.9204C102.862 39.554 103.21 39.282 103.611 39.1682C103.751 39.1277 103.895 39.1084 104.038 39.1084C104.322 39.1084 104.606 39.1856 104.852 39.3322C105.234 39.5617 105.44 39.8972 105.589 40.3138C105.777 40.8403 105.96 41.3726 106.144 41.903C106.429 42.7361 105.826 43.6715 105.039 43.8894C104.631 44.0071 104.186 43.9473 103.817 43.7293C103.428 43.496 103.252 43.172 103.091 42.7631C102.881 42.2405 102.682 41.714 102.488 41.1855ZM104.398 28.1116C104.695 27.8089 105.1 27.6526 105.502 27.6526C105.9 27.6526 106.297 27.8031 106.59 28.1116C106.898 28.4299 107.193 28.777 107.521 29.0759C107.536 29.0856 107.551 29.0952 107.568 29.1029C108.268 29.5697 108.557 30.4819 108.118 31.2456C107.916 31.5966 107.583 31.857 107.201 31.963C106.838 32.0672 106.337 32.0402 106.017 31.8068C105.432 31.371 104.909 30.8637 104.398 30.343C103.8 29.7374 103.802 28.7191 104.398 28.1116ZM110.231 34.0498C110.524 33.5387 111.099 33.2224 111.672 33.2224C111.947 33.2224 112.221 33.2957 112.465 33.4558C112.839 33.7007 113.214 33.9533 113.581 34.204C113.936 34.4528 114.207 34.7537 114.322 35.1857C114.434 35.61 114.375 36.0709 114.158 36.4489C113.719 37.2126 112.709 37.5 111.96 37.0371C111.578 36.8038 111.196 36.5666 110.821 36.3274C110.066 35.8453 109.773 34.8482 110.231 34.0498ZM115.342 40.6957C114.689 40.1152 114.761 39.0004 115.342 38.4122C115.652 38.094 116.036 37.9474 116.424 37.9474C116.834 37.9474 117.248 38.1114 117.581 38.4122C117.958 38.7517 118.328 39.1027 118.716 39.4363C118.727 39.444 118.739 39.4517 118.75 39.4595C119.098 39.7082 119.361 39.9937 119.476 40.4218C119.588 40.8384 119.533 41.2935 119.319 41.6677C119.109 42.0264 118.769 42.2945 118.376 42.4044C118.005 42.5105 117.477 42.4893 117.157 42.2443C116.526 41.7622 115.938 41.2241 115.342 40.6957ZM107.759 35.0507C108.069 35.4653 108.379 35.88 108.693 36.2946C108.807 36.4412 108.92 36.5859 109.039 36.7286C109.325 37.0641 109.505 37.4151 109.505 37.8703C109.505 38.2984 109.336 38.7112 109.039 39.012C108.744 39.3129 108.34 39.4845 107.92 39.4845C107.534 39.4845 107.055 39.3244 106.8 39.012C106.268 38.3621 105.756 37.6987 105.241 37.0294C105.043 36.8269 104.905 36.5859 104.829 36.3101C104.753 36.0208 104.753 35.7296 104.829 35.4403C104.941 35.0314 105.207 34.6804 105.567 34.4663C105.815 34.3178 106.098 34.2426 106.382 34.2426C106.522 34.2426 106.662 34.2619 106.798 34.2985C107.241 34.4239 107.492 34.6958 107.759 35.0507ZM109.302 41.1315C109.414 40.7227 109.681 40.3678 110.04 40.1499C110.286 40.0033 110.57 39.9281 110.853 39.9281C110.997 39.9281 111.141 39.9474 111.281 39.986C111.72 40.1113 111.973 40.3832 112.24 40.7381C112.427 40.9946 112.612 41.2511 112.802 41.5076C112.836 41.55 112.87 41.5925 112.904 41.633C113.185 41.9724 113.369 42.3215 113.369 42.7786C113.369 43.2028 113.201 43.6194 112.904 43.9203C112.319 44.5162 111.237 44.5779 110.664 43.9203C110.241 43.4323 109.855 42.9078 109.465 42.3928C109.217 42.063 109.202 41.5095 109.302 41.1315ZM120.235 56.4638C120.284 57.8775 120.216 59.3278 119.796 60.6874C119.509 61.6151 119.051 62.5389 118.362 63.2274C117.793 63.7924 117.112 64.2592 116.456 64.7162C115.756 65.2003 114.74 64.8532 114.335 64.1512C113.938 63.453 114.129 62.3634 114.89 61.9892C115.185 61.8465 115.451 61.6749 115.714 61.4878C115.919 61.3181 116.11 61.1406 116.284 60.9401C116.41 60.7491 116.526 60.5543 116.624 60.3499C116.823 59.7771 116.948 59.185 117.038 58.5833C117.106 57.8775 117.063 57.1677 117.031 56.4638C116.989 55.5689 117.787 54.8284 118.635 54.8284C119.531 54.8284 120.205 55.5728 120.235 56.4638Z" fill="#FFCA8D" fill-opacity="0.5"/>
<path d="M300.286 53.6667C304.02 53.6667 307.047 50.6819 307.047 47C307.047 43.3181 304.02 40.3333 300.286 40.3333C296.551 40.3333 293.524 43.3181 293.524 47C293.524 50.6819 296.551 53.6667 300.286 53.6667Z" fill="#FFCA8D" fill-opacity="0.5"/>
<path d="M329.023 56.6667L325.473 51C324.797 49.8333 324.966 48.3333 325.812 47.3333C328.009 45 328.009 41.5 325.812 39.1667L324.29 37.6667C323.952 37.1667 323.614 37 323.107 37H320.571V32.1667C322.6 32.5 324.628 33.3333 326.15 34.8333C326.488 35.1667 326.995 35.3333 327.333 35.3333C327.671 35.3333 328.178 35.1667 328.516 34.8333C329.193 34.1667 329.193 33.1667 328.516 32.5C325.981 30 322.769 28.6667 319.219 28.6667H315.5C314.485 28.6667 313.809 29.3333 313.809 30.3333C313.809 31.3333 314.485 32 315.5 32H317.19V37H314.655C314.147 37 313.809 37.1667 313.471 37.5L311.95 39C309.752 41.3333 309.752 44.8333 311.95 47.1667C312.964 48.1667 313.133 49.6667 312.288 50.8333L308.738 56.6667C307.386 58.8333 307.386 61.3333 308.569 63.5C309.752 65.6667 312.119 67 314.655 67H323.107C325.643 67 327.84 65.6667 329.193 63.5C330.376 61.3333 330.207 58.6667 329.023 56.6667ZM314.485 41.3333L315.5 40.3333H322.262L323.276 41.3333C324.29 42.3333 324.29 43.8333 323.276 44.8333C321.416 46.8333 321.078 49.5 322.093 52H315.5C316.683 49.6667 316.176 46.8333 314.316 44.8333C313.471 44 313.471 42.3333 314.485 41.3333Z" fill="#FFCA8D" fill-opacity="0.5"/>
<path d="M305.695 65.1667C304.005 62.1667 304.005 58.5 305.526 55.5C304.005 56.5 302.145 57 300.286 57C294.707 57 290.143 52.5 290.143 47C290.143 41.5 294.707 37 300.286 37C303.159 37 305.695 38.1667 307.555 40C307.893 38.8333 308.569 37.6667 309.583 36.8333L311.105 35.3333C311.443 35 311.95 34.6667 312.457 34.3333C311.105 33.3333 310.428 31.8333 310.428 30.3333C310.428 30.1667 310.428 30 310.428 29.6667C307.386 28 303.836 27 300.286 27C289.129 27 280 36 280 47C280 58 289.129 67 300.286 67C302.314 67 304.343 66.6667 306.371 66C306.033 65.8333 305.864 65.5 305.695 65.1667Z" fill="#FFCA8D" fill-opacity="0.5"/>
<path d="M499.714 28.5294H505.286V34.0588H499.714V28.5294ZM483 70H494.143V36.8235H483V70ZM508.071 39.5882H513.643V34.0588H508.071V39.5882ZM516.429 36.8235H522V31.2941H516.429V36.8235ZM516.429 23V28.5294H522V23H516.429ZM508.071 31.2941H513.643V25.7647H508.071V31.2941ZM516.429 45.1176H522V39.5882H516.429V45.1176ZM483 28.5294H483.919L485.786 34.0588H491.357L493.224 28.5294H494.143V25.7647H483V28.5294Z" fill="#FFCA8D" fill-opacity="0.5"/>
<path fill-rule="evenodd" clip-rule="evenodd" d="M710.097 22.1338C711.518 22.1338 712.91 22.5294 714.119 23.2761C715.327 24.0228 716.304 25.0912 716.939 26.3616L720.473 33.4275C721.095 33.1725 721.707 32.8971 722.309 32.6013C722.914 32.299 723.615 32.2495 724.257 32.4638C724.899 32.678 725.429 33.1384 725.731 33.7437C726.033 34.349 726.083 35.0495 725.869 35.6913C725.654 36.3331 725.194 36.8634 724.589 37.1657C723.976 37.4385 723.36 37.7037 722.74 37.9613L725.191 42.8649C725.722 43.9281 725.999 45.1006 725.999 46.2894V52.7331C725.999 53.8094 725.772 54.8736 725.332 55.8561C724.893 56.8386 724.251 57.7173 723.449 58.4348V61.658C723.449 62.6724 723.046 63.6453 722.329 64.3626C721.611 65.0799 720.639 65.4829 719.624 65.4829C718.61 65.4829 717.637 65.0799 716.919 64.3626C716.202 63.6453 715.799 62.6724 715.799 61.658V60.383H685.2V61.658C685.2 62.6724 684.797 63.6453 684.079 64.3626C683.362 65.0799 682.389 65.4829 681.375 65.4829C680.36 65.4829 679.388 65.0799 678.67 64.3626C677.953 63.6453 677.55 62.6724 677.55 61.658V58.4348C675.984 57.0324 675 54.9975 675 52.7331V46.2869C675 45.0998 675.277 43.9291 675.808 42.8674L678.238 38.0021C677.623 37.7437 677.015 37.4658 676.415 37.1683C675.813 36.862 675.355 36.3314 675.141 35.6908C674.926 35.0502 674.972 34.3509 675.268 33.7437C675.417 33.4439 675.625 33.1765 675.877 32.9568C676.13 32.7371 676.424 32.5695 676.742 32.4634C677.06 32.3573 677.395 32.3149 677.73 32.3385C678.064 32.3622 678.39 32.4515 678.69 32.6013C679.293 32.8988 679.905 33.1742 680.526 33.4275L684.06 26.3642C684.695 25.0933 685.671 24.0244 686.88 23.2772C688.088 22.53 689.481 22.1341 690.901 22.1338H710.097ZM689.025 45.0833C688.01 45.0833 687.037 45.4863 686.32 46.2036C685.603 46.9209 685.2 47.8938 685.2 48.9082C685.2 49.9227 685.603 50.8955 686.32 51.6129C687.037 52.3302 688.01 52.7331 689.025 52.7331C690.039 52.7331 691.012 52.3302 691.729 51.6129C692.447 50.8955 692.85 49.9227 692.85 48.9082C692.85 47.8938 692.447 46.9209 691.729 46.2036C691.012 45.4863 690.039 45.0833 689.025 45.0833ZM711.974 45.0833C710.96 45.0833 709.987 45.4863 709.27 46.2036C708.552 46.9209 708.149 47.8938 708.149 48.9082C708.149 49.9227 708.552 50.8955 709.27 51.6129C709.987 52.3302 710.96 52.7331 711.974 52.7331C712.989 52.7331 713.962 52.3302 714.679 51.6129C715.396 50.8955 715.799 49.9227 715.799 48.9082C715.799 47.8938 715.396 46.9209 714.679 46.2036C713.962 45.4863 712.989 45.0833 711.974 45.0833ZM690.901 27.2337C690.482 27.2336 690.069 27.3372 689.698 27.5351C689.328 27.733 689.013 28.0193 688.78 28.3684L688.622 28.6438L685.383 35.1156C689.331 36.2987 694.65 37.4335 700.499 37.4335C705.961 37.4335 710.957 36.4441 714.805 35.3502L715.613 35.1156L712.377 28.6438C712.189 28.2685 711.912 27.9453 711.57 27.7029C711.227 27.4604 710.83 27.3063 710.414 27.2541L710.1 27.2337H690.901Z" fill="#FFCA8D" fill-opacity="0.5"/>
<path d="M1207.5 50.2857C1204.63 50.2857 1201.87 49.1318 1199.84 47.0778C1197.81 45.0239 1196.67 42.2381 1196.67 39.3333H1201C1201 41.0762 1201.68 42.7477 1202.9 43.98C1204.12 45.2124 1205.78 45.9048 1207.5 45.9048C1209.22 45.9048 1210.88 45.2124 1212.1 43.98C1213.32 42.7477 1214 41.0762 1214 39.3333H1218.33C1218.33 42.2381 1217.19 45.0239 1215.16 47.0778C1213.13 49.1318 1210.37 50.2857 1207.5 50.2857ZM1207.5 28.381C1209.22 28.381 1210.88 29.0733 1212.1 30.3057C1213.32 31.5381 1214 33.2095 1214 34.9524H1201C1201 33.2095 1201.68 31.5381 1202.9 30.3057C1204.12 29.0733 1205.78 28.381 1207.5 28.381ZM1222.67 34.9524H1218.33C1218.33 33.5141 1218.05 32.0899 1217.51 30.7611C1216.96 29.4323 1216.17 28.2249 1215.16 27.2079C1214.15 26.1909 1212.96 25.3841 1211.65 24.8337C1210.33 24.2833 1208.92 24 1207.5 24C1204.63 24 1201.87 25.1539 1199.84 27.2079C1197.81 29.2618 1196.67 32.0476 1196.67 34.9524H1192.33C1189.93 34.9524 1188 36.9019 1188 39.3333V65.619C1188 66.7809 1188.46 67.8953 1189.27 68.7168C1190.08 69.5384 1191.18 70 1192.33 70H1222.67C1223.82 70 1224.92 69.5384 1225.73 68.7168C1226.54 67.8953 1227 66.7809 1227 65.619V39.3333C1227 38.1714 1226.54 37.0571 1225.73 36.2355C1224.92 35.4139 1223.82 34.9524 1222.67 34.9524Z" fill="#FFCA8D" fill-opacity="0.5"/>
<path d="M1396.88 69C1394.66 69 1392.8 68.241 1391.28 66.723C1389.76 65.205 1389 63.339 1389 61.125C1389 60.7875 1389.05 60.525 1389.14 60.3375C1389.24 60.15 1389.23 60 1389.11 59.8875C1389 59.775 1388.85 59.766 1388.66 59.8605C1388.48 59.955 1388.21 60.0015 1387.88 60C1385.66 60 1383.8 59.241 1382.28 57.723C1380.76 56.205 1380 54.339 1380 52.125C1380 49.911 1380.76 48.045 1382.28 46.527C1383.8 45.009 1385.66 44.25 1387.88 44.25C1388.74 44.25 1389.53 44.3625 1390.24 44.5875C1390.95 44.8125 1391.63 45.15 1392.26 45.6L1401.6 36.2625C1401.15 35.625 1400.81 34.95 1400.59 34.2375C1400.36 33.525 1400.25 32.7375 1400.25 31.875C1400.25 29.6625 1401.01 27.7965 1402.53 26.277C1404.05 24.7575 1405.91 23.9985 1408.12 24C1410.34 24.0015 1412.2 24.7613 1413.72 26.2793C1415.24 27.7973 1416 29.6625 1416 31.875C1416 32.2125 1415.95 32.475 1415.86 32.6625C1415.77 32.85 1415.78 33 1415.89 33.1125C1416 33.225 1416.15 33.2348 1416.34 33.1418C1416.53 33.0488 1416.79 33.0015 1417.13 33C1419.34 33 1421.2 33.7598 1422.72 35.2793C1424.24 36.7988 1425 38.664 1425 40.875C1425 43.086 1424.24 44.952 1422.72 46.473C1421.21 47.994 1419.34 48.753 1417.13 48.75C1416.26 48.75 1415.48 48.6375 1414.76 48.4125C1414.05 48.1875 1413.37 47.85 1412.74 47.4L1403.4 56.7375C1403.85 57.375 1404.19 58.05 1404.41 58.7625C1404.64 59.475 1404.75 60.2625 1404.75 61.125C1404.75 63.3375 1403.99 65.2035 1402.47 66.723C1400.95 68.2425 1399.09 69.0015 1396.88 69Z" fill="#FFCA8D" fill-opacity="0.5"/>
<path d="M1626.18 52.7533L1620.13 63.1765C1618.94 65.2467 1616.74 66.33 1614.51 66.1856H1609.67V71L1603.63 60.1675L1609.67 49.335V54.1494H1616.5L1611.13 44.8816L1621.6 38.8636L1625.96 46.3741C1627.22 48.2277 1627.39 50.7071 1626.18 52.7533ZM1595.66 23H1607.76C1610.13 23 1612.19 24.3721 1613.18 26.346L1615.6 30.5346L1619.79 28.1274L1613.4 38.7432L1600.94 38.9599L1605.13 36.5527L1601.71 30.655L1596.37 39.9228L1585.86 33.9047L1590.22 26.3942C1591.21 24.3962 1593.27 23 1595.66 23ZM1585.6 63.2006L1579.55 52.7773C1578.36 50.7312 1578.53 48.2758 1579.77 46.4223L1582.19 42.2578L1578 39.8506L1590.44 40.0431L1596.85 50.683L1592.66 48.2758L1589.25 54.1494H1600V66.1856H1591.28C1590.15 66.2672 1589.02 66.0307 1588.01 65.503C1587.01 64.9753 1586.17 64.1776 1585.6 63.2006Z" fill="#FFCA8D" fill-opacity="0.5"/>
<path d="M1791.37 51.8578C1791.12 52.018 1790.86 52.1806 1790.6 52.3363C1791.08 57.0606 1795.1 60.75 1800 60.75C1805.22 60.75 1809.44 56.5638 1809.44 51.4V51.3879C1809.15 51.4405 1808.84 51.4873 1808.55 51.5327L1808.51 51.5379C1808.15 51.5932 1807.8 51.6475 1807.43 51.7124C1805.88 51.9903 1804.62 51.8778 1803.53 51.4792C1802.51 51.1085 1801.75 50.5207 1801.18 50.0868L1801.13 50.0463C1800.52 49.5764 1800.12 49.2829 1799.62 49.1021C1799.17 48.9375 1798.53 48.8304 1797.46 49.0209C1795.9 49.2999 1794.5 49.9586 1793.21 50.7136C1792.65 51.0366 1792.14 51.3646 1791.63 51.688L1791.37 51.8578Z" fill="#FFCA8D" fill-opacity="0.5"/>
<path fill-rule="evenodd" clip-rule="evenodd" d="M1780 42.6C1780 34.3033 1780 30.1549 1782.6 27.5775C1785.21 25 1789.4 25 1797.78 25H1802.22C1810.6 25 1814.79 25 1817.4 27.5775C1820 30.1549 1820 34.3033 1820 42.6V51.4C1820 59.6966 1820 63.8452 1817.4 66.4225C1814.79 69 1810.6 69 1802.22 69H1797.78C1789.4 69 1785.21 69 1782.6 66.4225C1780 63.8452 1780 59.6966 1780 51.4V42.6ZM1812.78 51.4C1812.78 50.9175 1812.75 50.4417 1812.7 49.9733L1812.74 49.9432L1812.54 48.9584C1811.39 43.1403 1806.21 38.75 1800 38.75C1792.94 38.75 1787.22 44.4137 1787.22 51.4C1787.22 58.3863 1792.94 64.05 1800 64.05C1807.06 64.05 1812.78 58.3863 1812.78 51.4ZM1791.11 32.15C1790.19 32.15 1789.44 32.8887 1789.44 33.8C1789.44 34.7113 1790.19 35.45 1791.11 35.45H1808.89C1809.81 35.45 1810.56 34.7113 1810.56 33.8C1810.56 32.8887 1809.81 32.15 1808.89 32.15H1791.11Z" fill="#FFCA8D" fill-opacity="0.5"/>
</svg>
