<svg width="290" height="227" viewBox="0 0 290 227" fill="none" xmlns="http://www.w3.org/2000/svg">
<circle cx="64" cy="163" r="64" fill="white"/>
<circle cx="118.5" cy="69.5" r="69.5" fill="white"/>
<ellipse cx="183" cy="148.5" rx="107" ry="78.5" fill="white"/>
<rect x="64" y="185" width="114" height="42" fill="white"/>
<path d="M114.988 152.976C114.347 153.387 113.692 153.805 113.036 154.205C114.246 166.337 124.513 175.812 137 175.812C150.301 175.812 161.083 165.062 161.083 151.8V151.769C160.329 151.904 159.549 152.024 158.795 152.141L158.706 152.154C157.79 152.296 156.885 152.436 155.956 152.602C151.984 153.316 148.776 153.027 145.992 152.003C143.405 151.051 141.454 149.542 140.015 148.428L139.881 148.324C138.32 147.117 137.3 146.363 136.037 145.899C134.888 145.476 133.244 145.201 130.523 145.69C126.535 146.407 122.969 148.098 119.674 150.037C118.263 150.867 116.956 151.709 115.666 152.54L114.988 152.976Z" fill="#0081C7"/>
<path fill-rule="evenodd" clip-rule="evenodd" d="M86 129.2C86 107.892 86 97.2388 92.6389 90.6194C99.2778 84 109.963 84 131.333 84H142.667C164.037 84 174.722 84 181.361 90.6194C188 97.2388 188 107.892 188 129.2V151.8C188 173.107 188 183.761 181.361 190.38C174.722 197 164.037 197 142.667 197H131.333C109.963 197 99.2778 197 92.6389 190.38C86 183.761 86 173.107 86 151.8V129.2ZM169.583 151.8C169.583 150.561 169.514 149.339 169.378 148.136L169.492 148.059L168.977 145.53C166.047 130.588 152.844 119.312 137 119.312C119.005 119.312 104.417 133.858 104.417 151.8C104.417 169.742 119.005 184.287 137 184.287C154.995 184.287 169.583 169.742 169.583 151.8ZM114.333 102.362C111.986 102.362 110.083 104.26 110.083 106.6C110.083 108.94 111.986 110.837 114.333 110.837H159.667C162.014 110.837 163.917 108.94 163.917 106.6C163.917 104.26 162.014 102.362 159.667 102.362H114.333Z" fill="#0081C7"/>
</svg>
