<svg width="71" height="71" viewBox="0 0 71 71" fill="none" xmlns="http://www.w3.org/2000/svg">
<rect width="71" height="71" rx="35.5" fill="#BB6566"/>
<path d="M45.0076 49C44.6236 49 44.3036 48.936 44.0476 48.808C43.8236 48.68 43.5836 48.456 43.3276 48.136L35.0236 37.576L33.5836 36.328L25.2316 25.72C24.8796 25.304 24.7036 24.872 24.7036 24.424C24.7356 23.976 24.8956 23.592 25.1836 23.272C25.4716 22.92 25.8876 22.744 26.4316 22.744C26.9756 22.744 27.4396 22.936 27.8236 23.32L35.8876 33.64L37.1836 34.696L46.1116 46.12C46.5276 46.632 46.7036 47.112 46.6396 47.56C46.5756 48.008 46.3676 48.36 46.0156 48.616C45.6956 48.872 45.3596 49 45.0076 49ZM25.9996 49C25.4876 49 25.0716 48.84 24.7516 48.52C24.4636 48.2 24.3036 47.816 24.2716 47.368C24.2716 46.92 24.4476 46.488 24.7996 46.072L33.6316 35.032L35.6956 37.768L27.2956 48.424C27.0076 48.808 26.5756 49 25.9996 49ZM37.2316 36.52L34.8796 34.12L43.1836 23.608C43.4076 23.288 43.6476 23.064 43.9036 22.936C44.1916 22.808 44.4796 22.744 44.7676 22.744C45.3116 22.744 45.7276 22.92 46.0156 23.272C46.3036 23.592 46.4316 23.992 46.3996 24.472C46.3996 24.92 46.2396 25.352 45.9196 25.768L37.2316 36.52Z" fill="white"/>
</svg>
